<svg width="605" height="160" viewBox="0 0 605 160" fill="none" xmlns="http://www.w3.org/2000/svg">
<path d="M13 12V160H605V12H13ZM434.693 48.1458C439.664 48.1459 444.587 49.1251 449.179 51.0276C453.772 52.9301 457.945 55.7186 461.46 59.2338C464.975 62.749 467.763 66.9223 469.665 71.5151C471.567 76.1079 472.546 81.0304 472.546 86.0015C472.546 96.0406 468.558 105.668 461.459 112.767C454.36 119.866 444.732 123.854 434.693 123.854C429.722 123.854 424.8 122.875 420.207 120.973C415.614 119.071 411.441 116.283 407.926 112.768C404.411 109.253 401.623 105.08 399.721 100.487C397.818 95.8948 396.839 90.9725 396.839 86.0015C396.839 81.0302 397.817 76.1076 399.72 71.5147C401.622 66.9219 404.41 62.7486 407.925 59.2334C411.44 55.7181 415.614 52.9297 420.206 51.0273C424.799 49.1249 429.722 48.1457 434.693 48.1458ZM71.6305 49.1546H89.298L104.159 74.2699H104.734L119.667 49.1546H137.262L114.773 86L137.767 122.847H119.846L104.734 97.694H104.159L89.0465 122.847H71.1984L94.2641 86L71.6305 49.1546ZM151.397 49.1546H168.849L185.653 80.8909H186.372L203.177 49.1546H220.628L193.749 96.7951V122.847H178.277V96.7951L151.397 49.1546ZM239.881 49.1546H268.955C285.686 49.1546 295.365 59.482 295.365 74.1267C295.365 88.8435 285.506 98.9543 268.559 98.9543H255.461V122.847H239.881V49.1546ZM316.328 49.1546H330L361.809 95.5001H362.456V49.1546H377.965V122.847H364.507L332.447 76.4653H331.908V122.847H316.328V49.1546ZM480.666 49.1546H498.333L513.194 74.2699H513.769L528.702 49.1546H546.297L523.808 86L546.802 122.847H528.883L513.769 97.694H513.194L498.082 122.847H480.233L503.299 86L480.666 49.1546ZM255.461 61.8922V86.4683H266.04C274.963 86.4683 279.318 81.4311 279.318 74.1267C279.318 66.7864 274.963 61.8922 265.967 61.8922H255.461ZM434.693 62.0049C431.542 62.0049 428.421 62.6256 425.51 63.8315C422.599 65.0375 419.954 66.8051 417.725 69.0334C415.497 71.2617 413.73 73.907 412.524 76.8184C411.318 79.7298 410.698 82.8502 410.698 86.0014C410.698 92.365 413.227 98.468 417.726 102.968C422.226 107.467 428.329 109.995 434.693 109.995C437.844 109.995 440.964 109.375 443.876 108.169C446.787 106.963 449.432 105.196 451.661 102.968C453.889 100.74 455.657 98.095 456.863 95.1838C458.069 92.2727 458.689 89.1525 458.69 86.0014C458.69 82.8501 458.069 79.7296 456.863 76.8181C455.657 73.9066 453.89 71.2612 451.662 69.0329C449.433 66.8045 446.788 65.037 443.876 63.8311C440.965 62.6252 437.844 62.0047 434.693 62.0049Z" fill="#6653D6" fill-opacity="0.14"/>
<path d="M58.6306 35.2649H55.2519L57.0203 38.1438L79.0405 73.9906L56.5966 109.844L54.7859 112.737H58.1984H76.0466H77.1158L77.6664 111.82L91.4464 88.8847L105.226 111.82L105.777 112.737H106.846H124.767H128.173L126.37 109.846L103.994 73.989L125.875 38.1392L127.63 35.2649H124.262H106.667H105.592L105.043 36.1888L91.4496 59.0504L77.9244 36.1923L77.3757 35.2649H76.2981H58.6306ZM138.397 35.2649H135.161L136.751 38.0833L163.388 85.2914V110.847V112.737H165.277H180.749H182.639V110.847V85.2914L209.274 38.0832L210.864 35.2649H207.628H190.177H189.039L188.507 36.2703L173.013 65.5321L157.52 36.2704L156.987 35.2649H155.85H138.397ZM226.881 35.2649H224.991V37.1546V110.847V112.737H226.881H242.461H244.351V110.847V88.8441H255.559C264.408 88.8441 271.614 86.1982 276.621 81.4274C281.635 76.6498 284.255 69.9188 284.255 62.1267C284.255 54.3803 281.686 47.6208 276.756 42.7979C271.826 37.9759 264.714 35.2649 255.955 35.2649H226.881ZM303.328 35.2649H301.438V37.1546V110.847V112.737H303.328H318.908H320.798V110.847V69.7429L349.953 111.921L350.516 112.737H351.507H364.965H366.854V110.847V37.1546V35.2649H364.965H349.456H347.567V37.1546V78.3506L318.559 36.0853L317.995 35.2649H317H303.328ZM467.666 35.2649H464.287L466.055 38.1438L488.076 73.9906L465.632 109.844L463.821 112.737H467.233H485.082H486.151L486.701 111.82L500.481 88.8846L514.263 111.82L514.813 112.737H515.883H533.802H537.208L535.405 109.846L513.029 73.989L534.91 38.1392L536.665 35.2649H533.297H515.702H514.627L514.078 36.1888L500.485 59.0504L486.959 36.1923L486.411 35.2649H485.333H467.666ZM590.11 146.11H1.88976V1.88976H590.11V146.11ZM436.902 37.2817C432.081 35.2843 426.912 34.2562 421.693 34.2561C416.474 34.256 411.305 35.284 406.483 37.2814C401.661 39.2787 397.28 42.2064 393.589 45.8971C389.898 49.5879 386.971 53.9694 384.974 58.7916C382.977 63.6138 381.949 68.7822 381.949 74.0015C381.949 79.2207 382.977 84.3887 384.975 89.2106C386.972 94.0324 389.9 98.4136 393.59 102.104C397.281 105.794 401.662 108.722 406.484 110.719C411.306 112.716 416.474 113.744 421.693 113.744C432.233 113.744 442.342 109.557 449.795 102.103C457.248 94.6503 461.435 84.5418 461.436 74.0016C461.436 68.7823 460.408 63.6141 458.411 58.792C456.414 53.9699 453.487 49.5883 449.796 45.8976C446.106 42.2069 441.724 39.2792 436.902 37.2817ZM253.04 72.5785H244.351V51.782H252.967C257.132 51.782 259.94 52.9105 261.702 54.615C263.457 56.3135 264.428 58.829 264.428 62.1267C264.428 65.4059 263.457 67.9571 261.698 69.6907C259.939 71.4247 257.15 72.5785 253.04 72.5785ZM413.233 53.5774C415.915 52.4664 418.79 51.8946 421.693 51.8946C424.596 51.8945 427.471 52.4661 430.153 53.577C432.835 54.6879 435.273 56.3163 437.325 58.3691C439.378 60.4219 441.007 62.859 442.117 65.5412C443.228 68.2234 443.8 71.0981 443.8 74.0013C443.8 76.9042 443.228 79.7787 442.117 82.4606C441.006 85.1424 439.377 87.5792 437.324 89.6318C435.272 91.6843 432.835 93.3124 430.153 94.4232C427.471 95.5339 424.596 96.1055 421.693 96.1053C415.831 96.1053 410.208 93.7766 406.063 89.6313C401.917 85.4861 399.588 79.8638 399.588 74.0013C399.588 71.0982 400.159 68.2236 401.27 65.5415C402.381 62.8594 404.009 60.4224 406.062 58.3696C408.114 56.3168 410.551 54.6884 413.233 53.5774Z" stroke="url(#paint0_linear)" stroke-width="3.77953"/>
<defs>
<linearGradient id="paint0_linear" x1="592" y1="112.5" x2="-3.15226e-05" y2="-2.65092e-05" gradientUnits="userSpaceOnUse">
<stop stop-color="#DE0061"/>
<stop offset="0.515625" stop-color="#DE392B"/>
<stop offset="1" stop-color="#FF9612"/>
</linearGradient>
</defs>
</svg>
