<svg width="64" height="64" viewBox="0 0 64 64" fill="none" xmlns="http://www.w3.org/2000/svg">
<g clip-path="url(#clip0)">
<g filter="url(#filter0_d)">
<path d="M53.1099 11.6144C53.1744 11.5319 49.1342 14.9273 44.1317 19.1596C38.3819 24.0241 35.0513 26.8932 35.0765 26.959C35.0985 27.0162 35.671 27.71 36.3494 28.5014C37.0279 29.2927 37.5897 29.9428 37.5979 29.946C37.6123 29.9516 52.8731 11.9169 53.1099 11.6144ZM26.3477 35.5516C26.3124 35.5733 23.003 39.4703 18.9931 44.2114C14.9833 48.9525 11.5113 53.0515 11.2775 53.3203C11.0436 53.5892 10.8716 53.8092 10.8955 53.8092C10.9536 53.8092 29.4441 38.1637 29.463 38.0986C29.4868 38.0168 26.4182 35.508 26.3477 35.5516Z" fill="url(#paint0_radial)"/>
</g>
<g filter="url(#filter1_d)">
<path d="M36.3183 7.00296C36.3043 7.01689 36.6358 7.1625 37.0552 7.32623C38.2501 7.7927 40.4516 8.93944 41.6329 9.71071C43.5692 10.9749 44.8768 12.0343 46.4221 13.5906C46.9814 14.1538 47.4741 14.6194 47.5172 14.6251C47.5602 14.6308 47.7701 14.4789 47.9834 14.2878L48.3709 13.9401L48.1008 13.6578C47.6933 13.2324 46.2735 12.0016 45.5226 11.4224C43.376 9.76656 40.871 8.40225 38.4828 7.589C37.7525 7.34032 36.3584 6.96282 36.3183 7.00296ZM17.0358 13.871C16.8676 13.8683 16.7021 13.8724 16.539 13.8839C13.3007 14.1124 10.6645 16.7247 8.32404 22.0243C7.15721 24.6663 6.42538 27.3741 6.0911 30.2863C5.96879 31.3518 5.96988 34.397 6.09293 35.4488C6.59201 39.7143 7.92002 43.397 10.2252 46.908C10.9565 48.022 11.3761 48.5876 12.0682 49.3927L12.5235 49.9225L13.027 49.3298C13.3039 49.0039 13.5306 48.7113 13.5306 48.679C13.5306 48.6467 13.3184 48.2107 13.0588 47.7104C12.1587 45.976 11.5657 44.3674 11.0648 42.301C10.0869 38.2672 10.1222 33.4061 11.151 30.4311C12.4028 26.8111 14.7162 25.4389 17.411 26.7187C18.1637 27.0761 18.6772 27.4359 19.9446 28.4945C20.5254 28.9796 24.9253 32.6512 29.7221 36.6532C34.519 40.6553 39.4996 44.8121 40.7902 45.8905C43.8758 48.4688 45.1034 49.3522 46.7637 50.1884C47.4033 50.5105 48.5088 50.9012 49.1989 51.0494C49.8103 51.1807 50.7433 51.1997 51.32 51.0928C51.9782 50.9707 52.8535 50.5011 53.3488 50.0038C53.9028 49.4477 54.5412 48.4125 55.3068 46.8298C56.997 43.3357 57.7439 40.0121 57.7499 35.9572C57.7529 33.9438 57.6408 32.6804 57.291 30.7837C56.4258 26.0925 54.3147 21.322 51.3628 17.3867C51.0544 16.9756 50.7753 16.6036 50.7425 16.5599C50.6854 16.4837 50.4912 16.6745 50.0141 17.2742L49.8186 17.5199L50.319 18.2911C52.6757 21.9233 54.0397 25.5624 54.5661 29.6214C54.7287 30.8745 54.7513 33.7842 54.6077 35.0186C54.3178 37.5106 53.5897 40.3407 52.8349 41.9099C52.2441 43.1383 51.3872 43.9446 50.4694 44.1355C49.4441 44.3487 48.2577 43.8596 47.0589 42.7294C46.8498 42.5323 42.2296 37.2252 36.7912 30.9358C29.288 22.2585 26.6815 19.296 25.9853 18.6516C22.6404 15.5561 19.5583 13.9127 17.0358 13.871ZM15.5637 51.6012C15.5383 51.6012 15.361 51.7363 15.1695 51.9013L14.8212 52.2013L15.2123 52.5576C15.7891 53.0834 17.3968 54.2666 18.3179 54.8431C18.7608 55.1203 19.6513 55.6211 20.2966 55.9559C21.3875 56.5218 21.7535 56.6903 21.4027 56.4655C18.8702 54.8426 17.6023 53.8209 16.245 52.3089C15.8958 51.9197 15.589 51.6012 15.5637 51.6012Z" fill="white"/>
</g>
<mask id="mask0" mask-type="alpha" maskUnits="userSpaceOnUse" x="6" y="7" width="52" height="50">
<path d="M36.3183 7.00296C36.3043 7.01689 36.6358 7.1625 37.0552 7.32623C38.2501 7.7927 40.4516 8.93944 41.6329 9.71071C43.5692 10.9749 44.8768 12.0343 46.4221 13.5906C46.9814 14.1538 47.4741 14.6194 47.5172 14.6251C47.5602 14.6308 47.7701 14.4789 47.9834 14.2878L48.3709 13.9401L48.1008 13.6578C47.6933 13.2324 46.2735 12.0016 45.5226 11.4224C43.376 9.76656 40.871 8.40225 38.4828 7.589C37.7525 7.34032 36.3584 6.96282 36.3183 7.00296ZM17.0358 13.871C16.8676 13.8683 16.7021 13.8724 16.539 13.8839C13.3007 14.1124 10.6645 16.7247 8.32404 22.0243C7.15721 24.6663 6.42538 27.3741 6.0911 30.2863C5.96879 31.3518 5.96988 34.397 6.09293 35.4488C6.59201 39.7143 7.92002 43.397 10.2252 46.908C10.9565 48.022 11.3761 48.5876 12.0682 49.3927L12.5235 49.9225L13.027 49.3298C13.3039 49.0039 13.5306 48.7113 13.5306 48.679C13.5306 48.6467 13.3184 48.2107 13.0588 47.7104C12.1587 45.976 11.5657 44.3674 11.0648 42.301C10.0869 38.2672 10.1222 33.4061 11.151 30.4311C12.4028 26.8111 14.7162 25.4389 17.411 26.7187C18.1637 27.0761 18.6772 27.4359 19.9446 28.4945C20.5254 28.9796 24.9253 32.6512 29.7221 36.6532C34.519 40.6553 39.4996 44.8121 40.7902 45.8905C43.8758 48.4688 45.1034 49.3522 46.7637 50.1884C47.4033 50.5105 48.5088 50.9012 49.1989 51.0494C49.8103 51.1807 50.7433 51.1997 51.32 51.0928C51.9782 50.9707 52.8535 50.5011 53.3488 50.0038C53.9028 49.4477 54.5412 48.4125 55.3068 46.8298C56.997 43.3357 57.7439 40.0121 57.7499 35.9572C57.7529 33.9438 57.6408 32.6804 57.291 30.7837C56.4258 26.0925 54.3147 21.322 51.3628 17.3867C51.0544 16.9756 50.7753 16.6036 50.7425 16.5599C50.6854 16.4837 50.4912 16.6745 50.0141 17.2742L49.8186 17.5199L50.319 18.2911C52.6757 21.9233 54.0397 25.5624 54.5661 29.6214C54.7287 30.8745 54.7513 33.7842 54.6077 35.0186C54.3178 37.5106 53.5897 40.3407 52.8349 41.9099C52.2441 43.1383 51.3872 43.9446 50.4694 44.1355C49.4441 44.3487 48.2577 43.8596 47.0589 42.7294C46.8498 42.5323 42.2296 37.2252 36.7912 30.9358C29.288 22.2585 26.6815 19.296 25.9853 18.6516C22.6404 15.5561 19.5583 13.9127 17.0358 13.871ZM15.5637 51.6012C15.5383 51.6012 15.361 51.7363 15.1695 51.9013L14.8212 52.2013L15.2123 52.5576C15.7891 53.0834 17.3968 54.2666 18.3179 54.8431C18.7608 55.1203 19.6513 55.6211 20.2966 55.9559C21.3875 56.5218 21.7535 56.6903 21.4027 56.4655C18.8702 54.8426 17.6023 53.8209 16.245 52.3089C15.8958 51.9197 15.589 51.6012 15.5637 51.6012Z" fill="white"/>
</mask>
<g mask="url(#mask0)">
<g filter="url(#filter2_f)">
<path d="M14.6249 25.1092C10.6455 26.0316 10.3412 31.6529 10.5571 33.3453L18.994 39.1708C27.6319 43.8747 46.2835 53.3127 51.7876 53.4332C58.6677 53.5839 58.266 33.5964 57.7136 37.1118C57.1611 40.6272 54.7004 46.4527 52.4405 49.0641C50.6326 51.1532 47.1004 49.3654 45.5603 48.2103C38.9648 42.7364 20.8784 27.8785 18.1905 25.8625C17.32 25.2097 15.6078 24.8814 14.6249 25.1092Z" fill="#48547D" fill-opacity="0.5"/>
</g>
</g>
</g>
<defs>
<filter id="filter0_d" x="-3.51751" y="-2.7979" width="71.039" height="71.0179" filterUnits="userSpaceOnUse" color-interpolation-filters="sRGB">
<feFlood flood-opacity="0" result="BackgroundImageFix"/>
<feColorMatrix in="SourceAlpha" type="matrix" values="0 0 0 0 0 0 0 0 0 0 0 0 0 0 0 0 0 0 127 0"/>
<feOffset/>
<feGaussianBlur stdDeviation="7.20541"/>
<feColorMatrix type="matrix" values="0 0 0 0 1 0 0 0 0 0 0 0 0 0 0.4 0 0 0 1 0"/>
<feBlend mode="normal" in2="BackgroundImageFix" result="effect1_dropShadow"/>
<feBlend mode="normal" in="SourceGraphic" in2="effect1_dropShadow" result="shape"/>
</filter>
<filter id="filter1_d" x="2.3973" y="7" width="58.9554" height="56.7672" filterUnits="userSpaceOnUse" color-interpolation-filters="sRGB">
<feFlood flood-opacity="0" result="BackgroundImageFix"/>
<feColorMatrix in="SourceAlpha" type="matrix" values="0 0 0 0 0 0 0 0 0 0 0 0 0 0 0 0 0 0 127 0"/>
<feOffset dy="3.6027"/>
<feGaussianBlur stdDeviation="1.80135"/>
<feColorMatrix type="matrix" values="0 0 0 0 0 0 0 0 0 0 0 0 0 0 0 0 0 0 0.5 0"/>
<feBlend mode="normal" in2="BackgroundImageFix" result="effect1_dropShadow"/>
<feBlend mode="normal" in="SourceGraphic" in2="effect1_dropShadow" result="shape"/>
</filter>
<filter id="filter2_f" x="9.25409" y="23.7856" width="49.986" height="30.9" filterUnits="userSpaceOnUse" color-interpolation-filters="sRGB">
<feFlood flood-opacity="0" result="BackgroundImageFix"/>
<feBlend mode="normal" in="SourceGraphic" in2="BackgroundImageFix" result="shape"/>
<feGaussianBlur stdDeviation="0.62576" result="effect1_foregroundBlur"/>
</filter>
<radialGradient id="paint0_radial" cx="0" cy="0" r="1" gradientUnits="userSpaceOnUse" gradientTransform="translate(32.002 32.1925) rotate(135.543) scale(26.4402 7.82854)">
<stop offset="0.286458" stop-color="#FF0066"/>
<stop offset="1" stop-color="#6B5FFF"/>
</radialGradient>
<clipPath id="clip0">
<rect width="64" height="64" fill="white"/>
</clipPath>
</defs>
</svg>
