<?xml version="1.0" encoding="UTF-8" standalone="no"?>
<!-- Created with Inkscape (http://www.inkscape.org/) -->

<svg
   xmlns:dc="http://purl.org/dc/elements/1.1/"
   xmlns:cc="http://creativecommons.org/ns#"
   xmlns:rdf="http://www.w3.org/1999/02/22-rdf-syntax-ns#"
   xmlns:svg="http://www.w3.org/2000/svg"
   xmlns="http://www.w3.org/2000/svg"
   xmlns:xlink="http://www.w3.org/1999/xlink"
   xmlns:sodipodi="http://sodipodi.sourceforge.net/DTD/sodipodi-0.dtd"
   xmlns:inkscape="http://www.inkscape.org/namespaces/inkscape"
   width="64"
   height="64"
   id="svg4152"
   version="1.1"
   inkscape:version="0.92.3 (2405546, 2018-03-11)"
   viewBox="0 0 64 64"
   sodipodi:docname="xypnox-new.svg"
   inkscape:export-filename="/home/xypnox/Projects/personal/design/logo/xypnox-wireframe-diff.png"
   inkscape:export-xdpi="1800"
   inkscape:export-ydpi="1800">
  <defs
     id="defs4154">
    <linearGradient
       inkscape:collect="always"
       id="linearGradient982">
      <stop
         style="stop-color:#a20047;stop-opacity:1"
         offset="0"
         id="stop976" />
      <stop
         id="stop978"
         offset="0.54828608"
         style="stop-color:#962117;stop-opacity:1" />
      <stop
         style="stop-color:#bb6800;stop-opacity:1"
         offset="1"
         id="stop980" />
    </linearGradient>
    <linearGradient
       id="hot-lava"
       inkscape:collect="always">
      <stop
         id="stop881"
         offset="0"
         style="stop-color:#de0061;stop-opacity:1" />
      <stop
         style="stop-color:#de392b;stop-opacity:1;"
         offset="0.54828608"
         id="stop887" />
      <stop
         id="stop883"
         offset="1"
         style="stop-color:#ff9612;stop-opacity:1" />
    </linearGradient>
    <linearGradient
       inkscape:collect="always"
       id="linearGradient1260">
      <stop
         style="stop-color:#bc2265;stop-opacity:1;"
         offset="0"
         id="stop1256" />
      <stop
         style="stop-color:#bc6b22;stop-opacity:1"
         offset="1"
         id="stop1258" />
    </linearGradient>
    <marker
       inkscape:stockid="Arrow1Lstart"
       orient="auto"
       refY="0.0"
       refX="0.0"
       id="Arrow1Lstart"
       style="overflow:visible"
       inkscape:isstock="true">
      <path
         id="path840"
         d="M 0.0,0.0 L 5.0,-5.0 L -12.5,0.0 L 5.0,5.0 L 0.0,0.0 z "
         style="fill-rule:evenodd;stroke:#bc2265;stroke-width:1pt;stroke-opacity:1;fill:#bc2265;fill-opacity:1"
         transform="scale(0.8) translate(12.5,0)" />
    </marker>
    <linearGradient
       inkscape:collect="always"
       id="linearGradient836">
      <stop
         style="stop-color:#0f111a;stop-opacity:1"
         offset="0"
         id="stop832" />
      <stop
         style="stop-color:#0f111a;stop-opacity:1"
         offset="1"
         id="stop834" />
    </linearGradient>
    <linearGradient
       inkscape:collect="always"
       xlink:href="#linearGradient836"
       id="linearGradient838"
       x1="52.363636"
       y1="53.636364"
       x2="12.909091"
       y2="14.727273"
       gradientUnits="userSpaceOnUse" />
    <linearGradient
       inkscape:collect="always"
       xlink:href="#linearGradient1260"
       id="linearGradient1262"
       x1="24.265179"
       y1="24.660273"
       x2="44.207684"
       y2="31.987349"
       gradientUnits="userSpaceOnUse" />
    <linearGradient
       inkscape:collect="always"
       xlink:href="#hot-lava"
       id="linearGradient874"
       x1="12.754845"
       y1="31.531578"
       x2="54.92651"
       y2="31.531578"
       gradientUnits="userSpaceOnUse" />
    <linearGradient
       inkscape:collect="always"
       xlink:href="#hot-lava"
       id="linearGradient942"
       gradientUnits="userSpaceOnUse"
       x1="12.754845"
       y1="31.531578"
       x2="54.92651"
       y2="31.531578"
       gradientTransform="translate(0.08293151,-1.9296769)" />
    <linearGradient
       inkscape:collect="always"
       xlink:href="#hot-lava"
       id="linearGradient962"
       gradientUnits="userSpaceOnUse"
       gradientTransform="translate(0.08293151,-1.9296769)"
       x1="12.754845"
       y1="31.531578"
       x2="54.92651"
       y2="31.531578" />
    <linearGradient
       inkscape:collect="always"
       xlink:href="#linearGradient982"
       id="linearGradient970"
       x1="12.959168"
       y1="30.789743"
       x2="55.04031"
       y2="30.789743"
       gradientUnits="userSpaceOnUse" />
    <linearGradient
       inkscape:collect="always"
       xlink:href="#linearGradient982"
       id="linearGradient974"
       gradientUnits="userSpaceOnUse"
       x1="12.959168"
       y1="30.789743"
       x2="55.04031"
       y2="30.789743"
       gradientTransform="translate(0,1.976562)" />
    <filter
       inkscape:collect="always"
       style="color-interpolation-filters:sRGB"
       id="filter1040"
       x="-0.045862533"
       width="1.0917251"
       y="-0.050346444"
       height="1.1006929">
      <feGaussianBlur
         inkscape:collect="always"
         stdDeviation="0.80677079"
         id="feGaussianBlur1042" />
    </filter>
  </defs>
  <sodipodi:namedview
     id="base"
     pagecolor="#ffffff"
     bordercolor="#666666"
     borderopacity="1.0"
     inkscape:pageopacity="0.0"
     inkscape:pageshadow="2"
     inkscape:zoom="8"
     inkscape:cx="32.422836"
     inkscape:cy="30.302488"
     inkscape:current-layer="layer1"
     showgrid="true"
     inkscape:document-units="px"
     inkscape:grid-bbox="true"
     inkscape:window-width="1532"
     inkscape:window-height="1007"
     inkscape:window-x="24"
     inkscape:window-y="24"
     inkscape:window-maximized="0"
     inkscape:snap-global="true"
     inkscape:snap-page="true"
     showguides="false"
     inkscape:guide-bbox="true"
     inkscape:snap-object-midpoints="true"
     inkscape:snap-bbox="true"
     inkscape:bbox-paths="true"
     inkscape:bbox-nodes="true"
     inkscape:snap-bbox-edge-midpoints="true"
     inkscape:snap-bbox-midpoints="true"
     inkscape:object-paths="true"
     inkscape:snap-intersection-paths="true"
     inkscape:snap-smooth-nodes="true"
     inkscape:snap-midpoints="true"
     inkscape:snap-text-baseline="true"
     inkscape:snap-center="true">
    <sodipodi:guide
       position="32,68.636364"
       orientation="1,0"
       id="guide825"
       inkscape:locked="false" />
    <sodipodi:guide
       position="-57.597061,32.012652"
       orientation="0,1"
       id="guide830"
       inkscape:locked="false" />
    <sodipodi:guide
       position="16.034449,16.333939"
       orientation="1,0"
       id="guide954"
       inkscape:locked="false" />
  </sodipodi:namedview>
  <metadata
     id="metadata4157">
    <rdf:RDF>
      <cc:Work
         rdf:about="">
        <dc:format>image/svg+xml</dc:format>
        <dc:type
           rdf:resource="http://purl.org/dc/dcmitype/StillImage" />
        <dc:title></dc:title>
      </cc:Work>
    </rdf:RDF>
  </metadata>
  <g
     id="layer1"
     inkscape:label="Layer 1"
     inkscape:groupmode="layer" />
  <g
     inkscape:groupmode="layer"
     id="layer2"
     inkscape:label="Layer 2">
    <g
       id="g4778"
       style="stroke:none;stroke-opacity:1;fill:#56b0ff;fill-opacity:1">
      <rect
         style="opacity:1;fill:url(#linearGradient838);fill-opacity:1;stroke:none;stroke-width:1.10000002;stroke-miterlimit:4;stroke-dasharray:none;stroke-opacity:1"
         id="rect830"
         width="64"
         height="64"
         x="0"
         y="0"
         ry="0"
         inkscape:export-filename="/home/xypnox/xypnox-wireframe.png"
         inkscape:export-xdpi="768"
         inkscape:export-ydpi="768" />
      <path
         sodipodi:nodetypes="cscccccccsccscccscsscccscscccscscccccscccsccccscssccccccccccsscccccccscsc"
         inkscape:connector-curvature="0"
         id="path972"
         d="m 23.507853,13.537109 c -1.691853,0.0098 -3.748334,0.547564 -5.515828,1.704924 -1.763715,1.154885 -3.399144,3.965641 -4.39508,5.476716 0,0 0.06755,0.862391 -0.190596,0.491797 -0.726594,1.038714 -0.342733,3.691444 -0.369243,4.982813 l 0.0325,1.929733 4.464844,-3.125 0.701172,-4.753906 c 0.309823,-0.159187 0.590199,-0.194922 0.988281,0.02539 0.455515,0.252098 0.977996,0.763817 1.464844,1.388672 0.973695,1.249709 1.826317,2.932517 2.191406,3.779297 1.46727,3.530031 2.175073,6.457614 4.692797,11.939072 -1.467013,1.737921 -3.152163,3.702532 -4.506065,5.271996 -1.971597,2.285506 -7.032435,6.99401 -7.032435,6.99401 v 1.976562 l 2.378906,-1.283203 c 0,0 2.845387,-1.540738 7.951172,-6.203125 0.939,-0.857455 1.941658,-1.967952 2.972656,-3.125 1.836044,3.566572 4.629622,7.887777 8.582032,9.900391 2.069767,1.05395 4.454207,1.446947 7.060546,0.705078 2.60634,-0.74187 5.420235,-2.595724 8.447266,-5.957031 l 1.750695,-1.861373 -0.08398,-1.917969 c 0,0 -6.950171,4.969105 -12.002086,0.646743 -2.957202,-2.530148 -5.563925,-5.420335 -7.2115,-9.269745 1.514813,-1.849299 3.031076,-3.696362 4.503906,-5.402344 3.695319,-4.280296 6.578125,-7.691406 6.578125,-7.691406 l 1.201172,-1.421875 -0.03055,-1.929733 c -1.530021,0.647361 -5.082705,2.87014 -7.169921,4.886719 -1.939908,1.874256 -4.392906,5.906989 -6.59566,8.410154 -1.182302,-3.029699 -1.227894,-5.967871 -2.406208,-8.114354 -3.207693,-5.843309 -6.682446,-8.162847 -7.769573,-8.389553 -0.220826,-0.04605 -0.449881,-0.0658 -0.683595,-0.06445 z m 0.01487,2.375 c 0.178693,-10e-4 0.344331,0.01327 0.496094,0.04492 0.844741,0.17616 3.357056,1.025761 6.484375,6.722656 1.20991,2.204041 2.315109,5.365589 3.626953,8.677734 l 0.269531,0.677735 0.480469,-0.548828 c 2.371688,-2.711635 3.701208,-4.29272 5.756735,-6.278683 0.966836,-0.934115 2.807938,-4.588525 3.642459,-5.246708 -1.077899,1.270013 -2.39332,3.904014 -4.980262,6.900475 -1.668645,1.887027 -3.113566,3.149064 -4.418932,4.624916 l 0.0625,1.878906 c 1.685996,3.980971 3.788133,7.988552 6.988281,10.726562 3.59891,3.079187 6.784952,2.06687 8.953286,1.533283 -2.387291,2.317713 -4.353018,3.139741 -6.34828,3.707673 -2.392693,0.681057 -3.706964,0.599783 -5.613355,-0.370974 -3.812783,-1.941514 -6.484218,-5.592039 -8.68376,-8.927566 l -0.871555,-1.321682 -5.552735,4.423828 c 1.414392,-1.639585 3.458846,-2.748715 4.983585,-4.554327 l 0.183594,-0.216797 -0.119141,-0.257813 0.07802,-1.674779 -5.240124,-11.340844 -0.002,-0.0039 v -0.002 c -0.393209,-0.912001 -0.218989,-2.979142 -1.273788,-4.332945 -0.5274,-0.676902 -1.257015,-1.519503 -1.89418,-1.872133 -0.637166,-0.35263 -2.064532,-1.51708 -2.392697,-0.803997 l -0.708866,1.540327 -0.640625,3.433594 -3.468252,2.364535 c -0.03483,-0.394352 0.426495,0.43292 0.442865,-0.364535 0.02507,-1.22136 0.236221,-2.646675 0.742187,-3.369141 l 0.0039,-0.0039 0.0039,-0.0059 c 0.231037,-0.351462 0.503754,-0.708679 0.809813,-1.064084 0.888278,-1.031496 2.057401,-2.047722 3.303468,-2.86365 1.675401,-1.097057 3.495357,-1.823954 4.896484,-1.832031 z"
         style="color:#000000;font-style:normal;font-variant:normal;font-weight:normal;font-stretch:normal;font-size:medium;line-height:normal;font-family:sans-serif;font-variant-ligatures:normal;font-variant-position:normal;font-variant-caps:normal;font-variant-numeric:normal;font-variant-alternates:normal;font-feature-settings:normal;text-indent:0;text-align:start;text-decoration:none;text-decoration-line:none;text-decoration-style:solid;text-decoration-color:#000000;letter-spacing:normal;word-spacing:normal;text-transform:none;writing-mode:lr-tb;direction:ltr;text-orientation:mixed;dominant-baseline:auto;baseline-shift:baseline;text-anchor:start;white-space:normal;shape-padding:0;clip-rule:nonzero;display:inline;overflow:visible;visibility:visible;opacity:0.447;isolation:auto;mix-blend-mode:normal;color-interpolation:sRGB;color-interpolation-filters:linearRGB;solid-color:#000000;solid-opacity:1;vector-effect:none;fill:url(#linearGradient974);fill-opacity:1;fill-rule:evenodd;stroke:none;stroke-width:0.88985366;stroke-linecap:round;stroke-linejoin:miter;stroke-miterlimit:19.39999962;stroke-dasharray:none;stroke-dashoffset:0;stroke-opacity:1;paint-order:stroke fill markers;color-rendering:auto;image-rendering:auto;shape-rendering:auto;text-rendering:auto;enable-background:accumulate;filter:url(#filter1040)" />
      <path
         style="color:#000000;font-style:normal;font-variant:normal;font-weight:normal;font-stretch:normal;font-size:medium;line-height:normal;font-family:sans-serif;font-variant-ligatures:normal;font-variant-position:normal;font-variant-caps:normal;font-variant-numeric:normal;font-variant-alternates:normal;font-feature-settings:normal;text-indent:0;text-align:start;text-decoration:none;text-decoration-line:none;text-decoration-style:solid;text-decoration-color:#000000;letter-spacing:normal;word-spacing:normal;text-transform:none;writing-mode:lr-tb;direction:ltr;text-orientation:mixed;dominant-baseline:auto;baseline-shift:baseline;text-anchor:start;white-space:normal;shape-padding:0;clip-rule:nonzero;display:inline;overflow:visible;visibility:visible;opacity:1;isolation:auto;mix-blend-mode:normal;color-interpolation:sRGB;color-interpolation-filters:linearRGB;solid-color:#000000;solid-opacity:1;vector-effect:none;fill:url(#linearGradient970);fill-opacity:1;fill-rule:evenodd;stroke:none;stroke-width:0.88985366;stroke-linecap:round;stroke-linejoin:miter;stroke-miterlimit:19.39999962;stroke-dasharray:none;stroke-dashoffset:0;stroke-opacity:1;paint-order:stroke fill markers;color-rendering:auto;image-rendering:auto;shape-rendering:auto;text-rendering:auto;enable-background:accumulate"
         d="m 23.507853,11.560547 c -1.691853,0.0098 -3.748334,0.547564 -5.515828,1.704924 -1.763715,1.154885 -3.399144,3.965641 -4.39508,5.476716 0,0 0.06755,0.862391 -0.190596,0.491797 -0.726594,1.038714 -0.342733,3.691444 -0.369243,4.982813 l 0.0325,1.929733 4.464844,-3.125 0.701172,-4.753906 c 0.309823,-0.159187 0.590199,-0.194922 0.988281,0.02539 0.455515,0.252098 0.977996,0.763817 1.464844,1.388672 0.973695,1.249709 1.826317,2.932517 2.191406,3.779297 1.46727,3.530031 2.175073,6.457614 4.692797,11.939072 -1.467013,1.737921 -3.152163,3.702532 -4.506065,5.271996 -1.971597,2.285506 -7.032435,6.99401 -7.032435,6.99401 v 1.976562 l 2.378906,-1.283203 c 0,0 2.845387,-1.540738 7.951172,-6.203125 0.939,-0.857455 1.941658,-1.967952 2.972656,-3.125 1.836044,3.566572 4.629622,7.887777 8.582032,9.900391 2.069767,1.05395 4.454207,1.446947 7.060546,0.705078 2.60634,-0.74187 5.420235,-2.595724 8.447266,-5.957031 l 1.666715,-1.80278 -0.08398,-1.917969 c 0,0 -6.866191,4.910512 -11.918106,0.58815 -2.957202,-2.530148 -5.563925,-5.420335 -7.2115,-9.269745 1.514813,-1.849299 3.031076,-3.696362 4.503906,-5.402344 3.695319,-4.280296 6.578125,-7.691406 6.578125,-7.691406 l 1.201172,-1.421875 -0.03055,-1.929733 c -1.530021,0.647361 -5.082705,2.87014 -7.169921,4.886719 -1.939908,1.874256 -4.392906,5.906989 -6.59566,8.410154 -1.182302,-3.029699 -3.504429,-9.535548 -4.101621,-10.431719 -1.540993,-2.312475 -4.987033,-5.845482 -6.07416,-6.072188 -0.220826,-0.04605 -0.449881,-0.0658 -0.683594,-0.06445 z m 0.01487,2.375 c 0.178693,-10e-4 0.344331,0.01327 0.496094,0.04492 0.844741,0.17616 3.357056,1.025761 6.484375,6.722656 1.20991,2.204041 2.108983,5.586955 3.420827,8.8991 l 0.475657,0.862619 0.428956,-0.900713 c 2.371688,-2.711635 3.858372,-4.083724 5.913899,-6.069687 0.966836,-0.934115 2.702287,-4.851886 3.536808,-5.510069 -1.077899,1.270013 -2.39332,3.904014 -4.980262,6.900475 -1.543078,1.78735 -2.510454,1.906365 -4.08757,3.832269 l -0.143484,1.107148 -0.125378,1.564405 c 1.685996,3.980971 3.788133,7.988552 6.988281,10.726562 3.59891,3.079187 6.100214,2.462249 8.268548,1.928662 -2.387291,2.317713 -3.66828,2.744362 -5.663542,3.312294 -2.392693,0.681057 -3.706964,0.599783 -5.613355,-0.370974 -3.812783,-1.941514 -6.925074,-5.314139 -8.70845,-8.889513 l -0.815615,-1.46911 -4.099965,4.530761 c 1.414392,-1.639585 1.974826,-2.746273 3.499565,-4.551885 l 0.183594,-0.216797 -0.119141,-0.257813 0.07802,-1.674779 -5.240124,-11.340844 -0.002,-0.0039 v -0.002 c -0.393209,-0.912001 -0.218989,-2.979142 -1.273788,-4.332945 -0.5274,-0.676902 -1.257015,-1.519503 -1.89418,-1.872133 -0.637166,-0.35263 -1.679234,-1.01204 -2.325418,-0.566365 l -0.776145,1.302695 -0.640625,3.433594 -3.468252,2.364535 c -0.03483,-0.394352 0.426495,0.43292 0.442865,-0.364535 0.02507,-1.22136 0.236221,-2.646675 0.742187,-3.369141 l 0.0039,-0.0039 0.0039,-0.0059 c 0.231037,-0.351462 0.503754,-0.708679 0.809813,-1.064084 0.888278,-1.031496 2.057401,-2.047722 3.303468,-2.86365 1.675401,-1.097057 3.495357,-1.823954 4.896484,-1.832031 z"
         id="path944"
         inkscape:connector-curvature="0"
         sodipodi:nodetypes="cscccccccsccscccscsscccscscccscscccccscccscscccscssccccccccccsscccccccscscc" />
      <path
         style="color:#000000;font-style:normal;font-variant:normal;font-weight:normal;font-stretch:normal;font-size:medium;line-height:normal;font-family:sans-serif;font-variant-ligatures:normal;font-variant-position:normal;font-variant-caps:normal;font-variant-numeric:normal;font-variant-alternates:normal;font-feature-settings:normal;text-indent:0;text-align:start;text-decoration:none;text-decoration-line:none;text-decoration-style:solid;text-decoration-color:#000000;letter-spacing:normal;word-spacing:normal;text-transform:none;writing-mode:lr-tb;direction:ltr;text-orientation:mixed;dominant-baseline:auto;baseline-shift:baseline;text-anchor:start;white-space:normal;shape-padding:0;clip-rule:nonzero;display:inline;overflow:visible;visibility:visible;opacity:1;isolation:auto;mix-blend-mode:normal;color-interpolation:sRGB;color-interpolation-filters:linearRGB;solid-color:#000000;solid-opacity:1;vector-effect:none;fill:url(#linearGradient962);fill-opacity:1;fill-rule:evenodd;stroke:none;stroke-width:0.88985366;stroke-linecap:round;stroke-linejoin:miter;stroke-miterlimit:19.39999962;stroke-dasharray:none;stroke-dashoffset:0;stroke-opacity:1;paint-order:stroke fill markers;color-rendering:auto;image-rendering:auto;shape-rendering:auto;text-rendering:auto;enable-background:accumulate"
         d="m 23.486328,11.115234 c -1.691853,0.0098 -3.611411,0.819202 -5.378906,1.976563 -1.76455,1.155432 -3.369404,2.66594 -4.365234,4.177734 -0.725387,1.038677 -0.873899,2.56493 -0.900391,3.855469 -0.02652,1.291965 0.105469,2.357422 0.105469,2.357422 l 0.08984,0.734375 4.464844,-3.125 0.703125,-4.753906 c 0.309823,-0.159187 0.590199,-0.194923 0.988281,0.02539 0.455516,0.252099 0.976043,0.763818 1.462891,1.388672 0.973695,1.249709 1.82827,2.932517 2.193359,3.779297 1.467341,3.530202 2.546467,7.2935 5.064453,12.775391 -1.467012,1.73792 -2.942973,3.493035 -4.296874,5.0625 -1.971597,2.285506 -5.771485,6.367187 -5.771485,6.367187 l -1.841797,1.976563 2.378906,-1.283203 c 0,0 2.845387,-1.540739 7.951172,-6.203126 0.938399,-0.856906 1.940427,-1.966866 2.970704,-3.123046 1.836071,3.566314 4.630126,7.88608 8.582031,9.898437 2.069767,1.05395 4.454207,1.446948 7.060547,0.705078 2.606339,-0.741869 5.422187,-2.595724 8.449218,-5.957031 l 1.613282,-1.791016 -2.146485,1.097657 c 0,0 -5.332851,2.775486 -10.384765,-1.546875 -2.956591,-2.529625 -4.981511,-6.311573 -6.628907,-10.160157 1.515137,-1.849697 3.030762,-3.697951 4.503907,-5.404297 3.695318,-4.280296 6.576172,-7.691406 6.576172,-7.691406 l 1.203124,-1.421875 -1.716796,0.72461 c -1.530021,0.647361 -3.36591,2.14553 -5.453125,4.162109 -1.939349,1.873716 -4.102606,4.257425 -6.304688,6.759766 -1.182008,-3.02904 -2.230122,-5.986754 -3.408203,-8.132813 -3.207693,-5.843309 -5.992951,-6.939309 -7.080078,-7.166015 -0.220825,-0.04605 -0.449881,-0.0658 -0.683594,-0.06445 z m 0.0059,0.890625 c 0.178692,-0.001 0.34433,0.01327 0.496093,0.04492 0.844741,0.17616 3.355103,1.025761 6.482422,6.722657 1.209911,2.20404 2.317062,5.365589 3.628906,8.677734 l 0.267579,0.677734 0.480468,-0.548828 c 2.371688,-2.711635 4.676895,-5.23474 6.732422,-7.220703 0.964987,-0.932329 1.865984,-1.717479 2.699219,-2.375 -1.078846,1.271116 -2.014817,2.386888 -4.599609,5.380859 -1.543079,1.78735 -3.12601,3.712769 -4.703126,5.638672 l -0.169921,0.208985 0.105468,0.246093 c 1.685996,3.980971 3.788134,7.988553 6.988282,10.726563 3.599249,3.079478 7.263413,2.771969 9.43164,2.238281 -2.387572,2.318156 -4.631488,3.857791 -6.626953,4.425781 -2.392693,0.681057 -4.507672,0.330132 -6.414062,-0.640625 -3.812782,-1.941513 -6.730297,-6.45197 -8.513672,-10.027343 l -0.294922,-0.591797 -0.4375,0.496094 c -1.181099,1.337189 -2.291898,2.552403 -3.3125,3.484374 -1.903136,1.737864 -3.131429,2.656121 -4.351563,3.589844 1.201516,-1.311216 1.906523,-2.045556 2.910157,-3.208984 1.414392,-1.639586 2.951823,-3.469779 4.476562,-5.275391 l 0.181641,-0.216797 -0.119141,-0.257812 C 26.23318,28.602747 25.191298,24.849547 23.667969,21.185547 v -0.0039 l -0.002,-0.002 c -0.39321,-0.912002 -1.251842,-2.620806 -2.306641,-3.97461 -0.5274,-0.676902 -1.099163,-1.268463 -1.736328,-1.621094 -0.637166,-0.35263 -1.420223,-0.428095 -2.066406,0.01758 l -0.158203,0.109376 -0.720704,4.871093 -2.882812,2.017578 c -0.03483,-0.394351 -0.08082,-0.657623 -0.06445,-1.455078 0.02507,-1.221359 0.236221,-2.646675 0.742187,-3.36914 l 0.0039,-0.0039 0.0039,-0.0059 c 0.901579,-1.371516 2.437879,-2.830677 4.113281,-3.927734 1.675402,-1.097058 3.49731,-1.823955 4.898438,-1.832032 z"
         id="path940"
         inkscape:connector-curvature="0" />
    </g>
  </g>
</svg>
