<svg width="915" height="853" viewBox="0 0 915 853" fill="none" xmlns="http://www.w3.org/2000/svg">
<g clip-path="url(#clip0_433_603)">
<path d="M203.278 301.806C233.275 301.806 257.593 277.489 257.593 247.491C257.593 217.494 233.275 193.176 203.278 193.176C173.281 193.176 148.963 217.494 148.963 247.491C148.963 277.489 173.281 301.806 203.278 301.806Z" fill="#FF6584"/>
<path d="M888.131 429.58C888.131 661.54 700.09 849.58 468.131 849.58C236.171 849.58 -129.865 578.318 48.1308 429.58C227.266 279.89 323.473 49.6742 468.131 9.58019C691.663 -52.3752 888.131 197.621 888.131 429.58Z" fill="#39374E"/>
<path d="M445.631 556.681L458.881 579.631L472.131 602.58H445.631H419.131L432.381 579.631L445.631 556.681Z" fill="#FF6584"/>
<path d="M691.178 247.781C691.178 247.781 708.795 235.118 710.998 241.174C713.2 247.23 697.784 258.241 697.784 258.241L691.178 247.781Z" fill="#FFB9B9"/>
<path d="M753.666 264.022C753.666 285.914 744.24 286.594 728.885 286.594C713.53 286.594 698.061 285.914 698.061 264.022C698.061 242.129 710.508 224.382 725.863 224.382C741.218 224.382 753.666 242.129 753.666 264.022Z" fill="#2F2E41"/>
<path d="M715.953 263.746C715.953 263.746 718.155 280.263 707.695 281.364C697.234 282.465 741.829 285.768 741.829 285.768C741.829 285.768 730.267 275.308 736.324 267.05C742.38 258.791 715.953 263.746 715.953 263.746Z" fill="#FFB9B9"/>
<path opacity="0.1" d="M715.953 263.746C715.953 263.746 718.155 280.263 707.695 281.364C697.234 282.465 741.829 285.768 741.829 285.768C741.829 285.768 730.267 275.308 736.324 267.05C742.38 258.791 715.953 263.746 715.953 263.746Z" fill="black"/>
<path d="M660.347 558.841L656.493 591.324C656.493 591.324 637.224 614.997 649.336 613.346C661.448 611.694 669.156 610.042 669.156 607.84C669.156 605.638 670.808 596.829 672.459 596.829C674.111 596.829 674.111 602.885 674.111 602.885C676 602.079 677.838 601.16 679.616 600.132C680.167 599.582 680.717 580.863 680.717 580.863C680.717 580.863 682.369 571.504 679.066 567.099C675.763 562.695 676.313 558.841 676.313 558.841H660.347Z" fill="#2F2E41"/>
<path d="M748.986 556.639C748.986 556.639 747.334 589.121 745.132 590.773C742.93 592.425 736.874 616.098 747.885 612.795C758.896 609.492 763.851 606.188 763.851 603.986C763.851 601.784 763.851 586.369 764.952 583.065C766.053 579.762 764.952 573.706 764.401 573.155C763.851 572.605 762.75 557.189 762.75 557.189L748.986 556.639Z" fill="#2F2E41"/>
<path d="M688.976 365.598C688.976 365.598 671.359 415.698 670.258 426.709C669.157 437.72 671.359 475.158 671.359 475.158C671.359 475.158 655.393 559.942 658.696 560.493C661.999 561.043 677.415 563.245 677.965 560.493C678.516 557.74 680.718 553.886 680.168 552.234C679.617 550.583 681.819 544.527 681.819 541.224C681.819 537.92 692.28 500.483 691.729 497.73C691.179 494.977 701.088 454.237 702.74 450.933C704.392 447.63 708.796 424.507 708.796 424.507C708.796 424.507 733.571 492.225 734.121 493.876C734.672 495.528 736.874 498.281 735.773 498.831C734.672 499.382 737.425 503.236 737.425 503.236C737.425 503.236 746.784 546.178 746.784 547.28C746.784 548.381 745.683 557.189 747.885 557.74C750.087 558.291 763.851 561.594 764.952 557.74C766.053 553.886 758.346 489.472 758.346 489.472C758.346 489.472 748.986 461.394 751.739 454.237C754.492 447.079 748.986 404.137 746.784 400.833C744.582 397.53 744.031 377.71 744.031 377.71L688.976 365.598Z" fill="#232234"/>
<path d="M725.588 272.831C735.318 272.831 743.206 264.943 743.206 255.213C743.206 245.483 735.318 237.595 725.588 237.595C715.858 237.595 707.971 245.483 707.971 255.213C707.971 264.943 715.858 272.831 725.588 272.831Z" fill="#FFB9B9"/>
<path d="M715.954 277.51C715.954 277.51 735.774 278.061 736.875 276.409C737.976 274.757 765.504 280.263 765.504 291.274C765.504 302.285 749.538 345.228 749.538 345.228C749.538 345.228 743.482 376.059 745.133 379.362C746.785 382.665 684.022 372.205 685.674 366.699C687.326 361.194 696.685 349.082 684.573 338.621C672.461 328.161 667.506 317.15 667.506 317.15L681.82 279.162C681.82 279.162 696.134 276.96 699.438 279.162C702.741 281.364 715.954 277.51 715.954 277.51Z" fill="#6C63FF"/>
<path d="M671.359 319.903L667.505 317.15C667.505 317.15 631.719 279.712 641.079 272.555C650.438 265.398 664.202 258.792 670.808 258.241C677.415 257.69 682.92 252.735 682.92 252.735C682.92 252.735 690.078 240.073 695.583 248.331C701.089 256.589 707.145 259.342 699.437 262.095C691.729 264.848 686.774 263.746 682.92 266.499C679.066 269.252 664.202 273.656 670.808 275.308C674.597 276.226 678.285 277.517 681.819 279.162L688.976 291.825L671.359 319.903Z" fill="#6C63FF"/>
<path d="M733.571 412.946C733.571 412.946 719.257 433.866 729.717 432.765C740.177 431.664 745.132 417.35 745.132 417.35L733.571 412.946Z" fill="#FFB9B9"/>
<path d="M761.65 288.521L765.504 291.274C765.504 291.274 778.166 360.643 765.504 378.811C752.841 396.98 751.74 395.878 751.74 395.878C751.74 395.878 749.538 394.227 748.436 405.238C747.335 416.249 748.987 420.653 745.684 420.653C742.38 420.653 727.516 417.35 728.617 414.597C729.718 411.844 736.875 395.878 737.426 392.025C737.976 388.171 740.729 379.362 741.83 374.407C742.931 369.452 736.875 366.699 739.628 356.239C742.381 345.778 746.234 327.06 746.234 323.206C746.234 319.352 761.65 288.521 761.65 288.521Z" fill="#6C63FF"/>
<path d="M742.654 239.522C742.654 245.452 734.52 250.258 724.486 250.258C714.452 250.258 705.217 253.434 705.217 247.505C705.217 241.576 714.452 228.787 724.486 228.787C734.52 228.787 742.654 233.593 742.654 239.522Z" fill="#2F2E41"/>
<path d="M698.226 267.737C698.226 267.737 697.485 287.695 717.317 286.594C737.15 285.493 714.637 269.534 714.637 269.534L698.226 267.737Z" fill="#2F2E41"/>
<path d="M383.844 548.542L384.696 496.142L420.131 431.315L384.829 487.922L385.212 464.361L409.633 417.459L385.313 458.126L386.002 415.75L412.153 378.41L386.11 409.086L386.54 331.383L383.837 434.248L384.059 430.004L357.471 389.307L383.633 438.15L381.155 485.477L381.081 484.221L350.43 441.393L380.989 488.658L380.679 494.577L380.623 494.666L380.649 495.152L374.363 615.224H382.761L383.769 553.204L414.252 506.055L383.844 548.542Z" fill="#68658C"/>
<path d="M811.844 649.542L812.696 597.142L848.131 532.315L812.829 588.922L813.212 565.361L837.633 518.459L813.313 559.126L814.002 516.75L840.153 479.41L814.11 510.086L814.54 432.383L811.837 535.248L812.059 531.004L785.471 490.307L811.633 539.15L809.155 586.477L809.081 585.221L778.43 542.393L808.989 589.658L808.679 595.577L808.623 595.666L808.649 596.152L802.363 716.224H810.761L811.769 654.204L842.252 607.055L811.844 649.542Z" fill="#68658C"/>
<path d="M914.131 600.58H548.131V852.58H914.131V600.58Z" fill="#68658C"/>
<path d="M304.725 600.58V691.58H182.131V852.58H565.631V600.58H304.725Z" fill="#68658C"/>
<path opacity="0.1" d="M665.131 600.58H548.131V691.58H665.131V600.58Z" fill="black"/>
<path opacity="0.1" d="M914.131 761.58H797.131V852.58H914.131V761.58Z" fill="black"/>
<path d="M359.631 298.29C373.99 298.29 385.631 286.649 385.631 272.29C385.631 257.931 373.99 246.29 359.631 246.29C345.271 246.29 333.631 257.931 333.631 272.29C333.631 286.649 345.271 298.29 359.631 298.29Z" fill="#6C63FF"/>
<path d="M555.131 180.58H511.131V224.58H555.131V180.58Z" fill="#6C63FF"/>
</g>
<defs>
<clipPath id="clip0_433_603">
<rect width="913.223" height="852.58" fill="white" transform="translate(0.908203)"/>
</clipPath>
</defs>
</svg>
