<svg width="811" height="596" viewBox="0 0 811 596" fill="none" xmlns="http://www.w3.org/2000/svg">
<g clip-path="url(#clip0_433_530)">
<path d="M378.969 471.236L391.767 465.509L375.738 412.214L356.848 420.666L378.969 471.236Z" fill="#FFB6B6"/>
<path d="M369.802 456.767L388.947 443.247L394.231 451.765L421.231 453.094C422.564 453.159 423.842 453.649 424.877 454.492C425.913 455.335 426.651 456.487 426.986 457.78C427.32 459.073 427.232 460.438 426.735 461.677C426.239 462.917 425.359 463.965 424.224 464.669L400.555 479.352L391.248 473.457L394.882 482.871L385.958 488.407L369.802 456.767Z" fill="#2F2E41"/>
<path d="M707.724 370.361C707.724 365.001 705.924 360.651 703.714 360.641H101.224C99.0041 360.651 97.2141 365.001 97.2041 370.361V591.004C97.2042 591.501 97.019 591.981 96.6847 592.35C96.3503 592.718 95.8907 592.949 95.3954 592.997C93.7783 593.153 92.1612 593.297 90.5441 593.431C90.5041 593.431 90.4641 593.441 90.4241 593.441C89.5441 593.521 88.6641 593.581 87.7841 593.651H87.7741C87.3214 592.814 86.874 591.97 86.4319 591.118C86.2823 590.831 86.2042 590.512 86.2041 590.189V357.751C86.2041 356.271 86.2641 354.781 86.3641 353.311C86.5068 351.292 86.7572 349.283 87.1141 347.291C88.8041 338.001 92.6241 331.711 96.9641 331.691H707.964C708.598 331.695 709.223 331.828 709.804 332.081C710.657 332.458 711.428 332.998 712.074 333.671C712.951 334.582 713.701 335.608 714.304 336.721C716.444 340.491 717.974 346.111 718.514 352.651C718.514 352.711 718.524 352.771 718.524 352.831C718.664 354.451 718.734 356.101 718.724 357.751L718.864 379.181L718.954 391.961L719.224 432.061L719.324 446.301L719.764 592.501C719.764 593.031 719.553 593.54 719.178 593.915C718.803 594.29 718.295 594.501 717.764 594.501H709.724C709.194 594.501 708.685 594.29 708.31 593.915C707.935 593.54 707.724 593.031 707.724 592.501V370.361Z" fill="#E6E6E6"/>
<path d="M544.008 231.415H479.088C478.17 231.416 477.29 231.783 476.641 232.433C475.993 233.083 475.629 233.964 475.63 234.883V337.436H547.475V234.883C547.476 234.427 547.386 233.976 547.212 233.555C547.038 233.134 546.782 232.752 546.46 232.43C546.138 232.108 545.756 231.853 545.335 231.678C544.914 231.504 544.463 231.415 544.008 231.415ZM511.766 289.685C509.736 289.675 507.792 288.865 506.356 287.429C504.921 285.993 504.11 284.049 504.101 282.019V270.19C504.103 268.159 504.912 266.211 506.349 264.775C507.786 263.339 509.735 262.533 511.766 262.533C513.798 262.533 515.747 263.339 517.184 264.775C518.621 266.211 519.43 268.159 519.432 270.19V282.019C519.423 284.049 518.612 285.993 517.177 287.429C515.741 288.865 513.797 289.675 511.766 289.685Z" fill="#2F2E41"/>
<path d="M475.407 334.156V344.05C475.408 344.563 475.612 345.054 475.975 345.417C476.337 345.779 476.829 345.983 477.342 345.984H545.764C546.276 345.982 546.767 345.777 547.129 345.415C547.491 345.053 547.696 344.562 547.698 344.05V334.156H475.407Z" fill="#3F3D56"/>
<path d="M391.998 88.5991C391.25 90.4801 390.1 92.1743 388.627 93.5625C387.154 94.9507 385.395 95.9991 383.473 96.6338C381.551 97.2685 379.513 97.4741 377.504 97.2361C375.494 96.9982 373.56 96.3224 371.84 95.2564L280.202 159.095L277.672 133.655L367.774 75.2788C369.756 72.5072 372.686 70.5591 376.009 69.8035C379.332 69.048 382.816 69.5375 385.802 71.1794C388.788 72.8213 391.068 75.5015 392.21 78.712C393.352 81.9226 393.276 85.4405 391.998 88.5991Z" fill="#FFB6B6"/>
<path d="M186.825 128.85C186.825 128.85 176.903 143.512 192.474 156.487C208.044 169.461 271.154 166.88 281.339 166.769C291.523 166.657 338.252 118.318 338.252 118.318L337.946 90.4009L281.528 123.877L186.825 128.85Z" fill="#6C63FF"/>
<path d="M181.208 226.193L182.208 245.193C182.208 245.193 179.256 262.023 181.684 265.655C184.093 269.269 250.252 274.645 250.252 274.645C250.252 274.645 248.178 246.309 251.919 225.812L181.208 226.193Z" fill="#FFB6B6"/>
<path d="M384.252 419.645L358.785 441.938L308.872 339.857C259.376 348.369 212.682 351.096 172.293 340.799C158.618 337.36 150.259 323.241 153.623 309.261C153.78 308.608 153.962 307.961 154.168 307.322C159.002 292.574 171.655 282.139 181.624 265.918L254.441 267.024L246.308 295.086L317.044 285.933C331.269 284.092 344.261 294.388 346.062 308.931C346.157 309.699 346.219 310.47 346.248 311.244L384.252 419.645Z" fill="#2F2E41"/>
<path d="M209.64 98.3301C225.97 98.3301 239.208 85.0922 239.208 68.7623C239.208 52.4325 225.97 39.1946 209.64 39.1946C193.31 39.1946 180.072 52.4325 180.072 68.7623C180.072 85.0922 193.31 98.3301 209.64 98.3301Z" fill="#FFB6B6"/>
<path d="M192.306 109.004L219.417 112.194C220.56 112.328 221.633 112.816 222.486 113.589C223.339 114.362 223.929 115.382 224.175 116.507L228.486 136.236L255.363 167.886C255.363 167.886 265.014 185.982 261.395 206.491C259.217 218.841 255.449 230.857 250.185 242.239C250.185 242.239 184.089 269.271 181.676 265.651C179.264 262.032 178.481 245.593 178.481 245.593L169.977 150.991C169.49 146.006 170.113 140.976 171.799 136.26C173.486 131.545 176.195 127.261 179.733 123.715C181.878 121.605 183.996 120.128 185.719 120.128C189.612 119.997 189.113 111.235 192.306 109.004Z" fill="#6C63FF"/>
<path d="M250.479 510.874L263.06 517.036L293.346 470.36L274.778 461.265L250.479 510.874Z" fill="#FFB6B6"/>
<path d="M280.616 500.324L254.77 490.511L290.244 383.966C242.05 369.836 205.698 347.076 173.957 320.061C163.19 310.957 155.115 299.266 164.285 288.192C164.714 287.674 165.161 287.173 165.628 286.69C176.457 275.572 203.94 277.711 220.028 267.53L256.01 305.946L253.755 316.236L321.306 339.135C334.89 343.74 342.027 358.702 337.247 372.554C336.995 373.285 336.711 374.005 336.397 374.713L280.616 500.324Z" fill="#2F2E41"/>
<path d="M250.05 503.437L271.675 512.475L267.265 521.477L280.482 545.058C281.135 546.223 281.399 547.565 281.234 548.89C281.07 550.215 280.487 551.453 279.569 552.423C278.652 553.393 277.448 554.044 276.134 554.282C274.82 554.519 273.465 554.33 272.266 553.743L247.252 541.489L247.303 530.473L241.257 538.552L231.826 533.932L250.05 503.437Z" fill="#2F2E41"/>
<path d="M207.763 340.301C206.067 339.196 204.634 337.733 203.565 336.014C202.496 334.296 201.817 332.364 201.575 330.354C201.333 328.345 201.535 326.307 202.167 324.384C202.798 322.461 203.843 320.699 205.229 319.224L160.8 216.76L186.238 219.317L225.616 319.194C227.94 321.686 229.269 324.944 229.352 328.351C229.435 331.757 228.265 335.076 226.064 337.678C223.863 340.279 220.785 341.983 217.412 342.467C214.039 342.95 210.605 342.18 207.763 340.301Z" fill="#FFB6B6"/>
<path d="M208.936 131.222C208.936 131.222 196.53 118.592 180.729 131.285C164.928 143.978 154.961 206.35 153.054 216.355C151.146 226.36 189.275 281.735 189.275 281.735L216.7 286.963L195.059 225.034L208.936 131.222Z" fill="#6C63FF"/>
<path d="M651.509 71.3689H374.004C371.62 71.3727 369.334 72.3215 367.648 74.0074C365.962 75.6932 365.014 77.9787 365.01 80.3629V267.624C365.012 270.009 365.96 272.295 367.647 273.982C369.333 275.668 371.619 276.616 374.004 276.618H651.509C653.893 276.616 656.18 275.668 657.866 273.982C659.552 272.295 660.501 270.009 660.503 267.624V80.3629C660.499 77.9787 659.55 75.6933 657.864 74.0074C656.178 72.3215 653.893 71.3727 651.509 71.3689Z" fill="#3F3D56"/>
<path d="M649.192 77.865H376.322C375.045 77.8678 373.822 78.3768 372.92 79.2804C372.018 80.184 371.512 81.4084 371.512 82.685V265.305C371.514 266.58 372.021 267.802 372.923 268.704C373.824 269.605 375.047 270.113 376.322 270.115H649.192C650.467 270.113 651.689 269.605 652.59 268.704C653.492 267.802 654 266.58 654.002 265.305V82.685C654.002 81.4084 653.495 80.184 652.593 79.2804C651.692 78.3768 650.468 77.8678 649.192 77.865Z" fill="white"/>
<path d="M596.041 349.427H433.698C433.254 349.427 432.815 349.328 432.414 349.137C432.013 348.946 431.659 348.668 431.379 348.323C431.099 347.977 430.9 347.574 430.795 347.142C430.691 346.71 430.684 346.261 430.776 345.826L433.295 333.862C433.438 333.193 433.806 332.592 434.338 332.161C434.869 331.73 435.532 331.493 436.217 331.491H593.523C594.207 331.493 594.87 331.73 595.402 332.161C595.933 332.592 596.301 333.193 596.444 333.862L598.963 345.826C599.055 346.261 599.048 346.71 598.944 347.142C598.84 347.574 598.64 347.977 598.36 348.323C598.08 348.668 597.727 348.946 597.325 349.137C596.924 349.328 596.486 349.427 596.041 349.427Z" fill="#2F2E41"/>
<path d="M441.882 333.645H437.858C437.589 333.645 437.37 333.864 437.37 334.133V336.157C437.37 336.426 437.589 336.645 437.858 336.645H441.882C442.152 336.645 442.37 336.426 442.37 336.157V334.133C442.37 333.864 442.152 333.645 441.882 333.645Z" fill="#3F3D56"/>
<path d="M451.882 333.645H447.858C447.589 333.645 447.37 333.864 447.37 334.133V336.157C447.37 336.426 447.589 336.645 447.858 336.645H451.882C452.152 336.645 452.37 336.426 452.37 336.157V334.133C452.37 333.864 452.152 333.645 451.882 333.645Z" fill="#3F3D56"/>
<path d="M461.882 333.645H457.858C457.589 333.645 457.37 333.864 457.37 334.133V336.157C457.37 336.426 457.589 336.645 457.858 336.645H461.882C462.152 336.645 462.37 336.426 462.37 336.157V334.133C462.37 333.864 462.152 333.645 461.882 333.645Z" fill="#3F3D56"/>
<path d="M471.882 333.645H467.858C467.589 333.645 467.37 333.864 467.37 334.133V336.157C467.37 336.426 467.589 336.645 467.858 336.645H471.882C472.152 336.645 472.37 336.426 472.37 336.157V334.133C472.37 333.864 472.152 333.645 471.882 333.645Z" fill="#3F3D56"/>
<path d="M481.882 333.645H477.858C477.589 333.645 477.37 333.864 477.37 334.133V336.157C477.37 336.426 477.589 336.645 477.858 336.645H481.882C482.152 336.645 482.37 336.426 482.37 336.157V334.133C482.37 333.864 482.152 333.645 481.882 333.645Z" fill="#3F3D56"/>
<path d="M491.882 333.645H487.858C487.589 333.645 487.37 333.864 487.37 334.133V336.157C487.37 336.426 487.589 336.645 487.858 336.645H491.882C492.152 336.645 492.37 336.426 492.37 336.157V334.133C492.37 333.864 492.152 333.645 491.882 333.645Z" fill="#3F3D56"/>
<path d="M501.882 333.645H497.858C497.589 333.645 497.37 333.864 497.37 334.133V336.157C497.37 336.426 497.589 336.645 497.858 336.645H501.882C502.152 336.645 502.37 336.426 502.37 336.157V334.133C502.37 333.864 502.152 333.645 501.882 333.645Z" fill="#3F3D56"/>
<path d="M511.882 333.645H507.858C507.589 333.645 507.37 333.864 507.37 334.133V336.157C507.37 336.426 507.589 336.645 507.858 336.645H511.882C512.152 336.645 512.37 336.426 512.37 336.157V334.133C512.37 333.864 512.152 333.645 511.882 333.645Z" fill="#3F3D56"/>
<path d="M521.882 333.645H517.858C517.589 333.645 517.37 333.864 517.37 334.133V336.157C517.37 336.426 517.589 336.645 517.858 336.645H521.882C522.152 336.645 522.37 336.426 522.37 336.157V334.133C522.37 333.864 522.152 333.645 521.882 333.645Z" fill="#3F3D56"/>
<path d="M531.882 333.645H527.858C527.589 333.645 527.37 333.864 527.37 334.133V336.157C527.37 336.426 527.589 336.645 527.858 336.645H531.882C532.152 336.645 532.37 336.426 532.37 336.157V334.133C532.37 333.864 532.152 333.645 531.882 333.645Z" fill="#3F3D56"/>
<path d="M541.882 333.645H537.858C537.589 333.645 537.37 333.864 537.37 334.133V336.157C537.37 336.426 537.589 336.645 537.858 336.645H541.882C542.152 336.645 542.37 336.426 542.37 336.157V334.133C542.37 333.864 542.152 333.645 541.882 333.645Z" fill="#3F3D56"/>
<path d="M551.882 333.645H547.858C547.589 333.645 547.37 333.864 547.37 334.133V336.157C547.37 336.426 547.589 336.645 547.858 336.645H551.882C552.152 336.645 552.37 336.426 552.37 336.157V334.133C552.37 333.864 552.152 333.645 551.882 333.645Z" fill="#3F3D56"/>
<path d="M561.882 333.645H557.858C557.589 333.645 557.37 333.864 557.37 334.133V336.157C557.37 336.426 557.589 336.645 557.858 336.645H561.882C562.152 336.645 562.37 336.426 562.37 336.157V334.133C562.37 333.864 562.152 333.645 561.882 333.645Z" fill="#3F3D56"/>
<path d="M571.882 333.645H567.858C567.589 333.645 567.37 333.864 567.37 334.133V336.157C567.37 336.426 567.589 336.645 567.858 336.645H571.882C572.152 336.645 572.37 336.426 572.37 336.157V334.133C572.37 333.864 572.152 333.645 571.882 333.645Z" fill="#3F3D56"/>
<path d="M581.882 333.645H577.858C577.589 333.645 577.37 333.864 577.37 334.133V336.157C577.37 336.426 577.589 336.645 577.858 336.645H581.882C582.152 336.645 582.37 336.426 582.37 336.157V334.133C582.37 333.864 582.152 333.645 581.882 333.645Z" fill="#3F3D56"/>
<path d="M591.882 333.645H587.858C587.589 333.645 587.37 333.864 587.37 334.133V336.157C587.37 336.426 587.589 336.645 587.858 336.645H591.882C592.152 336.645 592.37 336.426 592.37 336.157V334.133C592.37 333.864 592.152 333.645 591.882 333.645Z" fill="#3F3D56"/>
<path d="M441.764 338.645H437.74C437.471 338.645 437.252 338.864 437.252 339.133V341.157C437.252 341.426 437.471 341.645 437.74 341.645H441.764C442.033 341.645 442.252 341.426 442.252 341.157V339.133C442.252 338.864 442.033 338.645 441.764 338.645Z" fill="#3F3D56"/>
<path d="M451.764 338.645H447.74C447.471 338.645 447.252 338.864 447.252 339.133V341.157C447.252 341.426 447.471 341.645 447.74 341.645H451.764C452.033 341.645 452.252 341.426 452.252 341.157V339.133C452.252 338.864 452.033 338.645 451.764 338.645Z" fill="#3F3D56"/>
<path d="M461.764 338.645H457.74C457.471 338.645 457.252 338.864 457.252 339.133V341.157C457.252 341.426 457.471 341.645 457.74 341.645H461.764C462.033 341.645 462.252 341.426 462.252 341.157V339.133C462.252 338.864 462.033 338.645 461.764 338.645Z" fill="#3F3D56"/>
<path d="M471.764 338.645H467.74C467.471 338.645 467.252 338.864 467.252 339.133V341.157C467.252 341.426 467.471 341.645 467.74 341.645H471.764C472.033 341.645 472.252 341.426 472.252 341.157V339.133C472.252 338.864 472.033 338.645 471.764 338.645Z" fill="#3F3D56"/>
<path d="M481.764 338.645H477.74C477.471 338.645 477.252 338.864 477.252 339.133V341.157C477.252 341.426 477.471 341.645 477.74 341.645H481.764C482.033 341.645 482.252 341.426 482.252 341.157V339.133C482.252 338.864 482.033 338.645 481.764 338.645Z" fill="#3F3D56"/>
<path d="M491.764 338.645H487.74C487.471 338.645 487.252 338.864 487.252 339.133V341.157C487.252 341.426 487.471 341.645 487.74 341.645H491.764C492.033 341.645 492.252 341.426 492.252 341.157V339.133C492.252 338.864 492.033 338.645 491.764 338.645Z" fill="#3F3D56"/>
<path d="M501.764 338.645H497.74C497.471 338.645 497.252 338.864 497.252 339.133V341.157C497.252 341.426 497.471 341.645 497.74 341.645H501.764C502.033 341.645 502.252 341.426 502.252 341.157V339.133C502.252 338.864 502.033 338.645 501.764 338.645Z" fill="#3F3D56"/>
<path d="M511.764 338.645H507.74C507.471 338.645 507.252 338.864 507.252 339.133V341.157C507.252 341.426 507.471 341.645 507.74 341.645H511.764C512.033 341.645 512.252 341.426 512.252 341.157V339.133C512.252 338.864 512.033 338.645 511.764 338.645Z" fill="#3F3D56"/>
<path d="M521.764 338.645H517.74C517.47 338.645 517.252 338.864 517.252 339.133V341.157C517.252 341.426 517.47 341.645 517.74 341.645H521.764C522.033 341.645 522.252 341.426 522.252 341.157V339.133C522.252 338.864 522.033 338.645 521.764 338.645Z" fill="#3F3D56"/>
<path d="M531.764 338.645H527.74C527.47 338.645 527.252 338.864 527.252 339.133V341.157C527.252 341.426 527.47 341.645 527.74 341.645H531.764C532.033 341.645 532.252 341.426 532.252 341.157V339.133C532.252 338.864 532.033 338.645 531.764 338.645Z" fill="#3F3D56"/>
<path d="M541.764 338.645H537.74C537.47 338.645 537.252 338.864 537.252 339.133V341.157C537.252 341.426 537.47 341.645 537.74 341.645H541.764C542.033 341.645 542.252 341.426 542.252 341.157V339.133C542.252 338.864 542.033 338.645 541.764 338.645Z" fill="#3F3D56"/>
<path d="M551.764 338.645H547.74C547.47 338.645 547.252 338.864 547.252 339.133V341.157C547.252 341.426 547.47 341.645 547.74 341.645H551.764C552.033 341.645 552.252 341.426 552.252 341.157V339.133C552.252 338.864 552.033 338.645 551.764 338.645Z" fill="#3F3D56"/>
<path d="M561.764 338.645H557.74C557.47 338.645 557.252 338.864 557.252 339.133V341.157C557.252 341.426 557.47 341.645 557.74 341.645H561.764C562.033 341.645 562.252 341.426 562.252 341.157V339.133C562.252 338.864 562.033 338.645 561.764 338.645Z" fill="#3F3D56"/>
<path d="M571.764 338.645H567.74C567.47 338.645 567.252 338.864 567.252 339.133V341.157C567.252 341.426 567.47 341.645 567.74 341.645H571.764C572.033 341.645 572.252 341.426 572.252 341.157V339.133C572.252 338.864 572.033 338.645 571.764 338.645Z" fill="#3F3D56"/>
<path d="M581.764 338.645H577.74C577.47 338.645 577.252 338.864 577.252 339.133V341.157C577.252 341.426 577.47 341.645 577.74 341.645H581.764C582.033 341.645 582.252 341.426 582.252 341.157V339.133C582.252 338.864 582.033 338.645 581.764 338.645Z" fill="#3F3D56"/>
<path d="M591.764 338.645H587.74C587.47 338.645 587.252 338.864 587.252 339.133V341.157C587.252 341.426 587.47 341.645 587.74 341.645H591.764C592.033 341.645 592.252 341.426 592.252 341.157V339.133C592.252 338.864 592.033 338.645 591.764 338.645Z" fill="#3F3D56"/>
<path d="M524.764 344.645H485.74C485.471 344.645 485.252 344.864 485.252 345.133V347.157C485.252 347.426 485.471 347.645 485.74 347.645H524.764C525.033 347.645 525.252 347.426 525.252 347.157V345.133C525.252 344.864 525.033 344.645 524.764 344.645Z" fill="#3F3D56"/>
<path d="M630.399 577.663L622.689 565.273L621.149 572.353C620.879 573.593 620.609 574.853 620.359 576.103C618.169 574.233 615.839 572.503 613.56 570.843C606.56 565.763 599.563 560.676 592.569 555.583L594.759 568.283C596.109 576.103 597.52 584.083 600.859 591.233C601.229 592.043 601.629 592.843 602.06 593.623H634.6C634.861 592.898 635.042 592.147 635.14 591.383C635.148 591.333 635.151 591.283 635.149 591.233C635.66 586.383 632.979 581.813 630.399 577.663Z" fill="#F0F0F0"/>
<path d="M190.399 577.663L182.689 565.273L181.149 572.353C180.879 573.593 180.609 574.853 180.359 576.103C178.169 574.233 175.839 572.503 173.56 570.843C166.56 565.763 159.563 560.676 152.569 555.583L154.759 568.283C156.109 576.103 157.52 584.083 160.859 591.233C161.229 592.043 161.629 592.843 162.06 593.623H194.6C194.861 592.898 195.042 592.147 195.14 591.383C195.148 591.333 195.151 591.283 195.149 591.233C195.66 586.383 192.979 581.813 190.399 577.663Z" fill="#F0F0F0"/>
<path d="M808.941 594.978L533.191 595.285C532.876 595.284 532.574 595.158 532.351 594.935C532.129 594.712 532.004 594.409 532.004 594.094C532.004 593.779 532.129 593.477 532.351 593.253C532.574 593.03 532.876 592.904 533.191 592.904L808.941 592.596C809.256 592.597 809.558 592.723 809.781 592.946C810.003 593.169 810.128 593.472 810.128 593.787C810.128 594.102 810.003 594.404 809.781 594.628C809.558 594.851 809.256 594.977 808.941 594.978Z" fill="#CACACA"/>
<path d="M276.941 594.978L1.19115 595.285C0.875955 595.284 0.573992 595.158 0.35144 594.935C0.128889 594.712 0.00390625 594.409 0.00390625 594.094C0.00390625 593.779 0.128889 593.477 0.35144 593.253C0.573992 593.03 0.875955 592.904 1.19115 592.904L276.941 592.596C277.256 592.597 277.558 592.723 277.781 592.946C278.003 593.169 278.128 593.472 278.128 593.787C278.128 594.102 278.003 594.404 277.781 594.628C277.558 594.851 277.256 594.977 276.941 594.978Z" fill="#CACACA"/>
<path d="M178.372 42.4051C173.602 43.8251 169.152 39.8351 165.832 36.0551L167.012 37.4551C159.202 42.9551 154.532 51.9151 151.502 60.9851C148.472 70.0451 146.782 79.5351 143.362 88.4651C139.942 97.3851 134.422 106.015 125.972 110.465C114.652 116.425 100.782 113.715 88.7419 109.415C88.5819 109.355 88.4319 109.305 88.2719 109.245C93.1484 100.136 96.1347 90.1363 97.0519 79.8451C92.099 89.5148 84.9559 97.8941 76.1919 104.315C68.3249 100.739 60.7602 96.5319 53.5719 91.7351C48.9219 88.6251 44.0219 84.6051 43.4819 79.0351C42.9319 73.5051 47.0619 68.4551 51.9319 65.7951C56.8019 63.1351 62.4019 62.2351 67.7219 60.6351C73.0319 59.0451 78.4519 56.4351 81.2419 51.6351C87.6719 40.5951 76.8519 25.0251 83.7519 14.2651C87.1519 8.97506 93.7519 6.85505 99.8719 5.38505C109.213 3.1507 118.695 1.55039 128.252 0.59506C136.642 -0.24494 145.312 -0.554937 153.292 2.14506C161.272 4.84506 168.512 11.1151 170.222 19.3751C174.882 21.8251 179.812 24.5351 182.312 29.1851C184.812 33.825 183.422 40.9051 178.372 42.4051Z" fill="#2F2E41"/>
<path d="M171.251 40.5448C166.683 46.2667 164.197 52.4545 164.197 56.1602C154.709 73.5024 168.277 88.3985 185.62 97.8869C192.537 101.691 200.524 103.084 208.32 101.844L209.046 98.7473L210.029 101.537C210.029 101.537 221.32 138.83 225.045 141.018C223.631 134.381 222.012 103.651 221.226 97.174C220.136 88.3582 223.933 75.2337 226.672 67.2524C228.371 62.3334 229.242 57.1671 229.252 51.9632V51.7356L231.919 60.3022L241.628 56.1602C239.822 45.7992 241.628 34.0371 219.972 35.0572C208.259 27.0019 197.945 25.7748 189.472 28.0595C188.379 26.369 182.074 29.5353 180.252 28.6451" fill="#2F2E41"/>
<path d="M654.002 82.685V265.305C654 266.58 653.492 267.802 652.591 268.704C651.689 269.605 650.467 270.113 649.192 270.115H552.972C542.328 260.243 533.595 248.494 527.212 235.455C526.792 234.615 526.392 233.765 526.012 232.905C520.196 220.285 516.675 206.73 515.612 192.875C515.542 192.025 515.482 191.175 515.442 190.315C515.312 188.115 515.252 185.885 515.252 183.645C515.233 168.747 518.046 153.982 523.542 140.135C523.872 139.275 524.222 138.425 524.582 137.575C535.642 111.588 555.628 90.4104 580.932 77.865H649.192C650.469 77.8678 651.692 78.3768 652.594 79.2804C653.495 80.184 654.002 81.4084 654.002 82.685Z" fill="#6C63FF"/>
<path d="M635.475 103.026H380.151C379.886 103.02 379.633 102.911 379.448 102.721C379.262 102.531 379.158 102.276 379.158 102.011C379.158 101.745 379.262 101.49 379.448 101.301C379.633 101.111 379.886 101.001 380.151 100.995H635.475C635.74 101.001 635.993 101.111 636.179 101.301C636.364 101.49 636.468 101.745 636.468 102.011C636.468 102.276 636.364 102.531 636.179 102.721C635.993 102.911 635.74 103.02 635.475 103.026Z" fill="#CACACA"/>
<path d="M397.532 95.8111C400.819 95.8111 403.483 93.0876 403.483 89.7281C403.483 86.3685 400.819 83.645 397.532 83.645C394.246 83.645 391.582 86.3685 391.582 89.7281C391.582 93.0876 394.246 95.8111 397.532 95.8111Z" fill="#3F3D56"/>
<path d="M418.088 95.8111C421.374 95.8111 424.039 93.0876 424.039 89.7281C424.039 86.3685 421.374 83.645 418.088 83.645C414.802 83.645 412.138 86.3685 412.138 89.7281C412.138 93.0876 414.802 95.8111 418.088 95.8111Z" fill="#3F3D56"/>
<path d="M438.644 95.8111C441.93 95.8111 444.594 93.0876 444.594 89.7281C444.594 86.3685 441.93 83.645 438.644 83.645C435.357 83.645 432.693 86.3685 432.693 89.7281C432.693 93.0876 435.357 95.8111 438.644 95.8111Z" fill="#3F3D56"/>
<path d="M623.099 85.1528H608.497C608.208 85.1585 607.932 85.2775 607.729 85.4843C607.527 85.691 607.413 85.969 607.413 86.2585C607.413 86.548 607.527 86.8259 607.729 87.0327C607.932 87.2394 608.208 87.3584 608.497 87.3641H623.099C623.389 87.3584 623.664 87.2394 623.867 87.0327C624.07 86.8259 624.183 86.548 624.183 86.2585C624.183 85.969 624.07 85.691 623.867 85.4843C623.664 85.2775 623.389 85.1585 623.099 85.1528Z" fill="#3F3D56"/>
<path d="M623.099 89.303H608.497C608.208 89.3087 607.932 89.4277 607.729 89.6344C607.527 89.8411 607.413 90.1191 607.413 90.4086C607.413 90.6981 607.527 90.9761 607.729 91.1828C607.932 91.3895 608.208 91.5085 608.497 91.5142H623.099C623.389 91.5085 623.664 91.3895 623.867 91.1828C624.07 90.9761 624.183 90.6981 624.183 90.4086C624.183 90.1191 624.07 89.8411 623.867 89.6344C623.664 89.4277 623.389 89.3087 623.099 89.303Z" fill="#3F3D56"/>
<path d="M623.099 93.4478H608.497C608.208 93.4535 607.932 93.5725 607.729 93.7792C607.527 93.9859 607.413 94.2639 607.413 94.5534C607.413 94.8429 607.527 95.1209 607.729 95.3276C607.932 95.5343 608.208 95.6533 608.497 95.659H623.099C623.389 95.6533 623.664 95.5343 623.867 95.3276C624.07 95.1209 624.183 94.8429 624.183 94.5534C624.183 94.2639 624.07 93.9859 623.867 93.7792C623.664 93.5725 623.389 93.4535 623.099 93.4478Z" fill="#3F3D56"/>
<path d="M456.428 162.344H424.525C422.128 162.344 420.186 164.286 420.186 166.683V166.683C420.186 169.079 422.128 171.022 424.525 171.022H456.428C458.825 171.022 460.767 169.079 460.767 166.683C460.767 164.286 458.825 162.344 456.428 162.344Z" fill="#6C63FF"/>
<path d="M477.038 179.7H403.914C401.518 179.7 399.575 181.642 399.575 184.039C399.575 186.435 401.518 188.378 403.914 188.378H477.038C479.435 188.378 481.377 186.435 481.377 184.039C481.377 181.642 479.435 179.7 477.038 179.7Z" fill="#E6E6E6"/>
<path d="M477.038 197.056H403.914C401.518 197.056 399.575 198.998 399.575 201.395V201.395C399.575 203.791 401.518 205.734 403.914 205.734H477.038C479.435 205.734 481.377 203.791 481.377 201.395C481.377 198.998 479.435 197.056 477.038 197.056Z" fill="#E6E6E6"/>
<path d="M406.252 259.645C406.258 263.219 405.621 266.766 404.372 270.115H376.322C375.047 270.113 373.824 269.605 372.923 268.704C372.021 267.802 371.514 266.58 371.512 265.305V230.025C373.079 229.772 374.664 229.644 376.252 229.645C380.191 229.645 384.093 230.421 387.732 231.928C391.372 233.436 394.68 235.645 397.465 238.431C400.251 241.217 402.461 244.524 403.969 248.164C405.476 251.804 406.252 255.705 406.252 259.645Z" fill="#6C63FF"/>
<path opacity="0.2" d="M654.251 140.135V137.575H611.341V107.905H608.791V137.575H559.611V107.905H557.061V137.575H524.581C524.221 138.425 523.871 139.275 523.541 140.135H557.061V190.315H515.441C515.481 191.175 515.541 192.025 515.611 192.875H557.061V232.905H526.011C526.391 233.765 526.791 234.615 527.211 235.455H557.061V269.105H559.611V235.455H608.791V269.105H611.341V235.455H654.251V232.905H611.341V192.875H654.251V190.315H611.341V140.135H654.251ZM608.791 232.905H559.611V192.875H608.791V232.905ZM608.791 190.315H559.611V140.135H608.791V190.315Z" fill="black"/>
<path d="M619.703 251.169C619.155 251.194 618.613 251.05 618.15 250.757C617.687 250.464 617.326 250.036 617.114 249.53C616.903 249.025 616.852 248.467 616.969 247.931C617.085 247.396 617.364 246.909 617.766 246.537L617.949 245.809C617.925 245.751 617.901 245.693 617.876 245.634C617.325 244.332 616.401 243.222 615.22 242.443C614.04 241.664 612.655 241.251 611.241 241.256C609.827 241.261 608.446 241.684 607.271 242.472C606.096 243.26 605.181 244.377 604.639 245.684C602.474 250.898 599.717 256.121 599.039 261.635C598.74 264.072 598.866 266.542 599.411 268.936C594.326 257.844 591.686 245.787 591.669 233.585C591.668 230.523 591.838 227.463 592.178 224.42C592.46 221.925 592.85 219.449 593.35 216.989C596.075 203.646 601.927 191.14 610.424 180.497C614.537 178.253 617.863 174.803 619.954 170.61C620.712 169.103 621.247 167.494 621.544 165.834C621.08 165.894 620.608 165.932 620.144 165.963C620 165.97 619.848 165.978 619.703 165.986L619.649 165.988C619.139 166.011 618.633 165.886 618.193 165.628C617.752 165.37 617.396 164.991 617.166 164.535C616.936 164.079 616.843 163.567 616.898 163.059C616.952 162.552 617.153 162.071 617.474 161.675C617.675 161.428 617.875 161.182 618.076 160.936C618.38 160.555 618.692 160.183 618.996 159.802C619.031 159.766 619.064 159.728 619.095 159.688C619.445 159.255 619.794 158.829 620.144 158.395C619.506 157.404 618.647 156.574 617.634 155.969C614.128 153.915 609.291 155.338 606.758 158.509C604.218 161.681 603.739 166.13 604.621 170.093C605.489 173.464 606.924 176.664 608.865 179.554C608.675 179.798 608.477 180.033 608.287 180.277C604.811 184.746 601.782 189.546 599.242 194.606C599.86 188.937 599.123 183.202 597.092 177.873C595.033 172.907 591.174 168.725 587.777 164.432C583.695 159.275 575.326 161.525 574.607 168.062C574.6 168.126 574.593 168.189 574.586 168.252C575.091 168.537 575.585 168.839 576.068 169.159C576.676 169.564 577.146 170.144 577.418 170.822C577.691 171.5 577.752 172.244 577.594 172.957C577.436 173.67 577.066 174.318 576.533 174.818C576 175.317 575.329 175.644 574.607 175.755L574.533 175.767C574.713 177.586 575.031 179.388 575.484 181.159C576.797 186.102 579.117 190.721 582.298 194.726C585.48 198.731 589.455 202.036 593.973 204.432C594.27 204.584 594.559 204.737 594.856 204.881C592.304 212.112 590.703 219.644 590.094 227.287C589.749 231.797 589.77 236.327 590.155 240.833L590.132 240.673C589.159 235.663 586.486 231.141 582.565 227.873C576.741 223.089 568.513 221.327 562.23 217.482C561.563 217.053 560.786 216.825 559.993 216.823C559.199 216.821 558.422 217.046 557.752 217.471C557.082 217.897 556.548 218.505 556.213 219.224C555.877 219.943 555.754 220.743 555.858 221.529C555.867 221.585 555.875 221.641 555.884 221.697C556.821 222.079 557.732 222.518 558.614 223.013C559.119 223.298 559.613 223.6 560.097 223.92C560.704 224.325 561.174 224.905 561.447 225.583C561.719 226.261 561.78 227.005 561.622 227.718C561.464 228.431 561.094 229.079 560.561 229.579C560.028 230.078 559.357 230.405 558.635 230.516L558.561 230.527C558.508 230.535 558.462 230.543 558.409 230.55C560.009 234.371 562.255 237.888 565.049 240.947C568.5 244.65 572.67 247.609 577.305 249.643C581.94 251.676 586.942 252.742 592.003 252.774H592.011C593.385 258.745 595.376 264.556 597.951 270.115H619.171C619.247 269.879 619.315 269.636 619.384 269.4C617.42 269.523 615.448 269.406 613.512 269.05C615.087 267.118 616.661 265.171 618.235 263.239C618.27 263.203 618.303 263.165 618.334 263.125C619.133 262.137 619.939 261.156 620.738 260.167L620.738 260.166C620.781 257.135 620.432 254.111 619.703 251.169ZM595.403 203.368L595.414 203.353L595.403 203.383V203.368ZM590.703 245.739L590.52 245.328C590.528 245.032 590.528 244.735 590.52 244.431C590.52 244.347 590.505 244.263 590.505 244.18C590.573 244.705 590.634 245.229 590.71 245.754L590.703 245.739Z" fill="#2F2E41"/>
</g>
<defs>
<clipPath id="clip0_433_530">
<rect width="810.131" height="595.285" fill="white"/>
</clipPath>
</defs>
</svg>
