<svg width="812" height="596" viewBox="0 0 812 596" fill="none" xmlns="http://www.w3.org/2000/svg">
<g clip-path="url(#clip0_433_629)">
<path d="M379.877 471.236L392.675 465.509L376.646 412.214L357.756 420.666L379.877 471.236Z" fill="#DCA4A4"/>
<path d="M370.711 456.767L389.856 443.247L395.14 451.765L422.14 453.094C423.473 453.159 424.751 453.649 425.786 454.492C426.822 455.335 427.561 456.487 427.895 457.78C428.229 459.073 428.141 460.438 427.645 461.677C427.148 462.917 426.268 463.965 425.133 464.669L401.464 479.352L392.157 473.457L395.791 482.871L386.867 488.407L370.711 456.767Z" fill="#555386"/>
<path d="M708.631 370.361C708.631 365.001 706.831 360.651 704.621 360.641H102.131C99.9113 360.651 98.1213 365.001 98.1113 370.361V591.004C98.1114 591.501 97.9263 591.981 97.5919 592.35C97.2575 592.718 96.7979 592.949 96.3026 592.997C94.6855 593.153 93.0684 593.297 91.4514 593.431C91.4114 593.431 91.3714 593.441 91.3313 593.441C90.4514 593.521 89.5714 593.581 88.6913 593.651H88.6813C88.2287 592.814 87.7813 591.97 87.3391 591.118C87.1896 590.831 87.1114 590.512 87.1113 590.189V357.751C87.1113 356.271 87.1713 354.781 87.2713 353.311C87.4141 351.292 87.6644 349.283 88.0213 347.291C89.7113 338.001 93.5313 331.711 97.8713 331.691H708.871C709.505 331.695 710.131 331.828 710.711 332.081C711.564 332.458 712.335 332.998 712.981 333.671C713.858 334.582 714.608 335.608 715.211 336.721C717.351 340.491 718.881 346.111 719.421 352.651C719.421 352.711 719.431 352.771 719.431 352.831C719.571 354.451 719.641 356.101 719.631 357.751L719.771 379.181L719.861 391.961L720.131 432.061L720.231 446.301L720.671 592.501C720.671 593.031 720.461 593.54 720.086 593.915C719.71 594.29 719.202 594.501 718.671 594.501H710.631C710.101 594.501 709.592 594.29 709.217 593.915C708.842 593.54 708.631 593.031 708.631 592.501V370.361Z" fill="#39374E"/>
<path d="M544.915 231.415H479.996C479.077 231.416 478.197 231.783 477.548 232.433C476.9 233.083 476.536 233.964 476.537 234.883V337.436H548.383V234.883C548.383 234.427 548.293 233.976 548.119 233.555C547.945 233.134 547.689 232.752 547.367 232.43C547.045 232.108 546.663 231.853 546.242 231.678C545.821 231.504 545.37 231.415 544.915 231.415ZM512.674 289.685C510.644 289.675 508.699 288.865 507.264 287.429C505.828 285.993 505.017 284.049 505.008 282.019V270.19C505.01 268.159 505.819 266.211 507.256 264.775C508.694 263.339 510.642 262.533 512.674 262.533C514.705 262.533 516.654 263.339 518.091 264.775C519.529 266.211 520.337 268.159 520.34 270.19V282.019C520.33 284.049 519.519 285.993 518.084 287.429C516.648 288.865 514.704 289.675 512.674 289.685Z" fill="#555386"/>
<path d="M476.314 334.156V344.05C476.316 344.563 476.52 345.054 476.882 345.417C477.245 345.779 477.736 345.983 478.249 345.984H546.671C547.183 345.982 547.674 345.777 548.036 345.415C548.398 345.053 548.603 344.562 548.606 344.05V334.156H476.314Z" fill="#3F3D56"/>
<path d="M392.906 88.5991C392.159 90.4801 391.008 92.1743 389.535 93.5625C388.062 94.9507 386.303 95.9991 384.381 96.6338C382.459 97.2685 380.422 97.4741 378.412 97.2361C376.402 96.9982 374.469 96.3224 372.748 95.2564L281.11 159.095L278.58 133.655L368.682 75.2788C370.664 72.5072 373.594 70.5591 376.917 69.8035C380.24 69.048 383.724 69.5375 386.71 71.1794C389.696 72.8213 391.976 75.5015 393.118 78.712C394.26 81.9226 394.184 85.4405 392.906 88.5991Z" fill="#DCA4A4"/>
<path d="M187.735 128.85C187.735 128.85 177.812 143.512 193.383 156.487C208.953 169.461 272.064 166.88 282.248 166.769C292.433 166.657 339.161 118.318 339.161 118.318L338.855 90.4009L282.437 123.877L187.735 128.85Z" fill="#6C63FF"/>
<path d="M182.115 226.193L183.115 245.193C183.115 245.193 180.163 262.023 182.591 265.655C185 269.269 251.159 274.645 251.159 274.645C251.159 274.645 249.085 246.309 252.827 225.812L182.115 226.193Z" fill="#DCA4A4"/>
<path d="M385.16 419.645L359.693 441.938L309.78 339.857C260.284 348.369 213.59 351.096 173.201 340.799C159.526 337.36 151.168 323.241 154.531 309.261C154.688 308.608 154.87 307.961 155.076 307.322C159.91 292.574 172.563 282.139 182.532 265.918L255.349 267.024L247.216 295.086L317.952 285.933C332.178 284.092 345.169 294.388 346.97 308.931C347.065 309.699 347.127 310.47 347.156 311.244L385.16 419.645Z" fill="#3A367D"/>
<path d="M210.548 98.3301C226.878 98.3301 240.116 85.0922 240.116 68.7623C240.116 52.4325 226.878 39.1946 210.548 39.1946C194.218 39.1946 180.98 52.4325 180.98 68.7623C180.98 85.0922 194.218 98.3301 210.548 98.3301Z" fill="#DCA4A4"/>
<path d="M193.214 109.004L220.325 112.194C221.468 112.328 222.541 112.816 223.394 113.589C224.247 114.362 224.837 115.382 225.083 116.507L229.394 136.236L256.271 167.886C256.271 167.886 265.922 185.982 262.303 206.491C260.125 218.841 256.357 230.857 251.093 242.239C251.093 242.239 184.997 269.271 182.585 265.651C180.172 262.032 179.389 245.593 179.389 245.593L170.885 150.991C170.399 146.006 171.021 140.976 172.708 136.26C174.394 131.545 177.103 127.261 180.641 123.715C182.786 121.605 184.904 120.128 186.627 120.128C190.52 119.997 190.021 111.235 193.214 109.004Z" fill="#6C63FF"/>
<path d="M251.387 510.874L263.968 517.036L294.255 470.36L275.686 461.265L251.387 510.874Z" fill="#DCA4A4"/>
<path d="M281.526 500.324L255.679 490.511L291.153 383.966C242.959 369.836 206.607 347.076 174.867 320.061C164.099 310.957 156.024 299.266 165.194 288.192C165.623 287.674 166.071 287.173 166.537 286.69C177.366 275.572 204.849 277.711 220.937 267.53L256.919 305.946L254.664 316.236L322.215 339.135C335.799 343.74 342.937 358.702 338.156 372.554C337.904 373.285 337.62 374.005 337.306 374.713L281.526 500.324Z" fill="#3A367D"/>
<path d="M250.958 503.437L272.583 512.475L268.173 521.477L281.39 545.058C282.043 546.223 282.307 547.565 282.143 548.89C281.978 550.215 281.395 551.453 280.477 552.423C279.56 553.393 278.356 554.044 277.042 554.282C275.728 554.519 274.373 554.33 273.174 553.743L248.16 541.489L248.211 530.473L242.166 538.552L232.734 533.932L250.958 503.437Z" fill="#555386"/>
<path d="M208.672 340.301C206.976 339.196 205.543 337.733 204.474 336.014C203.405 334.296 202.726 332.364 202.484 330.354C202.243 328.345 202.445 326.307 203.076 324.384C203.707 322.461 204.752 320.699 206.138 319.224L161.709 216.76L187.147 219.317L226.525 319.194C228.849 321.686 230.179 324.944 230.261 328.351C230.344 331.757 229.174 335.076 226.973 337.678C224.773 340.279 221.694 341.983 218.321 342.467C214.948 342.95 211.515 342.18 208.672 340.301Z" fill="#DCA4A4"/>
<path d="M209.845 131.222C209.845 131.222 197.438 118.592 181.637 131.285C165.836 143.978 155.869 206.35 153.962 216.355C152.054 226.36 190.183 281.735 190.183 281.735L217.608 286.963L195.967 225.034L209.845 131.222Z" fill="#6C63FF"/>
<path d="M652.417 71.3689H374.912C372.528 71.3727 370.242 72.3215 368.557 74.0074C366.871 75.6932 365.922 77.9787 365.918 80.3629V267.624C365.92 270.009 366.869 272.295 368.555 273.982C370.241 275.668 372.527 276.616 374.912 276.618H652.417C654.802 276.616 657.088 275.668 658.774 273.982C660.46 272.295 661.409 270.009 661.411 267.624V80.3629C661.407 77.9787 660.458 75.6933 658.772 74.0074C657.087 72.3215 654.801 71.3727 652.417 71.3689Z" fill="#3F3D56"/>
<path d="M650.1 77.865H377.23C375.953 77.8678 374.73 78.3768 373.828 79.2804C372.927 80.184 372.42 81.4084 372.42 82.685V265.305C372.422 266.58 372.93 267.802 373.831 268.704C374.733 269.605 375.955 270.113 377.23 270.115H650.1C651.375 270.113 652.597 269.605 653.499 268.704C654.4 267.802 654.908 266.58 654.91 265.305V82.685C654.91 81.4084 654.403 80.184 653.502 79.2804C652.6 78.3768 651.376 77.8678 650.1 77.865Z" fill="#171541"/>
<path d="M596.95 349.427H434.607C434.163 349.427 433.724 349.328 433.323 349.137C432.922 348.946 432.568 348.668 432.288 348.323C432.008 347.977 431.809 347.574 431.705 347.142C431.6 346.71 431.594 346.261 431.685 345.826L434.204 333.862C434.347 333.193 434.715 332.592 435.247 332.161C435.778 331.73 436.442 331.493 437.126 331.491H594.432C595.116 331.493 595.779 331.73 596.311 332.161C596.842 332.592 597.21 333.193 597.354 333.862L599.873 345.826C599.964 346.261 599.957 346.71 599.853 347.142C599.749 347.574 599.549 347.977 599.269 348.323C598.989 348.668 598.636 348.946 598.235 349.137C597.833 349.328 597.395 349.427 596.95 349.427Z" fill="#555386"/>
<path d="M442.789 333.645H438.766C438.496 333.645 438.277 333.864 438.277 334.133V336.157C438.277 336.426 438.496 336.645 438.766 336.645H442.789C443.059 336.645 443.277 336.426 443.277 336.157V334.133C443.277 333.864 443.059 333.645 442.789 333.645Z" fill="#3F3D56"/>
<path d="M452.789 333.645H448.766C448.496 333.645 448.277 333.864 448.277 334.133V336.157C448.277 336.426 448.496 336.645 448.766 336.645H452.789C453.059 336.645 453.277 336.426 453.277 336.157V334.133C453.277 333.864 453.059 333.645 452.789 333.645Z" fill="#3F3D56"/>
<path d="M462.789 333.645H458.766C458.496 333.645 458.277 333.864 458.277 334.133V336.157C458.277 336.426 458.496 336.645 458.766 336.645H462.789C463.059 336.645 463.277 336.426 463.277 336.157V334.133C463.277 333.864 463.059 333.645 462.789 333.645Z" fill="#3F3D56"/>
<path d="M472.789 333.645H468.766C468.496 333.645 468.277 333.864 468.277 334.133V336.157C468.277 336.426 468.496 336.645 468.766 336.645H472.789C473.059 336.645 473.277 336.426 473.277 336.157V334.133C473.277 333.864 473.059 333.645 472.789 333.645Z" fill="#3F3D56"/>
<path d="M482.789 333.645H478.766C478.496 333.645 478.277 333.864 478.277 334.133V336.157C478.277 336.426 478.496 336.645 478.766 336.645H482.789C483.059 336.645 483.277 336.426 483.277 336.157V334.133C483.277 333.864 483.059 333.645 482.789 333.645Z" fill="#3F3D56"/>
<path d="M492.789 333.645H488.766C488.496 333.645 488.277 333.864 488.277 334.133V336.157C488.277 336.426 488.496 336.645 488.766 336.645H492.789C493.059 336.645 493.277 336.426 493.277 336.157V334.133C493.277 333.864 493.059 333.645 492.789 333.645Z" fill="#3F3D56"/>
<path d="M502.789 333.645H498.766C498.496 333.645 498.277 333.864 498.277 334.133V336.157C498.277 336.426 498.496 336.645 498.766 336.645H502.789C503.059 336.645 503.277 336.426 503.277 336.157V334.133C503.277 333.864 503.059 333.645 502.789 333.645Z" fill="#3F3D56"/>
<path d="M512.789 333.645H508.766C508.496 333.645 508.277 333.864 508.277 334.133V336.157C508.277 336.426 508.496 336.645 508.766 336.645H512.789C513.059 336.645 513.277 336.426 513.277 336.157V334.133C513.277 333.864 513.059 333.645 512.789 333.645Z" fill="#3F3D56"/>
<path d="M522.789 333.645H518.766C518.496 333.645 518.277 333.864 518.277 334.133V336.157C518.277 336.426 518.496 336.645 518.766 336.645H522.789C523.059 336.645 523.277 336.426 523.277 336.157V334.133C523.277 333.864 523.059 333.645 522.789 333.645Z" fill="#3F3D56"/>
<path d="M532.789 333.645H528.766C528.496 333.645 528.277 333.864 528.277 334.133V336.157C528.277 336.426 528.496 336.645 528.766 336.645H532.789C533.059 336.645 533.277 336.426 533.277 336.157V334.133C533.277 333.864 533.059 333.645 532.789 333.645Z" fill="#3F3D56"/>
<path d="M542.789 333.645H538.766C538.496 333.645 538.277 333.864 538.277 334.133V336.157C538.277 336.426 538.496 336.645 538.766 336.645H542.789C543.059 336.645 543.277 336.426 543.277 336.157V334.133C543.277 333.864 543.059 333.645 542.789 333.645Z" fill="#3F3D56"/>
<path d="M552.789 333.645H548.766C548.496 333.645 548.277 333.864 548.277 334.133V336.157C548.277 336.426 548.496 336.645 548.766 336.645H552.789C553.059 336.645 553.277 336.426 553.277 336.157V334.133C553.277 333.864 553.059 333.645 552.789 333.645Z" fill="#3F3D56"/>
<path d="M562.789 333.645H558.766C558.496 333.645 558.277 333.864 558.277 334.133V336.157C558.277 336.426 558.496 336.645 558.766 336.645H562.789C563.059 336.645 563.277 336.426 563.277 336.157V334.133C563.277 333.864 563.059 333.645 562.789 333.645Z" fill="#3F3D56"/>
<path d="M572.789 333.645H568.766C568.496 333.645 568.277 333.864 568.277 334.133V336.157C568.277 336.426 568.496 336.645 568.766 336.645H572.789C573.059 336.645 573.277 336.426 573.277 336.157V334.133C573.277 333.864 573.059 333.645 572.789 333.645Z" fill="#3F3D56"/>
<path d="M582.789 333.645H578.766C578.496 333.645 578.277 333.864 578.277 334.133V336.157C578.277 336.426 578.496 336.645 578.766 336.645H582.789C583.059 336.645 583.277 336.426 583.277 336.157V334.133C583.277 333.864 583.059 333.645 582.789 333.645Z" fill="#3F3D56"/>
<path d="M592.789 333.645H588.766C588.496 333.645 588.277 333.864 588.277 334.133V336.157C588.277 336.426 588.496 336.645 588.766 336.645H592.789C593.059 336.645 593.277 336.426 593.277 336.157V334.133C593.277 333.864 593.059 333.645 592.789 333.645Z" fill="#3F3D56"/>
<path d="M442.672 338.645H438.648C438.379 338.645 438.16 338.864 438.16 339.133V341.157C438.16 341.426 438.379 341.645 438.648 341.645H442.672C442.942 341.645 443.16 341.426 443.16 341.157V339.133C443.16 338.864 442.942 338.645 442.672 338.645Z" fill="#3F3D56"/>
<path d="M452.672 338.645H448.648C448.379 338.645 448.16 338.864 448.16 339.133V341.157C448.16 341.426 448.379 341.645 448.648 341.645H452.672C452.942 341.645 453.16 341.426 453.16 341.157V339.133C453.16 338.864 452.942 338.645 452.672 338.645Z" fill="#3F3D56"/>
<path d="M462.672 338.645H458.648C458.379 338.645 458.16 338.864 458.16 339.133V341.157C458.16 341.426 458.379 341.645 458.648 341.645H462.672C462.942 341.645 463.16 341.426 463.16 341.157V339.133C463.16 338.864 462.942 338.645 462.672 338.645Z" fill="#3F3D56"/>
<path d="M472.672 338.645H468.648C468.379 338.645 468.16 338.864 468.16 339.133V341.157C468.16 341.426 468.379 341.645 468.648 341.645H472.672C472.942 341.645 473.16 341.426 473.16 341.157V339.133C473.16 338.864 472.942 338.645 472.672 338.645Z" fill="#3F3D56"/>
<path d="M482.672 338.645H478.648C478.379 338.645 478.16 338.864 478.16 339.133V341.157C478.16 341.426 478.379 341.645 478.648 341.645H482.672C482.942 341.645 483.16 341.426 483.16 341.157V339.133C483.16 338.864 482.942 338.645 482.672 338.645Z" fill="#3F3D56"/>
<path d="M492.672 338.645H488.648C488.379 338.645 488.16 338.864 488.16 339.133V341.157C488.16 341.426 488.379 341.645 488.648 341.645H492.672C492.942 341.645 493.16 341.426 493.16 341.157V339.133C493.16 338.864 492.942 338.645 492.672 338.645Z" fill="#3F3D56"/>
<path d="M502.672 338.645H498.648C498.379 338.645 498.16 338.864 498.16 339.133V341.157C498.16 341.426 498.379 341.645 498.648 341.645H502.672C502.942 341.645 503.16 341.426 503.16 341.157V339.133C503.16 338.864 502.942 338.645 502.672 338.645Z" fill="#3F3D56"/>
<path d="M512.672 338.645H508.648C508.379 338.645 508.16 338.864 508.16 339.133V341.157C508.16 341.426 508.379 341.645 508.648 341.645H512.672C512.942 341.645 513.16 341.426 513.16 341.157V339.133C513.16 338.864 512.942 338.645 512.672 338.645Z" fill="#3F3D56"/>
<path d="M522.672 338.645H518.648C518.379 338.645 518.16 338.864 518.16 339.133V341.157C518.16 341.426 518.379 341.645 518.648 341.645H522.672C522.942 341.645 523.16 341.426 523.16 341.157V339.133C523.16 338.864 522.942 338.645 522.672 338.645Z" fill="#3F3D56"/>
<path d="M532.672 338.645H528.648C528.379 338.645 528.16 338.864 528.16 339.133V341.157C528.16 341.426 528.379 341.645 528.648 341.645H532.672C532.942 341.645 533.16 341.426 533.16 341.157V339.133C533.16 338.864 532.942 338.645 532.672 338.645Z" fill="#3F3D56"/>
<path d="M542.672 338.645H538.648C538.379 338.645 538.16 338.864 538.16 339.133V341.157C538.16 341.426 538.379 341.645 538.648 341.645H542.672C542.942 341.645 543.16 341.426 543.16 341.157V339.133C543.16 338.864 542.942 338.645 542.672 338.645Z" fill="#3F3D56"/>
<path d="M552.672 338.645H548.648C548.379 338.645 548.16 338.864 548.16 339.133V341.157C548.16 341.426 548.379 341.645 548.648 341.645H552.672C552.942 341.645 553.16 341.426 553.16 341.157V339.133C553.16 338.864 552.942 338.645 552.672 338.645Z" fill="#3F3D56"/>
<path d="M562.672 338.645H558.648C558.379 338.645 558.16 338.864 558.16 339.133V341.157C558.16 341.426 558.379 341.645 558.648 341.645H562.672C562.942 341.645 563.16 341.426 563.16 341.157V339.133C563.16 338.864 562.942 338.645 562.672 338.645Z" fill="#3F3D56"/>
<path d="M572.672 338.645H568.648C568.379 338.645 568.16 338.864 568.16 339.133V341.157C568.16 341.426 568.379 341.645 568.648 341.645H572.672C572.942 341.645 573.16 341.426 573.16 341.157V339.133C573.16 338.864 572.942 338.645 572.672 338.645Z" fill="#3F3D56"/>
<path d="M582.672 338.645H578.648C578.379 338.645 578.16 338.864 578.16 339.133V341.157C578.16 341.426 578.379 341.645 578.648 341.645H582.672C582.942 341.645 583.16 341.426 583.16 341.157V339.133C583.16 338.864 582.942 338.645 582.672 338.645Z" fill="#3F3D56"/>
<path d="M592.672 338.645H588.648C588.379 338.645 588.16 338.864 588.16 339.133V341.157C588.16 341.426 588.379 341.645 588.648 341.645H592.672C592.942 341.645 593.16 341.426 593.16 341.157V339.133C593.16 338.864 592.942 338.645 592.672 338.645Z" fill="#3F3D56"/>
<path d="M525.672 344.645H486.648C486.379 344.645 486.16 344.864 486.16 345.133V347.157C486.16 347.426 486.379 347.645 486.648 347.645H525.672C525.942 347.645 526.16 347.426 526.16 347.157V345.133C526.16 344.864 525.942 344.645 525.672 344.645Z" fill="#3F3D56"/>
<path d="M631.307 577.663L623.597 565.273L622.057 572.353C621.787 573.593 621.517 574.853 621.267 576.103C619.077 574.233 616.747 572.503 614.467 570.843C607.467 565.763 600.47 560.676 593.477 555.583L595.667 568.283C597.017 576.103 598.427 584.083 601.767 591.233C602.137 592.043 602.537 592.843 602.967 593.623H635.507C635.769 592.898 635.95 592.147 636.047 591.383C636.055 591.333 636.058 591.283 636.057 591.233C636.567 586.383 633.887 581.813 631.307 577.663Z" fill="#68648C"/>
<path d="M191.307 577.663L183.597 565.273L182.057 572.353C181.787 573.593 181.517 574.853 181.267 576.103C179.077 574.233 176.747 572.503 174.467 570.843C167.467 565.763 160.47 560.676 153.477 555.583L155.667 568.283C157.017 576.103 158.427 584.083 161.767 591.233C162.137 592.043 162.537 592.843 162.967 593.623H195.507C195.769 592.898 195.95 592.147 196.047 591.383C196.055 591.333 196.058 591.283 196.057 591.233C196.567 586.383 193.887 581.813 191.307 577.663Z" fill="#68648C"/>
<path d="M809.849 594.978L534.099 595.285C533.784 595.284 533.482 595.158 533.26 594.935C533.037 594.712 532.912 594.409 532.912 594.094C532.912 593.779 533.037 593.477 533.26 593.253C533.482 593.03 533.784 592.904 534.099 592.904L809.849 592.596C810.165 592.597 810.467 592.723 810.689 592.946C810.912 593.169 811.037 593.472 811.037 593.787C811.037 594.102 810.912 594.404 810.689 594.628C810.467 594.851 810.165 594.977 809.849 594.978Z" fill="#5E5A7E"/>
<path d="M277.849 594.978L2.09935 595.285C1.78416 595.284 1.4822 595.158 1.25964 594.935C1.03709 594.712 0.912109 594.409 0.912109 594.094C0.912109 593.779 1.03709 593.477 1.25964 593.253C1.4822 593.03 1.78416 592.904 2.09935 592.904L277.849 592.596C278.165 592.597 278.467 592.723 278.689 592.946C278.912 593.169 279.037 593.472 279.037 593.787C279.037 594.102 278.912 594.404 278.689 594.628C278.467 594.851 278.165 594.977 277.849 594.978Z" fill="#5E5A7E"/>
<path d="M179.281 42.4051C174.511 43.8251 170.061 39.8351 166.741 36.0551L167.921 37.4551C160.111 42.9551 155.441 51.9151 152.411 60.9851C149.381 70.0451 147.691 79.5351 144.271 88.4651C140.851 97.3851 135.331 106.015 126.881 110.465C115.561 116.425 101.691 113.715 89.6511 109.415C89.4911 109.355 89.3411 109.305 89.1811 109.245C94.0575 100.136 97.0439 90.1363 97.9611 79.8451C93.0082 89.5148 85.8651 97.8941 77.1011 104.315C69.234 100.739 61.6693 96.5319 54.4811 91.7351C49.8311 88.6251 44.9311 84.6051 44.3911 79.0351C43.8411 73.5051 47.9711 68.4551 52.8411 65.7951C57.7111 63.1351 63.3111 62.2351 68.6311 60.6351C73.9411 59.0451 79.3611 56.4351 82.1511 51.6351C88.5811 40.5951 77.7611 25.0251 84.6611 14.2651C88.0611 8.97506 94.6611 6.85505 100.781 5.38505C110.122 3.1507 119.604 1.55039 129.161 0.59506C137.551 -0.24494 146.221 -0.554937 154.201 2.14506C162.181 4.84506 169.421 11.1151 171.131 19.3751C175.791 21.8251 180.721 24.5351 183.221 29.1851C185.721 33.825 184.331 40.9051 179.281 42.4051Z" fill="#3A367D"/>
<path d="M172.159 40.5448C167.592 46.2667 165.105 52.4545 165.105 56.1602C155.617 73.5024 169.186 88.3985 186.528 97.8869C193.445 101.691 201.432 103.084 209.229 101.844L209.954 98.7473L210.937 101.537C210.937 101.537 222.228 138.83 225.953 141.018C224.539 134.381 222.921 103.651 222.134 97.174C221.045 88.3582 224.842 75.2337 227.58 67.2524C229.279 62.3334 230.15 57.1671 230.16 51.9632V51.7356L232.827 60.3022L242.536 56.1602C240.73 45.7992 242.536 34.0371 220.88 35.0572C209.167 27.0019 198.853 25.7748 190.38 28.0595C189.287 26.369 182.982 29.5353 181.16 28.6451" fill="#3A367D"/>
<path d="M654.91 82.685V265.305C654.908 266.58 654.401 267.802 653.499 268.704C652.597 269.605 651.375 270.113 650.1 270.115H553.88C543.236 260.243 534.503 248.494 528.12 235.455C527.7 234.615 527.3 233.765 526.92 232.905C521.105 220.285 517.583 206.73 516.52 192.875C516.45 192.025 516.39 191.175 516.35 190.315C516.22 188.115 516.16 185.885 516.16 183.645C516.141 168.747 518.954 153.982 524.45 140.135C524.78 139.275 525.13 138.425 525.49 137.575C536.551 111.588 556.536 90.4104 581.84 77.865H650.1C651.377 77.8678 652.6 78.3768 653.502 79.2804C654.404 80.184 654.91 81.4084 654.91 82.685Z" fill="#6C63FF"/>
<path d="M636.383 103.026H381.06C380.794 103.02 380.542 102.911 380.356 102.721C380.17 102.531 380.066 102.276 380.066 102.011C380.066 101.745 380.17 101.49 380.356 101.301C380.542 101.111 380.794 101.001 381.06 100.995H636.383C636.648 101.001 636.901 101.111 637.087 101.301C637.272 101.49 637.376 101.745 637.376 102.011C637.376 102.276 637.272 102.531 637.087 102.721C636.901 102.911 636.648 103.02 636.383 103.026Z" fill="#4F4882"/>
<path d="M398.441 95.8111C401.727 95.8111 404.391 93.0876 404.391 89.7281C404.391 86.3685 401.727 83.645 398.441 83.645C395.154 83.645 392.49 86.3685 392.49 89.7281C392.49 93.0876 395.154 95.8111 398.441 95.8111Z" fill="#4F4882"/>
<path d="M418.995 95.8111C422.282 95.8111 424.946 93.0876 424.946 89.7281C424.946 86.3685 422.282 83.645 418.995 83.645C415.709 83.645 413.045 86.3685 413.045 89.7281C413.045 93.0876 415.709 95.8111 418.995 95.8111Z" fill="#4F4882"/>
<path d="M439.552 95.8111C442.838 95.8111 445.502 93.0876 445.502 89.7281C445.502 86.3685 442.838 83.645 439.552 83.645C436.266 83.645 433.602 86.3685 433.602 89.7281C433.602 93.0876 436.266 95.8111 439.552 95.8111Z" fill="#4F4882"/>
<path d="M624.006 85.1528H609.404C609.115 85.1585 608.839 85.2775 608.637 85.4843C608.434 85.691 608.32 85.969 608.32 86.2585C608.32 86.548 608.434 86.8259 608.637 87.0327C608.839 87.2394 609.115 87.3584 609.404 87.3641H624.006C624.296 87.3584 624.571 87.2394 624.774 87.0327C624.977 86.8259 625.09 86.548 625.09 86.2585C625.09 85.969 624.977 85.691 624.774 85.4843C624.571 85.2775 624.296 85.1585 624.006 85.1528Z" fill="#3C3771"/>
<path d="M624.006 89.303H609.404C609.115 89.3087 608.839 89.4277 608.637 89.6344C608.434 89.8411 608.32 90.1191 608.32 90.4086C608.32 90.6981 608.434 90.9761 608.637 91.1828C608.839 91.3895 609.115 91.5085 609.404 91.5142H624.006C624.296 91.5085 624.571 91.3895 624.774 91.1828C624.977 90.9761 625.09 90.6981 625.09 90.4086C625.09 90.1191 624.977 89.8411 624.774 89.6344C624.571 89.4277 624.296 89.3087 624.006 89.303Z" fill="#3C3771"/>
<path d="M624.006 93.4478H609.404C609.115 93.4535 608.839 93.5725 608.637 93.7792C608.434 93.9859 608.32 94.2639 608.32 94.5534C608.32 94.8429 608.434 95.1209 608.637 95.3276C608.839 95.5343 609.115 95.6533 609.404 95.659H624.006C624.296 95.6533 624.571 95.5343 624.774 95.3276C624.977 95.1209 625.09 94.8429 625.09 94.5534C625.09 94.2639 624.977 93.9859 624.774 93.7792C624.571 93.5725 624.296 93.4535 624.006 93.4478Z" fill="#3C3771"/>
<path d="M457.337 162.344H425.433C423.036 162.344 421.094 164.286 421.094 166.683V166.683C421.094 169.079 423.036 171.022 425.433 171.022H457.337C459.733 171.022 461.676 169.079 461.676 166.683C461.676 164.286 459.733 162.344 457.337 162.344Z" fill="#6C63FF"/>
<path d="M477.948 179.7H404.823C402.427 179.7 400.484 181.642 400.484 184.039C400.484 186.435 402.427 188.378 404.823 188.378H477.948C480.344 188.378 482.287 186.435 482.287 184.039C482.287 181.642 480.344 179.7 477.948 179.7Z" fill="#4F4882"/>
<path d="M477.948 197.056H404.823C402.427 197.056 400.484 198.998 400.484 201.395V201.395C400.484 203.791 402.427 205.734 404.823 205.734H477.948C480.344 205.734 482.287 203.791 482.287 201.395C482.287 198.998 480.344 197.056 477.948 197.056Z" fill="#4F4882"/>
<path d="M407.16 259.645C407.166 263.219 406.529 266.766 405.28 270.115H377.23C375.955 270.113 374.733 269.605 373.831 268.704C372.93 267.802 372.422 266.58 372.42 265.305V230.025C373.987 229.772 375.572 229.644 377.16 229.645C381.1 229.645 385.001 230.421 388.641 231.928C392.281 233.436 395.588 235.645 398.374 238.431C401.159 241.217 403.369 244.524 404.877 248.164C406.384 251.804 407.16 255.705 407.16 259.645Z" fill="#6C63FF"/>
<path opacity="0.2" d="M655.16 140.135V137.575H612.25V107.905H609.7V137.575H560.52V107.905H557.97V137.575H525.49C525.13 138.425 524.78 139.275 524.45 140.135H557.97V190.315H516.35C516.39 191.175 516.45 192.025 516.52 192.875H557.97V232.905H526.92C527.3 233.765 527.7 234.615 528.12 235.455H557.97V269.105H560.52V235.455H609.7V269.105H612.25V235.455H655.16V232.905H612.25V192.875H655.16V190.315H612.25V140.135H655.16ZM609.7 232.905H560.52V192.875H609.7V232.905ZM609.7 190.315H560.52V140.135H609.7V190.315Z" fill="black"/>
<path d="M620.611 251.169C620.063 251.194 619.522 251.05 619.059 250.757C618.596 250.464 618.234 250.036 618.023 249.53C617.811 249.025 617.76 248.467 617.877 247.931C617.993 247.396 618.272 246.909 618.674 246.537L618.857 245.809C618.833 245.751 618.809 245.693 618.784 245.634C618.233 244.332 617.309 243.222 616.129 242.443C614.948 241.664 613.564 241.251 612.149 241.256C610.735 241.261 609.354 241.684 608.179 242.472C607.004 243.26 606.089 244.377 605.547 245.684C603.382 250.898 600.626 256.121 599.947 261.635C599.648 264.072 599.774 266.542 600.319 268.936C595.234 257.844 592.594 245.787 592.577 233.585C592.576 230.523 592.746 227.463 593.086 224.42C593.368 221.925 593.758 219.449 594.258 216.989C596.983 203.646 602.835 191.14 611.332 180.497C615.445 178.253 618.771 174.803 620.862 170.61C621.62 169.103 622.155 167.494 622.452 165.834C621.988 165.894 621.517 165.932 621.053 165.963C620.908 165.97 620.756 165.978 620.611 165.986L620.557 165.988C620.047 166.011 619.541 165.886 619.101 165.628C618.66 165.37 618.304 164.991 618.074 164.535C617.844 164.079 617.751 163.567 617.806 163.059C617.861 162.552 618.061 162.071 618.382 161.675C618.583 161.428 618.783 161.182 618.984 160.936C619.288 160.555 619.6 160.183 619.904 159.802C619.939 159.766 619.972 159.728 620.003 159.688C620.353 159.255 620.703 158.829 621.053 158.395C620.414 157.404 619.555 156.574 618.543 155.969C615.036 153.915 610.199 155.338 607.667 158.509C605.126 161.681 604.647 166.13 605.529 170.093C606.397 173.464 607.832 176.664 609.773 179.554C609.583 179.798 609.385 180.033 609.195 180.277C605.719 184.746 602.69 189.546 600.15 194.606C600.768 188.937 600.031 183.202 598 177.873C595.941 172.907 592.083 168.725 588.685 164.432C584.603 159.275 576.234 161.525 575.515 168.062C575.508 168.126 575.501 168.189 575.495 168.252C575.999 168.537 576.493 168.839 576.977 169.159C577.584 169.564 578.054 170.144 578.327 170.822C578.599 171.5 578.66 172.244 578.502 172.957C578.344 173.67 577.974 174.318 577.441 174.818C576.908 175.317 576.237 175.644 575.515 175.755L575.441 175.767C575.621 177.586 575.939 179.388 576.392 181.159C577.705 186.102 580.025 190.721 583.207 194.726C586.388 198.731 590.363 202.036 594.881 204.432C595.178 204.584 595.467 204.737 595.764 204.881C593.212 212.112 591.612 219.644 591.003 227.287C590.658 231.797 590.678 236.327 591.063 240.833L591.041 240.673C590.067 235.663 587.394 231.141 583.473 227.873C577.649 223.089 569.421 221.327 563.139 217.482C562.471 217.053 561.694 216.825 560.901 216.823C560.107 216.821 559.33 217.046 558.66 217.471C557.99 217.897 557.456 218.505 557.121 219.224C556.785 219.943 556.662 220.743 556.767 221.529C556.775 221.585 556.784 221.641 556.792 221.697C557.729 222.079 558.641 222.518 559.523 223.013C560.027 223.298 560.521 223.6 561.005 223.92C561.612 224.325 562.083 224.905 562.355 225.583C562.627 226.261 562.688 227.005 562.53 227.718C562.372 228.431 562.002 229.079 561.469 229.579C560.936 230.078 560.265 230.405 559.543 230.516L559.469 230.527C559.416 230.535 559.37 230.543 559.317 230.55C560.918 234.371 563.164 237.888 565.957 240.947C569.408 244.65 573.579 247.609 578.214 249.643C582.849 251.676 587.85 252.742 592.912 252.774H592.919C594.293 258.745 596.284 264.556 598.859 270.115H620.079C620.155 269.879 620.224 269.636 620.292 269.4C618.328 269.523 616.356 269.406 614.42 269.05C615.995 267.118 617.569 265.171 619.144 263.239C619.179 263.203 619.212 263.165 619.242 263.125C620.041 262.137 620.847 261.156 621.646 260.167L621.646 260.166C621.689 257.135 621.34 254.111 620.611 251.169ZM596.311 203.368L596.322 203.353L596.311 203.383V203.368ZM591.611 245.739L591.428 245.328C591.436 245.032 591.436 244.735 591.428 244.431C591.428 244.347 591.413 244.263 591.413 244.18C591.482 244.705 591.543 245.229 591.619 245.754L591.611 245.739Z" fill="#3C3771"/>
</g>
<defs>
<clipPath id="clip0_433_629">
<rect width="810.131" height="595.285" fill="white" transform="translate(0.908203)"/>
</clipPath>
</defs>
</svg>
