<svg width="914" height="853" viewBox="0 0 914 853" fill="none" xmlns="http://www.w3.org/2000/svg">
<g clip-path="url(#clip0_433_504)">
<path d="M202.37 301.806C232.367 301.806 256.685 277.489 256.685 247.491C256.685 217.494 232.367 193.176 202.37 193.176C172.372 193.176 148.055 217.494 148.055 247.491C148.055 277.489 172.372 301.806 202.37 301.806Z" fill="#FF6584"/>
<path d="M887.223 429.58C887.223 661.54 699.182 849.58 467.223 849.58C235.263 849.58 -130.773 578.318 47.2225 429.58C226.358 279.89 322.565 49.6742 467.223 9.58019C690.755 -52.3752 887.223 197.621 887.223 429.58Z" fill="#F2F2F2"/>
<path d="M444.723 556.681L457.973 579.631L471.223 602.58H444.723H418.223L431.473 579.631L444.723 556.681Z" fill="#FF6584"/>
<path d="M690.271 247.781C690.271 247.781 707.888 235.118 710.09 241.174C712.293 247.23 696.877 258.241 696.877 258.241L690.271 247.781Z" fill="#FFB9B9"/>
<path d="M752.758 264.022C752.758 285.914 743.332 286.594 727.977 286.594C712.622 286.594 697.152 285.914 697.152 264.022C697.152 242.129 709.6 224.382 724.955 224.382C740.31 224.382 752.758 242.129 752.758 264.022Z" fill="#2F2E41"/>
<path d="M715.045 263.746C715.045 263.746 717.247 280.263 706.787 281.364C696.326 282.465 740.921 285.768 740.921 285.768C740.921 285.768 729.359 275.308 735.415 267.05C741.471 258.791 715.045 263.746 715.045 263.746Z" fill="#FFB9B9"/>
<path opacity="0.1" d="M715.045 263.746C715.045 263.746 717.247 280.263 706.787 281.364C696.326 282.465 740.921 285.768 740.921 285.768C740.921 285.768 729.359 275.308 735.415 267.05C741.471 258.791 715.045 263.746 715.045 263.746Z" fill="black"/>
<path d="M659.44 558.841L655.586 591.324C655.586 591.324 636.317 614.997 648.429 613.346C660.541 611.694 668.249 610.042 668.249 607.84C668.249 605.638 669.9 596.829 671.552 596.829C673.204 596.829 673.204 602.885 673.204 602.885C675.093 602.079 676.931 601.16 678.709 600.132C679.26 599.582 679.81 580.863 679.81 580.863C679.81 580.863 681.462 571.504 678.159 567.099C674.855 562.695 675.406 558.841 675.406 558.841H659.44Z" fill="#2F2E41"/>
<path d="M748.079 556.639C748.079 556.639 746.427 589.121 744.225 590.773C742.023 592.425 735.967 616.098 746.978 612.795C757.989 609.492 762.943 606.188 762.943 603.986C762.943 601.784 762.943 586.369 764.045 583.065C765.146 579.762 764.045 573.706 763.494 573.155C762.943 572.605 761.842 557.189 761.842 557.189L748.079 556.639Z" fill="#2F2E41"/>
<path d="M688.068 365.598C688.068 365.598 670.451 415.698 669.349 426.709C668.248 437.72 670.451 475.158 670.451 475.158C670.451 475.158 654.485 559.942 657.788 560.493C661.091 561.043 676.507 563.245 677.057 560.493C677.608 557.74 679.81 553.886 679.259 552.234C678.709 550.583 680.911 544.527 680.911 541.224C680.911 537.92 691.371 500.483 690.821 497.73C690.27 494.977 700.18 454.237 701.832 450.933C703.484 447.63 707.888 424.507 707.888 424.507C707.888 424.507 732.663 492.225 733.213 493.876C733.764 495.528 735.966 498.281 734.865 498.831C733.764 499.382 736.517 503.236 736.517 503.236C736.517 503.236 745.876 546.178 745.876 547.28C745.876 548.381 744.775 557.189 746.977 557.74C749.179 558.291 762.943 561.594 764.044 557.74C765.145 553.886 757.437 489.472 757.437 489.472C757.437 489.472 748.078 461.394 750.831 454.237C753.584 447.079 748.078 404.137 745.876 400.833C743.674 397.53 743.123 377.71 743.123 377.71L688.068 365.598Z" fill="#2F2E41"/>
<path d="M724.68 272.831C734.41 272.831 742.298 264.943 742.298 255.213C742.298 245.483 734.41 237.595 724.68 237.595C714.95 237.595 707.062 245.483 707.062 255.213C707.062 264.943 714.95 272.831 724.68 272.831Z" fill="#FFB9B9"/>
<path d="M715.045 277.51C715.045 277.51 734.865 278.061 735.966 276.409C737.067 274.757 764.594 280.263 764.594 291.274C764.594 302.285 748.629 345.228 748.629 345.228C748.629 345.228 742.573 376.059 744.224 379.362C745.876 382.665 683.113 372.205 684.765 366.699C686.416 361.194 695.776 349.082 683.664 338.621C671.552 328.161 666.597 317.15 666.597 317.15L680.911 279.162C680.911 279.162 695.225 276.96 698.529 279.162C701.832 281.364 715.045 277.51 715.045 277.51Z" fill="#6C63FF"/>
<path d="M670.451 319.903L666.597 317.15C666.597 317.15 630.811 279.712 640.17 272.555C649.53 265.398 663.293 258.792 669.9 258.241C676.507 257.69 682.012 252.735 682.012 252.735C682.012 252.735 689.169 240.073 694.675 248.331C700.18 256.589 706.236 259.342 698.529 262.095C690.821 264.848 685.866 263.746 682.012 266.499C678.158 269.252 663.293 273.656 669.9 275.308C673.689 276.226 677.377 277.517 680.911 279.162L688.068 291.825L670.451 319.903Z" fill="#6C63FF"/>
<path d="M732.663 412.946C732.663 412.946 718.348 433.866 728.809 432.765C739.269 431.664 744.224 417.35 744.224 417.35L732.663 412.946Z" fill="#FFB9B9"/>
<path d="M760.741 288.521L764.594 291.274C764.594 291.274 777.257 360.643 764.594 378.811C751.932 396.98 750.831 395.878 750.831 395.878C750.831 395.878 748.628 394.227 747.527 405.238C746.426 416.249 748.078 420.653 744.775 420.653C741.471 420.653 726.606 417.35 727.708 414.597C728.809 411.844 735.966 395.878 736.516 392.025C737.067 388.171 739.82 379.362 740.921 374.407C742.022 369.452 735.966 366.699 738.719 356.239C741.471 345.778 745.325 327.06 745.325 323.206C745.325 319.352 760.741 288.521 760.741 288.521Z" fill="#6C63FF"/>
<path d="M741.747 239.522C741.747 245.452 733.613 250.258 723.579 250.258C713.545 250.258 704.31 253.434 704.31 247.505C704.31 241.576 713.545 228.787 723.579 228.787C733.613 228.787 741.747 233.593 741.747 239.522Z" fill="#2F2E41"/>
<path d="M697.317 267.737C697.317 267.737 696.576 287.695 716.408 286.594C736.241 285.493 713.728 269.534 713.728 269.534L697.317 267.737Z" fill="#2F2E41"/>
<path d="M382.936 548.542L383.788 496.142L419.223 431.315L383.921 487.922L384.304 464.361L408.725 417.459L384.405 458.126L385.094 415.75L411.245 378.41L385.202 409.086L385.632 331.383L382.929 434.248L383.151 430.004L356.563 389.307L382.725 438.15L380.247 485.477L380.173 484.221L349.522 441.393L380.081 488.658L379.771 494.577L379.715 494.666L379.741 495.152L373.455 615.224H381.853L382.861 553.204L413.344 506.055L382.936 548.542Z" fill="#3F3D56"/>
<path d="M810.935 649.542L811.788 597.142L847.223 532.315L811.921 588.922L812.304 565.361L836.724 518.459L812.405 559.126L813.094 516.75L839.245 479.41L813.202 510.086L813.632 432.383L810.929 535.248L811.151 531.004L784.562 490.307L810.724 539.15L808.247 586.477L808.172 585.221L777.521 542.393L808.081 589.658L807.771 595.577L807.715 595.666L807.741 596.152L801.455 716.224H809.853L810.861 654.204L841.344 607.055L810.935 649.542Z" fill="#3F3D56"/>
<path d="M913.223 600.58H547.223V852.58H913.223V600.58Z" fill="#3F3D56"/>
<path d="M303.817 600.58V691.58H181.223V852.58H564.723V600.58H303.817Z" fill="#3F3D56"/>
<path opacity="0.1" d="M664.223 600.58H547.223V691.58H664.223V600.58Z" fill="black"/>
<path opacity="0.1" d="M913.223 761.58H796.223V852.58H913.223V761.58Z" fill="black"/>
<path d="M358.723 298.29C373.082 298.29 384.723 286.649 384.723 272.29C384.723 257.931 373.082 246.29 358.723 246.29C344.363 246.29 332.723 257.931 332.723 272.29C332.723 286.649 344.363 298.29 358.723 298.29Z" fill="#6C63FF"/>
<path d="M554.223 180.58H510.223V224.58H554.223V180.58Z" fill="#6C63FF"/>
</g>
<defs>
<clipPath id="clip0_433_504">
<rect width="913.223" height="852.58" fill="white"/>
</clipPath>
</defs>
</svg>
