<svg width="256" height="256" viewBox="0 0 256 256" fill="none" xmlns="http://www.w3.org/2000/svg">
<circle cx="128" cy="128" r="110.703" fill="white"/>
<path d="M187.064 86.7923C190.412 86.6429 192.667 90.1743 191.122 93.1488L176.099 122.074L154.503 88.2449L187.064 86.7923Z" fill="url(#paint0_linear_602_2913)"/>
<path d="M101.077 146.161L84.3167 178.433C83.5442 179.92 81.4515 180.013 80.5497 178.601L63.0111 151.128C62.1093 149.716 63.0749 147.857 64.7491 147.782L101.077 146.161Z" fill="url(#paint1_linear_602_2913)"/>
<path d="M70.5431 96.3115L123.365 93.955C125.02 93.8812 126.148 95.6102 125.413 97.0953L101.142 146.151L155.824 144.739C157.481 144.696 158.576 146.447 157.812 147.919L133.444 194.839C132.671 196.326 133.798 198.092 135.473 198.017L159.33 196.953C160.884 196.883 162.283 195.99 163 194.61L187.332 147.761C188.766 145 188.618 141.684 186.944 139.061L176.091 122.063L139.825 123.502C138.154 123.569 137.035 121.805 137.807 120.321L154.507 88.2531L143.657 71.2577C141.983 68.6354 139.037 67.1054 135.929 67.244L83.1911 69.5968C81.6371 69.6661 80.2381 70.5592 79.5211 71.9397L68.514 93.1332C67.7416 94.6205 68.8689 96.3862 70.5431 96.3115Z" fill="url(#paint2_linear_602_2913)"/>
<defs>
<linearGradient id="paint0_linear_602_2913" x1="188.382" y1="91.7378" x2="77.704" y2="163.709" gradientUnits="userSpaceOnUse">
<stop stop-color="#55A2EA"/>
<stop offset="1" stop-color="#0B2E4F"/>
</linearGradient>
<linearGradient id="paint1_linear_602_2913" x1="188.382" y1="91.7378" x2="77.704" y2="163.709" gradientUnits="userSpaceOnUse">
<stop stop-color="#55A2EA"/>
<stop offset="1" stop-color="#0B2E4F"/>
</linearGradient>
<linearGradient id="paint2_linear_602_2913" x1="188.382" y1="91.7378" x2="77.704" y2="163.709" gradientUnits="userSpaceOnUse">
<stop stop-color="#55A2EA"/>
<stop offset="1" stop-color="#0B2E4F"/>
</linearGradient>
</defs>
</svg>
