<svg width="256" height="257" viewBox="0 0 256 257" fill="none" xmlns="http://www.w3.org/2000/svg">
<g clip-path="url(#clip0_602_7414)">
<path d="M115 230.271C156.421 230.271 190 196.693 190 155.271C190 113.85 156.421 80.2715 115 80.2715C73.5786 80.2715 40 113.85 40 155.271C40 196.693 73.5786 230.271 115 230.271Z" fill="#184539"/>
<path d="M131 166.271C172.421 166.271 206 132.693 206 91.2715C206 49.8501 172.421 16.2715 131 16.2715C89.5786 16.2715 56 49.8501 56 91.2715C56 132.693 89.5786 166.271 131 166.271Z" fill="#4B222F"/>
<path d="M95 210.271C136.421 210.271 170 176.693 170 135.271C170 93.8501 136.421 60.2715 95 60.2715C53.5786 60.2715 20 93.8501 20 135.271C20 176.693 53.5786 210.271 95 210.271Z" fill="#207758"/>
<path d="M161 196.271C202.421 196.271 236 162.693 236 121.271C236 79.8501 202.421 46.2715 161 46.2715C119.579 46.2715 86 79.8501 86 121.271C86 162.693 119.579 196.271 161 196.271Z" fill="#873145"/>
<path d="M176 226.271C217.421 226.271 251 192.693 251 151.271C251 109.85 217.421 76.2715 176 76.2715C134.579 76.2715 101 109.85 101 151.271C101 192.693 134.579 226.271 176 226.271Z" fill="#C3425B"/>
<path d="M5 105.271C5 146.693 38.5786 180.271 80 180.271C103.868 180.271 125.132 169.122 138.868 151.748L113.509 105.271L120.755 73.3281C120.755 31.9067 121.421 30.2715 80 30.2715C38.5786 30.2715 5 63.8501 5 105.271Z" fill="#2AAB78"/>
<path d="M181 256.271C222.421 256.271 256 222.693 256 181.271C256 139.85 222.421 106.271 181 106.271C139.579 106.271 106 139.85 106 181.271C106 222.693 139.579 256.271 181 256.271Z" fill="#FF5370"/>
<path d="M75 150.271C116.421 150.271 150 116.693 150 75.2715C150 33.8501 116.421 0.271484 75 0.271484C33.5786 0.271484 0 33.8501 0 75.2715C0 116.693 33.5786 150.271 75 150.271Z" fill="#33DF97"/>
</g>
<defs>
<clipPath id="clip0_602_7414">
<rect width="256" height="256" fill="white" transform="translate(0 0.271484)"/>
</clipPath>
</defs>
</svg>
