<svg width="256" height="257" viewBox="0 0 256 257" fill="none" xmlns="http://www.w3.org/2000/svg">
<rect width="256" height="256" transform="translate(0 0.271484)" fill="#100322"/>
<rect width="256" height="256" transform="translate(0 0.271484)" fill="url(#paint0_radial_603_2384)" fill-opacity="0.2"/>
<g filter="url(#filter0_d_603_2384)">
<path d="M93.3479 196.737C84.1479 193.004 76.0812 187.871 69.1479 181.337C62.3479 174.671 57.0145 166.871 53.1479 157.937C49.4145 149.004 47.5479 139.337 47.5479 128.937C47.5479 118.404 49.4145 108.737 53.1479 99.9373C57.0145 91.004 62.3479 83.2706 69.1479 76.7373C76.0812 70.204 84.0812 65.0706 93.1479 61.3373C102.348 57.604 112.281 55.7373 122.948 55.7373C134.148 55.7373 144.215 57.5373 153.148 61.1373C159.277 63.5158 164.904 66.5532 170.029 70.2497C173.87 73.02 173.959 78.5266 170.61 81.8753L158.983 93.5018C155.598 96.887 150.082 96.6316 146.078 94.0076C144.306 92.8463 142.396 91.8229 140.348 90.9373C135.415 88.804 129.615 87.7373 122.948 87.7373C117.215 87.7373 111.948 88.6706 107.148 90.5373C102.481 92.404 98.4145 95.204 94.9479 98.9373C91.4812 102.537 88.7479 106.871 86.7479 111.937C84.8812 117.004 83.9479 122.671 83.9479 128.937C83.9479 135.204 84.8812 140.871 86.7479 145.937C88.7479 151.004 91.4812 155.404 94.9479 159.137C98.4145 162.737 102.481 165.537 107.148 167.537C111.948 169.404 117.215 170.337 122.948 170.337C129.438 170.337 173.783 170.403 193.756 170.433C199.775 170.442 205.304 167.206 208.266 161.966L214.883 150.256C216.955 146.589 214.306 142.05 210.095 142.05H187.028C181.38 142.05 176.095 144.898 173.306 149.809C158.091 176.594 143.364 213.102 93.3479 196.737Z" fill="url(#paint1_linear_603_2384)"/>
</g>
<defs>
<filter id="filter0_d_603_2384" x="31.5479" y="50.7373" width="200.055" height="177.07" filterUnits="userSpaceOnUse" color-interpolation-filters="sRGB">
<feFlood flood-opacity="0" result="BackgroundImageFix"/>
<feColorMatrix in="SourceAlpha" type="matrix" values="0 0 0 0 0 0 0 0 0 0 0 0 0 0 0 0 0 0 127 0" result="hardAlpha"/>
<feOffset dy="11"/>
<feGaussianBlur stdDeviation="8"/>
<feComposite in2="hardAlpha" operator="out"/>
<feColorMatrix type="matrix" values="0 0 0 0 0.164706 0 0 0 0 0.803922 0 0 0 0 1 0 0 0 0.17 0"/>
<feBlend mode="normal" in2="BackgroundImageFix" result="effect1_dropShadow_603_2384"/>
<feBlend mode="normal" in="SourceGraphic" in2="effect1_dropShadow_603_2384" result="shape"/>
</filter>
<radialGradient id="paint0_radial_603_2384" cx="0" cy="0" r="1" gradientUnits="userSpaceOnUse" gradientTransform="translate(128) rotate(90) scale(204.014)">
<stop stop-color="#00A1E0"/>
<stop offset="1" stop-color="#00B7FF" stop-opacity="0"/>
</radialGradient>
<linearGradient id="paint1_linear_603_2384" x1="113.697" y1="126.414" x2="133.534" y2="200.807" gradientUnits="userSpaceOnUse">
<stop stop-color="#2ACDFF"/>
<stop offset="1" stop-color="#2A59FF"/>
</linearGradient>
</defs>
</svg>
