<svg width="256" height="257" viewBox="0 0 256 257" fill="none" xmlns="http://www.w3.org/2000/svg">
<path d="M119.98 21.6961L119.979 21.6984C116.468 33.2984 109.846 49.5839 98.8051 67.3684L90.8585 58.1151L90.8584 58.115C85.2762 51.6154 74.8102 51.4502 69.6766 58.9397L69.6759 58.9407C58.1376 75.7848 43.7251 104.036 40.3524 141.103L40.3523 141.104C37.5139 172.417 46.5376 198.319 63.7043 216.397C80.8431 234.445 105.764 244.345 134.096 244.345C164.245 244.345 185.524 234.132 198.832 217.638C212.046 201.261 216.936 179.265 215.585 156.484L215.583 156.447L215.58 156.409C211.908 109.435 193.311 68.9717 137.8 16.627C131.739 10.9115 122.195 14.3933 119.98 21.6961Z" fill="url(#paint0_radial_602_233)" stroke="white" stroke-width="8"/>
<path d="M100.44 72.2732C112.736 53.0972 120.016 35.3852 123.808 22.8572C125.264 18.0572 131.408 16.0972 135.056 19.5372C190.04 71.3852 208.016 110.977 211.592 156.721C214.216 200.969 192.472 240.345 134.096 240.345C79.2959 240.345 38.8399 202.097 44.3359 141.465C47.6319 105.241 61.7199 77.6332 72.9759 61.2012C76.4799 56.0892 83.7839 56.0172 87.8239 60.7212L97.8959 72.4492C98.5919 73.2572 99.8639 73.1692 100.44 72.2732Z" fill="url(#paint1_radial_602_233)"/>
<path d="M100.44 72.2732C112.736 53.0972 120.016 35.3852 123.808 22.8572C125.264 18.0572 131.408 16.0972 135.056 19.5372C190.04 71.3852 208.016 110.977 211.592 156.721C214.216 200.969 192.472 240.345 134.096 240.345C79.2959 240.345 38.8399 202.097 44.3359 141.465C47.6319 105.241 61.7199 77.6332 72.9759 61.2012C76.4799 56.0892 83.7839 56.0172 87.8239 60.7212L97.8959 72.4492C98.5919 73.2572 99.8639 73.1692 100.44 72.2732Z" fill="url(#paint2_linear_602_233)"/>
<path d="M100.44 72.2732C112.736 53.0972 120.016 35.3852 123.808 22.8572C125.264 18.0572 131.408 16.0972 135.056 19.5372C190.04 71.3852 208.016 110.977 211.592 156.721C214.216 200.969 192.472 240.345 134.096 240.345C79.2959 240.345 38.8399 202.097 44.3359 141.465C47.6319 105.241 61.7199 77.6332 72.9759 61.2012C76.4799 56.0892 83.7839 56.0172 87.8239 60.7212L97.8959 72.4492C98.5919 73.2572 99.8639 73.1692 100.44 72.2732Z" fill="url(#paint3_radial_602_233)"/>
<path d="M100.44 72.2732C112.736 53.0972 120.016 35.3852 123.808 22.8572C125.264 18.0572 131.408 16.0972 135.056 19.5372C190.04 71.3852 208.016 110.977 211.592 156.721C214.216 200.969 192.472 240.345 134.096 240.345C79.2959 240.345 38.8399 202.097 44.3359 141.465C47.6319 105.241 61.7199 77.6332 72.9759 61.2012C76.4799 56.0892 83.7839 56.0172 87.8239 60.7212L97.8959 72.4492C98.5919 73.2572 99.8639 73.1692 100.44 72.2732Z" fill="url(#paint4_radial_602_233)"/>
<path d="M100.44 72.2732C112.736 53.0972 120.016 35.3852 123.808 22.8572C125.264 18.0572 131.408 16.0972 135.056 19.5372C190.04 71.3852 208.016 110.977 211.592 156.721C214.216 200.969 192.472 240.345 134.096 240.345C79.2959 240.345 38.8399 202.097 44.3359 141.465C47.6319 105.241 61.7199 77.6332 72.9759 61.2012C76.4799 56.0892 83.7839 56.0172 87.8239 60.7212L97.8959 72.4492C98.5919 73.2572 99.8639 73.1692 100.44 72.2732Z" fill="url(#paint5_radial_602_233)"/>
<path d="M100.44 72.2732C112.736 53.0972 120.016 35.3852 123.808 22.8572C125.264 18.0572 131.408 16.0972 135.056 19.5372C190.04 71.3852 208.016 110.977 211.592 156.721C214.216 200.969 192.472 240.345 134.096 240.345C79.2959 240.345 38.8399 202.097 44.3359 141.465C47.6319 105.241 61.7199 77.6332 72.9759 61.2012C76.4799 56.0892 83.7839 56.0172 87.8239 60.7212L97.8959 72.4492C98.5919 73.2572 99.8639 73.1692 100.44 72.2732Z" fill="url(#paint6_radial_602_233)"/>
<path d="M100.44 72.2732C112.736 53.0972 120.016 35.3852 123.808 22.8572C125.264 18.0572 131.408 16.0972 135.056 19.5372C190.04 71.3852 208.016 110.977 211.592 156.721C214.216 200.969 192.472 240.345 134.096 240.345C79.2959 240.345 38.8399 202.097 44.3359 141.465C47.6319 105.241 61.7199 77.6332 72.9759 61.2012C76.4799 56.0892 83.7839 56.0172 87.8239 60.7212L97.8959 72.4492C98.5919 73.2572 99.8639 73.1692 100.44 72.2732Z" fill="url(#paint7_radial_602_233)"/>
<g filter="url(#filter0_i_602_233)">
<path d="M81.4243 159.809C91.8403 135.009 113.224 107.577 127.664 92.6893C129.623 90.686 132.289 89.5317 135.09 89.4749C137.891 89.418 140.602 90.4631 142.64 92.3853C170.328 117.897 178.664 140.961 185.736 167.809C193.096 195.745 185.736 240.753 130.368 240.753C82.6882 240.753 66.1603 196.129 81.4243 159.809Z" fill="url(#paint8_radial_602_233)"/>
<path d="M81.4243 159.809C91.8403 135.009 113.224 107.577 127.664 92.6893C129.623 90.686 132.289 89.5317 135.09 89.4749C137.891 89.418 140.602 90.4631 142.64 92.3853C170.328 117.897 178.664 140.961 185.736 167.809C193.096 195.745 185.736 240.753 130.368 240.753C82.6882 240.753 66.1603 196.129 81.4243 159.809Z" fill="url(#paint9_radial_602_233)"/>
<path d="M81.4243 159.809C91.8403 135.009 113.224 107.577 127.664 92.6893C129.623 90.686 132.289 89.5317 135.09 89.4749C137.891 89.418 140.602 90.4631 142.64 92.3853C170.328 117.897 178.664 140.961 185.736 167.809C193.096 195.745 185.736 240.753 130.368 240.753C82.6882 240.753 66.1603 196.129 81.4243 159.809Z" fill="url(#paint10_radial_602_233)"/>
</g>
<path d="M81.4243 159.809C91.8403 135.009 113.224 107.577 127.664 92.6893C129.623 90.686 132.289 89.5317 135.09 89.4749C137.891 89.418 140.602 90.4631 142.64 92.3853C170.328 117.897 178.664 140.961 185.736 167.809C193.096 195.745 185.736 240.753 130.368 240.753C82.6882 240.753 66.1603 196.129 81.4243 159.809Z" fill="url(#paint11_linear_602_233)"/>
<path d="M81.4243 159.809C91.8403 135.009 113.224 107.577 127.664 92.6893C129.623 90.686 132.289 89.5317 135.09 89.4749C137.891 89.418 140.602 90.4631 142.64 92.3853C170.328 117.897 178.664 140.961 185.736 167.809C193.096 195.745 185.736 240.753 130.368 240.753C82.6882 240.753 66.1603 196.129 81.4243 159.809Z" fill="url(#paint12_radial_602_233)"/>
<g filter="url(#filter1_f_602_233)">
<path d="M94.5122 93.1052C113.032 65.9852 123.872 36.6412 127.176 29.4092C122.352 66.4812 108.296 93.6332 81.8322 128.593C60.6642 156.561 56.8402 180.497 57.0242 186.329C50.4082 141.833 71.3522 127.001 94.5122 93.1052Z" fill="url(#paint13_linear_602_233)"/>
</g>
<g filter="url(#filter2_f_602_233)">
<path d="M78.512 63.7852C68.112 76.6972 47.432 112.505 47.952 152.457C58.192 111.481 82.152 98.5692 78.512 63.7852Z" fill="url(#paint14_linear_602_233)"/>
</g>
<g style="mix-blend-mode:hard-light">
<path d="M128.518 247.793C172.148 247.793 207.518 212.424 207.518 168.793C207.518 125.162 172.148 89.793 128.518 89.793C84.887 89.793 49.5176 125.162 49.5176 168.793C49.5176 212.424 84.887 247.793 128.518 247.793Z" fill="url(#paint15_radial_602_233)" stroke="black" stroke-width="4"/>
<path d="M51.6768 163.788C51.549 165.782 51.4976 167.78 51.5228 169.777C53.4321 169.037 55.3177 168.238 57.1768 167.379C63.2103 164.607 71.0973 160.273 78.3958 154.042C83.7308 149.488 88.7908 143.889 92.5638 137.107C96.9638 139.401 101.16 141.782 105.17 144.224C95.6996 155.359 88.0955 167.954 82.6528 181.52C78.0492 192.986 75.0938 205.046 73.8748 217.341C73.6878 219.272 73.5668 221.048 73.4898 222.649C75.1948 224.398 76.9933 226.064 78.8633 227.648C78.8658 224.383 79.0273 221.119 79.3473 217.869C80.1888 209.141 82.3723 197.024 87.7623 183.566C93.0842 170.302 100.558 158.008 109.883 147.178C115.439 150.759 120.822 154.601 126.015 158.689C122.51 162.615 119.524 166.976 117.132 171.664C105.285 194.742 106.952 225.674 124.095 245.666C126.637 245.811 129.185 245.831 131.729 245.727C113.134 228.028 110.224 197.145 122.027 174.172C124.266 169.81 127.027 165.757 130.294 162.154C140.288 170.458 149.456 179.71 157.667 189.781C165.434 199.261 172.226 209.498 177.94 220.339C178.952 222.269 179.81 224.024 180.536 225.564C181.966 224.255 183.347 222.891 184.678 221.472C184.075 220.237 183.455 219.01 182.819 217.792C176.931 206.622 169.933 196.073 161.93 186.305C154.56 177.257 145.43 167.638 134.221 158.271C139.535 153.546 145.809 150.028 152.613 147.959C166.016 143.856 183.165 144.604 203.983 153.415C203.531 151.191 202.981 148.989 202.333 146.815C182.258 139.06 165.043 138.4 151.001 142.701C143.156 145.088 135.947 149.208 129.909 154.757C124.653 150.594 119.206 146.679 113.585 143.025C126.812 128.797 145.045 115.118 170.196 104.036C168.304 102.816 166.359 101.68 164.366 100.631C139.924 111.928 121.994 125.7 108.86 140.033C104.46 137.327 99.8403 134.698 94.9893 132.168C95.4189 131.159 95.8152 130.135 96.1773 129.099C99.2573 120.332 100.11 110.108 97.4478 98.3159C95.7153 99.0859 94.0158 99.9109 92.3548 100.791C94.4613 111.098 93.5923 119.859 90.9908 127.279C90.7057 128.087 90.3976 128.887 90.0668 129.677C83.0664 126.245 75.9024 123.158 68.6003 120.426C67.4013 121.911 66.2518 123.445 65.1628 125.018C72.8233 127.825 80.3319 131.031 87.6578 134.621C84.2753 140.622 79.7378 145.665 74.8263 149.856C68.0283 155.659 60.6198 159.745 54.8778 162.385C53.7393 162.908 52.6613 163.375 51.6768 163.788Z" fill="url(#paint16_linear_602_233)"/>
</g>
<defs>
<filter id="filter0_i_602_233" x="75.9189" y="89.4727" width="116.201" height="151.281" filterUnits="userSpaceOnUse" color-interpolation-filters="sRGB">
<feFlood flood-opacity="0" result="BackgroundImageFix"/>
<feBlend mode="normal" in="SourceGraphic" in2="BackgroundImageFix" result="shape"/>
<feColorMatrix in="SourceAlpha" type="matrix" values="0 0 0 0 0 0 0 0 0 0 0 0 0 0 0 0 0 0 127 0" result="hardAlpha"/>
<feOffset dx="4"/>
<feGaussianBlur stdDeviation="2"/>
<feComposite in2="hardAlpha" operator="arithmetic" k2="-1" k3="1"/>
<feColorMatrix type="matrix" values="0 0 0 0 0.952941 0 0 0 0 0.615686 0 0 0 0 0.364706 0 0 0 1 0"/>
<feBlend mode="normal" in2="shape" result="effect1_innerShadow_602_233"/>
</filter>
<filter id="filter1_f_602_233" x="45.7852" y="19.4092" width="91.3906" height="176.92" filterUnits="userSpaceOnUse" color-interpolation-filters="sRGB">
<feFlood flood-opacity="0" result="BackgroundImageFix"/>
<feBlend mode="normal" in="SourceGraphic" in2="BackgroundImageFix" result="shape"/>
<feGaussianBlur stdDeviation="5" result="effect1_foregroundBlur_602_233"/>
</filter>
<filter id="filter2_f_602_233" x="35.9424" y="51.7852" width="54.9424" height="112.672" filterUnits="userSpaceOnUse" color-interpolation-filters="sRGB">
<feFlood flood-opacity="0" result="BackgroundImageFix"/>
<feBlend mode="normal" in="SourceGraphic" in2="BackgroundImageFix" result="shape"/>
<feGaussianBlur stdDeviation="6" result="effect1_foregroundBlur_602_233"/>
</filter>
<radialGradient id="paint0_radial_602_233" cx="0" cy="0" r="1" gradientUnits="userSpaceOnUse" gradientTransform="translate(192.012 158.555) rotate(-179.474) scale(136.79 206.289)">
<stop stop-color="#FF953D"/>
<stop offset="1" stop-color="#FF5141"/>
</radialGradient>
<radialGradient id="paint1_radial_602_233" cx="0" cy="0" r="1" gradientUnits="userSpaceOnUse" gradientTransform="translate(82.9777 126.026) rotate(-157.937) scale(82.7528 142.796)">
<stop stop-color="#CE5327"/>
<stop offset="1" stop-color="#CE5327" stop-opacity="0"/>
</radialGradient>
<linearGradient id="paint2_linear_602_233" x1="146.688" y1="240.345" x2="146.688" y2="199.561" gradientUnits="userSpaceOnUse">
<stop stop-color="#FF7583"/>
<stop offset="1" stop-color="#FF7583" stop-opacity="0"/>
</linearGradient>
<radialGradient id="paint3_radial_602_233" cx="0" cy="0" r="1" gradientUnits="userSpaceOnUse" gradientTransform="translate(39.6603 115.926) rotate(24.015) scale(24.8372 205.593)">
<stop stop-color="#FFAA7B"/>
<stop offset="1" stop-color="#FFAA7B" stop-opacity="0"/>
</radialGradient>
<radialGradient id="paint4_radial_602_233" cx="0" cy="0" r="1" gradientUnits="userSpaceOnUse" gradientTransform="translate(74.4799 50.7932) rotate(77.3197) scale(30.7228 38.335)">
<stop stop-color="#FF5E47"/>
<stop offset="1" stop-color="#FF5E47" stop-opacity="0"/>
</radialGradient>
<radialGradient id="paint5_radial_602_233" cx="0" cy="0" r="1" gradientUnits="userSpaceOnUse" gradientTransform="translate(131.432 11.7212) rotate(87.8819) scale(81.0992 75.0657)">
<stop stop-color="#FF2F3C"/>
<stop offset="1" stop-color="#FF2F3C" stop-opacity="0"/>
</radialGradient>
<radialGradient id="paint6_radial_602_233" cx="0" cy="0" r="1" gradientUnits="userSpaceOnUse" gradientTransform="translate(111.2 39.1932) rotate(25.3283) scale(18.3916 36.9082)">
<stop stop-color="#FF846C"/>
<stop offset="1" stop-color="#FF846C" stop-opacity="0"/>
</radialGradient>
<radialGradient id="paint7_radial_602_233" cx="0" cy="0" r="1" gradientUnits="userSpaceOnUse" gradientTransform="translate(99.6639 66.4732) rotate(113.224) scale(18.2269 4.17685)">
<stop stop-color="#FFA682"/>
<stop offset="1" stop-color="#FFA682" stop-opacity="0"/>
</radialGradient>
<radialGradient id="paint8_radial_602_233" cx="0" cy="0" r="1" gradientUnits="userSpaceOnUse" gradientTransform="translate(169.631 195.804) rotate(-168.558) scale(80.2328 99.9128)">
<stop stop-color="#FFDA2F"/>
<stop offset="1" stop-color="#FF8E41"/>
</radialGradient>
<radialGradient id="paint9_radial_602_233" cx="0" cy="0" r="1" gradientUnits="userSpaceOnUse" gradientTransform="translate(99.2003 69.5293) rotate(69.044) scale(113.14 98.3032)">
<stop stop-color="#FD5639"/>
<stop offset="1" stop-color="#FE5533" stop-opacity="0"/>
</radialGradient>
<radialGradient id="paint10_radial_602_233" cx="0" cy="0" r="1" gradientUnits="userSpaceOnUse" gradientTransform="translate(153.912 165.825) rotate(174.239) scale(78.3893 191.931)">
<stop offset="0.628" stop-color="#D7812D" stop-opacity="0"/>
<stop offset="1" stop-color="#D7812D"/>
</radialGradient>
<linearGradient id="paint11_linear_602_233" x1="132.024" y1="85.6893" x2="132.024" y2="114.865" gradientUnits="userSpaceOnUse">
<stop stop-color="#F95131"/>
<stop offset="1" stop-color="#F95131" stop-opacity="0"/>
</linearGradient>
<radialGradient id="paint12_radial_602_233" cx="0" cy="0" r="1" gradientUnits="userSpaceOnUse" gradientTransform="translate(183.888 151.218) rotate(143.063) scale(128.437 92.9392)">
<stop offset="0.772" stop-color="#F18A52" stop-opacity="0"/>
<stop offset="1" stop-color="#F18A52"/>
</radialGradient>
<linearGradient id="paint13_linear_602_233" x1="119.968" y1="34.8332" x2="61.2402" y2="182.649" gradientUnits="userSpaceOnUse">
<stop stop-color="#FF7558"/>
<stop offset="1" stop-color="#F38758"/>
</linearGradient>
<linearGradient id="paint14_linear_602_233" x1="76.328" y1="65.9452" x2="44.656" y2="156.625" gradientUnits="userSpaceOnUse">
<stop stop-color="#FF815B"/>
<stop offset="1" stop-color="#FF9C6D"/>
</linearGradient>
<radialGradient id="paint15_radial_602_233" cx="0" cy="0" r="1" gradientUnits="userSpaceOnUse" gradientTransform="translate(128.518 91.793) rotate(90) scale(154 154)">
<stop stop-color="#FFF734"/>
<stop offset="0.0001" stop-color="#FFF734"/>
<stop offset="1" stop-color="#FF3400"/>
</radialGradient>
<linearGradient id="paint16_linear_602_233" x1="127.75" y1="98.3159" x2="127.75" y2="245.792" gradientUnits="userSpaceOnUse">
<stop/>
<stop offset="0.9999" stop-color="#38100F"/>
<stop offset="1" stop-color="#38100F" stop-opacity="0"/>
</linearGradient>
</defs>
</svg>
