<svg width="256" height="256" viewBox="0 0 256 256" fill="none" xmlns="http://www.w3.org/2000/svg">
<path d="M179.201 53.3681L185.601 140.066L179.201 228.3L108.204 210.55C107.534 210.4 106.985 209.917 106.753 209.271L103.424 201.037C103.192 200.413 102.676 199.939 102.04 199.753C101.401 199.57 100.714 199.697 100.182 200.097L92.5457 205.857C92.032 206.24 91.3718 206.367 90.7527 206.199L76.8017 202.701L70.4014 117.196L76.8017 27.7688L130.731 41.2511C131.471 41.4425 132.055 42.0108 132.268 42.7433L135.383 53.667C135.608 54.4287 136.239 55.0009 137.018 55.1533C137.799 55.3056 138.598 55.0127 139.094 54.3916L145.623 46.2432C146.141 45.5928 146.994 45.3077 147.799 45.5167L179.201 53.3681Z" fill="url(#paint0_linear_602_8019)"/>
<path opacity="0.5" d="M245.333 35.9272V201.812C245.328 203.63 244.185 205.25 242.476 205.867L237.355 207.658L231.339 200.15C230.8 199.5 229.927 199.228 229.115 199.459C228.302 199.689 227.703 200.379 227.585 201.216L226.347 209.877L218.539 200.15C218 199.5 217.127 199.228 216.314 199.459C215.502 199.689 214.902 200.379 214.785 201.216L212.779 215.125C212.677 215.917 212.131 216.582 211.371 216.832L185.602 225.919V55.511L245.078 34.519C245.253 34.9683 245.339 35.4448 245.333 35.9272Z" fill="#FEC108"/>
<path d="M76.8015 155.17V202.701L9.94287 226.294C8.6421 226.749 7.19876 226.546 6.07377 225.751C4.94683 224.954 4.27496 223.663 4.2691 222.284V204.833C4.25348 204.158 4.57379 203.519 5.12261 203.126L14.2963 196.257C14.894 195.818 15.2241 195.101 15.1616 194.361C15.101 193.621 14.6596 192.964 13.9975 192.63L5.4644 188.363C4.7398 187.996 4.27887 187.255 4.2691 186.443V56.3974C4.27496 54.5791 5.41753 52.9599 7.12845 52.3447L50.3057 37.1125C51.0831 36.8605 51.9346 37.0578 52.5245 37.6242L56.9189 42.0186C57.4736 42.5655 58.2803 42.7667 59.0263 42.546C59.7724 42.3233 60.3388 41.712 60.5029 40.9523L61.8681 34.1672C62.0263 33.4289 62.5615 32.8293 63.2763 32.5891L76.8015 27.7688V146.424C74.5828 146.893 75.2664 155.553 76.8015 155.17Z" fill="url(#paint1_linear_602_8019)"/>
<path d="M251.734 33.7841V199.669C251.726 201.487 250.585 203.107 248.874 203.724L235.222 208.544C234.361 208.853 233.4 208.577 232.831 207.862L230.955 205.515L224.939 198.007C224.4 197.357 223.527 197.085 222.714 197.316C221.902 197.546 221.302 198.235 221.185 199.073L219.947 207.733V207.776L219.179 212.981C219.078 213.774 218.531 214.438 217.771 214.688L179.201 228.3V53.3679L238.677 32.3759L246.058 29.7724C247.361 29.3173 248.802 29.5204 249.929 30.3173C251.056 31.1122 251.728 32.4052 251.734 33.7841Z" fill="url(#paint2_linear_602_8019)"/>
<path d="M107.138 214.562C105.394 214.56 103.825 213.497 103.179 211.876L100.511 205.195L94.2959 209.863C92.4092 211.277 89.7353 210.896 88.3213 209.009C86.9072 207.124 87.29 204.45 89.1748 203.036L99.8408 195.015C100.903 194.216 102.276 193.956 103.558 194.316C104.837 194.673 105.876 195.607 106.37 196.841L111.106 208.702C111.632 210.017 111.47 211.507 110.675 212.679C109.882 213.851 108.558 214.552 107.142 214.552L107.138 214.562Z" fill="#F4DBBB"/>
<path d="M219.013 218.529C218.81 218.529 218.607 218.515 218.405 218.486C216.073 218.154 214.452 215.994 214.784 213.662L217.642 193.564C217.882 191.88 219.101 190.497 220.741 190.048C222.384 189.601 224.136 190.171 225.198 191.499L237.103 206.394C238.556 208.236 238.251 210.906 236.419 212.371C234.587 213.835 231.915 213.546 230.439 211.724L224.7 204.542L223.232 214.865C222.933 216.964 221.134 218.527 219.013 218.529Z" fill="#F4DBBB"/>
<path d="M59.7361 49.1005C58.6053 49.1005 57.5193 48.6513 56.7186 47.8505L48.5701 39.7138C47.49 38.6337 47.0682 37.0595 47.4627 35.5849C47.8592 34.1103 49.0115 32.958 50.4861 32.5615C51.9627 32.1669 53.535 32.5888 54.615 33.6689L57.1365 36.1904L57.9529 32.1318C58.4158 29.8212 60.6658 28.3251 62.9764 28.79C65.2869 29.2548 66.783 31.5029 66.3201 33.8134L63.9295 45.6747C63.6189 47.2158 62.4861 48.4619 60.9822 48.9169C60.5779 49.04 60.158 49.1025 59.7361 49.1005Z" fill="#F4DBBB"/>
<path d="M8.53507 230.8C3.82223 230.8 0.00195312 226.979 0.00195312 222.267V203.767C0.00195312 201.409 1.91209 199.499 4.26949 199.499C6.62493 199.499 8.53507 201.409 8.53507 203.767V222.267L72.5344 199.679V33.8095L63.5501 36.997C62.1087 37.5263 60.4916 37.2412 59.3197 36.247C58.1478 35.2548 57.599 33.708 57.8861 32.1982C58.1713 30.6904 59.2455 29.4502 60.7005 28.9541L75.3762 23.7491C76.6828 23.2862 78.132 23.4854 79.2628 24.2843C80.3937 25.085 81.0675 26.3819 81.0695 27.7686V202.7C81.0695 204.509 79.9288 206.12 78.2218 206.724L11.3768 230.317C10.4647 230.638 9.50381 230.802 8.53507 230.8Z" fill="#F4DBBB"/>
<path d="M4.26949 192.032C1.91209 192.032 0.00195312 190.122 0.00195312 187.767V56.3873C0.00195312 52.7663 2.28709 49.5398 5.70306 48.3366L50.1655 32.661C52.3881 31.8778 54.8256 33.0419 55.6088 35.2645C56.3939 37.4871 55.2299 39.9246 53.0072 40.7078L8.53507 56.3873V187.767C8.53507 190.122 6.62493 192.032 4.26949 192.032Z" fill="#F4DBBB"/>
<path d="M179.201 232.565C176.844 232.565 174.934 230.655 174.934 228.3V53.368C174.934 51.5595 176.074 49.9462 177.779 49.3446L244.624 25.7492C247.238 24.8273 250.136 25.2297 252.396 26.8312C254.657 28.4308 256.001 31.0304 255.999 33.8018V199.683C256.001 203.3 253.722 206.525 250.312 207.73L235.197 213.079C232.974 213.866 230.535 212.704 229.747 210.482C228.96 208.259 230.124 205.82 232.345 205.032L247.466 199.683V33.8018L183.467 56.3875V222.271L217.601 210.239C219.039 209.732 220.636 210.029 221.794 211.021C222.953 212.011 223.496 213.544 223.216 215.044C222.937 216.542 221.878 217.778 220.441 218.286L180.635 232.323C180.174 232.485 179.689 232.567 179.201 232.565Z" fill="#F4DBBB"/>
<path d="M179.202 232.565C178.854 232.565 178.506 232.522 178.169 232.438L106.105 214.433C103.857 213.829 102.507 211.536 103.072 209.276C103.636 207.019 105.908 205.63 108.175 206.155L174.934 222.833V56.6998L145.44 49.3151C143.952 48.9519 142.77 47.821 142.347 46.3503C141.923 44.8777 142.319 43.2918 143.388 42.1941C144.456 41.0965 146.03 40.6551 147.513 41.0379L180.239 49.2292C182.137 49.7038 183.467 51.4108 183.467 53.3678V228.3C183.467 230.655 181.557 232.565 179.202 232.565Z" fill="#F4DBBB"/>
<path d="M91.7351 210.72C91.3816 210.72 91.032 210.677 90.6902 210.593L75.7568 206.839C73.8623 206.359 72.5342 204.654 72.5342 202.7V27.7687C72.5361 26.4542 73.1396 25.214 74.1748 24.4074C75.2099 23.5988 76.5595 23.3117 77.8349 23.63L132.959 37.4112C134.469 37.751 135.676 38.8818 136.116 40.3662C136.553 41.8506 136.153 43.456 135.069 44.5615C133.985 45.665 132.387 46.0966 130.895 45.6884L81.0692 33.2335V199.372L92.7762 202.316C94.866 202.839 96.2371 204.839 95.9734 206.976C95.7097 209.114 93.8933 210.72 91.7391 210.72H91.7351Z" fill="#F4DBBB"/>
<path d="M4.26966 208.033C2.43372 208.033 0.802865 206.857 0.220833 205.115C-0.359245 203.373 0.240365 201.455 1.70911 200.353L8.98451 194.896L2.36146 191.607C0.254036 190.552 -0.603386 187.99 0.451302 185.881C1.50404 183.771 4.06849 182.916 6.17591 183.968L18.9767 190.369C20.2911 191.033 21.1701 192.328 21.3029 193.793C21.4357 195.259 20.8029 196.691 19.629 197.58L6.83021 207.179C6.09193 207.736 5.19349 208.035 4.26966 208.033Z" fill="#F4DBBB"/>
<path d="M27.1383 144.955C25.9235 144.955 24.7653 144.437 23.9547 143.529C22.0446 141.396 20.1794 139.31 18.32 137.449C16.7028 135.775 16.7262 133.115 18.3708 131.469C20.0172 129.822 22.6774 129.801 24.3532 131.418C26.32 133.385 28.2946 135.582 30.3258 137.848C31.445 139.101 31.7243 140.896 31.0368 142.432C30.3493 143.967 28.8239 144.955 27.1422 144.955H27.1383Z" fill="#F4DBBB"/>
<path d="M159.438 193.314C156.499 193.296 153.569 192.954 150.704 192.292C149.217 191.958 148.022 190.855 147.569 189.4C147.116 187.945 147.473 186.357 148.508 185.238C149.542 184.117 151.094 183.634 152.581 183.968C154.831 184.492 157.129 184.763 159.438 184.779H159.864C162.491 184.743 165.106 184.458 167.676 183.927C169.985 183.443 172.246 184.921 172.729 187.228C173.211 189.536 171.733 191.798 169.426 192.281C166.325 192.919 163.168 193.265 160 193.314H159.438ZM136.108 185.632C135.253 185.634 134.417 185.374 133.71 184.89C128.737 181.406 124.257 177.265 120.39 172.582C118.858 170.787 119.071 168.091 120.866 166.558C122.659 165.027 125.356 165.24 126.888 167.035C130.264 171.136 134.177 174.765 138.518 177.826C140.083 178.874 140.772 180.826 140.216 182.624C139.661 184.425 137.991 185.646 136.108 185.632ZM183.83 185.134C182.024 185.136 180.41 183.999 179.805 182.298C179.2 180.595 179.731 178.697 181.133 177.556C185.487 174.015 189.701 170.302 193.664 166.509C194.766 165.457 196.346 165.07 197.811 165.496C199.274 165.923 200.398 167.097 200.76 168.58C201.123 170.06 200.666 171.621 199.566 172.675C195.436 176.626 191.033 180.492 186.518 184.173C185.758 184.802 184.801 185.146 183.813 185.142L183.83 185.134ZM54.2282 164.441C54.0289 164.441 53.8317 164.427 53.6344 164.398L52.7809 164.269C46.6716 163.103 40.9959 160.291 36.367 156.138C35.0956 155.197 34.4471 153.629 34.6854 152.064C34.9256 150.5 36.0096 149.195 37.5037 148.677C38.9998 148.158 40.6599 148.509 41.8162 149.588C45.2829 152.75 49.5407 154.916 54.1383 155.857L54.8121 155.955C57.0406 156.256 58.6519 158.232 58.4977 160.476C58.3434 162.718 56.4762 164.457 54.2282 164.449V164.441ZM71.0893 162.875C68.9468 162.869 67.1401 161.275 66.8687 159.15C66.5972 157.025 67.9429 155.029 70.0132 154.482C76.0307 152.908 81.5345 151.64 86.9056 150.613C88.4114 150.304 89.9661 150.83 90.9758 151.988C91.9856 153.146 92.2942 154.757 91.7844 156.207C91.2766 157.656 90.0266 158.72 88.5149 158.992C83.3509 159.986 78.0092 161.207 72.1733 162.734C71.8139 162.834 71.4448 162.882 71.0717 162.882L71.0893 162.875ZM208.414 161.564C206.738 161.566 205.215 160.584 204.523 159.056C203.834 157.527 204.102 155.736 205.211 154.478C205.91 153.685 206.602 152.884 207.283 152.076C210.232 148.603 213.129 145.181 215.639 141.601C216.99 139.67 219.65 139.201 221.582 140.553C223.512 141.904 223.982 144.564 222.631 146.496C219.892 150.404 216.863 153.974 213.935 157.431C213.082 158.441 212.353 159.283 211.619 160.115C210.807 161.045 209.633 161.576 208.398 161.574L208.414 161.564ZM108.286 156.06C107.21 156.209 106.148 156.351 105.099 156.488C102.882 156.773 100.821 155.3 100.374 153.111C99.9269 150.924 101.241 148.759 103.392 148.15L112.497 146.767C115.058 146.316 117.647 145.765 120.177 145.062C121.657 144.611 123.266 144.998 124.38 146.074C125.495 147.148 125.938 148.742 125.542 150.238C125.143 151.734 123.968 152.898 122.468 153.279C120.796 153.748 119.114 154.132 117.436 154.507L108.286 156.06ZM136.112 145.394C134.346 145.396 132.762 144.308 132.128 142.662C131.493 141.013 131.94 139.146 133.249 137.963C137.11 134.383 140.417 130.25 143.063 125.699C143.821 124.352 145.249 123.521 146.796 123.525C148.34 123.531 149.764 124.373 150.512 125.725C151.262 127.078 151.221 128.73 150.405 130.043C147.317 135.334 143.462 140.137 138.962 144.293C138.176 144.994 137.161 145.381 136.108 145.377L136.112 145.394ZM226.262 132.978C225.974 132.98 225.689 132.951 225.408 132.892C224.299 132.67 223.324 132.014 222.697 131.07C222.072 130.127 221.848 128.973 222.072 127.863C222.377 126.369 222.531 124.848 222.533 123.322V122.58C222.422 119.449 221.808 116.357 220.715 113.42C220.148 111.981 220.406 110.346 221.389 109.149C222.371 107.953 223.924 107.383 225.447 107.66C226.97 107.936 228.224 109.016 228.724 110.481C230.138 114.295 230.929 118.314 231.066 122.381V123.322C231.062 125.418 230.853 127.508 230.439 129.56C230.035 131.549 228.289 132.976 226.262 132.978ZM97.88 130.201C96.0402 130.201 94.4094 129.023 93.8293 127.279C92.1535 122.27 90.9524 117.111 90.2454 111.875C90.1477 111.184 90.0676 110.426 90.0071 109.645C89.8215 107.295 91.5774 105.24 93.927 105.055C96.2746 104.871 98.3293 106.625 98.5148 108.975C98.5617 109.572 98.6222 110.16 98.7023 110.725C99.3332 115.438 100.415 120.08 101.933 124.586C102.366 125.889 102.148 127.318 101.345 128.432C100.54 129.545 99.2511 130.203 97.88 130.201ZM153.094 116.369C152.833 116.369 152.571 116.346 152.313 116.301C149.997 115.869 148.469 113.641 148.899 111.326C149.139 110.043 149.26 108.74 149.262 107.434C149.245 103.969 148.405 100.557 146.813 97.4807C146.03 96.1116 146.065 94.4202 146.907 93.0862C147.749 91.7523 149.256 90.9906 150.831 91.1058C152.403 91.223 153.784 92.1976 154.42 93.6409C157.501 99.5569 158.512 106.334 157.292 112.891C156.913 114.91 155.147 116.371 153.094 116.369ZM96.1848 96.7425C95.7023 96.7405 95.2238 96.6585 94.7688 96.4983C93.7004 96.1233 92.8254 95.3382 92.3371 94.3167C91.8489 93.2952 91.7844 92.1214 92.1614 91.055C93.5656 86.725 96.0949 82.8481 99.4914 79.8208C101.177 78.3755 103.019 77.1196 104.98 76.0786C106.327 75.3286 107.978 75.3677 109.29 76.1782C110.605 76.9868 111.378 78.4438 111.313 79.9868C111.249 81.5278 110.356 82.9145 108.981 83.6137C107.571 84.3637 106.249 85.266 105.038 86.3051C102.786 88.3675 101.12 90.9867 100.208 93.9007C99.6085 95.6097 97.9972 96.7542 96.1848 96.7542V96.7425ZM139.307 87.2914C138.46 87.2933 137.63 87.0375 136.927 86.5629C132.77 83.7192 127.999 81.9008 123.005 81.2543C120.665 80.9692 118.999 78.8403 119.284 76.5005C119.569 74.1607 121.698 72.4947 124.038 72.7798C130.372 73.5943 136.425 75.895 141.702 79.4926C143.255 80.5434 143.938 82.4848 143.387 84.2758C142.839 86.0687 141.182 87.2914 139.307 87.2914Z" fill="#F4DBBB"/>
<path d="M215.467 101.7C214.301 101.7 213.184 101.223 212.379 100.377C210.568 98.4848 208.605 96.7466 206.508 95.1802C204.623 93.7661 204.24 91.0923 205.654 89.2075C207.068 87.3227 209.742 86.9399 211.627 88.354C214.098 90.2056 216.412 92.2563 218.543 94.4888C219.723 95.7251 220.049 97.5434 219.377 99.1138C218.705 100.682 217.162 101.7 215.455 101.7H215.467Z" fill="#F4DBBB"/>
<path d="M38.4028 108.835C36.9243 108.833 35.5532 108.067 34.7758 106.809C33.9985 105.553 33.9282 103.983 34.5883 102.661L51.6547 68.5261C52.7094 66.4187 55.2719 65.5632 57.3813 66.616C59.4907 67.6687 60.3461 70.2332 59.2934 72.3406L42.227 106.475C41.5024 107.923 40.0219 108.837 38.4028 108.835Z" fill="#F4DBBB"/>
<path d="M59.736 104.567C58.6052 104.567 57.5192 104.118 56.7184 103.317L31.1188 77.7173C30.0095 76.645 29.5661 75.0591 29.9548 73.5689C30.3454 72.0767 31.5114 70.9107 33.0036 70.52C34.4938 70.1294 36.0817 70.5747 37.152 71.6841L62.7516 97.2837C63.9724 98.5044 64.3376 100.338 63.6774 101.934C63.0173 103.528 61.4606 104.567 59.736 104.567Z" fill="#F4DBBB"/>
<path d="M136.534 61.9014C136.248 61.9034 135.961 61.8741 135.682 61.8155C134.122 61.5069 132.864 60.3545 132.416 58.8292L127.809 42.7432C127.338 41.2628 127.709 39.6436 128.78 38.5147C129.848 37.3878 131.446 36.9307 132.95 37.3213C134.454 37.7139 135.625 38.8917 136.01 40.3975L138.344 48.5303L143.127 42.5557C144.018 41.2217 145.582 40.4991 147.176 40.6866C148.77 40.876 150.123 41.9424 150.678 43.4483C151.235 44.9522 150.897 46.6436 149.809 47.8213L139.868 60.2803C139.061 61.2999 137.834 61.8975 136.534 61.9014Z" fill="#F4DBBB"/>
<defs>
<linearGradient id="paint0_linear_602_8019" x1="128.001" y1="27.7688" x2="128.001" y2="228.3" gradientUnits="userSpaceOnUse">
<stop stop-color="#FF0101"/>
<stop offset="1" stop-color="#FF9801" stop-opacity="0"/>
</linearGradient>
<linearGradient id="paint1_linear_602_8019" x1="40.535" y1="27.7688" x2="40.535" y2="226.533" gradientUnits="userSpaceOnUse">
<stop stop-color="#2AFE08"/>
<stop offset="1" stop-color="#FEC108" stop-opacity="0"/>
</linearGradient>
<linearGradient id="paint2_linear_602_8019" x1="215.467" y1="29.5337" x2="215.467" y2="228.3" gradientUnits="userSpaceOnUse">
<stop stop-color="#FF9801"/>
<stop offset="1" stop-color="#FF9801" stop-opacity="0"/>
</linearGradient>
</defs>
</svg>
