<svg width="256" height="257" viewBox="0 0 256 257" fill="none" xmlns="http://www.w3.org/2000/svg">
<g clip-path="url(#clip0_603_2388)">
<rect y="0.721191" width="256" height="256" rx="40" fill="url(#paint0_linear_603_2388)"/>
<g opacity="0.5" filter="url(#filter0_f_603_2388)">
<path d="M134.009 183.565L167.651 164.918L157.989 196.835L134.009 183.565ZM172.877 167.449L197.574 180.701L165.416 198.176L172.877 167.449ZM134.009 183.565L130.869 158.031L163.773 138.655C164.761 138.122 199.738 146.617 200.07 146.95L167.651 164.918C156.544 174.456 146.111 179.943 134.009 183.565V183.565ZM131.271 216.732L165.369 198.202C173.346 189.656 181.593 181.374 197.574 180.701L200.614 206.191L168.594 225.035L131.271 216.732Z" fill="#FB573A"/>
</g>
<path d="M131.273 203.867L165.371 185.338C173.348 176.792 181.595 168.51 197.576 167.836L200.616 193.326L168.596 212.171L131.273 203.867Z" fill="url(#paint1_linear_603_2388)"/>
<g opacity="0.5" filter="url(#filter1_f_603_2388)">
<path d="M60.0305 180.938L93.6728 162.292L84.01 194.209L60.0305 180.938ZM98.8982 164.823L123.596 178.074L91.4377 195.55L98.8982 164.823ZM60.0305 180.938L56.8906 155.404L89.7942 136.029C90.7827 135.496 125.759 143.99 126.092 144.323L93.6728 162.292C82.5659 171.83 72.1329 177.317 60.0305 180.938V180.938ZM57.2928 214.105L91.39 195.576C99.3675 187.029 107.614 178.748 123.596 178.074L126.635 203.564L94.6153 222.408L57.2928 214.105Z" fill="#37A469"/>
</g>
<g opacity="0.5" filter="url(#filter2_f_603_2388)">
<path d="M184.249 73.9522C180.456 73.9587 176.714 74.8152 173.303 76.4578C169.892 78.1004 166.899 80.4863 164.55 83.4372C167.156 85.059 169.309 87.3248 170.804 90.0202C172.299 92.7155 173.087 95.7511 173.093 98.8394C173.09 101.941 172.299 104.99 170.794 107.695C169.29 110.401 167.123 112.672 164.5 114.292C166.852 117.254 169.851 119.649 173.272 121.296C176.693 122.943 180.446 123.8 184.249 123.802C187.552 123.802 190.822 123.158 193.873 121.905C196.925 120.653 199.698 118.817 202.033 116.503C204.369 114.188 206.221 111.44 207.485 108.416C208.749 105.392 209.4 102.15 209.4 98.877C209.4 95.6036 208.749 92.3622 207.485 89.338C206.221 86.3138 204.369 83.566 202.033 81.2515C199.698 78.9369 196.925 77.1011 193.873 75.8486C190.822 74.5962 187.552 73.9518 184.249 73.9522V73.9522ZM163.156 61.9546C142.551 61.9546 125.844 78.6118 125.844 99.1534C125.844 119.695 142.626 135.448 163.231 135.448C183.836 135.448 198.194 119.117 198.194 98.5755C198.194 78.0339 183.76 61.9546 163.156 61.9546V61.9546ZM155.103 80.6985C158.58 80.6985 161.826 81.6931 164.578 83.4155C169.689 86.6152 174.651 92.3264 174.651 98.8394C174.651 105.387 169.653 111.124 164.497 114.314C161.763 116.005 158.546 116.98 155.103 116.98C145.167 116.98 137.113 108.858 137.113 98.8394C137.113 88.8204 145.167 80.6985 155.103 80.6985V80.6985Z" fill="#B617EE"/>
</g>
<path d="M134.009 170.7L130.869 145.165L163.773 125.79C164.761 125.257 199.737 133.752 200.07 134.084L167.651 152.053C156.544 161.591 146.111 167.078 134.009 170.7V170.7Z" fill="url(#paint2_linear_603_2388)"/>
<path d="M134.01 170.7L167.652 152.053L157.989 183.97L134.01 170.7ZM172.878 154.585L197.575 167.836L165.417 185.311L172.878 154.585Z" fill="url(#paint3_linear_603_2388)"/>
<path d="M57.292 201.241L91.3892 182.712C99.3668 174.165 107.614 165.884 123.595 165.21L126.634 190.7L94.6146 209.544L57.292 201.241Z" fill="url(#paint4_linear_603_2388)"/>
<g opacity="0.5" filter="url(#filter3_f_603_2388)">
<path d="M121.145 59.2407L90.4915 69.6051L84.4989 78.7384L79.1094 86.9545V67.2936H58.8203V130.636H79.1094V109.028L93.2553 128.814L122.967 134.844L97.7654 98.0853L121.145 59.2407Z" fill="#1C5BC7"/>
</g>
<path d="M60.0305 168.074L56.8906 142.539L89.7943 123.164C90.7828 122.631 125.759 131.126 126.092 131.458L93.6728 149.427C82.5659 158.965 72.1329 164.452 60.0305 168.074V168.074Z" fill="url(#paint5_linear_603_2388)"/>
<path d="M60.0312 168.074L93.6736 149.427L84.0108 181.344L60.0312 168.074ZM98.899 151.959L123.597 165.21L91.4385 182.686L98.899 151.959Z" fill="url(#paint6_linear_603_2388)"/>
<path d="M163.156 49.0903C142.551 49.0903 125.844 65.7475 125.844 86.2892C125.844 106.831 142.626 122.583 163.231 122.583C183.836 122.583 198.194 106.253 198.194 85.7113C198.194 65.1696 183.76 49.0903 163.156 49.0903V49.0903ZM155.103 67.8342C158.58 67.8342 161.826 68.8288 164.578 70.5512C169.689 73.7509 174.651 79.4622 174.651 85.9751C174.651 92.5224 169.653 98.2596 164.497 101.449C161.763 103.141 158.546 104.116 155.103 104.116C145.167 104.116 137.113 95.994 137.113 85.9751C137.113 75.9562 145.167 67.8342 155.103 67.8342V67.8342Z" fill="url(#paint7_linear_603_2388)"/>
<path d="M184.249 61.0879C180.456 61.0944 176.714 61.9509 173.303 63.5935C169.892 65.2361 166.9 67.622 164.55 70.5729C167.157 72.1947 169.309 74.4605 170.804 77.1559C172.299 79.8512 173.087 82.8868 173.093 85.9751C173.09 89.0766 172.299 92.1257 170.794 94.8309C169.29 97.5362 167.123 99.8074 164.5 101.427C166.852 104.39 169.851 106.784 173.272 108.432C176.693 110.079 180.446 110.936 184.249 110.938C187.552 110.938 190.822 110.294 193.874 109.041C196.925 107.789 199.698 105.953 202.033 103.638C204.369 101.324 206.221 98.576 207.485 95.5518C208.749 92.5275 209.4 89.2862 209.4 86.0127C209.4 82.7393 208.749 79.498 207.485 76.4737C206.221 73.4495 204.369 70.7017 202.033 68.3872C199.698 66.0727 196.925 64.2368 193.874 62.9843C190.822 61.7319 187.552 61.0875 184.249 61.0879V61.0879Z" fill="url(#paint8_linear_603_2388)"/>
<path d="M84.5029 65.8737L90.4968 56.7383L121.147 46.3794L97.7119 85.2998L84.5029 65.8737Z" fill="url(#paint9_linear_603_2388)"/>
<path d="M79.1138 117.767H58.8203L58.8203 54.4341H79.1138V117.767Z" fill="url(#paint10_linear_603_2388)"/>
<path d="M93.2522 115.955L71.5605 85.5959L84.5005 65.874L122.963 121.981L93.2522 115.955Z" fill="url(#paint11_linear_603_2388)"/>
</g>
<defs>
<filter id="filter0_f_603_2388" x="3.54795" y="11.3102" width="324.387" height="341.046" filterUnits="userSpaceOnUse" color-interpolation-filters="sRGB">
<feFlood flood-opacity="0" result="BackgroundImageFix"/>
<feBlend mode="normal" in="SourceGraphic" in2="BackgroundImageFix" result="shape"/>
<feGaussianBlur stdDeviation="63.6606" result="effect1_foregroundBlur_603_2388"/>
</filter>
<filter id="filter1_f_603_2388" x="-70.4306" y="8.68369" width="324.387" height="341.046" filterUnits="userSpaceOnUse" color-interpolation-filters="sRGB">
<feFlood flood-opacity="0" result="BackgroundImageFix"/>
<feBlend mode="normal" in="SourceGraphic" in2="BackgroundImageFix" result="shape"/>
<feGaussianBlur stdDeviation="63.6606" result="effect1_foregroundBlur_603_2388"/>
</filter>
<filter id="filter2_f_603_2388" x="-1.47744" y="-65.3666" width="338.198" height="328.136" filterUnits="userSpaceOnUse" color-interpolation-filters="sRGB">
<feFlood flood-opacity="0" result="BackgroundImageFix"/>
<feBlend mode="normal" in="SourceGraphic" in2="BackgroundImageFix" result="shape"/>
<feGaussianBlur stdDeviation="63.6606" result="effect1_foregroundBlur_603_2388"/>
</filter>
<filter id="filter3_f_603_2388" x="-68.5009" y="-68.0805" width="318.789" height="330.246" filterUnits="userSpaceOnUse" color-interpolation-filters="sRGB">
<feFlood flood-opacity="0" result="BackgroundImageFix"/>
<feBlend mode="normal" in="SourceGraphic" in2="BackgroundImageFix" result="shape"/>
<feGaussianBlur stdDeviation="63.6606" result="effect1_foregroundBlur_603_2388"/>
</filter>
<linearGradient id="paint0_linear_603_2388" x1="32" y1="14.7212" x2="237" y2="220.721" gradientUnits="userSpaceOnUse">
<stop stop-color="#4BDDFF" stop-opacity="0.2"/>
<stop offset="0.487" stop-color="#AC35AA" stop-opacity="0.26"/>
<stop offset="1" stop-color="#FFC700" stop-opacity="0.1"/>
</linearGradient>
<linearGradient id="paint1_linear_603_2388" x1="197.576" y1="167.836" x2="131.273" y2="203.867" gradientUnits="userSpaceOnUse">
<stop stop-color="#F3C948"/>
<stop offset="1" stop-color="#FF2334"/>
</linearGradient>
<linearGradient id="paint2_linear_603_2388" x1="134.009" y1="170.7" x2="200.07" y2="134.084" gradientUnits="userSpaceOnUse">
<stop stop-color="#F3C948"/>
<stop offset="1" stop-color="#FF2334"/>
</linearGradient>
<linearGradient id="paint3_linear_603_2388" x1="134.01" y1="168.012" x2="197.575" y2="167.836" gradientUnits="userSpaceOnUse">
<stop stop-color="#A03732"/>
<stop offset="1" stop-color="#CE494E"/>
</linearGradient>
<linearGradient id="paint4_linear_603_2388" x1="123.595" y1="165.21" x2="57.292" y2="201.241" gradientUnits="userSpaceOnUse">
<stop stop-color="#32994F"/>
<stop offset="1" stop-color="#49CECE"/>
</linearGradient>
<linearGradient id="paint5_linear_603_2388" x1="60.0305" y1="168.074" x2="126.092" y2="131.458" gradientUnits="userSpaceOnUse">
<stop stop-color="#32994F"/>
<stop offset="1" stop-color="#49CECE"/>
</linearGradient>
<linearGradient id="paint6_linear_603_2388" x1="60.0313" y1="165.386" x2="123.597" y2="165.21" gradientUnits="userSpaceOnUse">
<stop stop-color="#325087"/>
<stop offset="1" stop-color="#49CEA0"/>
</linearGradient>
<linearGradient id="paint7_linear_603_2388" x1="125.844" y1="85.8369" x2="186.95" y2="86.0128" gradientUnits="userSpaceOnUse">
<stop stop-color="#D84EAC"/>
<stop offset="1" stop-color="#4F00A3"/>
</linearGradient>
<linearGradient id="paint8_linear_603_2388" x1="164.55" y1="70.5729" x2="208.734" y2="91.7088" gradientUnits="userSpaceOnUse">
<stop stop-color="#FF00DA"/>
<stop offset="1" stop-color="#792BFF"/>
</linearGradient>
<linearGradient id="paint9_linear_603_2388" x1="84.5029" y1="65.8396" x2="121.147" y2="65.8396" gradientUnits="userSpaceOnUse">
<stop stop-color="#4BDEFF"/>
<stop offset="1" stop-color="#0F37B7"/>
</linearGradient>
<linearGradient id="paint10_linear_603_2388" x1="58.8203" y1="54.4341" x2="79.1138" y2="117.768" gradientUnits="userSpaceOnUse">
<stop stop-color="#4BDEFF"/>
<stop offset="1" stop-color="#244CCC"/>
</linearGradient>
<linearGradient id="paint11_linear_603_2388" x1="71.5606" y1="93.9276" x2="122.963" y2="93.9276" gradientUnits="userSpaceOnUse">
<stop stop-color="#1F366D"/>
<stop offset="1" stop-color="#618FFB"/>
</linearGradient>
<clipPath id="clip0_603_2388">
<rect width="256" height="256" fill="white" transform="translate(0 0.721191)"/>
</clipPath>
</defs>
</svg>
