<svg width="340" height="371" viewBox="0 0 340 371" fill="none" xmlns="http://www.w3.org/2000/svg">
<path fill-rule="evenodd" clip-rule="evenodd" d="M266.598 137.179C284.565 132.159 296.982 115.92 297 97.4179C296.982 79.1961 284.934 63.1342 267.333 57.8691L263.111 56.8329C260.528 56.3331 257.903 56.0764 255.272 56.0656C243.041 56.108 231.444 61.4614 223.547 70.7171C223.485 70.6748 223.427 70.6422 223.365 70.5966C218.589 67.607 212.951 65.8854 206.92 65.8854C189.686 65.8854 175.696 79.9986 175.696 97.3582C175.696 114.718 189.686 128.831 206.92 128.831C212.891 128.831 218.472 127.139 223.218 124.203C223.293 124.144 223.371 124.108 223.446 124.056C231.355 133.364 242.996 138.747 255.273 138.771C257.653 138.764 260.029 138.54 262.372 138.124L266.598 137.179ZM221.905 72.931C217.551 70.2051 212.425 68.6377 206.919 68.6377C191.185 68.6377 178.447 81.4746 178.447 97.359C178.447 113.243 191.185 126.078 206.919 126.078C212.371 126.078 217.454 124.525 221.781 121.848C226.337 119.029 230.786 114.962 233.866 110.178C235.758 106.171 236.747 101.794 236.764 97.3566C236.746 92.9234 235.756 88.5478 233.866 84.5451C230.81 79.7957 226.408 75.7498 221.905 72.931Z" fill="url(#paint0_linear_602_6865)"/>
<path fill-rule="evenodd" clip-rule="evenodd" d="M153.703 31L98.846 49.5269L89.5361 63.7068L89.5284 63.6991L79.4834 79.0105L68.0623 96.4158L79.4858 112.971L104.305 148.932L153.596 158.929L112.991 98.5759L153.703 31ZM111.303 96.0615L147.47 36.0017L100.618 51.8408L91.2074 66.1893L111.303 96.0615Z" fill="url(#paint1_linear_602_6865)"/>
<path fill-rule="evenodd" clip-rule="evenodd" d="M147.47 36.0017L111.303 96.0615L91.2074 66.1893L100.618 51.8408L147.47 36.0017Z" fill="url(#paint2_linear_602_6865)"/>
<path d="M48.0716 246.254L88.9692 266.078L104.429 215.016L162.603 182.768L154.974 183.873L50.3026 241.858L47.7033 243.256L48.0716 246.254Z" fill="url(#paint3_linear_602_6865)"/>
<path d="M115.858 223.162L101.976 272.571L41 305.712L48.7949 304.605L153.76 247.561L156.366 246.186L156.01 243.204L115.858 223.162Z" fill="url(#paint4_linear_602_6865)"/>
<path d="M172.531 246.594L213.429 266.419L228.889 215.356L287.062 183.108L279.433 184.213L174.762 242.198L172.163 243.596L172.531 246.594Z" fill="url(#paint5_linear_602_6865)"/>
<path d="M240.317 223.503L226.435 272.911L165.459 306.053L173.254 304.946L278.219 247.901L280.826 246.527L280.47 243.545L240.317 223.503Z" fill="url(#paint6_linear_602_6865)"/>
<g filter="url(#filter0_dd_602_6865)">
<path d="M48.553 56.2366C48.553 51.8183 52.1347 48.2366 56.553 48.2366H71.4834C75.9016 48.2366 79.4834 51.8183 79.4834 56.2366V76.6201C79.4834 78.1796 79.0275 79.7052 78.1719 81.009L71.0159 91.9146C69.2302 94.636 69.2713 98.168 71.12 100.847L78.0767 110.929C78.9945 112.259 79.4878 113.836 79.493 115.452C79.5212 124.258 79.5748 133.321 79.5382 142.634C79.5209 147.02 75.951 150.552 71.5646 150.552H56.5529C52.1346 150.552 48.5529 146.971 48.5529 142.552L48.553 56.2366Z" fill="url(#paint7_linear_602_6865)"/>
<path d="M126.797 42.9904C133.855 40.6043 140.056 48.3134 136.213 54.696L117.783 85.3008C114.764 90.3148 107.559 90.4955 104.292 85.6393L94.1735 70.5983C92.3763 67.9268 92.3559 64.4381 94.1216 61.7457L99.1041 54.1484C100.085 52.6532 101.538 51.5296 103.232 50.957L126.797 42.9904Z" fill="url(#paint8_linear_602_6865)"/>
<path d="M220.279 37.5407C220.278 37.5408 220.278 37.5412 220.279 37.5412C235.095 37.5414 247.916 42.6258 257.605 51.1943C259.572 52.9344 257.898 56.0764 255.272 56.0656V56.0656C243.072 56.1079 231.502 61.435 223.606 70.6486C223.572 70.6875 223.515 70.6954 223.472 70.6681V70.6681C223.436 70.6457 223.401 70.6234 223.365 70.5966C218.589 67.607 212.951 65.8854 206.92 65.8854C189.686 65.8854 175.696 79.9986 175.696 97.3582C175.696 114.718 189.686 128.831 206.92 128.831C212.891 128.831 218.472 127.139 223.218 124.203C223.261 124.169 223.306 124.143 223.35 124.117V124.117C223.405 124.084 223.478 124.094 223.52 124.143C231.427 133.397 243.034 138.747 255.273 138.771V138.771C257.648 138.764 259.125 141.612 257.344 143.182C247.721 151.665 235.048 156.717 220.404 156.717C186.921 156.717 159.753 131.209 159.753 97.8786C159.753 64.5452 186.836 37.5407 220.278 37.5402C220.279 37.5402 220.279 37.5406 220.279 37.5407V37.5407Z" fill="url(#paint9_linear_602_6865)"/>
<path d="M96.0623 172.627C97.8233 171.59 99.9143 171.266 101.906 171.722L134.596 179.207C141.75 180.845 143.107 190.447 136.687 194.003L60.6709 236.114C55.7115 238.861 49.547 235.721 48.8541 230.094L46.0886 207.633C45.6992 204.47 47.224 201.378 49.9701 199.761L96.0623 172.627Z" fill="url(#paint10_linear_602_6865)"/>
<path d="M143.391 253.196C148.36 250.496 154.486 253.664 155.155 259.28L157.831 281.764C158.206 284.917 156.682 287.994 153.945 289.604L109.289 315.887C107.542 316.916 105.469 317.242 103.49 316.801L69.6279 309.251C62.4117 307.642 61.0529 297.944 67.5489 294.413L143.391 253.196Z" fill="url(#paint11_linear_602_6865)"/>
<path d="M217.907 174.415C219.668 173.378 221.759 173.055 223.751 173.511L256.443 180.996C263.597 182.634 264.954 192.235 258.534 195.792L182.517 237.903C177.558 240.65 171.394 237.51 170.701 231.883L167.934 209.42C167.544 206.257 169.069 203.164 171.815 201.547L217.907 174.415Z" fill="url(#paint12_linear_602_6865)"/>
<path d="M267.896 253.512C272.866 250.811 278.992 253.979 279.661 259.596L282.337 282.08C282.712 285.233 281.187 288.309 278.451 289.92L233.798 316.203C232.05 317.231 229.978 317.558 227.999 317.117L194.137 309.568C186.921 307.959 185.561 298.261 192.057 294.731L267.896 253.512Z" fill="url(#paint13_linear_602_6865)"/>
</g>
<defs>
<filter id="filter0_dd_602_6865" x="0.421223" y="0.12093" width="339.245" height="370.77" filterUnits="userSpaceOnUse" color-interpolation-filters="sRGB">
<feFlood flood-opacity="0" result="BackgroundImageFix"/>
<feColorMatrix in="SourceAlpha" type="matrix" values="0 0 0 0 0 0 0 0 0 0 0 0 0 0 0 0 0 0 127 0" result="hardAlpha"/>
<feOffset dy="8"/>
<feGaussianBlur stdDeviation="21.3333"/>
<feComposite in2="hardAlpha" operator="out"/>
<feColorMatrix type="matrix" values="0 0 0 0 0.219608 0 0 0 0 0.717647 0 0 0 0 1 0 0 0 0.5 0"/>
<feBlend mode="normal" in2="BackgroundImageFix" result="effect1_dropShadow_602_6865"/>
<feColorMatrix in="SourceAlpha" type="matrix" values="0 0 0 0 0 0 0 0 0 0 0 0 0 0 0 0 0 0 127 0" result="hardAlpha"/>
<feOffset dy="2.66667"/>
<feGaussianBlur stdDeviation="2.66667"/>
<feComposite in2="hardAlpha" operator="out"/>
<feColorMatrix type="matrix" values="0 0 0 0 0 0 0 0 0 0 0 0 0 0 0 0 0 0 0.25 0"/>
<feBlend mode="normal" in2="effect1_dropShadow_602_6865" result="effect2_dropShadow_602_6865"/>
<feBlend mode="normal" in="SourceGraphic" in2="effect2_dropShadow_602_6865" result="shape"/>
</filter>
<linearGradient id="paint0_linear_602_6865" x1="88.9999" y1="71.9898" x2="232.202" y2="287.621" gradientUnits="userSpaceOnUse">
<stop stop-color="#1D4B60"/>
<stop offset="1" stop-color="#1E2650"/>
</linearGradient>
<linearGradient id="paint1_linear_602_6865" x1="88.9999" y1="71.9898" x2="232.202" y2="287.621" gradientUnits="userSpaceOnUse">
<stop stop-color="#1D4B60"/>
<stop offset="1" stop-color="#1E2650"/>
</linearGradient>
<linearGradient id="paint2_linear_602_6865" x1="88.9999" y1="71.9898" x2="232.202" y2="287.621" gradientUnits="userSpaceOnUse">
<stop stop-color="#1D4B60"/>
<stop offset="1" stop-color="#1E2650"/>
</linearGradient>
<linearGradient id="paint3_linear_602_6865" x1="88.9999" y1="71.9898" x2="232.202" y2="287.621" gradientUnits="userSpaceOnUse">
<stop stop-color="#1D4B60"/>
<stop offset="1" stop-color="#1E2650"/>
</linearGradient>
<linearGradient id="paint4_linear_602_6865" x1="88.9999" y1="71.9898" x2="232.202" y2="287.621" gradientUnits="userSpaceOnUse">
<stop stop-color="#1D4B60"/>
<stop offset="1" stop-color="#1E2650"/>
</linearGradient>
<linearGradient id="paint5_linear_602_6865" x1="88.9999" y1="71.9898" x2="232.202" y2="287.621" gradientUnits="userSpaceOnUse">
<stop stop-color="#1D4B60"/>
<stop offset="1" stop-color="#1E2650"/>
</linearGradient>
<linearGradient id="paint6_linear_602_6865" x1="88.9999" y1="71.9898" x2="232.202" y2="287.621" gradientUnits="userSpaceOnUse">
<stop stop-color="#1D4B60"/>
<stop offset="1" stop-color="#1E2650"/>
</linearGradient>
<linearGradient id="paint7_linear_602_6865" x1="260.745" y1="304.091" x2="33.0602" y2="18.0128" gradientUnits="userSpaceOnUse">
<stop stop-color="#0062D5"/>
<stop offset="0.552083" stop-color="#38B7FF"/>
</linearGradient>
<linearGradient id="paint8_linear_602_6865" x1="260.745" y1="304.091" x2="33.0602" y2="18.0128" gradientUnits="userSpaceOnUse">
<stop stop-color="#0062D5"/>
<stop offset="0.552083" stop-color="#38B7FF"/>
</linearGradient>
<linearGradient id="paint9_linear_602_6865" x1="260.745" y1="304.091" x2="33.0602" y2="18.0128" gradientUnits="userSpaceOnUse">
<stop stop-color="#0062D5"/>
<stop offset="0.552083" stop-color="#38B7FF"/>
</linearGradient>
<linearGradient id="paint10_linear_602_6865" x1="260.745" y1="304.091" x2="33.0602" y2="18.0128" gradientUnits="userSpaceOnUse">
<stop stop-color="#0062D5"/>
<stop offset="0.552083" stop-color="#38B7FF"/>
</linearGradient>
<linearGradient id="paint11_linear_602_6865" x1="260.745" y1="304.091" x2="33.0602" y2="18.0128" gradientUnits="userSpaceOnUse">
<stop stop-color="#0062D5"/>
<stop offset="0.552083" stop-color="#38B7FF"/>
</linearGradient>
<linearGradient id="paint12_linear_602_6865" x1="260.745" y1="304.091" x2="33.0602" y2="18.0128" gradientUnits="userSpaceOnUse">
<stop stop-color="#0062D5"/>
<stop offset="0.552083" stop-color="#38B7FF"/>
</linearGradient>
<linearGradient id="paint13_linear_602_6865" x1="260.745" y1="304.091" x2="33.0602" y2="18.0128" gradientUnits="userSpaceOnUse">
<stop stop-color="#0062D5"/>
<stop offset="0.552083" stop-color="#38B7FF"/>
</linearGradient>
</defs>
</svg>
