<svg width="262" height="295" viewBox="0 0 262 295" fill="none" xmlns="http://www.w3.org/2000/svg">
<path d="M115.703 2.7207L60.8464 21.2477L51.5363 35.4275L51.5201 35.4205L44.2237 46.5411V17.2088H7.79069V125.025H44.2042L44.2257 123.672C44.3657 111.537 44.2846 99.9568 44.2418 88.6996L66.2972 120.654L115.588 130.65L74.9841 70.2974L115.703 2.7207ZM182.278 6.5082C147.352 6.5082 119 34.7744 119 69.6004C119 104.43 147.517 131.19 182.402 131.19C201.85 131.19 218.055 122.551 228.598 108.9C246.565 103.88 258.982 87.641 259 69.1386C258.984 50.9169 246.934 34.855 229.333 29.5899C218.783 15.4526 202.211 6.5082 182.278 6.5082ZM109.47 7.72248L73.3031 67.7823L53.2077 37.91L62.6178 23.5615L109.47 7.72248ZM182.278 9.2619C200.104 9.2619 215.042 16.6213 225.111 28.5537C222.528 28.0539 219.903 27.7972 217.272 27.7864C205.042 27.8286 193.444 33.1821 185.547 42.4379C185.486 42.3957 185.427 42.3629 185.364 42.3174C180.589 39.3278 174.95 37.6063 168.92 37.6063C151.686 37.6063 137.696 51.7194 137.696 69.0791C137.696 86.4387 151.686 100.552 168.92 100.552C174.891 100.552 180.472 98.8597 185.218 95.9238C185.293 95.8652 185.371 95.8294 185.446 95.7772C193.354 105.084 204.996 110.468 217.273 110.492C219.653 110.485 222.029 110.261 224.371 109.845C214.35 121.341 199.761 128.437 182.404 128.437C148.921 128.437 121.753 102.929 121.753 69.5994C121.753 36.2658 148.836 9.26102 182.279 9.26102L182.278 9.2619ZM10.5532 19.9573H41.4836V50.7312L30.0625 68.1366L41.4859 84.6916C41.5184 96.7386 41.6162 109.272 41.4859 122.273H10.5559L10.5532 19.9573ZM168.919 40.3584C174.425 40.3584 179.551 41.9259 183.905 44.6517C188.409 47.4706 192.81 51.5165 195.867 56.2659C197.756 60.2685 198.746 64.6442 198.764 69.0774C198.748 73.5146 197.758 77.8922 195.867 81.8986C192.786 86.6823 188.337 90.7502 183.78 93.569C179.454 96.2455 174.371 97.7988 168.919 97.7988C153.185 97.7988 140.447 84.9641 140.447 69.0798C140.447 53.1954 153.185 40.3584 168.919 40.3584ZM60.3454 139.815L4.50767 172.686L10.072 217.975L50.9693 237.799L66.4298 186.736L124.603 154.489L60.3454 139.815ZM182.19 141.604L126.353 174.472L131.919 219.763L172.816 239.588L188.277 188.525L246.45 156.278L182.19 141.604ZM60.8045 142.733L116.974 155.593L12.3028 213.579L7.44744 174.145L60.8045 142.733ZM182.649 144.522L238.821 157.382L134.15 215.367L129.292 175.931L182.649 144.522ZM77.8579 194.883L63.9762 244.292L3 277.433C25.0128 282.319 47.0203 287.226 69.0296 292.126L123.408 260.133L118.01 214.925L77.8579 194.883ZM200.8 196.427L185.823 243.891L124.847 277.033C146.86 281.918 168.867 286.826 190.877 291.726L245.255 259.732L239.855 214.527L200.8 196.427ZM237.604 218.881L242.293 258.273L190.417 288.808L132.642 275.928L237.604 218.881ZM115.76 219.282L120.449 258.674L68.5702 289.209L10.7951 276.326L115.76 219.282Z" fill="url(#paint0_linear_603_2380)" stroke="url(#paint1_linear_603_2380)" stroke-width="4.8142" stroke-miterlimit="3.5" stroke-linecap="round" stroke-linejoin="round"/>
<defs>
<linearGradient id="paint0_linear_603_2380" x1="259.146" y1="292.394" x2="26.7915" y2="67.9946" gradientUnits="userSpaceOnUse">
<stop offset="0.173767" stop-color="#9E2064"/>
<stop offset="0.45256" stop-color="#C92037"/>
<stop offset="0.7514" stop-color="#CD2335"/>
<stop offset="1" stop-color="#E97826"/>
</linearGradient>
<linearGradient id="paint1_linear_603_2380" x1="259.146" y1="292.394" x2="27.5056" y2="67.9945" gradientUnits="userSpaceOnUse">
<stop offset="0.173767" stop-color="#9E2064"/>
<stop offset="0.45256" stop-color="#C92037"/>
<stop offset="0.7514" stop-color="#CD2335"/>
<stop offset="1" stop-color="#E97826"/>
</linearGradient>
</defs>
</svg>
