<svg width="256" height="258" viewBox="0 0 256 258" fill="none" xmlns="http://www.w3.org/2000/svg">
<path d="M32.9532 0.758301H223.047C241.303 0.758301 256 15.5107 256 33.8353V224.644C256 242.969 241.303 257.721 223.047 257.721H32.9532C14.6971 257.721 0 242.969 0 224.644V33.8353C0 15.5107 14.6971 0.758301 32.9532 0.758301Z" fill="url(#paint0_linear_602_7949)"/>
<path d="M223.047 0.758301C241.303 0.758301 256 15.5107 256 33.8353V129.24C234.65 216.916 133.548 237.104 32.9531 257.721C14.6972 257.721 0 242.969 0 224.644V148.013C92.6713 152.528 159.413 81.188 223.047 0.758301Z" fill="url(#paint1_linear_602_7949)"/>
<path d="M128 35.0488C125.496 35.0488 123.342 37.5697 123.342 39.7884V74.2111L101.465 50.5875C99.7139 48.6923 96.763 48.5828 94.877 50.3429C92.991 52.1029 92.8854 55.0647 94.6412 56.9557L123.342 87.9465V121.142L94.702 104.544L82.3142 64.0995C81.5606 61.6278 78.9526 60.2387 76.4911 60.9981C74.0296 61.7576 72.6484 64.3775 73.4079 66.8474L82.8516 97.6764L53.1522 80.4651C50.7473 79.0714 47.9858 79.9679 46.7339 82.1444C45.482 84.3209 46.5799 87.4539 48.4942 88.5633L78.1936 105.775L46.8729 112.981C44.3622 113.555 42.7924 116.065 43.3679 118.585C43.9434 121.104 46.4459 122.677 48.9552 122.097L90.0439 112.642L118.684 129.24L90.0439 145.838L48.9552 136.384C46.4459 135.803 43.9434 137.376 43.3679 139.895C42.7924 142.415 44.3622 144.925 46.8729 145.5L78.1936 152.705L48.4942 169.917C46.0893 171.31 45.482 174.159 46.7339 176.335C47.9857 178.512 51.2379 179.124 53.1522 178.015L82.8516 160.803L73.4079 191.633C72.6484 194.103 74.0289 196.722 76.4905 197.482C78.9519 198.241 81.5606 196.852 82.3142 194.38L94.702 153.936L123.342 137.339V170.533L94.6411 201.524C92.8854 203.415 92.9911 206.378 94.877 208.138C96.763 209.898 99.7138 209.788 101.465 207.892L123.342 184.269V218.692C123.342 221.479 125.496 223.431 128 223.431C130.504 223.431 132.658 220.91 132.658 218.692V184.269L154.535 207.892C156.286 209.788 159.237 209.898 161.123 208.138C163.009 206.378 163.115 203.415 161.359 201.524L132.658 170.533V137.338L161.298 153.936L173.686 194.38C174.44 196.852 177.048 198.242 179.51 197.482C181.971 196.723 183.352 194.103 182.592 191.633L173.149 160.803L202.848 178.015C205.253 179.408 208.015 178.512 209.266 176.335C210.518 174.159 209.42 171.026 207.506 169.917L177.807 152.705L209.127 145.5C211.638 144.925 213.208 142.415 212.633 139.895C212.057 137.376 209.554 135.803 207.045 136.384L165.956 145.838L137.316 129.24L165.956 112.642L207.045 122.097C209.554 122.677 212.057 121.104 212.633 118.585C213.208 116.065 211.638 113.555 209.127 112.981L177.807 105.775L207.506 88.5633C209.911 87.1696 210.518 84.3209 209.266 82.1444C208.014 79.9679 204.762 79.3557 202.848 80.4651L173.149 97.6764L182.592 66.8474C183.352 64.3775 181.971 61.7576 179.51 60.9981C177.048 60.2387 174.44 61.6278 173.686 64.0995L161.298 104.544L132.658 121.142V87.9465L161.359 56.9556C163.115 55.0647 163.009 52.1029 161.123 50.3428C159.237 48.5828 156.286 48.6923 154.535 50.5875L132.658 74.211V39.7884C132.658 37.0011 130.504 35.0488 128 35.0488H128Z" fill="white"/>
<defs>
<linearGradient id="paint0_linear_602_7949" x1="-0.000190735" y1="0.758492" x2="256.961" y2="256.756" gradientUnits="userSpaceOnUse">
<stop stop-color="#007BFF"/>
<stop offset="1" stop-color="#A90093"/>
</linearGradient>
<linearGradient id="paint1_linear_602_7949" x1="100.982" y1="63.8023" x2="256.708" y2="257.151" gradientUnits="userSpaceOnUse">
<stop stop-opacity="0.543269"/>
<stop offset="1" stop-opacity="0"/>
</linearGradient>
</defs>
</svg>
