<svg width="298" height="295" viewBox="0 0 298 295" fill="none" xmlns="http://www.w3.org/2000/svg">
<g filter="url(#filter0_d_602_7330)">
<rect x="21" y="13.1221" width="256" height="253.004" rx="27.2737" fill="#272D46"/>
</g>
<g clip-path="url(#clip0_602_7330)">
<path d="M337.152 111.123C337.152 196.222 268.166 265.208 183.067 265.208C97.9679 265.208 28.9816 196.222 28.9816 111.123C28.9816 26.0241 97.9679 -42.9622 183.067 -42.9622C268.166 -42.9622 337.152 26.0241 337.152 111.123Z" fill="url(#paint0_radial_602_7330)" stroke="#FC58A7" stroke-width="1.36368"/>
<path d="M331.981 125.601C331.981 210.7 262.995 279.686 177.896 279.686C92.7971 279.686 23.8107 210.7 23.8107 125.601C23.8107 40.5021 92.7971 -28.4842 177.896 -28.4842C262.995 -28.4842 331.981 40.5021 331.981 125.601Z" stroke="#FEAA98" stroke-width="1.36368"/>
<ellipse cx="203.491" cy="90.6999" rx="97.5729" ry="97.573" fill="url(#paint1_radial_602_7330)"/>
<path d="M299.7 90.6999C299.7 143.835 256.626 186.909 203.491 186.909C150.356 186.909 107.282 143.835 107.282 90.6999C107.282 37.565 150.356 -5.50936 203.491 -5.50936C256.626 -5.50936 299.7 37.565 299.7 90.6999Z" stroke="#FC58A7" stroke-opacity="0.9" stroke-width="2.72737"/>
<ellipse cx="203.49" cy="90.7001" rx="48.5995" ry="48.5995" fill="url(#paint2_radial_602_7330)"/>
<path d="M249.362 90.7001C249.362 116.035 228.825 136.572 203.49 136.572C178.156 136.572 157.618 116.035 157.618 90.7001C157.618 65.3656 178.156 44.828 203.49 44.828C228.825 44.828 249.362 65.3656 249.362 90.7001Z" stroke="#FC58A7" stroke-opacity="0.75" stroke-width="5.45474"/>
<ellipse cx="203.491" cy="90.7" rx="28.2591" ry="28.2591" fill="url(#paint3_radial_602_7330)"/>
<path d="M227.659 90.7C227.659 104.048 216.838 114.868 203.491 114.868C190.143 114.868 179.322 104.048 179.322 90.7C179.322 77.3524 190.143 66.532 203.491 66.532C216.838 66.532 227.659 77.3524 227.659 90.7Z" stroke="#FC58A7" stroke-opacity="0.5" stroke-width="8.18211"/>
<g filter="url(#filter1_d_602_7330)">
<path d="M106.447 82.2314H72.5434C68.0246 82.2314 64.3613 85.8947 64.3613 90.4135V220.632C64.3613 225.151 68.0246 228.814 72.5434 228.814H106.447C110.966 228.814 114.629 225.151 114.629 220.632V90.4136C114.629 85.8947 110.966 82.2314 106.447 82.2314Z" fill="#2D2E48"/>
<path d="M72.5434 84.9588H106.447C109.459 84.9588 111.902 87.401 111.902 90.4136V220.632C111.902 223.644 109.459 226.086 106.447 226.086H72.5434C69.5309 226.086 67.0887 223.644 67.0887 220.632V90.4135C67.0887 87.401 69.5309 84.9588 72.5434 84.9588Z" stroke="#FC58A7" stroke-width="5.45474"/>
</g>
<path d="M208.858 85.0858C208.282 85.1135 207.717 85.2466 207.19 85.4783L84.3592 137.366C83.7968 137.603 83.2872 137.948 82.8595 138.38C82.4319 138.813 82.0946 139.324 81.8669 139.885C81.6392 140.446 81.5256 141.046 81.5325 141.651C81.5395 142.255 81.6668 142.852 81.9073 143.408C82.1478 143.964 82.4968 144.468 82.9342 144.89C83.3717 145.313 83.8891 145.646 84.4568 145.871C85.0246 146.096 85.6317 146.208 86.2433 146.201C86.855 146.194 87.4593 146.068 88.0217 145.83L210.853 93.9429C211.87 93.5316 212.707 92.7779 213.216 91.8153C213.725 90.8527 213.874 89.7431 213.635 88.6828C213.396 87.6225 212.786 86.6799 211.911 86.0216C211.037 85.3633 209.955 85.0318 208.858 85.0858Z" fill="#FC58A7"/>
<g filter="url(#filter2_d_602_7330)">
<path d="M242.491 133.422H55.5081C49.483 133.422 44.5986 138.306 44.5986 144.331V218.117C44.5986 224.142 49.483 229.026 55.5081 229.026H242.491C248.517 229.026 253.401 224.142 253.401 218.117V144.331C253.401 138.306 248.517 133.422 242.491 133.422Z" fill="#2D2E48"/>
<path d="M242.491 130.695H55.5081C47.9767 130.695 41.8713 136.8 41.8713 144.331V218.117C41.8713 225.648 47.9767 231.753 55.5081 231.753H242.491C250.023 231.753 256.128 225.648 256.128 218.117V144.331C256.128 136.8 250.023 130.695 242.491 130.695Z" stroke="#FC58A7" stroke-width="5.45474"/>
</g>
<path d="M70.2476 146.201H60.3003C58.4231 146.201 56.9014 147.723 56.9014 149.6V211.64C56.9014 213.518 58.4231 215.039 60.3003 215.039H70.2476C72.1248 215.039 73.6465 213.518 73.6465 211.64V149.6C73.6465 147.723 72.1248 146.201 70.2476 146.201Z" fill="url(#paint4_linear_602_7330)"/>
<path d="M103.738 146.201H93.7905C91.9133 146.201 90.3916 147.723 90.3916 149.6V211.64C90.3916 213.518 91.9133 215.039 93.7905 215.039H103.738C105.615 215.039 107.137 213.518 107.137 211.64V149.6C107.137 147.723 105.615 146.201 103.738 146.201Z" fill="url(#paint5_linear_602_7330)"/>
<path d="M137.228 146.201H127.281C125.404 146.201 123.882 147.723 123.882 149.6V211.64C123.882 213.518 125.404 215.039 127.281 215.039H137.228C139.105 215.039 140.627 213.518 140.627 211.64V149.6C140.627 147.723 139.105 146.201 137.228 146.201Z" fill="url(#paint6_linear_602_7330)"/>
<path d="M170.718 146.201H160.771C158.894 146.201 157.372 147.723 157.372 149.6V211.64C157.372 213.518 158.894 215.039 160.771 215.039H170.718C172.595 215.039 174.117 213.518 174.117 211.64V149.6C174.117 147.723 172.595 146.201 170.718 146.201Z" fill="url(#paint7_linear_602_7330)"/>
<path d="M204.209 146.201H194.261C192.384 146.201 190.862 147.723 190.862 149.6V211.64C190.862 213.518 192.384 215.039 194.261 215.039H204.209C206.086 215.039 207.607 213.518 207.607 211.64V149.6C207.607 147.723 206.086 146.201 204.209 146.201Z" fill="url(#paint8_linear_602_7330)"/>
<path d="M237.699 146.201H227.751C225.874 146.201 224.353 147.723 224.353 149.6V211.64C224.353 213.518 225.874 215.039 227.751 215.039H237.699C239.576 215.039 241.098 213.518 241.098 211.64V149.6C241.098 147.723 239.576 146.201 237.699 146.201Z" fill="url(#paint9_linear_602_7330)"/>
<g filter="url(#filter3_d_602_7330)">
<path d="M88.4211 206.135C102.342 206.135 113.627 194.982 113.627 181.224C113.627 167.466 102.342 156.312 88.4211 156.312C74.5001 156.312 63.2148 167.466 63.2148 181.224C63.2148 194.982 74.5001 206.135 88.4211 206.135Z" fill="url(#paint10_linear_602_7330)"/>
<path d="M108.171 181.224C108.171 191.908 99.3895 200.679 88.4211 200.679C77.4527 200.679 68.671 191.908 68.671 181.224C68.671 170.539 77.4527 161.769 88.4211 161.769C99.3895 161.769 108.171 170.539 108.171 181.224Z" stroke="#FC58A7" stroke-width="10.9123"/>
</g>
<g filter="url(#filter4_d_602_7330)">
<path d="M205.824 213.765C224.345 213.765 239.36 198.926 239.36 180.621C239.36 162.316 224.345 147.477 205.824 147.477C187.302 147.477 172.287 162.316 172.287 180.621C172.287 198.926 187.302 213.765 205.824 213.765Z" fill="url(#paint11_linear_602_7330)"/>
<path d="M233.904 180.621C233.904 195.852 221.393 208.309 205.824 208.309C190.255 208.309 177.743 195.852 177.743 180.621C177.743 165.389 190.255 152.933 205.824 152.933C221.393 152.933 233.904 165.389 233.904 180.621Z" stroke="#FC58A7" stroke-width="10.9123"/>
</g>
<g filter="url(#filter5_d_602_7330)">
<path d="M48.4196 60.3838C47.1327 55.221 51.038 50.2227 56.3587 50.2227H120.667C125.929 50.2227 129.824 55.1187 128.639 60.2462L126.194 70.831C125.336 74.5489 122.021 77.1796 118.205 77.1717L58.9495 77.0485C55.1992 77.0407 51.9344 74.4843 51.0273 70.8454L48.4196 60.3838Z" fill="#2D2E48"/>
<path d="M56.3587 52.95H120.667C124.175 52.95 126.771 56.2141 125.982 59.6324L123.537 70.2172C122.964 72.6958 120.755 74.4496 118.211 74.4443L58.9552 74.3211C56.455 74.3159 54.2784 72.6117 53.6737 70.1857L51.066 59.7241C50.208 56.2823 52.8116 52.95 56.3587 52.95Z" stroke="#FC58A7" stroke-width="5.45474"/>
</g>
<g filter="url(#filter6_d_602_7330)">
<path d="M205.824 104.36C213.417 104.36 219.572 98.2766 219.572 90.7725C219.572 83.2684 213.417 77.1851 205.824 77.1851C198.231 77.1851 192.075 83.2684 192.075 90.7725C192.075 98.2766 198.231 104.36 205.824 104.36Z" fill="#FF9494"/>
</g>
</g>
<defs>
<filter id="filter0_d_602_7330" x="0.544729" y="0.848908" width="296.911" height="293.915" filterUnits="userSpaceOnUse" color-interpolation-filters="sRGB">
<feFlood flood-opacity="0" result="BackgroundImageFix"/>
<feColorMatrix in="SourceAlpha" type="matrix" values="0 0 0 0 0 0 0 0 0 0 0 0 0 0 0 0 0 0 127 0" result="hardAlpha"/>
<feOffset dy="8.18211"/>
<feGaussianBlur stdDeviation="10.2276"/>
<feColorMatrix type="matrix" values="0 0 0 0 0 0 0 0 0 0 0 0 0 0 0 0 0 0 0.25 0"/>
<feBlend mode="normal" in2="BackgroundImageFix" result="effect1_dropShadow_602_7330"/>
<feBlend mode="normal" in="SourceGraphic" in2="effect1_dropShadow_602_7330" result="shape"/>
</filter>
<filter id="filter1_d_602_7330" x="56.1792" y="79.5041" width="66.6318" height="162.947" filterUnits="userSpaceOnUse" color-interpolation-filters="sRGB">
<feFlood flood-opacity="0" result="BackgroundImageFix"/>
<feColorMatrix in="SourceAlpha" type="matrix" values="0 0 0 0 0 0 0 0 0 0 0 0 0 0 0 0 0 0 127 0" result="hardAlpha"/>
<feOffset dy="5.45474"/>
<feGaussianBlur stdDeviation="4.09105"/>
<feColorMatrix type="matrix" values="0 0 0 0 0 0 0 0 0 0 0 0 0 0 0 0 0 0 0.3 0"/>
<feBlend mode="normal" in2="BackgroundImageFix" result="effect1_dropShadow_602_7330"/>
<feBlend mode="normal" in="SourceGraphic" in2="effect1_dropShadow_602_7330" result="shape"/>
</filter>
<filter id="filter2_d_602_7330" x="30.9614" y="125.24" width="236.076" height="122.878" filterUnits="userSpaceOnUse" color-interpolation-filters="sRGB">
<feFlood flood-opacity="0" result="BackgroundImageFix"/>
<feColorMatrix in="SourceAlpha" type="matrix" values="0 0 0 0 0 0 0 0 0 0 0 0 0 0 0 0 0 0 127 0" result="hardAlpha"/>
<feOffset dy="5.45474"/>
<feGaussianBlur stdDeviation="4.09105"/>
<feColorMatrix type="matrix" values="0 0 0 0 0 0 0 0 0 0 0 0 0 0 0 0 0 0 0.3 0"/>
<feBlend mode="normal" in2="BackgroundImageFix" result="effect1_dropShadow_602_7330"/>
<feBlend mode="normal" in="SourceGraphic" in2="effect1_dropShadow_602_7330" result="shape"/>
</filter>
<filter id="filter3_d_602_7330" x="49.578" y="144.329" width="77.6858" height="77.0964" filterUnits="userSpaceOnUse" color-interpolation-filters="sRGB">
<feFlood flood-opacity="0" result="BackgroundImageFix"/>
<feColorMatrix in="SourceAlpha" type="matrix" values="0 0 0 0 0 0 0 0 0 0 0 0 0 0 0 0 0 0 127 0" result="hardAlpha"/>
<feOffset dy="1.65337"/>
<feGaussianBlur stdDeviation="6.81842"/>
<feColorMatrix type="matrix" values="0 0 0 0 1 0 0 0 0 0 0 0 0 0 0.481708 0 0 0 0.5 0"/>
<feBlend mode="normal" in2="BackgroundImageFix" result="effect1_dropShadow_602_7330"/>
<feBlend mode="normal" in="SourceGraphic" in2="effect1_dropShadow_602_7330" result="shape"/>
</filter>
<filter id="filter4_d_602_7330" x="158.65" y="135.493" width="94.3469" height="93.5618" filterUnits="userSpaceOnUse" color-interpolation-filters="sRGB">
<feFlood flood-opacity="0" result="BackgroundImageFix"/>
<feColorMatrix in="SourceAlpha" type="matrix" values="0 0 0 0 0 0 0 0 0 0 0 0 0 0 0 0 0 0 127 0" result="hardAlpha"/>
<feOffset dy="1.65337"/>
<feGaussianBlur stdDeviation="6.81842"/>
<feColorMatrix type="matrix" values="0 0 0 0 1 0 0 0 0 0 0 0 0 0 0.481708 0 0 0 0.5 0"/>
<feBlend mode="normal" in2="BackgroundImageFix" result="effect1_dropShadow_602_7330"/>
<feBlend mode="normal" in="SourceGraphic" in2="effect1_dropShadow_602_7330" result="shape"/>
</filter>
<filter id="filter5_d_602_7330" x="39.9907" y="47.4953" width="97.0439" height="43.3134" filterUnits="userSpaceOnUse" color-interpolation-filters="sRGB">
<feFlood flood-opacity="0" result="BackgroundImageFix"/>
<feColorMatrix in="SourceAlpha" type="matrix" values="0 0 0 0 0 0 0 0 0 0 0 0 0 0 0 0 0 0 127 0" result="hardAlpha"/>
<feOffset dy="5.45474"/>
<feGaussianBlur stdDeviation="4.09105"/>
<feColorMatrix type="matrix" values="0 0 0 0 0 0 0 0 0 0 0 0 0 0 0 0 0 0 0.3 0"/>
<feBlend mode="normal" in2="BackgroundImageFix" result="effect1_dropShadow_602_7330"/>
<feBlend mode="normal" in="SourceGraphic" in2="effect1_dropShadow_602_7330" result="shape"/>
</filter>
<filter id="filter6_d_602_7330" x="178.438" y="65.2016" width="54.7708" height="54.4485" filterUnits="userSpaceOnUse" color-interpolation-filters="sRGB">
<feFlood flood-opacity="0" result="BackgroundImageFix"/>
<feColorMatrix in="SourceAlpha" type="matrix" values="0 0 0 0 0 0 0 0 0 0 0 0 0 0 0 0 0 0 127 0" result="hardAlpha"/>
<feOffset dy="1.65337"/>
<feGaussianBlur stdDeviation="6.81842"/>
<feColorMatrix type="matrix" values="0 0 0 0 1 0 0 0 0 0 0 0 0 0 0.481708 0 0 0 0.5 0"/>
<feBlend mode="normal" in2="BackgroundImageFix" result="effect1_dropShadow_602_7330"/>
<feBlend mode="normal" in="SourceGraphic" in2="effect1_dropShadow_602_7330" result="shape"/>
</filter>
<radialGradient id="paint0_radial_602_7330" cx="0" cy="0" r="1" gradientUnits="userSpaceOnUse" gradientTransform="translate(183.067 111.123) rotate(90) scale(154.767 154.767)">
<stop stop-color="#FF007B"/>
<stop offset="0.244792" stop-color="#FE238C" stop-opacity="0.605839"/>
<stop offset="0.713542" stop-color="#FC4AA0" stop-opacity="0.15625"/>
<stop offset="1" stop-color="#FC58A7" stop-opacity="0"/>
</radialGradient>
<radialGradient id="paint1_radial_602_7330" cx="0" cy="0" r="1" gradientUnits="userSpaceOnUse" gradientTransform="translate(203.491 90.6999) rotate(90) scale(97.573 97.5729)">
<stop stop-color="#FF007B"/>
<stop offset="0.244792" stop-color="#FE238C" stop-opacity="0.605839"/>
<stop offset="0.713542" stop-color="#FC4AA0" stop-opacity="0.15625"/>
<stop offset="1" stop-color="#FC58A7" stop-opacity="0"/>
</radialGradient>
<radialGradient id="paint2_radial_602_7330" cx="0" cy="0" r="1" gradientUnits="userSpaceOnUse" gradientTransform="translate(203.49 90.7001) rotate(90) scale(48.5995 48.5995)">
<stop stop-color="#FF007B"/>
<stop offset="0.244792" stop-color="#FE238C" stop-opacity="0.605839"/>
<stop offset="0.713542" stop-color="#FC4AA0" stop-opacity="0.15625"/>
<stop offset="1" stop-color="#FC58A7" stop-opacity="0"/>
</radialGradient>
<radialGradient id="paint3_radial_602_7330" cx="0" cy="0" r="1" gradientUnits="userSpaceOnUse" gradientTransform="translate(203.491 90.7) rotate(90) scale(28.2591 28.2591)">
<stop stop-color="#FF007B"/>
<stop offset="0.244792" stop-color="#FE238C" stop-opacity="0.605839"/>
<stop offset="0.713542" stop-color="#FC4AA0" stop-opacity="0.15625"/>
<stop offset="1" stop-color="#FC58A7" stop-opacity="0"/>
</radialGradient>
<linearGradient id="paint4_linear_602_7330" x1="65.2739" y1="146.201" x2="65.2739" y2="215.039" gradientUnits="userSpaceOnUse">
<stop stop-color="#FE238C" stop-opacity="0.39"/>
<stop offset="1" stop-color="#FF007B" stop-opacity="0"/>
</linearGradient>
<linearGradient id="paint5_linear_602_7330" x1="98.7642" y1="146.201" x2="98.7642" y2="215.039" gradientUnits="userSpaceOnUse">
<stop stop-color="#FE238C" stop-opacity="0.39"/>
<stop offset="1" stop-color="#FF007B" stop-opacity="0"/>
</linearGradient>
<linearGradient id="paint6_linear_602_7330" x1="132.254" y1="146.201" x2="132.254" y2="215.039" gradientUnits="userSpaceOnUse">
<stop stop-color="#FE238C" stop-opacity="0.39"/>
<stop offset="1" stop-color="#FF007B" stop-opacity="0"/>
</linearGradient>
<linearGradient id="paint7_linear_602_7330" x1="165.745" y1="146.201" x2="165.745" y2="215.039" gradientUnits="userSpaceOnUse">
<stop stop-color="#FE238C" stop-opacity="0.39"/>
<stop offset="1" stop-color="#FF007B" stop-opacity="0"/>
</linearGradient>
<linearGradient id="paint8_linear_602_7330" x1="199.235" y1="146.201" x2="199.235" y2="215.039" gradientUnits="userSpaceOnUse">
<stop stop-color="#FE238C" stop-opacity="0.39"/>
<stop offset="1" stop-color="#FF007B" stop-opacity="0"/>
</linearGradient>
<linearGradient id="paint9_linear_602_7330" x1="232.725" y1="146.201" x2="232.725" y2="215.039" gradientUnits="userSpaceOnUse">
<stop stop-color="#FE238C" stop-opacity="0.39"/>
<stop offset="1" stop-color="#FF007B" stop-opacity="0"/>
</linearGradient>
<linearGradient id="paint10_linear_602_7330" x1="88.4211" y1="156.312" x2="88.4211" y2="206.135" gradientUnits="userSpaceOnUse">
<stop stop-color="#FD6CA1"/>
<stop offset="1" stop-color="#FFBC96"/>
</linearGradient>
<linearGradient id="paint11_linear_602_7330" x1="205.824" y1="147.477" x2="205.824" y2="213.765" gradientUnits="userSpaceOnUse">
<stop stop-color="#FD6CA1"/>
<stop offset="1" stop-color="#FFBC96"/>
</linearGradient>
<clipPath id="clip0_602_7330">
<rect x="21" y="13.1221" width="256" height="253.004" rx="27.2737" fill="white"/>
</clipPath>
</defs>
</svg>
