<svg width="256" height="256" viewBox="0 0 256 256" fill="none" xmlns="http://www.w3.org/2000/svg">
<rect width="256" height="256" fill="#1E1E1E"/>
<path d="M55.5887 28.2199C78.128 33.5864 87.5194 55.0524 106.034 69.0053C125.862 73.2766 135.059 72.758 147.624 66.0537C169.907 40.452 181.149 32.9608 200.216 25C210.099 45.1084 214.906 72.1043 216.315 79.7383C217.724 87.3723 205.06 92.3019 207.192 98.521C209.325 104.74 212.022 104.961 211.486 108.986C210.949 113.011 210.144 111.669 210.144 111.669L41.6356 101.741L41.6358 99.5943C42.1723 86.4464 34.0492 83.0313 35.196 71.6885C40.7867 53.7297 43.4732 43.4752 55.5887 28.2199Z" fill="#1B1B1B"/>
<path d="M213.9 182.238C206.826 185.829 201.137 182.978 194.044 186.532C189.762 190.597 185.995 193.941 182.368 196.848C174.189 203.401 166.722 207.73 155.674 213.096C155.674 213.096 152.568 219.518 149.502 222.755C143.305 229.301 137.051 230.018 128.036 230C117.489 229.98 102.814 220.341 102.814 220.341L98.5206 213.096L95.8374 212.022C69.5645 192.334 54.699 185.473 27.9512 180.092C27.9512 180.092 29.0245 177.14 34.391 172.847C39.7575 168.554 37.4701 150.357 45.124 143.063C44.1875 141.27 43.1425 141.071 39.7575 143.063L39.7415 142.892C39.4006 139.225 39.2046 137.117 41.9041 132.062L38.4158 133.94L38.4499 133.831C40.2367 128.083 41.249 124.826 45.124 117.84C42.8541 112.41 41.2876 110.672 38.4158 107.912C35.1363 106.499 44.588 95.0223 54.7837 90.7396C67.4706 85.4105 74.9544 83.363 87.7876 78.3966C98.6215 74.2041 88.0409 83.9105 99.4995 82C108.389 80.5179 105.5 71.5 105.5 71.5L162.981 88.8731C175.053 96.771 197.085 99.4442 208.534 111.937C213.9 130.72 221.065 140.888 220.609 153.528C224.122 163.276 222.755 168.554 227.048 180.092C227.048 180.092 216.674 180.831 213.9 182.238Z" fill="url(#paint0_linear_602_6868)"/>
<path d="M213.9 182.238C206.826 185.829 201.137 182.978 194.044 186.532C189.762 190.597 185.995 193.941 182.368 196.848C174.189 203.401 166.722 207.73 155.674 213.096C155.674 213.096 152.568 219.518 149.502 222.755C143.305 229.301 137.051 230.018 128.036 230C117.489 229.98 102.814 220.341 102.814 220.341L98.5206 213.096L95.8374 212.022C69.5645 192.334 54.699 185.473 27.9512 180.092C27.9512 180.092 29.0245 177.14 34.391 172.847C39.7575 168.554 37.4701 150.357 45.124 143.063C44.1875 141.27 43.1425 141.071 39.7575 143.063L39.7415 142.892C39.4006 139.225 39.2046 137.117 41.9041 132.062L38.4158 133.94L38.4499 133.831C40.2367 128.083 41.249 124.826 45.124 117.84C42.8541 112.41 41.2876 110.672 38.4158 107.912C35.1363 106.499 44.588 95.0223 54.7837 90.7396C67.4706 85.4105 74.9544 83.363 87.7876 78.3966C98.6215 74.2041 88.0409 83.9105 99.4995 82C108.389 80.5179 105.5 71.5 105.5 71.5L162.981 88.8731C175.053 96.771 197.085 99.4442 208.534 111.937C213.9 130.72 221.065 140.888 220.609 153.528C224.122 163.276 222.755 168.554 227.048 180.092C227.048 180.092 216.674 180.831 213.9 182.238Z" fill="url(#paint1_linear_602_6868)"/>
<path d="M106.034 69.0053C87.5194 55.0524 78.128 33.5864 55.5887 28.2199M55.5887 28.2199C43.4732 43.4752 40.7867 53.7297 35.196 71.6885C34.0492 83.0313 42.1723 86.4464 41.6358 99.5943M55.5887 28.2199C71.5574 43.0714 79.6433 53.5542 92.8859 75.1768M200.216 25C181.149 32.9608 169.907 40.452 147.624 66.0537M200.216 25C183.138 42.3083 174.155 52.4482 159.699 71.6885M200.216 25C210.099 45.1084 214.906 72.1043 216.315 79.7383C217.724 87.3723 205.06 92.3019 207.192 98.521C209.325 104.74 212.022 104.961 211.486 108.986C210.949 113.011 210.144 111.669 210.144 111.669" stroke="url(#paint2_radial_602_6868)" stroke-width="3" stroke-linecap="round" stroke-linejoin="round"/>
<g filter="url(#filter0_d_602_6868)">
<path d="M99.4876 130.571L102.034 136.931L83.5714 135.023L76.25 125.801L88.3463 124.211L99.4876 130.571Z" fill="white" fill-opacity="0.5" shape-rendering="crispEdges"/>
<path d="M158.059 140.111L156.149 136.931L162.197 125.801L178.75 122.938V125.801L175.567 130.571L173.02 135.023L167.29 136.931L158.059 140.111Z" fill="white" fill-opacity="0.5" shape-rendering="crispEdges"/>
<path d="M99.4876 130.571L102.034 136.931L83.5714 135.023L76.25 125.801L88.3463 124.211L99.4876 130.571Z" stroke="white" shape-rendering="crispEdges"/>
<path d="M158.059 140.111L156.149 136.931L162.197 125.801L178.75 122.938V125.801L175.567 130.571L173.02 135.023L167.29 136.931L158.059 140.111Z" stroke="white" shape-rendering="crispEdges"/>
</g>
<g filter="url(#filter1_f_602_6868)">
<path d="M98.7576 132.986L101.224 139.346L83.3414 137.438L76.25 128.216L87.9663 126.626L98.7576 132.986Z" fill="white" fill-opacity="0.5"/>
<path d="M155.489 142.526L153.639 139.346L159.497 128.216L175.53 125.354V128.216L172.447 132.986L169.98 137.438L164.431 139.346L155.489 142.526Z" fill="white" fill-opacity="0.5"/>
<path d="M98.7576 132.986L101.224 139.346L83.3414 137.438L76.25 128.216L87.9663 126.626L98.7576 132.986Z" stroke="white"/>
<path d="M155.489 142.526L153.639 139.346L159.497 128.216L175.53 125.354V128.216L172.447 132.986L169.98 137.438L164.431 139.346L155.489 142.526Z" stroke="white"/>
</g>
<g filter="url(#filter2_d_602_6868)">
<path d="M103.837 130.809L106.037 135.579L90.0875 134.148L83.7627 127.232L94.2124 126.039L103.837 130.809Z" fill="white"/>
<path d="M154.435 137.965L152.786 135.579L158.01 127.232L172.31 125.085V127.232L169.56 130.809L167.36 134.148L162.41 135.579L154.435 137.965Z" fill="white"/>
<path d="M103.837 130.809L106.037 135.579L90.0875 134.148L83.7627 127.232L94.2124 126.039L103.837 130.809Z" stroke="white"/>
<path d="M154.435 137.965L152.786 135.579L158.01 127.232L172.31 125.085V127.232L169.56 130.809L167.36 134.148L162.41 135.579L154.435 137.965Z" stroke="white"/>
</g>
<path d="M158.625 212.023C158.625 212.023 171.213 205.56 178.481 200.216C185.002 195.423 186.809 190.157 194.044 186.532C201.137 182.978 206.826 185.829 213.9 182.239C216.674 180.831 227.048 180.092 227.048 180.092C222.755 168.554 224.122 163.276 220.609 153.528C221.065 140.888 206.924 104.693 206.924 104.693L147.087 67.3955L126.5 72.5002L105.5 69.0002L54.7837 90.7398C54.7837 90.7398 35.1363 106.499 38.4158 107.913C41.2876 110.672 42.8541 112.411 45.124 117.841C41.2245 124.871 40.224 128.124 38.4158 133.94L41.9041 132.062C39.1628 137.195 39.4074 139.29 39.7575 143.063C43.1425 141.071 44.1875 141.271 45.124 143.063C37.4701 150.357 39.7575 168.554 34.391 172.847C29.0245 177.14 27.9512 180.092 27.9512 180.092" stroke="url(#paint3_linear_602_6868)" stroke-width="4" stroke-linecap="round" stroke-linejoin="round"/>
<path d="M84.5674 175.262L102.545 219.535L116.23 228.927H139.037L150.039 221.95L166.943 188.141L171.236 180.36" stroke="url(#paint4_linear_602_6868)" stroke-width="3" stroke-linecap="round" stroke-linejoin="round"/>
<path d="M33.8545 179.287C60.1266 186.785 73.3378 194.874 95.8376 212.022" stroke="url(#paint5_linear_602_6868)" stroke-width="4" stroke-linecap="round" stroke-linejoin="round"/>
<path d="M146.017 205.461C146.017 207.347 146.498 208.467 146.017 210.291C145.365 212.765 144.122 213.903 142.26 215.658C137.986 219.685 133.643 219.616 127.771 219.682C122.509 219.742 118.541 220.243 114.623 216.731C111.587 214.009 110.323 211.408 110.061 207.34C109.834 191.941 124.282 190.167 128.844 195.265C132.064 191.24 145.357 191.237 146.017 205.461Z" fill="#2D2D2D"/>
<path d="M110.061 207.34C110.061 204.388 113.249 199.69 116.501 199.826C122.799 200.09 137.967 198.753 141.187 200.363C144.407 201.973 143.643 203.456 146.017 205.461M110.061 207.34C110.323 211.408 111.587 214.009 114.623 216.731C118.541 220.243 122.509 219.742 127.771 219.682C133.643 219.616 137.986 219.685 142.26 215.658C144.122 213.903 145.365 212.765 146.017 210.291C146.498 208.467 146.017 207.347 146.017 205.461M110.061 207.34C109.834 191.941 124.282 190.167 128.844 195.265C132.064 191.24 145.357 191.237 146.017 205.461" stroke="white"/>
<path d="M100.131 104.692L109.522 114.352L117.572 135.013L115.694 175.53L107.107 192.435M150.308 192.435L141.721 175.53L139.843 135.013L147.893 114.352L157.284 104.692" stroke="url(#paint6_linear_602_6868)" stroke-width="3"/>
<defs>
<filter id="filter0_d_602_6868" x="65.3096" y="112.345" width="123.94" height="38.3711" filterUnits="userSpaceOnUse" color-interpolation-filters="sRGB">
<feFlood flood-opacity="0" result="BackgroundImageFix"/>
<feColorMatrix in="SourceAlpha" type="matrix" values="0 0 0 0 0 0 0 0 0 0 0 0 0 0 0 0 0 0 127 0" result="hardAlpha"/>
<feOffset/>
<feGaussianBlur stdDeviation="5"/>
<feComposite in2="hardAlpha" operator="out"/>
<feColorMatrix type="matrix" values="0 0 0 0 1 0 0 0 0 1 0 0 0 0 1 0 0 0 0.25 0"/>
<feBlend mode="normal" in2="BackgroundImageFix" result="effect1_dropShadow_602_6868"/>
<feBlend mode="normal" in="SourceGraphic" in2="effect1_dropShadow_602_6868" result="shape"/>
</filter>
<filter id="filter1_f_602_6868" x="45.3271" y="94.7563" width="160.703" height="78.3804" filterUnits="userSpaceOnUse" color-interpolation-filters="sRGB">
<feFlood flood-opacity="0" result="BackgroundImageFix"/>
<feBlend mode="normal" in="SourceGraphic" in2="BackgroundImageFix" result="shape"/>
<feGaussianBlur stdDeviation="15" result="effect1_foregroundBlur_602_6868"/>
</filter>
<filter id="filter2_d_602_6868" x="72.7324" y="114.504" width="110.077" height="34.0435" filterUnits="userSpaceOnUse" color-interpolation-filters="sRGB">
<feFlood flood-opacity="0" result="BackgroundImageFix"/>
<feColorMatrix in="SourceAlpha" type="matrix" values="0 0 0 0 0 0 0 0 0 0 0 0 0 0 0 0 0 0 127 0" result="hardAlpha"/>
<feOffset/>
<feGaussianBlur stdDeviation="5"/>
<feComposite in2="hardAlpha" operator="out"/>
<feColorMatrix type="matrix" values="0 0 0 0 1 0 0 0 0 1 0 0 0 0 1 0 0 0 0.25 0"/>
<feBlend mode="normal" in2="BackgroundImageFix" result="effect1_dropShadow_602_6868"/>
<feBlend mode="normal" in="SourceGraphic" in2="effect1_dropShadow_602_6868" result="shape"/>
</filter>
<linearGradient id="paint0_linear_602_6868" x1="40.2936" y1="137.696" x2="216.851" y2="138.233" gradientUnits="userSpaceOnUse">
<stop stop-color="#242424"/>
<stop offset="0.369958" stop-color="#303030"/>
<stop offset="0.510571" stop-color="#484848"/>
<stop offset="0.624832" stop-color="#303030"/>
<stop offset="1" stop-color="#1B1B1B"/>
</linearGradient>
<linearGradient id="paint1_linear_602_6868" x1="127.768" y1="86.983" x2="127.768" y2="134.477" gradientUnits="userSpaceOnUse">
<stop stop-color="#1C1C1C"/>
<stop offset="1" stop-opacity="0"/>
</linearGradient>
<radialGradient id="paint2_radial_602_6868" cx="0" cy="0" r="1" gradientUnits="userSpaceOnUse" gradientTransform="translate(118.108 8.09554) rotate(89.429) scale(80.7698 168.58)">
<stop stop-color="white"/>
<stop offset="1" stop-color="white" stop-opacity="0.1"/>
</radialGradient>
<linearGradient id="paint3_linear_602_6868" x1="127.5" y1="66.3509" x2="127.5" y2="212.023" gradientUnits="userSpaceOnUse">
<stop offset="0.577596" stop-color="white" stop-opacity="0.66"/>
<stop offset="0.963741" stop-color="white" stop-opacity="0.0858384"/>
<stop offset="1" stop-color="white" stop-opacity="0"/>
</linearGradient>
<linearGradient id="paint4_linear_602_6868" x1="128.841" y1="230" x2="129.378" y2="175.262" gradientUnits="userSpaceOnUse">
<stop stop-color="white"/>
<stop offset="1" stop-color="white" stop-opacity="0"/>
</linearGradient>
<linearGradient id="paint5_linear_602_6868" x1="33.8545" y1="179.555" x2="92.3493" y2="212.291" gradientUnits="userSpaceOnUse">
<stop stop-color="white"/>
<stop offset="1" stop-color="white" stop-opacity="0"/>
</linearGradient>
<linearGradient id="paint6_linear_602_6868" x1="128.842" y1="192.435" x2="130.988" y2="104.961" gradientUnits="userSpaceOnUse">
<stop stop-color="white" stop-opacity="0.06"/>
<stop offset="0.203673" stop-color="white"/>
<stop offset="1" stop-color="white" stop-opacity="0"/>
</linearGradient>
</defs>
</svg>
