<svg width="256" height="256" viewBox="0 0 256 256" fill="none" xmlns="http://www.w3.org/2000/svg">
<g clip-path="url(#clip0_282_100)">
<rect width="256" height="256" fill="#489CFF"/>
<path d="M79.7871 71.717C82.4965 63.5289 90.1498 58 98.7745 58L158.101 58C166.726 58 174.379 63.5289 177.089 71.717L210.179 171.717C214.462 184.66 204.824 198 191.191 198H65.6845C52.0518 198 42.4143 184.66 46.697 171.717L79.7871 71.717Z" fill="white"/>
<path d="M98.1253 82.3234C98.5781 79.9692 100.638 78.2676 103.035 78.2676H153.841C156.238 78.2676 158.298 79.9692 158.751 82.3234L178.709 186.112C179.895 192.279 175.169 198 168.889 198H87.987C81.7068 198 76.981 192.279 78.1669 186.112L98.1253 82.3234Z" fill="#489CFF"/>
<path d="M103.946 168.574C104.203 166.019 106.353 164.074 108.921 164.074H147.955C150.523 164.074 152.673 166.019 152.93 168.574L155.333 192.5C155.628 195.445 153.317 198 150.358 198H106.518C103.559 198 101.248 195.445 101.543 192.5L103.946 168.574Z" fill="white"/>
<path d="M107.95 129.427C108.241 126.904 110.377 125 112.917 125H144.083C146.623 125 148.759 126.904 149.05 129.427L151.357 149.427C151.7 152.396 149.379 155 146.39 155H110.61C107.621 155 105.3 152.396 105.643 149.427L107.95 129.427Z" fill="white"/>
<path d="M111.693 91.4335C111.95 88.8784 114.1 86.9331 116.668 86.9331L140.208 86.9332C142.776 86.9332 144.926 88.8785 145.183 91.4336L147.118 110.698C147.413 113.642 145.102 116.197 142.143 116.197H114.733C111.774 116.197 109.463 113.642 109.758 110.698L111.693 91.4335Z" fill="white"/>
</g>
<defs>
<clipPath id="clip0_282_100">
<rect width="256" height="256" rx="64" fill="white"/>
</clipPath>
</defs>
</svg>
