<svg width="256" height="257" viewBox="0 0 256 257" fill="none" xmlns="http://www.w3.org/2000/svg">
<g clip-path="url(#clip0_602_347)">
<path d="M53.0883 148.036C46.2485 126.795 39.0018 104.29 26.7677 77.1029C20.8527 63.9584 10.9747 54.2154 0 47.5542V256.793H111.328C106.586 252.316 101.981 247.434 97.4921 242.129C97.2782 241.876 97.0702 241.618 96.8683 241.356C76.9365 215.444 67.1443 190.577 58.4279 164.428C56.6218 159.009 54.8688 153.566 53.0883 148.036Z" fill="#3B60BE"/>
<path d="M65.6764 59.594C78.9822 89.1624 87.086 114.361 93.9771 135.788C95.6734 141.063 97.2963 146.109 98.9051 150.936C107.025 175.294 114.319 195.148 129.743 215.318C143.941 233.884 164.677 245.924 185.779 251.382C213.893 258.653 206.222 256.793 256 256.793C244.653 249.171 225.687 240.613 209.827 226.515C195.994 214.22 191.414 201.081 185.333 186.654C179.122 171.919 172.607 155.131 167.376 138.421C156.495 103.667 145.832 69.8633 128.349 45.0955C109.172 17.9277 79.9343 6.32715 50.1628 1.89352C47.231 1.4569 44.3491 1.09337 41.5209 0.792969H0C14.9158 11.4052 53.1275 25.3911 65.6764 59.594Z" fill="#3B60BE"/>
<path d="M224.492 170.076C229.892 182.886 230.952 186.245 238.173 194.626C244.218 201.643 250.042 206.731 256 210.267V0.792969H144.667C150.677 6.57683 157.402 13.358 162.611 20.7374C185.197 50.8487 197.096 90.5179 207.27 123.041L208.093 125.673C213.469 142.841 219.222 157.574 224.492 170.076Z" fill="#3B60BE"/>
</g>
<defs>
<clipPath id="clip0_602_347">
<rect width="256" height="256" fill="white" transform="translate(0 0.792969)"/>
</clipPath>
</defs>
</svg>
