<svg width="256" height="257" viewBox="0 0 256 257" fill="none" xmlns="http://www.w3.org/2000/svg">
<g clip-path="url(#clip0_602_354)">
<rect y="0.271484" width="256" height="256" rx="32" fill="#0F111A"/>
<path d="M170.603 39.0553L114.603 51.9784C103.714 54.4914 96 64.188 96 75.3638V187.681C96 199.527 104.643 209.601 116.351 211.402L172.351 220.018C186.889 222.254 200 211.006 200 196.297V62.4407C200 47.0067 185.642 35.5848 170.603 39.0553Z" fill="#4B222F"/>
<path d="M116.529 68.5983L76.5291 77.4872C69.2085 79.114 64 85.6071 64 93.1062V167.801C64 175.731 69.8099 182.466 77.6552 183.628L117.655 189.554C127.32 190.986 136 183.497 136 173.726V84.2173C136 73.9814 126.521 66.3779 116.529 68.5983Z" fill="#782E3F"/>
<path d="M86.3684 90.2781L54.3684 96.9447C50.6586 97.7176 48 100.987 48 104.777V154.639C48 158.632 50.9444 162.014 54.8995 162.563L86.8995 167.008C91.7091 167.676 96 163.939 96 159.084V98.1099C96 93.0354 91.3362 89.2431 86.3684 90.2781Z" fill="#FF5370"/>
</g>
<defs>
<clipPath id="clip0_602_354">
<rect width="256" height="256" fill="white" transform="translate(0 0.271484)"/>
</clipPath>
</defs>
</svg>
