<svg width="256" height="257" viewBox="0 0 256 257" fill="none" xmlns="http://www.w3.org/2000/svg">
<rect y="0.271484" width="256" height="256" rx="11.3857" fill="#0F111A"/>
<rect x="2.84642" y="3.1179" width="250.307" height="250.307" rx="8.53926" stroke="#8F93A2" stroke-opacity="0.05" stroke-width="5.69284"/>
<g opacity="0.447" filter="url(#filter0_f_602_7885)">
<path fill-rule="evenodd" clip-rule="evenodd" d="M86.2448 50.7566C78.9664 50.7988 70.1194 53.1123 62.5157 58.0912C54.9281 63.0596 47.8925 75.1515 43.608 81.6521C43.608 81.6521 43.8986 85.3621 42.788 83.7678C39.6622 88.2364 41.3136 99.6485 41.1995 105.204L41.3394 113.506L60.5472 100.062L63.5636 79.6106C64.8965 78.9257 66.1027 78.772 67.8152 79.7198C69.7748 80.8043 72.0226 83.0057 74.117 85.6939C78.3058 91.0701 81.9738 98.3096 83.5444 101.952C89.8567 117.139 92.9016 129.733 103.733 153.314C97.4218 160.791 90.1723 169.243 84.3478 175.995C75.8659 185.827 54.0942 206.083 54.0942 206.083V214.586L64.3282 209.066C64.3282 209.066 76.5691 202.438 98.5343 182.38C102.574 178.691 106.887 173.914 111.323 168.936C119.221 184.28 131.239 202.869 148.243 211.528C157.147 216.062 167.405 217.753 178.617 214.561C189.83 211.369 201.935 203.394 214.957 188.934L222.489 180.926L222.128 172.675C222.128 172.675 192.228 194.052 170.495 175.457C157.773 164.573 146.558 152.139 139.471 135.579C145.987 127.623 152.51 119.677 158.846 112.338C174.744 93.9239 187.146 79.2492 187.146 79.2492L192.313 73.1323L192.182 64.8306C185.599 67.6155 170.316 77.178 161.337 85.8533C152.991 93.9164 142.438 111.265 132.962 122.034C127.876 109 127.68 96.36 122.61 87.1259C108.811 61.9879 93.8625 52.0092 89.1856 51.0339C88.2356 50.8358 87.2502 50.7508 86.2448 50.7566V50.7566ZM86.3088 60.9739C87.0775 60.9696 87.7901 61.031 88.443 61.1672C92.0771 61.925 102.885 65.58 116.339 90.0881C121.544 99.5699 126.298 113.171 131.942 127.42L133.102 130.335L135.169 127.974C145.372 116.309 151.091 109.507 159.934 100.963C164.093 96.9448 172.014 81.2235 175.604 78.392C170.967 83.8556 165.308 95.1871 154.179 108.078C147 116.196 140.784 121.625 135.169 127.974L135.437 136.057C142.691 153.184 151.734 170.424 165.501 182.203C180.984 195.45 194.69 191.095 204.018 188.799C193.748 198.77 185.291 202.307 176.708 204.75C166.414 207.68 160.76 207.33 152.559 203.154C136.156 194.802 124.664 179.097 115.201 164.747L111.452 159.062L87.5641 178.093C93.6489 171.039 102.444 166.268 109.004 158.5L109.793 157.568L109.281 156.458L109.616 149.253L87.0734 100.465L87.0648 100.448V100.44C85.3732 96.5162 86.1227 87.6233 81.585 81.7993C79.3161 78.8872 76.1773 75.2623 73.4362 73.7453C70.6951 72.2283 64.5545 67.2188 63.1428 70.2865L60.0932 76.913L57.3372 91.6844L42.4168 101.857C42.267 100.16 44.2516 103.719 44.322 100.288C44.4299 95.0341 45.3382 88.9024 47.5149 85.7943L47.5317 85.7776L47.5485 85.7522C48.5424 84.2402 49.7156 82.7034 51.0323 81.1745C54.8537 76.737 59.8832 72.3651 65.2438 68.855C72.4514 64.1355 80.2809 61.0083 86.3086 60.9736L86.3088 60.9739Z" fill="url(#paint0_linear_602_7885)"/>
</g>
<path fill-rule="evenodd" clip-rule="evenodd" d="M86.2448 42.2532C78.9664 42.2954 70.1194 44.6088 62.5157 49.5878C54.9281 54.5561 47.8925 66.6481 43.608 73.1487C43.608 73.1487 43.8986 76.8587 42.788 75.2644C39.6622 79.733 41.3136 91.1451 41.1995 96.7006L41.3394 105.002L60.5472 91.5585L63.5636 71.1071C64.8965 70.4223 66.1027 70.2686 67.8152 71.2164C69.7748 72.3009 72.0226 74.5023 74.117 77.1905C78.3058 82.5667 81.9738 89.8062 83.5444 93.449C89.8566 108.635 92.9016 121.23 103.733 144.811C97.4218 152.288 90.1723 160.739 84.3478 167.491C75.8659 177.324 54.0942 197.58 54.0942 197.58V206.083L64.3282 200.562C64.3282 200.562 76.5691 193.934 98.5343 173.877C102.574 170.188 106.887 165.41 111.323 160.433C119.221 175.776 131.239 194.366 148.243 203.024C157.147 207.558 167.405 209.249 178.617 206.058C189.83 202.866 201.935 194.891 214.957 180.43L222.128 172.675L221.766 164.424C221.766 164.424 192.228 185.549 170.495 166.954C157.773 156.069 146.558 143.636 139.471 127.075C145.987 119.12 152.51 111.174 158.846 103.834C174.744 85.4205 187.146 70.7458 187.146 70.7458L192.313 64.6289L192.182 56.3272C185.599 59.1121 170.316 68.6746 161.337 77.3499C152.991 85.413 142.438 102.762 132.962 113.53C127.876 100.497 117.886 72.5084 115.317 68.6531C108.687 58.7048 93.8625 43.5058 89.1856 42.5305C88.2356 42.3324 87.2502 42.2474 86.2448 42.2532H86.2448ZM86.3088 52.4705C87.0775 52.4662 87.7901 52.5276 88.443 52.6637C92.0771 53.4216 102.885 57.0766 116.339 81.5847C121.544 91.0665 125.412 105.62 131.055 119.869L133.102 123.58L134.947 119.705C145.15 108.039 151.546 102.137 160.389 93.593C164.548 89.5744 172.014 72.7201 175.604 69.8886C170.967 75.3522 165.308 86.6837 154.179 99.5745C147.54 107.264 143.379 107.776 136.594 116.061L135.977 120.824L135.437 127.554C142.691 144.68 151.734 161.921 165.501 173.7C180.984 186.947 191.744 184.292 201.072 181.997C190.802 191.968 185.291 193.803 176.708 196.247C166.414 199.176 160.76 198.827 152.559 194.651C136.156 186.298 122.767 171.789 115.095 156.408L111.586 150.088L93.9484 169.579C100.033 162.526 102.444 157.765 109.004 149.997L109.793 149.064L109.281 147.955L109.616 140.75L87.0734 91.9616L87.0648 91.9448V91.9362C85.3732 88.0128 86.1227 79.1199 81.585 73.2958C79.3161 70.3838 76.1773 66.7589 73.4362 65.2419C70.6951 63.7249 66.2121 60.8881 63.4322 62.8054L60.0932 68.4096L57.3372 83.181L42.4168 93.3532C42.267 91.6567 44.2516 95.2157 44.322 91.785C44.4299 86.5307 45.3382 80.399 47.5149 77.2909L47.5317 77.2741L47.5485 77.2488C48.5424 75.7368 49.7156 74.2 51.0323 72.6711C54.8537 68.2335 59.8832 63.8617 65.2438 60.3516C72.4514 55.632 80.2809 52.5049 86.3086 52.4702L86.3088 52.4705Z" fill="url(#paint1_linear_602_7885)"/>
<path fill-rule="evenodd" clip-rule="evenodd" d="M86.1518 40.3377C78.8734 40.3798 70.6155 43.8619 63.0117 48.8409C55.4206 53.8115 48.5165 60.3098 44.2324 66.8135C41.1118 71.2819 40.4729 77.8479 40.3589 83.3998C40.2448 88.9578 40.8126 93.5414 40.8126 93.5414L41.1991 96.7007L60.4069 83.257L63.4318 62.8056C64.7646 62.1208 65.9708 61.967 67.6834 62.9148C69.643 63.9994 71.8823 66.2008 73.9767 68.8889C78.1656 74.2652 81.842 81.5046 83.4126 85.1475C89.7251 100.334 94.3675 116.524 105.2 140.107C98.8888 147.584 92.5392 155.134 86.7147 161.886C78.2329 171.719 61.8857 189.278 61.8857 189.278L53.9623 197.781L64.1964 192.261C64.1964 192.261 76.4373 185.633 98.4024 165.575C102.439 161.889 106.75 157.113 111.182 152.14C119.081 167.482 131.101 186.066 148.102 194.723C157.007 199.257 167.264 200.948 178.477 197.756C189.689 194.564 201.803 186.589 214.826 172.129L221.766 164.424L212.532 169.146C212.532 169.146 189.59 181.086 167.856 162.491C155.137 151.609 146.426 135.339 139.339 118.782C145.857 110.825 152.377 102.874 158.715 95.5328C174.612 77.1189 187.005 62.4443 187.005 62.4443L192.181 56.3274L184.796 59.4446C178.213 62.2296 170.315 68.6747 161.336 77.3501C152.993 85.4108 143.687 95.6656 134.213 106.431C129.128 93.3997 124.619 80.6756 119.551 71.4432C105.752 46.3052 93.7694 41.5902 89.0926 40.6149C88.1426 40.4168 87.1572 40.3319 86.1518 40.3377L86.1518 40.3377ZM86.1772 44.1691C86.9459 44.1648 87.6585 44.2262 88.3114 44.3624C91.9454 45.1202 102.745 48.7752 116.199 73.2833C121.404 82.7651 126.167 96.3662 131.81 110.615L132.962 113.531L135.028 111.17C145.232 99.5041 155.149 88.6497 163.991 80.1061C168.143 76.0952 172.019 72.7174 175.604 69.8888C170.962 75.3571 166.936 80.1572 155.816 93.0373C149.178 100.726 142.368 109.01 135.583 117.295L134.852 118.194L135.306 119.253C142.559 136.379 151.602 153.62 165.369 165.398C180.853 178.646 196.617 177.324 205.944 175.028C195.673 185 186.02 191.624 177.435 194.067C167.142 196.997 158.043 195.488 149.842 191.311C133.439 182.959 120.888 163.555 113.216 148.174L111.947 145.628L110.065 147.762C104.984 153.515 100.205 158.742 95.8147 162.752C87.6274 170.228 82.3432 174.178 77.0942 178.195C82.2631 172.554 85.2961 169.395 89.6137 164.39C95.6985 157.337 102.312 149.463 108.872 141.695L109.653 140.763L109.141 139.654C97.9688 115.569 93.4866 99.4228 86.9332 83.6603V83.6435L86.9246 83.6349C85.233 79.7114 81.5392 72.3601 77.0014 66.5361C74.7325 63.624 72.2728 61.0791 69.5317 59.5621C66.7906 58.0451 63.4219 57.7204 60.642 59.6377L59.9614 60.1083L56.8609 81.0638L44.4591 89.7434C44.3092 88.0469 44.1114 86.9143 44.1818 83.4836C44.2896 78.2293 45.198 72.0976 47.3747 68.9896L47.3915 68.9728L47.4082 68.9474C51.2868 63.0471 57.896 56.7698 65.1036 52.0503C72.3112 47.3307 80.1491 44.2036 86.1767 44.1688L86.1772 44.1691Z" fill="url(#paint2_linear_602_7885)"/>
<defs>
<filter id="filter0_f_602_7885" x="23.7857" y="33.6778" width="215.782" height="199.606" filterUnits="userSpaceOnUse" color-interpolation-filters="sRGB">
<feFlood flood-opacity="0" result="BackgroundImageFix"/>
<feBlend mode="normal" in="SourceGraphic" in2="BackgroundImageFix" result="shape"/>
<feGaussianBlur stdDeviation="8.53926" result="effect1_foregroundBlur_602_7885"/>
</filter>
<linearGradient id="paint0_linear_602_7885" x1="40.8643" y1="133.481" x2="221.898" y2="133.481" gradientUnits="userSpaceOnUse">
<stop stop-color="#A20047"/>
<stop offset="0.548286" stop-color="#962117"/>
<stop offset="1" stop-color="#BB6800"/>
</linearGradient>
<linearGradient id="paint1_linear_602_7885" x1="40.8643" y1="124.977" x2="221.898" y2="124.977" gradientUnits="userSpaceOnUse">
<stop stop-color="#A20047"/>
<stop offset="0.548286" stop-color="#962117"/>
<stop offset="1" stop-color="#BB6800"/>
</linearGradient>
<linearGradient id="paint2_linear_602_7885" x1="40.3416" y1="119.868" x2="221.765" y2="119.868" gradientUnits="userSpaceOnUse">
<stop stop-color="#DE0061"/>
<stop offset="0.548286" stop-color="#DE392B"/>
<stop offset="1" stop-color="#FF9612"/>
</linearGradient>
</defs>
</svg>
