<svg width="256" height="256" viewBox="0 0 256 256" fill="none" xmlns="http://www.w3.org/2000/svg">
<circle cx="128" cy="128" r="110.703" fill="#353535"/>
<path d="M149.561 183.47C151.505 188.844 146.465 194.125 141.006 192.433L106.558 181.755L137.655 150.559L149.561 183.47Z" fill="url(#paint0_linear_602_2909)"/>
<path d="M106.856 76.1081L76.4579 106.378L63.8456 71.6067C61.9972 66.0637 67.4272 60.867 72.8838 62.9568L106.856 76.1081Z" fill="url(#paint1_linear_602_2909)"/>
<path fill-rule="evenodd" clip-rule="evenodd" d="M91.6457 196.604C87.8807 200.353 81.4702 198.635 80.0842 193.506L60.7639 122.006L76.4579 106.378L110.142 117.817C115.6 119.509 120.641 114.228 118.697 108.854L106.856 76.1081L121.08 61.4054L193.293 80.5488C198.482 81.9242 200.196 88.4275 196.36 92.1818L181.075 107.139L193.1 138.775C195.18 144.247 189.947 149.669 184.404 147.783L151.978 136.75L137.655 150.559L103.748 137.573C98.2914 135.483 92.8614 140.68 94.7097 146.223L106.558 181.755L91.6457 196.604ZM151.978 136.75L139.501 102.919C137.426 97.2932 143.002 91.8715 148.567 94.1032L181.075 107.139L151.978 136.75Z" fill="url(#paint2_linear_602_2909)"/>
<defs>
<linearGradient id="paint0_linear_602_2909" x1="83.9535" y1="188.294" x2="193.404" y2="86.1121" gradientUnits="userSpaceOnUse">
<stop stop-color="white"/>
<stop offset="1" stop-color="white" stop-opacity="0.47"/>
</linearGradient>
<linearGradient id="paint1_linear_602_2909" x1="83.9535" y1="188.294" x2="193.404" y2="86.1121" gradientUnits="userSpaceOnUse">
<stop stop-color="white"/>
<stop offset="1" stop-color="white" stop-opacity="0.47"/>
</linearGradient>
<linearGradient id="paint2_linear_602_2909" x1="83.9535" y1="188.294" x2="193.404" y2="86.1121" gradientUnits="userSpaceOnUse">
<stop stop-color="white"/>
<stop offset="1" stop-color="white" stop-opacity="0.47"/>
</linearGradient>
</defs>
</svg>
