<svg width="256" height="257" viewBox="0 0 256 257" fill="none" xmlns="http://www.w3.org/2000/svg">
<g clip-path="url(#clip0_603_2368)">
<g filter="url(#filter0_f_603_2368)">
<path d="M228.333 112.085C228.333 161.069 187.073 238.472 138.089 238.472C89.1058 238.472 27.667 178.807 27.667 129.824C27.667 80.8403 33.0076 18.0713 81.9911 18.0713C130.975 18.0713 228.333 63.1018 228.333 112.085Z" fill="url(#paint0_linear_603_2368)"/>
</g>
<g clip-path="url(#clip1_603_2368)">
<rect x="46.5137" y="45.5659" width="159.646" height="159.646" rx="79.8232" fill="url(#paint1_linear_603_2368)"/>
<rect x="46.5137" y="45.5659" width="159.646" height="159.646" rx="79.8232" fill="url(#paint2_radial_603_2368)" fill-opacity="0.2"/>
<g filter="url(#filter1_f_603_2368)">
<path d="M217.247 118.294C217.247 176.584 169.993 223.838 111.703 223.838" stroke="url(#paint3_linear_603_2368)" stroke-opacity="0.3" stroke-width="44.3462" stroke-linecap="round"/>
</g>
<path d="M126.338 175.278C123.536 175.278 120.795 175.096 118.115 174.73C115.435 174.487 112.815 173.938 110.257 173.086C107.698 172.111 105.262 170.832 102.947 169.248C100.754 167.664 98.8048 165.837 97.0992 163.765C95.5154 161.573 94.2971 159.136 93.4443 156.456C93.1029 155.383 92.829 154.294 92.6236 153.193C92.1182 150.484 94.3987 148.232 97.154 148.232H101.43C104.186 148.232 106.331 150.548 107.387 153.093C107.629 153.675 107.915 154.247 108.247 154.811C109.465 156.76 111.049 158.344 112.998 159.562C115.069 160.659 117.201 161.451 119.394 161.938C121.709 162.304 124.024 162.486 126.338 162.486C128.653 162.486 130.907 162.304 133.1 161.938C135.415 161.451 137.547 160.659 139.496 159.562C141.567 158.344 143.212 156.699 144.43 154.628C145.77 152.557 146.44 150.364 146.44 148.049C146.44 145.978 145.831 144.029 144.613 142.202C143.516 140.374 142.055 138.912 140.227 137.816C138.521 136.597 136.633 135.745 134.562 135.257C132.613 134.648 130.602 134.039 128.531 133.43C126.582 132.821 124.572 132.211 122.501 131.602C120.551 130.993 118.602 130.323 116.653 129.592C114.704 128.861 112.754 128.069 110.805 127.216C108.978 126.242 107.211 125.145 105.505 123.927C103.8 122.709 102.216 121.369 100.754 119.907C99.2921 118.323 98.0129 116.617 96.9164 114.79C95.9418 112.962 95.2108 111.013 94.7235 108.942C94.2362 106.871 93.9925 104.8 93.9925 102.729C93.9925 100.048 94.358 97.429 95.089 94.8705C95.9418 92.3121 97.0992 89.9364 98.5611 87.7435C100.023 85.4287 101.851 83.4794 104.043 81.8956C106.236 80.3118 108.551 79.0326 110.988 78.0579C113.546 77.0833 116.105 76.4132 118.663 76.0478C121.343 75.6823 124.024 75.4995 126.704 75.4995C129.384 75.4995 132.004 75.6823 134.562 76.0478C137.242 76.4132 139.801 77.0833 142.237 78.0579C144.796 78.9108 147.11 80.1291 149.182 81.7129C151.375 83.1748 153.202 85.0023 154.664 87.1952C156.248 89.3882 157.405 91.7638 158.136 94.3223C158.454 95.2766 158.714 96.2454 158.914 97.2251C159.466 99.9246 157.182 102.18 154.426 102.18H150.15C147.395 102.18 145.253 99.8613 144.182 97.3226C143.989 96.8644 143.767 96.4125 143.516 95.967C142.42 94.0177 140.958 92.4948 139.131 91.3984C137.303 90.1801 135.293 89.3882 133.1 89.0227C131.029 88.5353 128.897 88.2917 126.704 88.2917C124.511 88.2917 122.318 88.5353 120.125 89.0227C117.932 89.3882 115.922 90.1801 114.094 91.3984C112.267 92.6167 110.805 94.2614 109.709 96.3325C108.612 98.2818 108.064 100.353 108.064 102.546C108.064 104.739 108.612 106.749 109.709 108.576C110.927 110.404 112.389 111.927 114.094 113.145C115.922 114.242 117.81 115.094 119.76 115.703C121.831 116.191 123.841 116.739 125.79 117.348C127.861 117.957 129.871 118.566 131.821 119.176C133.892 119.785 135.902 120.455 137.851 121.186C139.801 121.917 141.689 122.77 143.516 123.744C145.466 124.597 147.293 125.633 148.999 126.851C150.704 128.069 152.227 129.47 153.567 131.054C155.029 132.516 156.248 134.161 157.222 135.988C158.319 137.816 159.111 139.765 159.598 141.836C160.207 143.785 160.512 145.856 160.512 148.049C160.512 150.73 160.085 153.41 159.233 156.09C158.38 158.77 157.161 161.207 155.578 163.4C153.994 165.593 152.045 167.481 149.73 169.065C147.415 170.649 144.978 171.928 142.42 172.903C139.862 173.756 137.181 174.365 134.379 174.73C131.699 175.096 129.019 175.278 126.338 175.278Z" fill="url(#paint4_linear_603_2368)"/>
<path d="M126.339 175.278C123.659 175.278 120.979 175.096 118.298 174.73C115.74 174.487 113.181 173.938 110.623 173.086C108.065 172.233 105.628 171.075 103.313 169.613C101.12 168.151 99.2319 166.385 97.6481 164.314C96.0643 162.243 94.7851 159.928 93.8105 157.369C93.4529 156.297 93.1759 155.209 92.9725 154.108C92.4716 151.399 94.7649 149.146 97.5202 149.146H98.6898C101.445 149.146 103.595 151.45 104.567 154.027C104.908 154.931 105.345 155.804 105.872 156.638C107.334 158.831 109.161 160.598 111.354 161.938C113.547 163.156 115.923 164.009 118.481 164.497C121.161 164.984 123.781 165.227 126.339 165.227C128.898 165.227 131.456 164.984 134.014 164.497C136.695 164.009 139.131 163.095 141.324 161.755C143.639 160.415 145.466 158.649 146.807 156.456C148.269 154.141 149 151.643 149 148.963C149 146.405 148.208 144.029 146.624 141.836C145.162 139.521 143.274 137.694 140.959 136.354C138.766 135.014 136.39 134.039 133.832 133.43C131.395 132.699 128.898 131.968 126.339 131.237C123.903 130.384 121.405 129.592 118.847 128.861C116.41 128.008 113.973 127.034 111.537 125.937C109.222 124.719 106.968 123.379 104.775 121.917C102.704 120.333 100.877 118.506 99.2928 116.434C97.709 114.363 96.4907 112.049 95.6379 109.49C94.7851 106.932 94.3587 104.373 94.3587 101.815C94.3587 99.2564 94.7242 96.698 95.4552 94.1395C96.308 91.5811 97.4654 89.2663 98.9273 87.1952C100.511 85.0023 102.339 83.1748 104.41 81.7129C106.603 80.1291 108.917 78.9108 111.354 78.0579C113.791 77.0833 116.288 76.4132 118.847 76.0478C121.527 75.6823 124.146 75.4995 126.705 75.4995C129.263 75.4995 131.821 75.6823 134.38 76.0478C136.938 76.2914 139.436 76.8396 141.872 77.6925C144.309 78.5453 146.563 79.7636 148.634 81.3474C150.827 82.8093 152.715 84.5759 154.299 86.647C155.883 88.7181 157.04 90.972 157.771 93.4086C158.105 94.3626 158.369 95.3304 158.568 96.3095C159.117 99.0096 156.817 101.267 154.062 101.267H152.892C150.137 101.267 147.992 98.9597 147.003 96.3881C146.705 95.6136 146.335 94.8623 145.893 94.1395C144.675 91.9466 143.03 90.241 140.959 89.0227C138.888 87.6825 136.573 86.7688 134.014 86.2815C131.578 85.7942 129.141 85.5505 126.705 85.5505C124.268 85.5505 121.77 85.7942 119.212 86.2815C116.775 86.7688 114.522 87.7435 112.45 89.2054C110.379 90.5455 108.674 92.373 107.334 94.6878C106.115 96.8807 105.506 99.2564 105.506 101.815C105.506 103.886 105.993 105.896 106.968 107.845C108.065 109.795 109.405 111.439 110.989 112.78C112.694 114.12 114.583 115.216 116.654 116.069C118.725 116.8 120.796 117.47 122.867 118.079H123.05C125.852 118.932 128.654 119.785 131.456 120.638C134.258 121.49 136.999 122.465 139.68 123.562C142.36 124.658 144.918 125.998 147.355 127.582C149.913 129.044 152.106 130.871 153.934 133.064C155.883 135.257 157.406 137.755 158.502 140.557C159.599 143.237 160.147 146.039 160.147 148.963C160.147 151.643 159.721 154.263 158.868 156.821C158.015 159.38 156.736 161.755 155.03 163.948C153.446 166.019 151.497 167.847 149.182 169.431C146.989 170.893 144.614 172.111 142.055 173.086C139.619 173.938 137.06 174.487 134.38 174.73C131.7 175.096 129.019 175.278 126.339 175.278Z" fill="white" fill-opacity="0.2"/>
<path d="M126.338 175.278C123.779 175.278 121.221 175.096 118.662 174.73C116.104 174.487 113.546 173.999 110.987 173.268C108.551 172.415 106.236 171.319 104.043 169.979C101.85 168.639 99.9006 166.994 98.195 165.045C96.6112 163.095 95.332 160.903 94.3573 158.466C93.8568 156.964 93.5145 155.436 93.3108 153.887C93.0477 151.886 94.7145 150.242 96.733 150.242V150.242C98.7516 150.242 100.343 151.895 100.744 153.874C100.921 154.747 101.166 155.608 101.484 156.456C102.215 158.283 103.251 159.928 104.591 161.39C105.931 162.73 107.454 163.887 109.16 164.862C110.987 165.837 112.815 166.629 114.642 167.238C116.591 167.725 118.541 168.09 120.49 168.334C122.439 168.456 124.388 168.517 126.338 168.517C128.287 168.517 130.236 168.456 132.186 168.334C134.257 168.09 136.206 167.725 138.033 167.238C139.983 166.629 141.81 165.837 143.516 164.862C145.343 163.766 146.866 162.486 148.084 161.024C149.425 159.562 150.46 157.918 151.191 156.09C151.922 154.141 152.288 152.131 152.288 150.06C152.288 147.379 151.557 144.821 150.095 142.384C148.755 139.948 146.927 137.938 144.612 136.354C142.419 134.77 139.983 133.552 137.302 132.699C134.744 131.724 132.125 130.871 129.444 130.14C126.886 129.288 124.267 128.496 121.586 127.765C119.028 126.912 116.47 125.937 113.911 124.841C111.474 123.744 109.099 122.465 106.784 121.003C104.469 119.541 102.398 117.775 100.571 115.703C98.7432 113.632 97.3422 111.318 96.3675 108.759C95.3929 106.079 94.9056 103.338 94.9056 100.536C94.9056 98.099 95.2711 95.6624 96.0021 93.2258C96.8549 90.6674 98.0122 88.4135 99.4742 86.4642C101.058 84.3931 102.885 82.6266 104.957 81.1646C107.15 79.7027 109.403 78.5453 111.718 77.6925C114.155 76.8396 116.591 76.2914 119.028 76.0478C121.586 75.6823 124.145 75.4995 126.703 75.4995C129.262 75.4995 131.759 75.6823 134.196 76.0478C136.754 76.2914 139.191 76.8396 141.506 77.6925C143.82 78.4234 146.013 79.5199 148.084 80.9819C150.277 82.322 152.166 83.9667 153.75 85.916C155.333 87.8653 156.491 90.0582 157.222 92.4948C157.729 93.8712 158.063 95.2791 158.262 96.7087C158.54 98.708 156.865 100.353 154.846 100.353V100.353C152.827 100.353 151.238 98.6957 150.787 96.7281C150.404 95.0534 149.747 93.4509 148.815 91.9466C147.353 89.3882 145.404 87.378 142.968 85.916C140.653 84.454 138.033 83.4794 135.11 82.9921C132.307 82.5048 129.505 82.2611 126.703 82.2611C123.901 82.2611 121.038 82.5657 118.114 83.1748C115.312 83.6621 112.693 84.6977 110.256 86.2815C107.82 87.7435 105.87 89.8146 104.408 92.4948C102.946 95.0533 102.215 97.7335 102.215 100.536C102.215 103.338 102.885 105.957 104.226 108.394C105.688 110.83 107.515 112.84 109.708 114.424C112.023 116.008 114.459 117.287 117.018 118.262C119.698 119.115 122.317 119.968 124.876 120.82C127.556 121.551 130.175 122.343 132.734 123.196C135.292 123.927 137.851 124.841 140.409 125.937C142.968 127.034 145.404 128.313 147.719 129.775C150.034 131.237 152.044 133.003 153.75 135.074C155.577 137.146 156.978 139.521 157.953 142.202C159.049 144.76 159.597 147.379 159.597 150.06C159.597 152.74 159.171 155.359 158.318 157.918C157.465 160.354 156.186 162.608 154.481 164.679C152.897 166.629 150.947 168.334 148.633 169.796C146.44 171.136 144.125 172.233 141.688 173.086C139.252 173.938 136.693 174.487 134.013 174.73C131.455 175.096 128.896 175.278 126.338 175.278Z" fill="white" fill-opacity="0.2"/>
<path d="M126.338 175.278C123.78 175.278 121.221 175.157 118.663 174.913C116.226 174.669 113.79 174.182 111.353 173.451C109.038 172.72 106.785 171.745 104.592 170.527C102.399 169.187 100.449 167.603 98.7438 165.776C97.16 163.826 95.8808 161.694 94.9062 159.38C94.1667 157.267 93.7955 155.099 93.6736 152.891C93.6207 151.934 94.4042 151.156 95.363 151.156V151.156C96.3218 151.156 97.0906 151.934 97.1602 152.891C97.2947 154.737 97.6628 156.545 98.3783 158.283C99.2311 160.354 100.389 162.243 101.85 163.948C103.434 165.532 105.201 166.872 107.15 167.969C109.099 168.943 111.11 169.735 113.181 170.344C115.374 170.954 117.567 171.38 119.76 171.624C121.952 171.867 124.145 171.989 126.338 171.989C128.531 171.989 130.724 171.867 132.917 171.624C135.232 171.38 137.425 170.954 139.496 170.344C141.689 169.735 143.76 168.882 145.709 167.786C147.659 166.568 149.364 165.167 150.826 163.583C152.288 161.877 153.446 159.989 154.298 157.918C155.151 155.725 155.578 153.532 155.578 151.339C155.578 148.415 154.847 145.674 153.385 143.115C152.045 140.435 150.278 138.181 148.085 136.354C145.892 134.526 143.456 133.064 140.775 131.968C138.095 130.871 135.415 129.897 132.734 129.044C130.054 128.191 127.313 127.338 124.511 126.485C121.709 125.633 118.968 124.719 116.287 123.744C113.607 122.77 110.988 121.612 108.429 120.272C105.993 118.81 103.8 117.044 101.85 114.973C99.9012 112.901 98.3174 110.526 97.0991 107.845C96.0026 105.165 95.4544 102.363 95.4544 99.4392C95.4544 97.0026 95.8199 94.6269 96.5509 92.3121C97.4037 89.8755 98.5611 87.6825 100.023 85.7333C101.607 83.784 103.434 82.1393 105.505 80.7991C107.577 79.459 109.769 78.4234 112.084 77.6925C114.521 76.8396 116.957 76.2914 119.394 76.0478C121.831 75.6823 124.267 75.4995 126.704 75.4995C129.14 75.4995 131.577 75.6213 134.014 75.865C136.45 76.1087 138.826 76.6569 141.141 77.5097C143.456 78.2407 145.648 79.2763 147.72 80.6164C149.791 81.8347 151.618 83.4185 153.202 85.3678C154.786 87.1952 155.943 89.2663 156.674 91.5811C157.407 93.5714 157.777 95.6174 157.903 97.7041C157.96 98.6611 157.176 99.4392 156.217 99.4392V99.4392C155.258 99.4392 154.491 98.6606 154.414 97.7048C154.275 95.9786 153.909 94.2945 153.202 92.6776C152.471 90.6065 151.374 88.779 149.913 87.1952C148.572 85.4896 146.989 84.0885 145.161 82.9921C143.334 81.8956 141.384 81.0428 139.313 80.4336C137.364 79.8245 135.293 79.3981 133.1 79.1544C131.029 78.9108 128.897 78.7889 126.704 78.7889C124.511 78.7889 122.318 78.9108 120.125 79.1544C118.054 79.3981 115.983 79.8854 113.912 80.6164C111.841 81.2255 109.891 82.1393 108.064 83.3576C106.236 84.454 104.592 85.8551 103.13 87.5607C101.79 89.1445 100.754 90.972 100.023 93.0431C99.2921 95.1142 98.9266 97.2462 98.9266 99.4392C98.9266 102.363 99.5966 105.165 100.937 107.845C102.277 110.404 104.043 112.597 106.236 114.424C108.429 116.252 110.866 117.714 113.546 118.81C116.226 119.907 118.907 120.881 121.587 121.734C124.389 122.587 127.13 123.44 129.811 124.293C132.613 125.024 135.354 125.937 138.034 127.034C140.714 128.008 143.334 129.227 145.892 130.689C148.451 132.029 150.704 133.734 152.654 135.805C154.603 137.877 156.126 140.252 157.222 142.933C158.441 145.613 159.05 148.415 159.05 151.339C159.05 153.775 158.623 156.212 157.771 158.649C156.918 161.085 155.639 163.278 153.933 165.227C152.349 167.177 150.461 168.821 148.268 170.162C146.075 171.502 143.76 172.537 141.323 173.268C138.887 173.999 136.389 174.487 133.831 174.73C131.394 175.096 128.897 175.278 126.338 175.278Z" fill="white"/>
<g filter="url(#filter2_f_603_2368)">
<path d="M29.2187 121.398C29.2187 72.4145 68.9277 32.7055 117.911 32.7055" stroke="url(#paint5_linear_603_2368)" stroke-width="44.3462" stroke-linecap="round"/>
</g>
</g>
</g>
<defs>
<filter id="filter0_f_603_2368" x="-0.714579" y="-10.3103" width="257.43" height="277.164" filterUnits="userSpaceOnUse" color-interpolation-filters="sRGB">
<feFlood flood-opacity="0" result="BackgroundImageFix"/>
<feBlend mode="normal" in="SourceGraphic" in2="BackgroundImageFix" result="shape"/>
<feGaussianBlur stdDeviation="14.1908" result="effect1_foregroundBlur_603_2368"/>
</filter>
<filter id="filter1_f_603_2368" x="61.1487" y="67.739" width="206.653" height="206.653" filterUnits="userSpaceOnUse" color-interpolation-filters="sRGB">
<feFlood flood-opacity="0" result="BackgroundImageFix"/>
<feBlend mode="normal" in="SourceGraphic" in2="BackgroundImageFix" result="shape"/>
<feGaussianBlur stdDeviation="14.1908" result="effect1_foregroundBlur_603_2368"/>
</filter>
<filter id="filter2_f_603_2368" x="-21.3357" y="-17.8493" width="189.801" height="189.802" filterUnits="userSpaceOnUse" color-interpolation-filters="sRGB">
<feFlood flood-opacity="0" result="BackgroundImageFix"/>
<feBlend mode="normal" in="SourceGraphic" in2="BackgroundImageFix" result="shape"/>
<feGaussianBlur stdDeviation="14.1908" result="effect1_foregroundBlur_603_2368"/>
</filter>
<linearGradient id="paint0_linear_603_2368" x1="126.34" y1="36.6967" x2="126.34" y2="214.081" gradientUnits="userSpaceOnUse">
<stop stop-color="#FF5370"/>
<stop offset="1" stop-color="#9747FF"/>
</linearGradient>
<linearGradient id="paint1_linear_603_2368" x1="126.337" y1="75.4105" x2="126.337" y2="205.212" gradientUnits="userSpaceOnUse">
<stop stop-color="#161A2F"/>
<stop offset="0.822765" stop-color="#0F111A"/>
</linearGradient>
<radialGradient id="paint2_radial_603_2368" cx="0" cy="0" r="1" gradientUnits="userSpaceOnUse" gradientTransform="translate(126.337 125.389) rotate(90) scale(79.8232)">
<stop stop-color="#9747FF"/>
<stop offset="1" stop-color="#FF5370" stop-opacity="0.2"/>
</radialGradient>
<linearGradient id="paint3_linear_603_2368" x1="189.278" y1="189.536" x2="145.213" y2="147.582" gradientUnits="userSpaceOnUse">
<stop stop-color="#9747FF"/>
<stop offset="1" stop-color="#FF5370"/>
</linearGradient>
<linearGradient id="paint4_linear_603_2368" x1="126.338" y1="75.4995" x2="126.338" y2="175.278" gradientUnits="userSpaceOnUse">
<stop stop-color="#FF5370"/>
<stop offset="0.5" stop-color="#9747FF"/>
<stop offset="1" stop-color="#FF5370"/>
</linearGradient>
<linearGradient id="paint5_linear_603_2368" x1="52.7222" y1="61.5306" x2="89.7513" y2="96.7858" gradientUnits="userSpaceOnUse">
<stop stop-color="#FF5370"/>
<stop offset="1" stop-color="#9747FF"/>
</linearGradient>
<clipPath id="clip0_603_2368">
<rect width="256" height="256" fill="white" transform="translate(0 0.271484)"/>
</clipPath>
<clipPath id="clip1_603_2368">
<rect x="46.5137" y="45.5659" width="159.646" height="159.646" rx="79.8232" fill="white"/>
</clipPath>
</defs>
</svg>
