<svg width="256" height="257" viewBox="0 0 256 257" fill="none" xmlns="http://www.w3.org/2000/svg">
<rect width="256" height="256" transform="translate(0 0.271484)" fill="#0F111A"/>
<path d="M128 225.285C122.551 225.285 117.22 224.93 112.008 224.219C106.796 223.745 101.703 222.679 96.7278 221.021C91.7527 219.126 87.0145 216.638 82.5133 213.558C78.2489 210.478 74.4584 206.925 71.1417 202.897C68.0619 198.633 65.6928 193.895 64.0344 188.683C63.3705 186.596 62.8379 184.479 62.4385 182.338C61.4558 177.071 65.8903 172.692 71.2483 172.692H79.5637C84.9217 172.692 89.0946 177.195 91.1478 182.144C91.617 183.275 92.174 184.389 92.8188 185.485C95.1878 189.275 98.2677 192.355 102.058 194.724C106.086 196.856 110.232 198.396 114.496 199.344C118.997 200.054 123.498 200.41 128 200.41C132.501 200.41 136.884 200.054 141.148 199.344C145.649 198.396 149.795 196.856 153.586 194.724C157.613 192.355 160.811 189.157 163.181 185.129C165.787 181.102 167.09 176.837 167.09 172.336C167.09 168.309 165.905 164.518 163.536 160.965C161.404 157.411 158.561 154.568 155.007 152.436C151.69 150.067 148.018 148.408 143.991 147.461C140.2 146.276 136.291 145.092 132.264 143.907C128.473 142.723 124.564 141.538 120.537 140.354C116.747 139.169 112.956 137.866 109.165 136.445C105.375 135.023 101.584 133.483 97.7938 131.825C94.2402 129.93 90.805 127.797 87.4883 125.428C84.1716 123.059 81.0918 120.453 78.2489 117.61C75.406 114.531 72.9185 111.214 70.7863 107.66C68.891 104.107 67.4696 100.316 66.5219 96.2887C65.5743 92.2612 65.1005 88.2338 65.1005 84.2063C65.1005 78.9944 65.8112 73.9008 67.2327 68.9258C68.891 63.9507 71.1417 59.331 73.9846 55.0666C76.8275 50.5654 80.3811 46.7748 84.6454 43.695C88.9098 40.6152 93.411 38.1277 98.1492 36.2324C103.124 34.3371 108.099 33.0341 113.074 32.3234C118.286 31.6127 123.498 31.2573 128.71 31.2573C133.922 31.2573 139.016 31.6127 143.991 32.3234C149.203 33.0341 154.178 34.3371 158.916 36.2324C163.891 37.8908 168.392 40.2598 172.42 43.3397C176.684 46.1826 180.238 49.7362 183.081 54.0005C186.161 58.2649 188.411 62.8846 189.833 67.8597C190.451 69.7154 190.956 71.5994 191.346 73.5044C192.419 78.7538 187.977 83.1402 182.619 83.1402H174.303C168.945 83.1402 164.781 78.6306 162.699 73.6941C162.323 72.803 161.891 71.9243 161.404 71.0579C159.272 67.2674 156.429 64.306 152.875 62.1739C149.321 59.8048 145.412 58.2649 141.148 57.5542C137.121 56.6065 132.975 56.1327 128.71 56.1327C124.446 56.1327 120.182 56.6065 115.917 57.5542C111.653 58.2649 107.744 59.8048 104.19 62.1739C100.637 64.5429 97.7938 67.7412 95.6617 71.7686C93.5295 75.5592 92.4634 79.5866 92.4634 83.851C92.4634 88.1153 93.5295 92.0243 95.6617 95.5779C98.0307 99.1316 100.874 102.093 104.19 104.462C107.744 106.594 111.416 108.253 115.207 109.437C119.234 110.385 123.143 111.451 126.934 112.635C130.961 113.82 134.87 115.004 138.661 116.189C142.688 117.373 146.597 118.676 150.387 120.098C154.178 121.519 157.85 123.178 161.404 125.073C165.194 126.731 168.748 128.745 172.065 131.114C175.381 133.483 178.343 136.208 180.949 139.288C183.792 142.13 186.161 145.329 188.056 148.882C190.188 152.436 191.728 156.226 192.676 160.254C193.86 164.044 194.452 168.072 194.452 172.336C194.452 177.548 193.623 182.76 191.965 187.972C190.307 193.184 187.937 197.922 184.858 202.187C181.778 206.451 177.987 210.123 173.486 213.203C168.985 216.283 164.247 218.77 159.272 220.666C154.296 222.324 149.084 223.508 143.636 224.219C138.424 224.93 133.212 225.285 128 225.285Z" fill="url(#paint0_linear_603_2369)"/>
<path d="M128.001 225.286C122.789 225.286 117.577 224.93 112.365 224.22C107.39 223.746 102.415 222.68 97.4397 221.021C92.4646 219.363 87.7264 217.112 83.2252 214.27C78.9608 211.427 75.2887 207.991 72.2089 203.964C69.1291 199.937 66.6416 195.435 64.7463 190.46C64.051 188.374 63.5123 186.258 63.1168 184.119C62.1428 178.85 66.6023 174.469 71.9602 174.469H74.2345C79.5924 174.469 83.7725 178.949 85.6639 183.962C86.3268 185.719 87.1753 187.416 88.2002 189.039C91.0431 193.303 94.5968 196.738 98.8611 199.344C103.125 201.713 107.745 203.372 112.72 204.319C117.932 205.267 123.026 205.741 128.001 205.741C132.976 205.741 137.951 205.267 142.926 204.319C148.138 203.372 152.876 201.595 157.141 198.989C161.642 196.383 165.195 192.948 167.801 188.683C170.644 184.182 172.066 179.326 172.066 174.114C172.066 169.138 170.526 164.519 167.446 160.254C164.603 155.753 160.931 152.2 156.43 149.594C152.165 146.988 147.546 145.092 142.571 143.908C137.833 142.486 132.976 141.065 128.001 139.643C123.263 137.985 118.406 136.445 113.431 135.024C108.693 133.365 103.955 131.47 99.2165 129.338C94.7152 126.969 90.3324 124.363 86.0681 121.52C82.0406 118.44 78.487 114.886 75.4072 110.859C72.3274 106.832 69.9583 102.33 68.2999 97.3552C66.6416 92.3802 65.8124 87.4051 65.8124 82.43C65.8124 77.455 66.5231 72.4799 67.9446 67.5048C69.6029 62.5297 71.8536 58.0285 74.6965 54.001C77.7763 49.7367 81.3299 46.1831 85.3573 43.3402C89.6217 40.2603 94.123 37.8913 98.8611 36.2329C103.599 34.3376 108.456 33.0346 113.431 32.3239C118.643 31.6132 123.736 31.2578 128.712 31.2578C133.687 31.2578 138.662 31.6132 143.637 32.3239C148.612 32.7977 153.468 33.8638 158.207 35.5222C162.945 37.1805 167.328 39.5496 171.355 42.6294C175.619 45.4723 179.291 48.9075 182.371 52.9349C185.451 56.9624 187.702 61.3452 189.123 66.0833C189.772 67.9385 190.285 69.8206 190.672 71.7244C191.739 76.975 187.267 81.3639 181.909 81.3639H179.635C174.277 81.3639 170.107 76.878 168.184 71.8773C167.604 70.3712 166.884 68.9102 166.025 67.5048C163.656 63.2404 160.457 59.9237 156.43 57.5546C152.402 54.9487 147.901 53.1718 142.926 52.2242C138.188 51.2766 133.45 50.8028 128.712 50.8028C123.973 50.8028 119.117 51.2766 114.142 52.2242C109.404 53.1718 105.021 55.0671 100.993 57.91C96.9659 60.516 93.6491 64.0696 91.0431 68.5709C88.6741 72.8352 87.4895 77.455 87.4895 82.43C87.4895 86.4575 88.4372 90.3665 90.3324 94.157C92.4646 97.9475 95.0706 101.146 98.1504 103.752C101.467 106.358 105.139 108.49 109.167 110.148C113.194 111.57 117.222 112.873 121.249 114.057H121.604C127.053 115.716 132.502 117.374 137.951 119.032C143.4 120.691 148.73 122.586 153.942 124.718C159.154 126.85 164.129 129.456 168.868 132.536C173.843 135.379 178.107 138.933 181.661 143.197C185.451 147.461 188.412 152.318 190.545 157.767C192.677 162.979 193.743 168.428 193.743 174.114C193.743 179.326 192.914 184.419 191.255 189.394C189.597 194.369 187.109 198.989 183.793 203.253C180.713 207.281 176.922 210.834 172.421 213.914C168.157 216.757 163.537 219.126 158.562 221.021C153.824 222.68 148.849 223.746 143.637 224.22C138.425 224.93 133.213 225.286 128.001 225.286Z" fill="white" fill-opacity="0.2"/>
<path d="M127.999 225.286C123.024 225.286 118.049 224.93 113.074 224.22C108.099 223.746 103.124 222.798 98.1488 221.377C93.4106 219.718 88.9093 217.586 84.645 214.98C80.3806 212.374 76.5901 209.176 73.2734 205.385C70.1936 201.595 67.706 197.331 65.8108 192.592C64.8374 189.672 64.1717 186.701 63.7757 183.689C63.2641 179.797 66.5053 176.601 70.4305 176.601V176.601C74.3557 176.601 77.4499 179.816 78.2303 183.663C78.5747 185.36 79.0517 187.035 79.6699 188.683C81.0914 192.237 83.1051 195.435 85.7111 198.278C88.3171 200.884 91.2784 203.135 94.5951 205.03C98.1488 206.925 101.702 208.465 105.256 209.65C109.047 210.597 112.837 211.308 116.628 211.782C120.418 212.019 124.209 212.137 127.999 212.137C131.79 212.137 135.58 212.019 139.371 211.782C143.398 211.308 147.189 210.597 150.742 209.65C154.533 208.465 158.087 206.925 161.403 205.03C164.957 202.898 167.918 200.41 170.287 197.567C172.893 194.725 174.907 191.526 176.329 187.973C177.75 184.182 178.461 180.273 178.461 176.246C178.461 171.034 177.039 166.059 174.196 161.32C171.59 156.582 168.037 152.673 163.535 149.594C159.271 146.514 154.533 144.145 149.321 142.486C144.346 140.591 139.252 138.933 134.04 137.511C129.065 135.853 123.972 134.313 118.76 132.892C113.785 131.233 108.81 129.338 103.835 127.206C99.0964 125.074 94.4767 122.586 89.9754 119.743C85.4742 116.9 81.4467 113.465 77.8931 109.438C74.3395 105.41 71.615 100.909 69.7198 95.9338C67.8245 90.7218 66.8769 85.3914 66.8769 79.9425C66.8769 75.2043 67.5876 70.4662 69.009 65.728C70.6674 60.7529 72.918 56.3701 75.7609 52.5796C78.8407 48.5521 82.3944 45.117 86.4218 42.2741C90.6862 39.4312 95.069 37.1805 99.5702 35.5222C104.308 33.8638 109.047 32.7977 113.785 32.3239C118.76 31.6132 123.735 31.2578 128.71 31.2578C133.685 31.2578 138.542 31.6132 143.28 32.3239C148.255 32.7977 152.993 33.8638 157.494 35.5222C161.996 36.9436 166.26 39.0758 170.287 41.9187C174.552 44.5247 178.224 47.723 181.304 51.5135C184.383 55.304 186.634 59.5684 188.055 64.3065C189.042 66.983 189.69 69.7207 190.078 72.5008C190.619 76.3885 187.361 79.5871 183.436 79.5871V79.5871C179.511 79.5871 176.42 76.3646 175.543 72.5384C174.797 69.2818 173.52 66.1657 171.709 63.2405C168.866 58.2654 165.075 54.3564 160.337 51.5135C155.836 48.6706 150.742 46.7753 145.057 45.8277C139.608 44.88 134.159 44.4062 128.71 44.4062C123.261 44.4062 117.694 44.9985 112.008 46.183C106.559 47.1307 101.465 49.1444 96.7273 52.2242C91.9892 55.0671 88.1986 59.0946 85.3557 64.3065C82.5128 69.2816 81.0914 74.4936 81.0914 79.9425C81.0914 85.3914 82.3944 90.4849 85.0004 95.2231C87.8433 99.9612 91.3969 103.87 95.6612 106.95C100.162 110.03 104.901 112.517 109.876 114.413C115.088 116.071 120.181 117.729 125.156 119.388C130.368 120.809 135.462 122.349 140.437 124.007C145.412 125.429 150.387 127.206 155.362 129.338C160.337 131.47 165.075 133.958 169.577 136.8C174.078 139.643 177.987 143.079 181.304 147.106C184.857 151.133 187.582 155.753 189.477 160.965C191.609 165.94 192.675 171.034 192.675 176.246C192.675 181.458 191.846 186.551 190.188 191.526C188.529 196.264 186.042 200.647 182.725 204.675C179.645 208.465 175.855 211.782 171.353 214.625C167.089 217.231 162.588 219.363 157.85 221.021C153.111 222.68 148.136 223.746 142.924 224.22C137.949 224.93 132.974 225.286 127.999 225.286Z" fill="white" fill-opacity="0.2"/>
<path d="M127.999 225.286C123.023 225.286 118.048 225.049 113.073 224.575C108.335 224.101 103.597 223.154 98.8588 221.732C94.3576 220.311 89.9748 218.415 85.7104 216.046C81.4461 213.44 77.6555 210.361 74.3388 206.807C71.259 203.016 68.7715 198.87 66.8762 194.369C65.4382 190.261 64.7165 186.044 64.4794 181.752C64.3766 179.891 65.9001 178.378 67.7646 178.378V178.378C69.6291 178.378 71.1239 179.892 71.2594 181.751C71.5208 185.341 72.2366 188.858 73.6281 192.237C75.2865 196.264 77.5371 199.937 80.38 203.253C83.4598 206.333 86.895 208.939 90.6855 211.071C94.476 212.967 98.385 214.506 102.412 215.691C106.677 216.876 110.941 217.705 115.206 218.179C119.47 218.652 123.734 218.889 127.999 218.889C132.263 218.889 136.527 218.652 140.792 218.179C145.293 217.705 149.557 216.876 153.585 215.691C157.849 214.506 161.876 212.848 165.667 210.716C169.458 208.347 172.774 205.622 175.617 202.543C178.46 199.226 180.711 195.554 182.369 191.526C184.027 187.262 184.857 182.998 184.857 178.733C184.857 173.047 183.435 167.717 180.592 162.742C177.986 157.53 174.551 153.147 170.287 149.594C166.022 146.04 161.284 143.197 156.072 141.065C150.86 138.933 145.648 137.037 140.436 135.379C135.224 133.721 129.894 132.062 124.445 130.404C118.996 128.746 113.666 126.969 108.454 125.074C103.242 123.178 98.1481 120.928 93.173 118.322C88.4349 115.479 84.1705 112.044 80.38 108.016C76.5895 103.989 73.5096 99.369 71.1406 94.157C69.0084 88.945 67.9423 83.4961 67.9423 77.8103C67.9423 73.0721 68.653 68.4524 70.0745 63.9512C71.7328 59.213 73.9835 54.9487 76.8264 51.1581C79.9062 47.3676 83.4598 44.1693 87.4872 41.5633C91.5147 38.9573 95.779 36.9436 100.28 35.5222C105.018 33.8638 109.757 32.7977 114.495 32.3239C119.233 31.6132 123.971 31.2578 128.709 31.2578C133.447 31.2578 138.186 31.4947 142.924 31.9685C147.662 32.4424 152.282 33.5084 156.783 35.1668C161.284 36.5883 165.549 38.602 169.576 41.208C173.603 43.5771 177.157 46.6569 180.237 50.4474C183.317 54.001 185.567 58.0285 186.989 62.5297C188.415 66.4 189.134 70.3786 189.378 74.4363C189.49 76.2974 187.965 77.8103 186.1 77.8103V77.8103C184.236 77.8103 182.743 76.2963 182.594 74.4378C182.324 71.081 181.612 67.8061 180.237 64.6619C178.815 60.6345 176.683 57.0808 173.84 54.001C171.234 50.6843 168.155 47.9599 164.601 45.8277C161.047 43.6955 157.257 42.0371 153.229 40.8526C149.439 39.6681 145.411 38.8389 141.147 38.3651C137.12 37.8913 132.974 37.6543 128.709 37.6543C124.445 37.6543 120.181 37.8913 115.916 38.3651C111.889 38.8389 107.861 39.7865 103.834 41.208C99.8065 42.3925 96.0159 44.1693 92.4623 46.5384C88.9087 48.6706 85.7104 51.395 82.8675 54.7117C80.2615 57.7916 78.2478 61.3452 76.8264 65.3726C75.4049 69.4001 74.6942 73.546 74.6942 77.8103C74.6942 83.4961 75.9972 88.945 78.6032 94.157C81.2092 99.1321 84.6443 103.396 88.9087 106.95C93.173 110.504 97.9112 113.347 103.123 115.479C108.335 117.611 113.547 119.506 118.759 121.165C124.208 122.823 129.538 124.481 134.75 126.14C140.199 127.561 145.53 129.338 150.742 131.47C155.954 133.365 161.047 135.734 166.022 138.577C170.997 141.183 175.38 144.5 179.171 148.527C182.961 152.555 185.923 157.175 188.055 162.387C190.424 167.599 191.608 173.047 191.608 178.733C191.608 183.471 190.779 188.21 189.121 192.948C187.463 197.686 184.975 201.95 181.658 205.741C178.578 209.531 174.906 212.73 170.642 215.336C166.378 217.942 161.876 219.955 157.138 221.377C152.4 222.798 147.543 223.746 142.568 224.22C137.83 224.93 132.974 225.286 127.999 225.286Z" fill="white"/>
<defs>
<linearGradient id="paint0_linear_603_2369" x1="128" y1="31.2573" x2="128" y2="225.285" gradientUnits="userSpaceOnUse">
<stop stop-color="#FF5370"/>
<stop offset="0.5" stop-color="#9747FF"/>
<stop offset="1" stop-color="#FF5370"/>
</linearGradient>
</defs>
</svg>
