<svg width="256" height="257" viewBox="0 0 256 257" fill="none" xmlns="http://www.w3.org/2000/svg">
<rect y="0.126465" width="256" height="256" fill="white"/>
<path d="M62.7139 207.542V222.319H192.913V207.542C192.913 184.876 160.953 173.371 128.307 173.416C95.8538 173.446 62.7139 183.546 62.7139 207.542Z" fill="#444444"/>
<path d="M174.76 150.929C174.76 154.037 171.293 156.905 165.436 159.206C156.875 162.583 139.961 206.496 124.557 206.496C114.531 206.496 108.495 163.838 100.86 162.254C88.7722 159.744 80.8682 155.605 80.8682 150.914C80.8682 143.264 101.891 137.078 127.814 137.078C153.737 137.078 174.76 143.294 174.76 150.929Z" fill="#262626"/>
<path d="M127.739 165.945H114.157V180.274C114.157 186.758 119.686 192.018 126.499 192.018H128.964C135.777 192.018 141.306 186.758 141.306 180.274V165.945H127.739Z" fill="#A3A3A3"/>
<path d="M114.636 181.618H140.679L129.995 222.318H125.543L114.636 181.618Z" fill="#117EFF"/>
<path d="M114.172 172.146L99.2305 180.916L113.544 195.947L110.123 207.915L125.781 222.543L114.172 172.146Z" fill="#646464"/>
<path d="M141.306 172.146L156.247 180.916L141.933 195.947L145.355 207.915L129.696 222.543L141.306 172.146Z" fill="#646464"/>
<path d="M88.3834 178.78C85.5595 179.542 75.8027 182.59 69.5572 189.956C68.7803 190.867 68.8699 192.257 69.7664 193.049L75.1901 197.905C76.0866 198.711 77.4762 198.652 78.2979 197.77C81.8839 193.9 91.536 184.592 100.247 186.086L94.3898 176.822L90.1614 178.257C89.5787 178.451 88.981 178.615 88.3834 178.78Z" fill="#212121"/>
<path d="M87.5914 177.554C84.7675 178.316 75.0107 181.364 68.7652 188.73C67.9883 189.642 68.0779 191.031 68.9744 191.823L74.3981 196.679C75.2946 197.486 76.6842 197.426 77.506 196.544C81.0919 192.675 90.744 183.366 99.4548 184.86L93.5978 175.597L89.3694 177.031C88.7867 177.21 88.189 177.39 87.5914 177.554Z" fill="#616161"/>
<path d="M76.8338 193.183C79.1938 193.183 81.107 191.27 81.107 188.909C81.107 186.549 79.1938 184.636 76.8338 184.636C74.4737 184.636 72.5605 186.549 72.5605 188.909C72.5605 191.27 74.4737 193.183 76.8338 193.183Z" fill="#444444"/>
<path d="M76.0869 192.525C78.3149 192.525 80.1211 190.719 80.1211 188.491C80.1211 186.263 78.3149 184.457 76.0869 184.457C73.8589 184.457 72.0527 186.263 72.0527 188.491C72.0527 190.719 73.8589 192.525 76.0869 192.525Z" fill="#757575"/>
<path d="M76.0868 184.636C78.2085 184.636 79.9417 186.354 79.9417 188.491C79.9417 190.628 78.2234 192.346 76.0868 192.346C73.9502 192.346 72.2319 190.628 72.2319 188.491C72.2319 186.354 73.9502 184.636 76.0868 184.636ZM76.0868 184.263C73.756 184.263 71.8584 186.16 71.8584 188.491C71.8584 190.822 73.756 192.72 76.0868 192.72C78.4177 192.72 80.3152 190.822 80.3152 188.491C80.3003 186.16 78.4027 184.263 76.0868 184.263Z" fill="#9E9E9E"/>
<path d="M77.4306 189.283C77.8679 189.283 78.2225 188.928 78.2225 188.491C78.2225 188.054 77.8679 187.699 77.4306 187.699C76.9932 187.699 76.6387 188.054 76.6387 188.491C76.6387 188.928 76.9932 189.283 77.4306 189.283Z" fill="#444444"/>
<path d="M74.7265 189.283C75.1638 189.283 75.5184 188.928 75.5184 188.491C75.5184 188.054 75.1638 187.699 74.7265 187.699C74.2891 187.699 73.9346 188.054 73.9346 188.491C73.9346 188.928 74.2891 189.283 74.7265 189.283Z" fill="#444444"/>
<path d="M167.632 178.78C170.456 179.542 180.213 182.59 186.458 189.956C187.235 190.867 187.145 192.257 186.249 193.049L180.825 197.905C179.929 198.711 178.539 198.652 177.717 197.77C174.132 193.9 164.479 184.592 155.769 186.086L161.626 176.822L165.854 178.257C166.437 178.451 167.034 178.615 167.632 178.78Z" fill="#212121"/>
<path d="M168.424 177.554C171.248 178.316 181.005 181.364 187.25 188.73C188.027 189.642 187.937 191.031 187.041 191.823L181.617 196.679C180.721 197.486 179.331 197.426 178.509 196.544C174.924 192.675 165.271 183.366 156.561 184.86L162.418 175.597L166.646 177.031C167.229 177.21 167.826 177.39 168.424 177.554Z" fill="#616161"/>
<path d="M179.197 193.183C181.557 193.183 183.47 191.27 183.47 188.909C183.47 186.549 181.557 184.636 179.197 184.636C176.837 184.636 174.924 186.549 174.924 188.909C174.924 191.27 176.837 193.183 179.197 193.183Z" fill="#444444"/>
<path d="M179.944 192.525C182.172 192.525 183.979 190.719 183.979 188.491C183.979 186.263 182.172 184.457 179.944 184.457C177.716 184.457 175.91 186.263 175.91 188.491C175.91 190.719 177.716 192.525 179.944 192.525Z" fill="#757575"/>
<path d="M179.944 184.636C182.066 184.636 183.799 186.354 183.799 188.491C183.799 190.628 182.081 192.346 179.944 192.346C177.823 192.346 176.089 190.628 176.089 188.491C176.089 186.354 177.808 184.636 179.944 184.636ZM179.944 184.263C177.613 184.263 175.716 186.16 175.716 188.491C175.716 190.822 177.613 192.72 179.944 192.72C182.275 192.72 184.173 190.822 184.173 188.491C184.173 186.16 182.275 184.263 179.944 184.263Z" fill="#9E9E9E"/>
<path d="M178.6 189.283C179.037 189.283 179.391 188.928 179.391 188.491C179.391 188.054 179.037 187.699 178.6 187.699C178.162 187.699 177.808 188.054 177.808 188.491C177.808 188.928 178.162 189.283 178.6 189.283Z" fill="#444444"/>
<path d="M181.289 189.283C181.726 189.283 182.081 188.928 182.081 188.491C182.081 188.054 181.726 187.699 181.289 187.699C180.852 187.699 180.497 188.054 180.497 188.491C180.497 188.928 180.852 189.283 181.289 189.283Z" fill="#444444"/>
<path d="M90.4456 176.807L84.3047 178.481L113.127 222.378H121.225L90.4456 176.807Z" fill="#BDBDBD"/>
<path d="M165.048 176.434L171.592 178.481L144.19 222.378H136.106L165.048 176.434Z" fill="#BDBDBD"/>
<path d="M176.015 109.377C176.015 109.377 184.815 110.901 184.815 120.389C184.815 128.756 178.391 132.058 171.966 132.058V109.377H176.015Z" fill="#A3A3A3"/>
<path d="M79.9714 109.377C79.9714 109.377 71.1709 110.901 71.1709 120.389C71.1709 128.756 77.5957 132.058 84.0205 132.058V109.377H79.9714Z" fill="#A3A3A3"/>
<path d="M127.993 47.2656C90.0422 47.2656 80.1211 76.6852 80.1211 118.013C80.1211 160.865 107.658 176.06 127.993 176.06C148.03 176.06 175.865 161.194 175.865 118.013C175.865 76.6852 165.944 47.2656 127.993 47.2656Z" fill="#CFCFCF"/>
<path d="M112.23 121.853C112.23 126.126 109.376 129.578 105.835 129.578C102.308 129.578 99.4248 126.111 99.4248 121.853C99.4248 117.58 102.294 114.113 105.835 114.113C109.361 114.113 112.23 117.565 112.23 121.853Z" fill="#5D4037"/>
<path d="M143.741 121.853C143.741 126.126 146.595 129.578 150.151 129.578C153.677 129.578 156.546 126.111 156.546 121.853C156.546 117.58 153.677 114.113 150.151 114.113C146.61 114.113 143.741 117.565 143.741 121.853Z" fill="#444444"/>
<path d="M142.836 153.525H128.985H115.135C113.551 153.525 112.864 154.586 113.909 156.199C115.374 158.441 120.842 156.199 128.985 156.199C137.128 156.199 142.597 158.441 144.061 156.199C145.107 154.586 144.42 153.525 142.836 153.525Z" fill="#A3A3A3"/>
<path d="M135.679 141.751C133.319 142.424 130.868 142.737 128.986 142.737C127.103 142.737 124.653 142.409 122.292 141.751C121.291 141.467 120.887 142.424 121.246 143.051C121.993 144.366 125.011 147.025 128.986 147.025C132.96 147.025 135.978 144.366 136.725 143.051C137.084 142.409 136.68 141.452 135.679 141.751Z" fill="#A3A3A3"/>
<path d="M129.128 41.8717C129.128 41.8717 128.381 41.8418 128.068 41.8567C127.754 41.8567 127.007 41.8717 127.007 41.8717C86.0675 42.6636 73.7109 67.3019 73.7109 84.3799C73.7109 100.98 73.7259 113.187 73.7259 113.187C73.7259 113.187 74.3833 112.514 75.5786 111.573C76.8636 110.572 78.283 110.019 78.283 110.019L80.3449 123.885L93.9864 95.3767C94.076 95.1974 94.2553 95.0928 94.4496 95.1227L102.533 96.0192C110.661 96.9157 118.834 97.3639 126.992 97.3789V97.3938C127.35 97.3938 127.694 97.3789 128.053 97.3789C128.411 97.3789 128.755 97.3938 129.114 97.3938V97.3789C137.272 97.349 145.444 96.9157 153.573 96.0192L161.656 95.1227C161.85 95.1078 162.029 95.2124 162.119 95.3767L175.761 123.885L177.822 110.019C177.822 110.019 179.242 110.587 180.527 111.573C181.737 112.514 182.38 113.187 182.38 113.187C182.38 113.187 182.394 100.995 182.394 84.3799C182.424 67.3019 170.083 42.6636 129.128 41.8717Z" fill="#3D3D3D"/>
<path d="M80.9424 151.676C80.9424 151.676 93.792 160.476 109.077 160.865C111.004 160.91 112.663 162.239 113.051 164.122L126.633 224.127H106.612L80.9424 151.676Z" fill="#444444"/>
<path d="M174.76 151.676C174.76 151.676 161.91 160.476 146.625 160.865C144.698 160.91 143.039 162.239 142.651 164.122L128.89 224.127H149.09L174.76 151.676Z" fill="#444444"/>
<path d="M140.902 121.838C140.902 127.814 144.907 132.655 149.867 132.655C154.813 132.655 158.832 127.814 158.832 121.838C158.832 115.846 154.813 111.005 149.867 111.005C144.907 111.005 140.902 115.846 140.902 121.838Z" fill="#5D4037"/>
<path d="M205.688 82.9303C205.688 88.7275 198.785 92.8065 185.487 96.6614C177.927 98.8578 171.935 103.654 161.641 104.775C153.109 105.701 140.245 102.055 130.533 102.055C120.821 102.055 106.507 105.761 98.0056 104.521C84.5733 102.563 78.776 97.4085 71.2157 95.2121C57.9179 91.3572 51 88.7425 51 82.9303C51 77.133 56.8122 73.1437 70.11 69.2888C77.6704 67.0924 90.3705 62.8491 100.665 61.7135C109.227 60.7722 118.64 62.7445 128.351 62.7445C138.063 62.7445 147.476 60.7722 156.023 61.7135C166.332 62.8341 177.105 64.8064 184.666 67.0028C197.948 70.8577 205.688 77.1181 205.688 82.9303Z" fill="#0D5EBF"/>
<path d="M205.688 79.7777C205.688 85.575 198.785 89.654 185.487 93.5089C177.927 95.7053 171.935 100.501 161.641 101.622C153.109 102.548 140.245 98.9027 130.533 98.9027C120.821 98.9027 106.507 102.608 98.0056 101.368C84.5733 99.4107 78.776 94.2559 71.2157 92.0596C57.9179 88.2047 51 85.5899 51 79.7777C51 73.9805 56.8122 69.9911 70.11 66.1363C77.6704 63.9399 90.3705 59.6965 100.665 58.561C109.227 57.6346 118.64 59.6069 128.351 59.6069C138.063 59.6069 147.476 57.6346 156.023 58.5759C166.332 59.6965 177.105 61.6688 184.666 63.8652C197.948 67.7051 205.688 73.9805 205.688 79.7777Z" fill="#117EFF"/>
<path d="M185.069 74.3243C175.252 52.9581 168.738 36.418 151.869 31.9356C147.312 30.7253 142.501 30.9644 137.928 32.1597C128.74 34.5802 122.165 33.7883 113.245 31.7413C109.002 30.7702 104.549 30.9494 100.411 32.2792C84.3636 37.4489 82.4512 51.9421 72.291 74.3243C72.5151 94.7043 185.293 94.5101 185.069 74.3243Z" fill="#117EFF"/>
<path d="M108.031 36.3581C113.41 39.944 119.999 41.6175 126.454 40.9302C132.386 40.3026 138.049 38.1809 143.502 35.7156C144.429 35.2973 145.37 36.2236 144.996 37.1649C144.175 39.2717 135.822 47.086 125.752 47.086C116.458 47.086 110.243 43.3955 107 38.0166C106.582 37.3143 106.926 35.626 108.031 36.3581Z" fill="black" fill-opacity="0.25"/>
<path d="M180.093 63.2525C161.431 74.5333 95.6593 74.5781 77.1619 63.1479C75.608 66.8086 73.9943 70.5589 72.291 74.3241C72.5151 94.7041 185.293 94.5099 185.069 74.3241C183.395 70.6635 181.752 66.9431 180.093 63.2525Z" fill="black" fill-opacity="0.25"/>
<path fill-rule="evenodd" clip-rule="evenodd" d="M85.6868 109.042C110.277 105.419 114.661 109.962 128.217 110.238C141.773 109.962 146.156 104.695 170.747 109.042C172.283 109.317 172.435 109.383 172.696 110.904C172.804 111.578 172.877 114.425 172.898 115.099C172.949 116.345 172.703 116.512 171.464 117.171C170.384 117.744 169.884 117.91 169.884 120.185C169.884 135.183 163.074 139.82 153.923 140.175C144.251 140.552 136.382 135.053 133.107 126.612C128.47 114.686 127.746 114.679 123.109 126.612C119.841 135.053 112.176 140.559 102.51 140.182C93.3596 139.82 86.549 134.647 86.549 120.193C86.549 117.918 86.0491 117.751 84.9695 117.179C83.7306 116.512 83.477 116.345 83.535 115.099C83.5639 114.425 83.6364 111.578 83.7378 110.904C83.9987 109.383 84.1508 110.035 85.6868 109.042Z" fill="#2F2F2F" stroke="#464747" stroke-width="3" stroke-miterlimit="10"/>
<path fill-rule="evenodd" clip-rule="evenodd" d="M165.233 119.439C165.356 113.795 164.559 112.484 160.98 111.752C157.625 111.064 154.191 110.73 150.8 110.861C146.721 111.02 142.084 112.607 138.947 114.005C134.947 115.795 134.375 116.135 135.245 118.664C137.701 125.808 140.765 135.502 153.184 135.046C162.371 134.698 165.044 128.134 165.233 119.439Z" fill="white"/>
<path fill-rule="evenodd" clip-rule="evenodd" d="M90.2876 119.439C90.4832 128.134 93.1495 134.705 102.337 135.038C114.762 135.502 117.82 125.801 120.276 118.657C121.145 116.128 120.573 115.788 116.574 113.998C113.444 112.6 108.807 111.013 104.72 110.854C101.329 110.723 97.8951 111.056 94.5406 111.745C90.9541 112.484 90.1572 113.795 90.2876 119.439Z" fill="white"/>
<path fill-rule="evenodd" clip-rule="evenodd" d="M85.6868 109.042C110.277 105.419 114.661 109.962 128.217 110.238C141.773 109.962 146.156 104.695 170.747 109.042C172.283 109.317 172.435 109.383 172.696 110.904C172.804 111.578 172.877 114.425 172.898 115.099C172.949 116.345 172.703 116.512 171.464 117.171C170.384 117.744 169.884 117.91 169.884 120.185C169.884 135.183 163.074 139.82 153.923 140.175C144.251 140.552 136.382 135.053 133.107 126.612C128.47 114.686 127.746 114.679 123.109 126.612C119.841 135.053 112.176 140.559 102.51 140.182C93.3596 139.82 86.549 134.647 86.549 120.193C86.549 117.918 86.0491 117.751 84.9695 117.179C83.7306 116.512 83.477 116.345 83.535 115.099C83.5639 114.425 83.6364 111.578 83.7378 110.904C83.9987 109.383 84.1508 110.035 85.6868 109.042ZM165.849 119.903C165.972 114.259 165.175 112.947 161.596 112.216C158.241 111.527 154.807 111.194 151.416 111.324C147.337 111.484 142.671 112.368 139.541 113.766C135.542 115.556 135.1 116.954 135.969 119.475C138.425 126.619 141.374 135.966 153.8 135.502C162.987 135.161 165.66 128.597 165.849 119.903ZM90.5846 119.903C90.7803 128.597 93.4465 135.169 102.634 135.502C115.059 135.958 118.117 126.264 120.573 119.12C121.442 116.592 120.87 116.251 116.871 114.462C113.741 113.063 109.104 111.477 105.017 111.317C101.626 111.187 98.1922 111.52 94.8376 112.208C91.2584 112.947 90.4615 114.259 90.5846 119.903Z" fill="url(#paint0_linear_602_297)"/>
<path d="M120.979 126.315C117.646 132.357 109.198 137.741 103.481 137.741C97.7647 137.741 89.8384 134.314 91.7004 125.192C93.6639 115.556 97.7647 110.832 103.481 110.832C109.198 110.824 129.072 111.621 120.979 126.315Z" fill="url(#paint1_linear_602_297)"/>
<path d="M167.464 126.315C164.769 132.669 155.691 137.741 149.967 137.741C144.243 137.741 139.382 132.524 139.541 124.475C139.722 115.548 145.084 110.73 150.8 110.861C162.154 111.114 173.819 111.317 167.464 126.315Z" fill="url(#paint2_linear_602_297)"/>
<defs>
<linearGradient id="paint0_linear_602_297" x1="128.216" y1="107.33" x2="128.216" y2="140.201" gradientUnits="userSpaceOnUse">
<stop stop-color="#2F2F2F"/>
<stop offset="1" stop-color="#117EFF"/>
</linearGradient>
<linearGradient id="paint1_linear_602_297" x1="128.216" y1="107.33" x2="128.216" y2="140.201" gradientUnits="userSpaceOnUse">
<stop stop-color="#2F2F2F"/>
<stop offset="1" stop-color="#117EFF"/>
</linearGradient>
<linearGradient id="paint2_linear_602_297" x1="128.216" y1="107.33" x2="128.216" y2="140.201" gradientUnits="userSpaceOnUse">
<stop stop-color="#2F2F2F"/>
<stop offset="1" stop-color="#117EFF"/>
</linearGradient>
</defs>
</svg>
