<svg width="358" height="358" viewBox="0 0 358 358" fill="none" xmlns="http://www.w3.org/2000/svg">
<g filter="url(#filter0_d_602_8010)">
<rect x="51" y="36.0015" width="256" height="255.999" rx="6.39998" fill="url(#paint0_linear_602_8010)"/>
<path d="M265.948 102.251C266.49 102.251 266.76 102.657 266.76 103.469C266.76 104.281 266.49 104.687 265.948 104.687C262.158 104.687 258.706 105.703 255.593 107.733C252.615 109.628 249.704 113.283 246.862 118.698L189.805 228.953C189.399 229.495 188.654 229.765 187.571 229.765C186.488 229.765 185.879 229.495 185.744 228.953L162.596 119.104C161.649 113.824 160.16 110.102 158.129 107.936C156.234 105.77 153.527 104.687 150.007 104.687C149.737 104.687 149.601 104.281 149.601 103.469C149.601 102.657 149.737 102.251 150.007 102.251L157.114 102.454C160.634 102.724 163.138 102.86 164.627 102.86C168.011 102.86 172.004 102.724 176.607 102.454L183.916 102.251C184.458 102.251 184.729 102.657 184.729 103.469C184.729 104.281 184.458 104.687 183.916 104.687C179.991 104.687 177.013 105.296 174.982 106.515C172.952 107.733 171.937 109.899 171.937 113.012C171.937 114.772 172.072 116.126 172.343 117.073L193.46 213.725L243.41 117.479C245.034 113.96 245.846 111.591 245.846 110.373C245.846 108.342 244.831 106.921 242.801 106.109C240.905 105.161 237.792 104.687 233.46 104.687C233.054 104.687 232.851 104.281 232.851 103.469C232.851 102.657 233.054 102.251 233.46 102.251L239.958 102.454C244.019 102.724 247.538 102.86 250.516 102.86C252.682 102.86 255.39 102.724 258.638 102.454L265.948 102.251Z" fill="black" fill-opacity="0.5"/>
<g filter="url(#filter1_d_602_8010)">
<path d="M226.838 102.251C227.379 102.251 227.65 102.657 227.65 103.469C227.65 104.281 227.379 104.687 226.838 104.687C222.371 104.687 218.31 105.973 214.655 108.545C211.135 111.117 207.345 116.396 203.284 124.383L148.867 228.953C148.461 229.63 147.649 229.968 146.43 229.968C144.941 229.968 144.061 229.63 143.791 228.953L118.003 119.104C116.785 113.824 115.228 110.102 113.333 107.936C111.574 105.77 109.002 104.687 105.617 104.687C105.211 104.687 105.008 104.281 105.008 103.469C105.008 102.657 105.211 102.251 105.617 102.251L114.552 102.454C118.613 102.724 121.658 102.86 123.689 102.86C128.021 102.86 133.029 102.724 138.714 102.454L147.243 102.251C147.649 102.251 147.852 102.657 147.852 103.469C147.852 104.281 147.649 104.687 147.243 104.687C143.452 104.687 140.542 105.296 138.511 106.515C136.481 107.733 135.466 109.831 135.466 112.809C135.466 114.028 135.669 115.449 136.075 117.073L156.177 204.384L197.599 123.571C199.494 119.781 200.441 116.599 200.441 114.028C200.441 111.049 199.291 108.748 196.989 107.124C194.688 105.499 191.439 104.687 187.243 104.687C186.837 104.687 186.634 104.281 186.634 103.469C186.634 102.657 186.837 102.251 187.243 102.251L195.974 102.454C200.847 102.724 205.382 102.86 209.579 102.86C212.015 102.86 214.993 102.724 218.513 102.454L226.838 102.251Z" fill="white"/>
</g>
</g>
<defs>
<filter id="filter0_d_602_8010" x="0.49398" y="0.647251" width="357.012" height="357.011" filterUnits="userSpaceOnUse" color-interpolation-filters="sRGB">
<feFlood flood-opacity="0" result="BackgroundImageFix"/>
<feColorMatrix in="SourceAlpha" type="matrix" values="0 0 0 0 0 0 0 0 0 0 0 0 0 0 0 0 0 0 127 0" result="hardAlpha"/>
<feOffset dy="15.1518"/>
<feGaussianBlur stdDeviation="25.253"/>
<feColorMatrix type="matrix" values="0 0 0 0 0.388889 0 0 0 0 0.438667 0 0 0 0 0.466667 0 0 0 0.25 0"/>
<feBlend mode="normal" in2="BackgroundImageFix" result="effect1_dropShadow_602_8010"/>
<feBlend mode="normal" in="SourceGraphic" in2="effect1_dropShadow_602_8010" result="shape"/>
</filter>
<filter id="filter1_d_602_8010" x="92.2088" y="95.8505" width="148.241" height="153.318" filterUnits="userSpaceOnUse" color-interpolation-filters="sRGB">
<feFlood flood-opacity="0" result="BackgroundImageFix"/>
<feColorMatrix in="SourceAlpha" type="matrix" values="0 0 0 0 0 0 0 0 0 0 0 0 0 0 0 0 0 0 127 0" result="hardAlpha"/>
<feOffset dy="6.39998"/>
<feGaussianBlur stdDeviation="6.39998"/>
<feColorMatrix type="matrix" values="0 0 0 0 0 0 0 0 0 0 0 0 0 0 0 0 0 0 0.25 0"/>
<feBlend mode="normal" in2="BackgroundImageFix" result="effect1_dropShadow_602_8010"/>
<feBlend mode="normal" in="SourceGraphic" in2="effect1_dropShadow_602_8010" result="shape"/>
</filter>
<linearGradient id="paint0_linear_602_8010" x1="74.68" y1="354.72" x2="-39.8908" y2="72.0057" gradientUnits="userSpaceOnUse">
<stop stop-color="#7E354E"/>
<stop offset="0.573939" stop-color="#E3556F"/>
<stop offset="1" stop-color="#F9D657"/>
</linearGradient>
</defs>
</svg>
