<svg width="256" height="256" viewBox="0 0 256 256" fill="none" xmlns="http://www.w3.org/2000/svg">
<rect width="256" height="256" fill="url(#paint0_linear_602_923)"/>
<path d="M85.6896 90.585C68.3374 86.0067 59.2229 79.3517 46.25 58.5071C60.0408 129.363 80.6338 158.191 126.264 181.595C103.217 151.439 89.7623 127.059 85.6896 90.585Z" fill="white"/>
<path d="M151.028 206.87C118.956 160.351 100.409 107.338 100.409 54.1459C112.151 72.6652 119.952 78.444 135.555 85.0896C140.178 114.272 154.843 141.041 173.579 163.578C166.69 180.699 162.793 187.416 151.028 206.87Z" fill="white"/>
<path d="M178.327 150.372C187.668 117.748 191.138 91.0681 192.551 51.5723C181.207 73.673 171.961 82.9191 155.936 88.5568C157.837 106.552 167.13 136.208 178.327 150.372Z" fill="white"/>
<defs>
<linearGradient id="paint0_linear_602_923" x1="243.361" y1="8.62145" x2="58.9254" y2="232.073" gradientUnits="userSpaceOnUse">
<stop stop-color="#BA63FF"/>
<stop offset="1" stop-color="#4C42FB"/>
</linearGradient>
</defs>
</svg>
