<svg width="193" height="193" viewBox="0 0 193 193" fill="none" xmlns="http://www.w3.org/2000/svg">
<rect x="-5.03262" y="96.5" width="143.589" height="143.589" rx="20" transform="rotate(-45 -5.03262 96.5)" fill="#423C8C"/>
<path d="M107.355 35.0763C101.497 29.2185 91.9993 29.2185 86.1414 35.0763L34.7756 86.4422C28.9006 92.3172 28.9203 101.849 34.8196 107.699L85.5498 158.011C91.4147 163.828 100.878 163.808 106.719 157.968L112.51 152.177C114.462 150.224 114.462 147.058 112.51 145.106L95.511 128.107C91.6058 124.202 91.6058 117.87 95.511 113.965L109.342 100.134C111.295 98.1809 111.295 95.0151 109.342 93.0625L99.4975 83.2178C97.5449 81.2651 94.3791 81.2651 92.4265 83.2178L78.1256 97.5186C76.173 99.4712 73.0072 99.4712 71.0546 97.5186L70.8001 97.2642C68.8475 95.3116 68.8475 92.1457 70.8001 90.1931L113.1 47.893C115.053 45.9404 115.053 42.7746 113.1 40.822L107.355 35.0763Z" fill="white"/>
<path d="M106.435 69.2096L120.426 55.2185C122.378 53.2659 125.544 53.2659 127.497 55.2185L158.268 85.9901C164.126 91.848 164.126 101.345 158.268 107.203L127.071 138.401C125.118 140.353 121.952 140.353 120 138.401L106.082 124.483C104.129 122.53 104.129 119.364 106.082 117.412L123.288 100.205C125.241 98.2526 125.241 95.0868 123.288 93.1341L106.435 76.2807C104.482 74.328 104.482 71.1622 106.435 69.2096Z" fill="#24CA7A"/>
</svg>
