<svg width="256" height="257" viewBox="0 0 256 257" fill="none" xmlns="http://www.w3.org/2000/svg">
<rect y="0.271484" width="256" height="256" rx="64" fill="white"/>
<rect y="0.271484" width="256" height="256" rx="64" fill="url(#paint0_radial_616_2606)" fill-opacity="0.2"/>
<path d="M194.325 190.229C194.509 192.34 194.056 194.458 193.026 196.309C191.995 198.16 190.434 199.661 188.543 200.616C180.258 204.799 162.982 209.979 127.734 210.902C125.243 210.967 122.838 210.999 120.521 210.997C87.2575 210.997 72.0045 204.595 65.7232 200.597C64.0902 199.563 62.7763 198.096 61.9278 196.359C61.0793 194.622 60.7297 192.684 60.9177 190.76V137.044H194.366L194.325 190.229Z" fill="url(#paint1_linear_616_2606)"/>
<g filter="url(#filter0_d_616_2606)">
<path d="M132.257 148.15C101.406 148.086 70.8224 142.431 41.9885 131.459C41.5569 131.274 41.1702 130.999 40.8542 130.651C40.5383 130.304 40.3005 129.893 40.157 129.446C40.0135 128.999 39.9676 128.526 40.0224 128.06C40.0772 127.594 40.2314 127.144 40.4746 126.743C70.4432 77.2307 124.207 47.1826 126.485 45.9296C126.968 45.6622 127.511 45.5212 128.064 45.5195C128.617 45.5179 129.161 45.6556 129.646 45.92C132.088 47.2589 189.755 79.2344 215.602 126.74C215.817 127.135 215.948 127.571 215.987 128.02C216.027 128.468 215.973 128.92 215.831 129.347C215.694 129.779 215.466 130.175 215.163 130.512C214.861 130.848 214.49 131.116 214.075 131.297C186.263 142.982 158.492 146.607 132.257 148.15Z" fill="url(#paint2_angular_616_2606)"/>
</g>
<path d="M120.891 211.022C113.464 211.022 108.831 210.726 108.471 210.704C107.666 210.65 106.912 210.292 106.361 209.703C105.81 209.114 105.504 208.337 105.504 207.53V157.92C105.504 157.076 105.839 156.267 106.435 155.671C107.032 155.074 107.841 154.739 108.684 154.739H147.319C148.163 154.739 148.972 155.074 149.568 155.671C150.165 156.267 150.5 157.076 150.5 157.92V206.633C150.5 207.426 150.204 208.191 149.67 208.777C149.135 209.363 148.402 209.728 147.612 209.801C138.728 210.611 129.812 211.019 120.891 211.022V211.022Z" fill="#F9E181"/>
<path d="M130.785 50.3453C131.065 49.8193 131.214 49.2333 131.218 48.6375C131.199 48.4469 131.163 48.2585 131.11 48.0746C131.066 47.8559 130.999 47.6426 130.909 47.4385C130.881 47.3844 130.884 47.3208 130.852 47.2636C130.765 47.1441 130.67 47.0315 130.566 46.9264C130.493 46.7953 130.41 46.6698 130.318 46.5512C130.273 46.5066 130.21 46.4907 130.159 46.4494C129.992 46.3107 129.811 46.1902 129.618 46.09C129.092 45.8081 128.504 45.6585 127.907 45.6543C127.715 45.6731 127.526 45.7093 127.341 45.7624C127.127 45.8047 126.918 45.8697 126.718 45.9564C126.657 45.9882 126.59 45.9819 126.533 46.0137C124.259 47.2699 70.5204 77.3085 40.5646 126.795C40.3291 127.183 40.1795 127.617 40.1258 128.068C40.0721 128.518 40.1156 128.975 40.2533 129.408C40.391 129.84 40.6198 130.238 40.9242 130.574C41.2286 130.911 41.6015 131.179 42.018 131.359C48.2484 134.071 54.6872 136.277 61.2719 137.955C61.4792 137.997 61.6902 138.018 61.9016 138.019L61.9271 138.022H61.9494C62.2676 138.014 62.5828 137.958 62.8844 137.856C62.9795 137.824 63.0729 137.787 63.1643 137.745C63.3716 137.657 63.5688 137.547 63.7526 137.417C63.8407 137.358 63.9256 137.295 64.0071 137.227C64.186 137.067 64.346 136.888 64.4841 136.692C64.5382 136.616 64.6018 136.556 64.6495 136.473L64.6813 136.432C82.2229 104.886 104.342 76.1133 130.318 51.0514C130.365 51.0037 130.381 50.9401 130.423 50.8924C130.563 50.7246 130.684 50.5423 130.785 50.3485V50.3453Z" fill="#F9E181"/>
<path d="M184.043 119.177C187.409 124.493 190.651 129.888 193.765 135.355" stroke="#274D5A" stroke-width="9.199" stroke-linecap="round" stroke-linejoin="round"/>
<path d="M191.186 145.074L191.148 190.388C191.311 191.885 191.011 193.395 190.289 194.716C189.566 196.037 188.457 197.105 187.109 197.776C180.153 201.29 163.66 206.78 127.655 207.721C90.2602 208.698 73.9131 202.041 67.4347 197.919C66.2795 197.183 65.3543 196.137 64.7645 194.9C64.1747 193.664 63.9439 192.287 64.0985 190.926V145.077" stroke="#274D5A" stroke-width="9.199" stroke-linecap="round" stroke-linejoin="round"/>
<path d="M108.681 197.824V157.92H147.319V197.824" stroke="#274D5A" stroke-width="9.199" stroke-linecap="round" stroke-linejoin="round"/>
<path d="M212.72 128.307C187.042 81.104 128.071 48.7979 128.071 48.7979C128.071 48.7979 73.143 79.1131 43.2793 128.441" stroke="#274D5A" stroke-width="9.199" stroke-linecap="round" stroke-linejoin="round"/>
<path d="M93.9239 119.319C91.3641 126.337 89.2169 133.499 87.4932 140.768" stroke="#274D5A" stroke-width="9.199" stroke-linecap="round" stroke-linejoin="round"/>
<path d="M115.045 144.381C115.045 144.381 115.948 133.622 118.13 118.855" stroke="#274D5A" stroke-width="9.199" stroke-linecap="round" stroke-linejoin="round"/>
<path d="M162.347 119.526C164.906 126.544 167.054 133.706 168.777 140.975" stroke="#274D5A" stroke-width="9.199" stroke-linecap="round" stroke-linejoin="round"/>
<path d="M140.955 144.498C140.955 144.498 140.055 133.739 137.87 118.976" stroke="#274D5A" stroke-width="9.199" stroke-linecap="round" stroke-linejoin="round"/>
<path d="M71.6479 118.668C68.3933 123.81 65.1536 129.201 61.9287 134.843" stroke="#274D5A" stroke-width="9.199" stroke-linecap="round" stroke-linejoin="round"/>
<path d="M184.042 119.176C187.408 124.492 190.65 129.887 193.764 135.354" stroke="#274D5A" stroke-width="9.199" stroke-linecap="round" stroke-linejoin="round"/>
<defs>
<filter id="filter0_d_616_2606" x="20.593" y="35.816" width="214.814" height="141.444" filterUnits="userSpaceOnUse" color-interpolation-filters="sRGB">
<feFlood flood-opacity="0" result="BackgroundImageFix"/>
<feColorMatrix in="SourceAlpha" type="matrix" values="0 0 0 0 0 0 0 0 0 0 0 0 0 0 0 0 0 0 127 0" result="hardAlpha"/>
<feOffset dy="9.7035"/>
<feGaussianBlur stdDeviation="9.7035"/>
<feColorMatrix type="matrix" values="0 0 0 0 0.146753 0 0 0 0 0.29618 0 0 0 0 0.258824 0 0 0 0.25 0"/>
<feBlend mode="normal" in2="BackgroundImageFix" result="effect1_dropShadow_616_2606"/>
<feBlend mode="normal" in="SourceGraphic" in2="effect1_dropShadow_616_2606" result="shape"/>
</filter>
<radialGradient id="paint0_radial_616_2606" cx="0" cy="0" r="1" gradientUnits="userSpaceOnUse" gradientTransform="translate(197 116.771) rotate(-176.37) scale(134.269)">
<stop stop-color="#D26C50"/>
<stop offset="1" stop-color="#F9E181"/>
</radialGradient>
<linearGradient id="paint1_linear_616_2606" x1="108.214" y1="162.937" x2="64.6015" y2="162.937" gradientUnits="userSpaceOnUse">
<stop stop-color="#D46C4F"/>
<stop offset="1" stop-color="#F39F72"/>
</linearGradient>
<radialGradient id="paint2_angular_616_2606" cx="0" cy="0" r="1" gradientUnits="userSpaceOnUse" gradientTransform="translate(127.225 45.5195) rotate(31.373) scale(107.4 184.179)">
<stop stop-color="#45988E"/>
<stop offset="0.224393" stop-color="#6ECDA1"/>
</radialGradient>
</defs>
</svg>
