<svg viewBox="0 0 349 265" fill="none" xmlns="http://www.w3.org/2000/svg"><path d="M62.33 88.72a18.35 18.35 0 1 0 0-36.69 18.35 18.35 0 0 0 0 36.7Z" fill="url(#a)"/><path d="M62.33 88.72a18.35 18.35 0 1 0 0-36.69 18.35 18.35 0 0 0 0 36.7Z" fill="url(#b)"/><path d="M205.27 26.66a11.19 11.19 0 1 0 0-22.38 11.19 11.19 0 0 0 0 22.38Z" fill="url(#c)"/><path d="M205.27 26.66a11.19 11.19 0 1 0 0-22.38 11.19 11.19 0 0 0 0 22.38Z" fill="url(#d)"/><path d="M274.02 137.57a21.49 21.49 0 1 0 0-42.98 21.49 21.49 0 0 0 0 42.98Z" fill="url(#e)"/><path d="M274.02 137.57a21.49 21.49 0 1 0 0-42.98 21.49 21.49 0 0 0 0 42.98Z" fill="url(#f)"/><path d="M274.02 137.57a21.49 21.49 0 1 0 0-42.98 21.49 21.49 0 0 0 0 42.98Z" fill="url(#g)"/><g filter="url(#h)"><path d="M96.68 265c-6.63 0-12.1-5.4-11.13-11.96a81.64 81.64 0 0 1 80.75-69.66h5.12a81.64 81.64 0 0 1 80.77 69.66c.96 6.56-4.5 11.96-11.13 11.96H96.68Z" fill="url(#i)"/><path d="M96.68 265c-6.63 0-12.1-5.4-11.13-11.96a81.64 81.64 0 0 1 80.75-69.66h5.12a81.64 81.64 0 0 1 80.77 69.66c.96 6.56-4.5 11.96-11.13 11.96H96.68Z" fill="url(#j)"/><path d="M96.68 265c-6.63 0-12.1-5.4-11.13-11.96a81.64 81.64 0 0 1 80.75-69.66h5.12a81.64 81.64 0 0 1 80.77 69.66c.96 6.56-4.5 11.96-11.13 11.96H96.68Z" fill="url(#k)"/><path d="M96.68 265c-6.63 0-12.1-5.4-11.13-11.96a81.64 81.64 0 0 1 80.75-69.66h5.12a81.64 81.64 0 0 1 80.77 69.66c.96 6.56-4.5 11.96-11.13 11.96H96.68Z" fill="url(#l)"/><path d="M96.68 265c-6.63 0-12.1-5.4-11.13-11.96a81.64 81.64 0 0 1 80.75-69.66h5.12a81.64 81.64 0 0 1 80.77 69.66c.96 6.56-4.5 11.96-11.13 11.96H96.68Z" fill="url(#m)"/></g><g filter="url(#n)"><path d="M168.77 258.67a5.91 5.91 0 1 0 0-11.83 5.91 5.91 0 0 0 0 11.83Z" fill="url(#o)"/></g><g filter="url(#p)"><path d="M168.77 242.56a5.91 5.91 0 1 0 0-11.82 5.91 5.91 0 0 0 0 11.82Z" fill="url(#q)"/></g><path d="M212.46 265h-12.63v-76.54a80.65 80.65 0 0 1 12.63 5.96V265Z" fill="url(#r)"/><path d="M212.46 265h-12.63v-76.54a80.65 80.65 0 0 1 12.63 5.96V265Z" fill="url(#s)"/><path d="M212.46 265h-12.63v-76.54a80.65 80.65 0 0 1 12.63 5.96V265Z" fill="url(#t)"/><path d="M137.54 265H124.9v-70.36a81.19 81.19 0 0 1 12.63-6.05V265Z" fill="url(#u)"/><path d="M137.54 265H124.9v-70.36a81.19 81.19 0 0 1 12.63-6.05V265Z" fill="url(#v)"/><path d="M137.54 265H124.9v-70.36a81.19 81.19 0 0 1 12.63-6.05V265Z" fill="url(#w)"/><path d="M137.54 265H124.9v-70.36a81.19 81.19 0 0 1 12.63-6.05V265Z" fill="url(#x)"/><g filter="url(#y)"><path d="m141.72 186.43 4.9 25.76h39.56l6.37-25.38a81.64 81.64 0 0 0-23.5-3.43h-5.11c-7.7 0-15.16 1.06-22.22 3.05Z" fill="url(#z)"/><path d="m141.72 186.43 4.9 25.76h39.56l6.37-25.38a81.64 81.64 0 0 0-23.5-3.43h-5.11c-7.7 0-15.16 1.06-22.22 3.05Z" fill="url(#A)"/></g><g filter="url(#B)"><path fill-rule="evenodd" clip-rule="evenodd" d="M169.87 225.36a2.8 2.8 0 0 1-2.13 1.95c-2 .39-3.73.39-5.73 0a2.79 2.79 0 0 1-2.1-1.84c-1.44 1.6-3.92 3.46-8.07 4.86-2.48.85-5.34.46-6.66-1.84-1.32-2.31-2-4.93-1.96-7.59 0-3.44.99-5.92 1.96-7.6 1.32-2.3 4.18-2.67 6.66-1.84 4.02 1.37 6.48 3.35 7.94 5.04a2.83 2.83 0 0 1 2.23-2.34c2-.38 3.73-.38 5.73 0a2.82 2.82 0 0 1 2.24 2.48c1.44-1.72 3.92-3.76 8.07-5.17 2.48-.84 5.34-.46 6.67 1.84.96 1.67 1.95 4.1 1.95 7.6 0 3.47-.99 5.91-1.95 7.59-1.33 2.3-4.2 2.68-6.67 1.84-4.25-1.44-6.75-3.36-8.18-4.98Z" fill="#BC9EBB"/></g><g filter="url(#C)"><path d="M153.6 206.1c7.29 2.46 10.15 6.64 11.12 8.65l.22 2.32-.22 2.87c-.96 2-3.84 5.65-11.11 8.12-2.88.98-6.22.54-7.76-2.14a17.32 17.32 0 0 1-2.28-8.84c0-4.02 1.15-6.9 2.28-8.85 1.54-2.68 4.88-3.12 7.76-2.13Z" fill="url(#D)"/><path d="M153.6 206.1c7.29 2.46 10.15 6.64 11.12 8.65l.22 2.32-.22 2.87c-.96 2-3.84 5.65-11.11 8.12-2.88.98-6.22.54-7.76-2.14a17.32 17.32 0 0 1-2.28-8.84c0-4.02 1.15-6.9 2.28-8.85 1.54-2.68 4.88-3.12 7.76-2.13Z" fill="url(#E)"/><path d="M153.6 206.1c7.29 2.46 10.15 6.64 11.12 8.65l.22 2.32-.22 2.87c-.96 2-3.84 5.65-11.11 8.12-2.88.98-6.22.54-7.76-2.14a17.32 17.32 0 0 1-2.28-8.84c0-4.02 1.15-6.9 2.28-8.85 1.54-2.68 4.88-3.12 7.76-2.13Z" fill="url(#F)"/></g><g filter="url(#G)"><path d="M184.12 206.1c-7.27 2.46-10.14 6.64-11.1 8.65l-.23 2.32.23 2.87c.96 2 3.84 5.65 11.1 8.12 2.9.98 6.22.54 7.77-2.14a17.22 17.22 0 0 0 2.27-8.84c0-4.06-1.15-6.9-2.27-8.85-1.55-2.68-4.89-3.12-7.77-2.13Z" fill="url(#H)"/><path d="M184.12 206.1c-7.27 2.46-10.14 6.64-11.1 8.65l-.23 2.32.23 2.87c.96 2 3.84 5.65 11.1 8.12 2.9.98 6.22.54 7.77-2.14a17.22 17.22 0 0 0 2.27-8.84c0-4.06-1.15-6.9-2.27-8.85-1.55-2.68-4.89-3.12-7.77-2.13Z" fill="url(#I)"/></g><g filter="url(#J)"><path d="M162.82 212.18a3.31 3.31 0 0 1 2.63-2.96c2.2-.44 4.47-.44 6.67 0a3.3 3.3 0 0 1 2.62 2.96c.34 3.16.34 6.22 0 9.4a3.3 3.3 0 0 1-2.62 2.95c-2.32.45-4.35.45-6.67 0a3.3 3.3 0 0 1-2.63-2.96 43.75 43.75 0 0 1 0-9.39Z" fill="url(#K)"/><path d="M162.82 212.18a3.31 3.31 0 0 1 2.63-2.96c2.2-.44 4.47-.44 6.67 0a3.3 3.3 0 0 1 2.62 2.96c.34 3.16.34 6.22 0 9.4a3.3 3.3 0 0 1-2.62 2.95c-2.32.45-4.35.45-6.67 0a3.3 3.3 0 0 1-2.63-2.96 43.75 43.75 0 0 1 0-9.39Z" fill="url(#L)"/></g><path d="M270.8 190.52a12 12 0 0 1 16.95.58l5.98 6.4a12 12 0 0 1-.58 16.96l-15.9 14.84a12 12 0 0 1-16.96-.58l-5.98-6.4a12 12 0 0 1 .58-16.95l15.9-14.85Z" fill="url(#M)"/><path d="M270.8 190.52a12 12 0 0 1 16.95.58l5.98 6.4a12 12 0 0 1-.58 16.96l-15.9 14.84a12 12 0 0 1-16.96-.58l-5.98-6.4a12 12 0 0 1 .58-16.95l15.9-14.85Z" fill="url(#N)"/><g filter="url(#O)"><g filter="url(#P)"><path d="m303.66 154.29-1.28 5.73c-.24 1.08 0 2.21.65 3.1l17.53 24.07a3.84 3.84 0 0 1-1.22 5.62l-9.6 5.37c-1.4.79-3.15.62-4.38-.41l-20.7-17.3c-1.09-.91-1.74-2.36-1.42-3.72.26-1.12.87-2.76 2.51-5.78 2.5-4.98 3.92-8.65 4.43-11.03l2.2-8.04a6.2 6.2 0 0 1 2.71-3.5 5.9 5.9 0 0 1 4.29-.77 5.5 5.5 0 0 1 3.5 2.4 5.74 5.74 0 0 1 .78 4.25" fill="url(#Q)"/></g><g filter="url(#R)"><path d="M323.22 154.42a5.64 5.64 0 0 0 1.95-3.64 5.24 5.24 0 0 0-1.14-3.85 5 5 0 0 0-3.56-1.8 5.38 5.38 0 0 0-3.9 1.31l-13.63 12.08c-.33.3-.63.63-.89.99l-.76 1.08c-.26.37-.56.7-.86 1.03-1.64 1.74-1.82 3.91-.2 5.7a4.6 4.6 0 0 0 3.16 1.5 5 5 0 0 0 3.42-1.1l16.4-13.3Z" fill="#D4C2E4"/></g><g filter="url(#S)"><path d="M333.63 160.17a5.74 5.74 0 0 0 2.31-3.88 5.35 5.35 0 0 0-1.29-4.18l-.12-.13c-.9-1-2.16-1.59-3.53-1.66a5.59 5.59 0 0 0-3.81 1.25l-19.61 15.75c-2.28 1.85-.73 3.83 1.23 5.86 1.64 1.7 3.32 2.72 5.32 1.27l19.5-14.28Z" fill="#D4C2E4"/></g><g filter="url(#T)"><path d="M335.7 170.76a5.74 5.74 0 0 0 2.36-3.64 5.39 5.39 0 0 0-.94-4.11 5.06 5.06 0 0 0-3.67-2.02 5.46 5.46 0 0 0-4.09 1.34l-17.77 14.4a5.13 5.13 0 0 0-1.8 3.23 4.6 4.6 0 0 0 3.97 5.29 5 5 0 0 0 3.55-.9l18.4-13.59Z" fill="#D4C2E4"/></g><g filter="url(#U)"><path d="M336.21 182.52a5.77 5.77 0 0 0 2.15-3.64 5.37 5.37 0 0 0-1-3.98 5.1 5.1 0 0 0-3.54-2 5.47 5.47 0 0 0-4.02 1.18l-11.54 9.34a5.42 5.42 0 0 0-2.04 3.45 4.87 4.87 0 0 0 4.3 5.67 5.28 5.28 0 0 0 3.8-1.1l11.9-8.92Z" fill="#D4C2E4"/></g></g><path d="M52.6 170.55a12 12 0 0 1 4.4-16.39l7.58-4.38a12 12 0 0 1 16.4 4.4l20.24 35.07a12 12 0 0 1-4.39 16.4l-7.58 4.37a12 12 0 0 1-16.39-4.39l-20.25-35.08Z" fill="url(#V)"/><path d="M52.6 170.55a12 12 0 0 1 4.4-16.39l7.58-4.38a12 12 0 0 1 16.4 4.4l20.24 35.07a12 12 0 0 1-4.39 16.4l-7.58 4.37a12 12 0 0 1-16.39-4.39l-20.25-35.08Z" fill="url(#W)"/><g filter="url(#X)"><path d="M44.38 114.48a7.5 7.5 0 0 1-2.42-4.4 6.24 6.24 0 0 1 .98-4.6 5.12 5.12 0 0 1 3.81-2.16 6.25 6.25 0 0 1 4.46 1.51l9.7 8.21a24.03 24.03 0 0 1 7.48 11.41l3.68 13.17a3.67 3.67 0 0 1-2.77 4.62l-18.47 4.23c-2.95.68-5.75-1.99-5.1-4.85l4.45-19.36a4 4 0 0 0-1.33-3.88l-4.47-3.9Z" fill="url(#Y)"/></g><path fill-rule="evenodd" clip-rule="evenodd" d="M23.03 113.15a6 6 0 0 1 8.46-.64c.67.56 1.25 1.11 1.82 1.65 1.56 1.47 2.96 2.78 5.33 3.84 2.75 1.24 7.14 2.1 14.37-.37a6.02 6.02 0 0 1 7.33 8.32 6.01 6.01 0 0 1-3.45 3.04c-9.78 3.35-17.34 2.58-23.16-.04-4.5-2.01-7.87-5.26-9.4-6.72-.21-.22-.43-.42-.65-.62a6 6 0 0 1-.65-8.46Z" fill="url(#Z)"/><path fill-rule="evenodd" clip-rule="evenodd" d="M15.08 117.87a6 6 0 0 1 8.46-.64c.4.33.81.71 1.25 1.1a43.47 43.47 0 0 0 7.04 5.38c3.54 2.06 7.21 3.15 10.96 2.36a6 6 0 0 1 2.48 11.74c-7.76 1.64-14.56-.87-19.5-3.75a57.35 57.35 0 0 1-9.22-7l-.83-.73a6 6 0 0 1-.64-8.46Z" fill="url(#aa)"/><path fill-rule="evenodd" clip-rule="evenodd" d="M17.03 126.6a6 6 0 0 1 8.46-.64c3.35 2.87 10.02 7.29 16.79 5.47a6 6 0 0 1 3.1 11.6c-13.15 3.52-24.17-4.93-27.7-7.97a6 6 0 0 1-.65-8.46Z" fill="url(#ab)"/><path fill-rule="evenodd" clip-rule="evenodd" d="M21.77 134.9a6 6 0 0 1 8.4-1.09 18.1 18.1 0 0 0 15.74 3.08 6 6 0 0 1 7.35 4.25c.86 3.2-1.2 5.87-4.4 6.73-13.01 3.48-21.85-1.36-26-4.56a6 6 0 0 1-1.1-8.4Z" fill="url(#ac)"/><g clip-path="url(#ad)"><rect x="221.79" y="25.39" width="97.45" height="43.87" rx="12" transform="rotate(-15 221.79 25.4)" fill="url(#ae)"/><path d="M241 46.28a7.27 7.27 0 0 1-1.3-2.73 7.11 7.11 0 0 1 .62-5.67 7.02 7.02 0 0 1 4.4-3.25 8.95 8.95 0 0 1 5.5.06 5.59 5.59 0 0 1 3.52 4.05c.67 2.51.58 4.51-.26 6.02-.83 1.5-2.46 2.58-4.9 3.23-3.4.91-5.93.34-7.58-1.7Zm.43-3.68c.95 3.56 3.22 4.86 6.82 3.9a6.17 6.17 0 0 0 3.87-2.74c.82-1.33 1.01-2.85.56-4.54a4.17 4.17 0 0 0-2.94-3.1 7.9 7.9 0 0 0-4.53.06 5.27 5.27 0 0 0-3.2 2.43 4.93 4.93 0 0 0-.58 4Z" fill="url(#af)"/><path d="M256.54 41.59a5.2 5.2 0 0 1 1.15-4.92c1-1.2 2.33-2.1 4-2.75l.63-.17c.34-.09.8-.11 1.42-.06 1.35.09 2.4.6 3.13 1.56.3.37.49.71.57 1.01l.14.62c.5 1.89.19 3.57-.96 5.04a8.35 8.35 0 0 1-4.58 2.82c-1.43.39-2.6.35-3.52-.12-.9-.47-1.57-1.48-1.98-3.03Zm1.7.12c.26.94.67 1.5 1.26 1.7.44.14 1.11.1 2-.15.9-.23 1.66-.51 2.3-.83a5.52 5.52 0 0 0 1.62-1.19c.94-1.02 1.2-2.3.8-3.83a3.44 3.44 0 0 0-1.32-2.02 2.7 2.7 0 0 0-2.33-.37l-1.7.82c-.56.28-1.05.66-1.49 1.15-.95 1.05-1.33 2.62-1.13 4.72Z" fill="url(#ag)"/><path d="M269.58 38.1a5.2 5.2 0 0 1 1.15-4.93c1-1.19 2.33-2.1 4-2.74l.63-.17c.34-.1.8-.11 1.42-.07 1.35.1 2.4.61 3.13 1.56.3.38.49.72.57 1.02l.14.62c.5 1.88.19 3.56-.96 5.03a8.35 8.35 0 0 1-4.58 2.83c-1.43.38-2.6.34-3.52-.12-.9-.47-1.57-1.48-1.98-3.04Zm1.7.12c.26.93.67 1.5 1.26 1.7.44.14 1.11.09 2-.15.9-.24 1.66-.52 2.3-.83a5.52 5.52 0 0 0 1.62-1.2c.94-1.02 1.2-2.3.8-3.82a3.44 3.44 0 0 0-1.32-2.02 2.7 2.7 0 0 0-2.33-.37l-1.7.81c-.56.28-1.05.67-1.49 1.16-.95 1.04-1.33 2.62-1.13 4.72Z" fill="url(#ah)"/><path d="M282.94 29.39a17.28 17.28 0 0 1 5.04-2.49c1.9-.5 3.3-.35 4.2.48.42.39.7.85.84 1.4.2.75.17 1.6-.1 2.52a8.48 8.48 0 0 1-1.3 2.68 13.59 13.59 0 0 1-5.9 4.57l.2.79c.12.37.24.79.36 1.24.14.45.28.93.41 1.44l.44 1.46a83.9 83.9 0 0 0 .78 2.36c.1.38.06.7-.14.94-.19.26-.48.44-.87.55l-.22.06-5.24-18.1a.6.6 0 0 1 .47-.42 1 1 0 0 1 .59.03c.16.07.31.23.44.49Zm6.83-.98a3.58 3.58 0 0 0-1.71.05c-.56.15-1.1.35-1.64.6-1.2.59-2 1.37-2.37 2.36-.17.47-.18.99-.02 1.56l.05.18 1.05 3.92c2.92-1.53 4.86-3.08 5.83-4.67.56-.91.75-1.74.54-2.5-.21-.8-.79-1.3-1.73-1.5Z" fill="url(#ai)"/><path d="M302.29 27.68c1.66-.45 2.6-.25 2.82.6.18.63-.09 1.5-.78 2.59a15.52 15.52 0 0 1-4.74 4.5c-.1.02-.26-.05-.45-.23a6.05 6.05 0 0 0-.42-.4c-.1-.1-.16-.16-.2-.18a16.02 16.02 0 0 0 3.72-3.23c.61-.75.87-1.3.78-1.64-.1-.35-.59-.4-1.48-.16-.89.23-2.14.8-3.74 1.68a3.2 3.2 0 0 1-2.26-.3c-.63-.33-1-.73-1.13-1.2-.13-.48-.1-.95.06-1.42.16-.48.42-.95.78-1.42a10.88 10.88 0 0 1 5.64-3.67c.47-.13.93-.2 1.4-.23.36-.1.61 0 .76.3.14.3.31.82.5 1.54-1-.17-2.05-.1-3.17.2a6.69 6.69 0 0 0-3.21 1.76c-.8.8-1.09 1.63-.88 2.51.1.43.47.56 1.1.39l1.6-.62a17.92 17.92 0 0 1 3.3-1.37Z" fill="url(#aj)"/><path d="M308.15 30.74c.64-.17 1.04-.21 1.2-.13.19.08.3.19.34.33 0 .64-.27 1.1-.8 1.37-.09.04-.18.08-.29.1-.1.03-.25.04-.43.02a.65.65 0 0 1-.42-.22c-.27-.34-.14-.82.4-1.47Zm-4-19.17c.02.42.63 2.89 1.84 7.4 1.2 4.5 1.79 7.11 1.75 7.85l-1.52.41a120.4 120.4 0 0 1-1.39-5.89c-1-4.6-1.72-7.7-2.14-9.28l1.47-.49Z" fill="url(#ak)"/></g><path d="m183.26 183.28-48.2-12.91a24.51 24.51 0 0 1-17.34-30.05l12.83-47.87A24.86 24.86 0 0 1 161 74.87l47.59 12.75a24.86 24.86 0 0 1 17.54 30.44l-12.84 47.91a24.5 24.5 0 0 1-30.03 17.31Z" fill="url(#al)"/><path d="M130.58 92.33a24.74 24.74 0 0 1 30.3-17.5l7.96 2.14-25.6 95.59-7.98-2.14a24.74 24.74 0 0 1-17.49-30.3l12.8-47.79Z" fill="url(#am)"/><path d="m117.77 140.12 95.58 25.61a24.73 24.73 0 0 1-30.3 17.5l-47.79-12.8a24.74 24.74 0 0 1-17.49-30.3Z" fill="url(#an)"/><path d="m200.7 85.5 7.97 2.14a24.74 24.74 0 0 1 17.5 30.3l-12.81 47.8a24.74 24.74 0 0 1-30.3 17.49l-7.97-2.14 25.61-95.58Z" fill="url(#ao)"/><path d="m137.18 59.74-9.71 36.24" stroke="url(#ap)" stroke-width="5.08" stroke-miterlimit="10"/><path d="m130.58 92.33-11.74 43.81a8.27 8.27 0 0 1-5.83-10.1l7.47-27.89a8.27 8.27 0 0 1 10.1-5.82Z" fill="url(#aq)"/><path d="m198.33 138.23-53.8-14.41a17.55 17.55 0 0 1-12.37-21.46 17.55 17.55 0 0 1 21.45-12.4l53.79 14.42a17.55 17.55 0 0 1 12.38 21.46 17.6 17.6 0 0 1-21.45 12.39Z" fill="url(#ar)"/><path d="m173.5 163.6-20.14-5.4a6.14 6.14 0 0 1-4.26-7.55 6.14 6.14 0 0 1 7.46-4.4l20.14 5.4a6.14 6.14 0 0 1 4.26 7.54 6.14 6.14 0 0 1-7.46 4.4Z" fill="url(#as)"/><path d="M136.06 63.92a6.18 6.18 0 1 0 3.2-11.95 6.18 6.18 0 0 0-3.2 11.95Z" fill="url(#at)"/><path d="m236.69 86.62-9.7 36.2" stroke="url(#au)" stroke-width="5.08" stroke-miterlimit="10"/><path d="M235.52 91a6.39 6.39 0 1 0 3.3-12.35 6.39 6.39 0 0 0-3.3 12.35Z" fill="url(#av)"/><path d="m152.48 98.2-1.99-.53a8.25 8.25 0 0 0-10.1 5.83l-2.13 7.96a8.25 8.25 0 0 0 5.83 10.1l1.99.53a8.25 8.25 0 0 0 10.1-5.83l2.13-7.96a8.25 8.25 0 0 0-5.83-10.1Z" fill="url(#aw)"/><path d="m198.28 110.47-1.99-.53a8.25 8.25 0 0 0-10.1 5.83l-2.13 7.97a8.25 8.25 0 0 0 5.83 10.1l1.99.53a8.25 8.25 0 0 0 10.1-5.83l2.13-7.97a8.25 8.25 0 0 0-5.83-10.1Z" fill="url(#ax)"/><path d="m201.91 73.03-27.88-7.47a6.18 6.18 0 0 0-3.2 11.95l27.88 7.47a6.18 6.18 0 1 0 3.2-11.95Z" fill="url(#ay)"/><path d="m201.91 73.03-27.88-7.47a6.18 6.18 0 0 0-3.2 11.95l27.88 7.47a6.18 6.18 0 1 0 3.2-11.95Z" fill="url(#az)"/><path d="m214.49 161.51 11.75-43.85a8.27 8.27 0 0 1 5.83 10.1l-7.48 27.92a8.27 8.27 0 0 1-10.1 5.83Z" fill="url(#aA)"/><g filter="url(#aB)"><path d="m136.55 64.05-6.4 23.9" stroke="url(#aC)" stroke-width="1.27"/></g><g filter="url(#aD)"><path d="m236.12 90.73-6.4 23.9" stroke="url(#aE)" stroke-width="1.27"/></g><path d="M226.94 130.96c2.2.59 4.7-1.61 5.59-4.9.88-3.3-.19-6.46-2.39-7.05-2.2-.59-4.7 1.6-5.58 4.9-.88 3.3.18 6.46 2.38 7.05Z" fill="url(#aF)"/><path d="M220.54 154.85c2.2.6 6.13-6.95 8.78-16.85 2.66-9.9 3.02-18.4.82-18.99-2.2-.59-6.13 6.96-8.78 16.85-2.65 9.9-3.02 18.4-.82 19Z" fill="url(#aG)"/><path fill-rule="evenodd" clip-rule="evenodd" d="M202.99 73.42a6.19 6.19 0 0 1 3.49 6.06 4.12 4.12 0 1 1-3.5-6.06Z" fill="url(#aH)"/><g style="mix-blend-mode:overlay" filter="url(#aI)"><path d="M152.87 144.68a45.73 45.73 0 1 0 0-91.47 45.73 45.73 0 0 0 0 91.47Z" fill="url(#aJ)"/><path d="M152.87 144.68a45.73 45.73 0 1 0 0-91.47 45.73 45.73 0 0 0 0 91.47Z" fill="url(#aK)"/></g><path d="M134.88 86.62a29.98 29.98 0 1 0 0-59.96 29.98 29.98 0 0 0 0 59.96Z" fill="url(#aL)"/><path d="M134.88 86.62a29.98 29.98 0 1 0 0-59.96 29.98 29.98 0 0 0 0 59.96Z" fill="url(#aM)"/><path d="M208.06 123.62c.43-5.72-3.59-11.75-10.03-11.86-5.15-.1-9.4 4-9.5 9.15a7.46 7.46 0 0 0 7.32 7.6 5.96 5.96 0 0 0 6.08-5.86c.04-2.64-1.7-4.5-4.32-4.56-2.11-.05-3.7 3.27-1.87 4.32" stroke="url(#aN)" stroke-width="4.36" stroke-miterlimit="10" stroke-linecap="round" stroke-linejoin="round"/><g filter="url(#aO)"><path d="M208.06 123.62c.43-5.72-3.59-11.75-10.03-11.86-5.15-.1-9.4 4-9.5 9.15a7.46 7.46 0 0 0 7.32 7.6 5.96 5.96 0 0 0 6.08-5.86c.04-2.64-1.7-4.5-4.32-4.56-2.11-.05-3.7 3.27-1.87 4.32" stroke="#65BEFF" stroke-width=".87" stroke-linecap="round" stroke-linejoin="round"/></g><path d="M143.01 106.37c2.17-5.3 8.46-8.9 14.28-6.12a9.33 9.33 0 0 1 4.4 12.43 7.45 7.45 0 0 1-9.94 3.52 5.96 5.96 0 0 1-2.82-7.96c1.14-2.37 3.52-3.27 5.9-2.15 1.91.9 1.85 4.58-.26 4.71" stroke="url(#aP)" stroke-width="4.36" stroke-miterlimit="10" stroke-linecap="round" stroke-linejoin="round"/><g filter="url(#aQ)"><path d="M143.01 106.37c2.17-5.3 8.46-8.9 14.28-6.12a9.33 9.33 0 0 1 4.4 12.43 7.45 7.45 0 0 1-9.94 3.52 5.96 5.96 0 0 1-2.82-7.96c1.14-2.37 3.52-3.27 5.9-2.15 1.91.9 1.85 4.58-.26 4.71" stroke="#65BEFF" stroke-width=".87" stroke-linecap="round" stroke-linejoin="round"/></g><defs><radialGradient id="a" cx="0" cy="0" r="1" gradientUnits="userSpaceOnUse" gradientTransform="rotate(118.87 18.3 50.83) scale(30.3226 29.367)"><stop offset=".08" stop-color="#4BB8FB"/><stop offset="1" stop-color="#357ACE"/></radialGradient><radialGradient id="b" cx="0" cy="0" r="1" gradientUnits="userSpaceOnUse" gradientTransform="matrix(-15.66059 33.36354 -29.14505 -13.68046 72.33 60.03)"><stop offset=".45" stop-color="#3A7AB4" stop-opacity="0"/><stop offset=".83" stop-color="#5F679A"/></radialGradient><radialGradient id="c" cx="0" cy="0" r="1" gradientUnits="userSpaceOnUse" gradientTransform="matrix(-8.92686 16.193 -15.68271 -8.64554 210.95 8.75)"><stop offset=".08" stop-color="#9AE453"/><stop offset="1" stop-color="#5C9946"/></radialGradient><radialGradient id="d" cx="0" cy="0" r="1" gradientUnits="userSpaceOnUse" gradientTransform="matrix(-6.02028 22.42101 -21.83951 -5.86414 208.22 8.52)"><stop offset=".38" stop-color="#61A150" stop-opacity="0"/><stop offset=".83" stop-color="#415E58"/></radialGradient><radialGradient id="e" cx="0" cy="0" r="1" gradientUnits="userSpaceOnUse" gradientTransform="matrix(-17.146 31.10227 -30.12213 -16.60568 284.94 103.17)"><stop offset=".08" stop-color="#FFFF54"/><stop offset="1" stop-color="#E1AC3A"/></radialGradient><radialGradient id="f" cx="0" cy="0" r="1" gradientUnits="userSpaceOnUse" gradientTransform="rotate(47.15 17.47 344.1) scale(18.7633 27.6318)"><stop stop-color="#B8A734"/><stop offset="1" stop-color="#E4CC30" stop-opacity="0"/></radialGradient><radialGradient id="g" cx="0" cy="0" r="1" gradientUnits="userSpaceOnUse" gradientTransform="rotate(109.11 104.26 152.6) scale(44.152 43.0066)"><stop offset=".35" stop-color="#F2C341" stop-opacity="0"/><stop offset=".83" stop-color="#CF8B51"/></radialGradient><radialGradient id="i" cx="0" cy="0" r="1" gradientUnits="userSpaceOnUse" gradientTransform="matrix(-73.56256 72.9998 -70.74999 -71.2954 242.43 195)"><stop offset=".2" stop-color="#FBF2F7"/><stop offset=".79" stop-color="#CCBDDE"/></radialGradient><radialGradient id="j" cx="0" cy="0" r="1" gradientUnits="userSpaceOnUse" gradientTransform="matrix(0 16.75 -26.25 0 196.43 187.5)"><stop stop-color="#D6D3D7"/><stop offset="1" stop-color="#D6D3D7" stop-opacity="0"/></radialGradient><radialGradient id="k" cx="0" cy="0" r="1" gradientUnits="userSpaceOnUse" gradientTransform="matrix(-14 0 0 -93.7496 202.68 233.75)"><stop offset=".21" stop-color="#B1A0B8"/><stop offset="1" stop-color="#D1BED4" stop-opacity="0"/></radialGradient><radialGradient id="l" cx="0" cy="0" r="1" gradientUnits="userSpaceOnUse" gradientTransform="matrix(-9.25 0 0 -46.0722 127.93 229)"><stop stop-color="#BEB4C6"/><stop offset="1" stop-color="#BEB4C6" stop-opacity="0"/></radialGradient><radialGradient id="m" cx="0" cy="0" r="1" gradientUnits="userSpaceOnUse" gradientTransform="matrix(17.00016 42.74992 -88.184 35.06772 139.47 176.26)"><stop stop-color="#968F9C"/><stop offset="1" stop-color="#968F9C" stop-opacity="0"/></radialGradient><radialGradient id="o" cx="0" cy="0" r="1" gradientUnits="userSpaceOnUse" gradientTransform="rotate(123.6 19.52 170.91) scale(10.9553 9.29306)"><stop offset=".21" stop-color="#F0DFF0"/><stop offset="1" stop-color="#DCC8EC"/></radialGradient><radialGradient id="q" cx="0" cy="0" r="1" gradientUnits="userSpaceOnUse" gradientTransform="rotate(123.6 23.84 162.86) scale(10.9553 9.29306)"><stop offset=".21" stop-color="#F0DFF0"/><stop offset="1" stop-color="#DCC8EC"/></radialGradient><radialGradient id="r" cx="0" cy="0" r="1" gradientUnits="userSpaceOnUse" gradientTransform="matrix(0 64.25 -19.217 0 212.46 194.26)"><stop stop-color="#9E78C9"/><stop offset="1" stop-color="#6F5EA2"/></radialGradient><radialGradient id="u" cx="0" cy="0" r="1" gradientUnits="userSpaceOnUse" gradientTransform="matrix(0 49.5 -11.1054 0 137.53 211.47)"><stop stop-color="#8566B5"/><stop offset="1" stop-color="#7060A5"/></radialGradient><radialGradient id="v" cx="0" cy="0" r="1" gradientUnits="userSpaceOnUse" gradientTransform="matrix(0 42 -4.87504 0 139.18 219.26)"><stop stop-color="#896BB4"/><stop offset="1" stop-color="#896BB4" stop-opacity="0"/></radialGradient><radialGradient id="w" cx="0" cy="0" r="1" gradientUnits="userSpaceOnUse" gradientTransform="rotate(-69.81 239.53 42.29) scale(68.0941 60.193)"><stop offset=".72" stop-color="#775184" stop-opacity="0"/><stop offset="1" stop-color="#775184"/></radialGradient><radialGradient id="x" cx="0" cy="0" r="1" gradientUnits="userSpaceOnUse" gradientTransform="matrix(0 51.375 -1.48048 0 137.54 200.13)"><stop stop-color="#784B89"/><stop offset="1" stop-color="#784B89" stop-opacity="0"/></radialGradient><radialGradient id="z" cx="0" cy="0" r="1" gradientUnits="userSpaceOnUse" gradientTransform="matrix(-31.24996 19.43777 -34.29534 -55.13638 188.8 192.75)"><stop stop-color="#E8E2EC"/><stop offset="1" stop-color="#C3B7C1"/></radialGradient><radialGradient id="A" cx="0" cy="0" r="1" gradientUnits="userSpaceOnUse" gradientTransform="matrix(-3.75 -.99997 4.37489 -16.40631 188.18 206.25)"><stop offset=".11" stop-color="#DBCDD4"/><stop offset="1" stop-color="#DBCDD4" stop-opacity="0"/></radialGradient><radialGradient id="D" cx="0" cy="0" r="1" gradientUnits="userSpaceOnUse" gradientTransform="rotate(37.73 -239.66 318.66) scale(17.5866 19.3147)"><stop stop-color="#E7377C"/><stop offset="1" stop-color="#D72C5E"/></radialGradient><radialGradient id="E" cx="0" cy="0" r="1" gradientUnits="userSpaceOnUse" gradientTransform="rotate(-164.22 94.04 97.6) scale(14.0459 23.378)"><stop offset=".69" stop-color="#EF4C8B" stop-opacity="0"/><stop offset="1" stop-color="#EF4C8B"/></radialGradient><radialGradient id="F" cx="0" cy="0" r="1" gradientUnits="userSpaceOnUse" gradientTransform="rotate(107.51 2.21 168.49) scale(13.2927 6.29608)"><stop stop-color="#D61F4D"/><stop offset="1" stop-color="#D61F4D" stop-opacity="0"/></radialGradient><radialGradient id="H" cx="0" cy="0" r="1" gradientUnits="userSpaceOnUse" gradientTransform="rotate(142.28 60 139.57) scale(17.5866 19.3147)"><stop stop-color="#E9387A"/><stop offset="1" stop-color="#D02759"/></radialGradient><radialGradient id="I" cx="0" cy="0" r="1" gradientUnits="userSpaceOnUse" gradientTransform="matrix(13.5166 -3.81918 6.3567 22.49719 179.72 217.08)"><stop offset=".69" stop-color="#EF4C8B" stop-opacity="0"/><stop offset="1" stop-color="#EF4C8B"/></radialGradient><radialGradient id="L" cx="0" cy="0" r="1" gradientUnits="userSpaceOnUse" gradientTransform="matrix(-3.13088 0 0 -20.7423 175 215.13)"><stop stop-color="#EC4182"/><stop offset="1" stop-color="#EC4182" stop-opacity="0"/></radialGradient><radialGradient id="Q" cx="0" cy="0" r="1" gradientUnits="userSpaceOnUse" gradientTransform="rotate(65.16 26.12 311.42) scale(15.8383 29.5407)"><stop offset=".13" stop-color="#E2D7ED"/><stop offset="1" stop-color="#D1BEE3"/></radialGradient><radialGradient id="Y" cx="0" cy="0" r="1" gradientUnits="userSpaceOnUse" gradientTransform="matrix(-6.16195 9.87038 -25.41493 -15.86621 59.46 111.36)"><stop offset=".13" stop-color="#E2D7ED"/><stop offset="1" stop-color="#D1BEE3"/></radialGradient><radialGradient id="Z" cx="0" cy="0" r="1" gradientUnits="userSpaceOnUse" gradientTransform="matrix(-3.50108 11.47373 -21.96479 -6.70232 41.45 114.83)"><stop stop-color="#DFD4E9"/><stop offset="1" stop-color="#B88DDC"/></radialGradient><radialGradient id="aa" cx="0" cy="0" r="1" gradientUnits="userSpaceOnUse" gradientTransform="rotate(101.46 -33.65 73.38) scale(12.6727 21.5471)"><stop stop-color="#DFD4E9"/><stop offset="1" stop-color="#B88DDC"/></radialGradient><radialGradient id="ab" cx="0" cy="0" r="1" gradientUnits="userSpaceOnUse" gradientTransform="rotate(104.24 -33.7 77.09) scale(11.2121 20.3698)"><stop stop-color="#DFD4E9"/><stop offset="1" stop-color="#B88DDC"/></radialGradient><radialGradient id="ac" cx="0" cy="0" r="1" gradientUnits="userSpaceOnUse" gradientTransform="rotate(107.68 -31.1 81.48) scale(9.95304 19.2797)"><stop stop-color="#DFD4E9"/><stop offset="1" stop-color="#B88DDC"/></radialGradient><radialGradient id="al" cx="0" cy="0" r="1" gradientUnits="userSpaceOnUse" gradientTransform="rotate(156.91 95.86 78.3) scale(96.9151)"><stop stop-color="#EEEBF0"/><stop offset=".49" stop-color="#D1BEE3"/><stop offset="1" stop-color="#D0BCE2"/></radialGradient><radialGradient id="ao" cx="0" cy="0" r="1" gradientUnits="userSpaceOnUse" gradientTransform="rotate(9.29 -636.62 1368.84) scale(20.7184 79.1903)"><stop stop-color="#F0EAF6"/><stop offset="1" stop-color="#E7E0EF" stop-opacity="0"/></radialGradient><radialGradient id="at" cx="0" cy="0" r="1" gradientUnits="userSpaceOnUse" gradientTransform="rotate(119.04 53.47 69.5) scale(8.50003)"><stop stop-color="#FF6C82"/><stop offset=".44" stop-color="#FF2455"/><stop offset="1" stop-color="#D9206C"/></radialGradient><radialGradient id="av" cx="0" cy="0" r="1" gradientUnits="userSpaceOnUse" gradientTransform="matrix(-4.26308 7.67942 -7.67941 -4.26308 239.78 83.31)"><stop stop-color="#FF6C82"/><stop offset=".44" stop-color="#FF2455"/><stop offset="1" stop-color="#D9206C"/></radialGradient><radialGradient id="aw" cx="0" cy="0" r="1" gradientUnits="userSpaceOnUse" gradientTransform="rotate(-176.31 76.41 52.67) scale(10.5119 14.386)"><stop stop-color="#322649"/><stop offset="1" stop-color="#342950" stop-opacity="0"/></radialGradient><radialGradient id="ax" cx="0" cy="0" r="1" gradientUnits="userSpaceOnUse" gradientTransform="rotate(-176.31 99.51 58.07) scale(10.5119 14.386)"><stop stop-color="#322649"/><stop offset="1" stop-color="#342950" stop-opacity="0"/></radialGradient><radialGradient id="az" cx="0" cy="0" r="1" gradientUnits="userSpaceOnUse" gradientTransform="matrix(-3.20144 11.94792 -39.82628 -10.67142 186.9 73.28)"><stop offset=".43" stop-color="#CA7E29" stop-opacity="0"/><stop offset="1" stop-color="#673F13"/></radialGradient><radialGradient id="aF" cx="0" cy="0" r="1" gradientUnits="userSpaceOnUse" gradientTransform="rotate(105 66.32 150.18) scale(6.18468 4.12312)"><stop stop-color="#FF72C1"/><stop offset="1" stop-color="#FF6EBF" stop-opacity="0"/></radialGradient><radialGradient id="aG" cx="0" cy="0" r="1" gradientUnits="userSpaceOnUse" gradientTransform="rotate(105 60.14 154.92) scale(18.554 2.30664)"><stop stop-color="#FF4B9C"/><stop offset="1" stop-color="#FF73C1" stop-opacity="0"/></radialGradient><radialGradient id="aH" cx="0" cy="0" r="1" gradientUnits="userSpaceOnUse" gradientTransform="rotate(105 71.67 116.6) scale(4.12312)"><stop stop-color="#FFEA60"/><stop offset="1" stop-color="#FFEF66" stop-opacity="0"/></radialGradient><radialGradient id="aJ" cx="0" cy="0" r="1" gradientUnits="userSpaceOnUse" gradientTransform="rotate(118.87 66.93 87.74) scale(75.5901 73.208)"><stop offset=".08" stop-color="#FF894E"/><stop offset="1" stop-color="#E35838"/></radialGradient><radialGradient id="aK" cx="0" cy="0" r="1" gradientUnits="userSpaceOnUse" gradientTransform="matrix(-39.03976 83.17085 -72.65464 -34.10353 177.8 73.2)"><stop offset=".45" stop-color="#DE5534" stop-opacity="0"/><stop offset=".83" stop-color="#B6424C"/></radialGradient><radialGradient id="aL" cx="0" cy="0" r="1" gradientUnits="userSpaceOnUse" gradientTransform="matrix(-23.92214 43.39393 -42.02646 -23.16828 150.1 38.64)"><stop offset=".08" stop-color="#FF894E"/><stop offset="1" stop-color="#E35838"/></radialGradient><radialGradient id="aM" cx="0" cy="0" r="1" gradientUnits="userSpaceOnUse" gradientTransform="rotate(115.14 62.98 67.91) scale(60.2278 52.6125)"><stop offset=".45" stop-color="#DE5534" stop-opacity="0"/><stop offset=".83" stop-color="#B6424C"/></radialGradient><radialGradient id="aN" cx="0" cy="0" r="1" gradientUnits="userSpaceOnUse" gradientTransform="matrix(-3.36756 -11.21898 15.64911 -4.69734 197.22 122.52)"><stop stop-color="#4F65D6"/><stop offset="1" stop-color="#F67947"/></radialGradient><radialGradient id="aP" cx="0" cy="0" r="1" gradientUnits="userSpaceOnUse" gradientTransform="matrix(-3.36756 -11.21898 15.64911 -4.69734 151.49 109.83)"><stop stop-color="#4F65D6"/><stop offset="1" stop-color="#F67947"/></radialGradient><linearGradient id="s" x1="215.18" y1="265" x2="209.18" y2="265" gradientUnits="userSpaceOnUse"><stop stop-color="#7A6CAD"/><stop offset="1" stop-color="#7A6CAD" stop-opacity="0"/></linearGradient><linearGradient id="t" x1="199.83" y1="258.5" x2="203.18" y2="258.5" gradientUnits="userSpaceOnUse"><stop stop-color="#6D5096"/><stop offset="1" stop-color="#7160A4" stop-opacity="0"/></linearGradient><linearGradient id="K" x1="168.78" y1="208.88" x2="168.78" y2="224.87" gradientUnits="userSpaceOnUse"><stop offset=".35" stop-color="#EB3782"/><stop offset="1" stop-color="#C93857"/></linearGradient><linearGradient id="M" x1="278.32" y1="228.3" x2="250.88" y2="198.91" gradientUnits="userSpaceOnUse"><stop stop-color="#EDE7F3"/><stop offset=".91" stop-color="#B9AAC8"/></linearGradient><linearGradient id="N" x1="281.07" y1="228.13" x2="276.04" y2="222.74" gradientUnits="userSpaceOnUse"><stop stop-color="#E0DDE3"/><stop offset="1" stop-color="#E0DDE3" stop-opacity="0"/></linearGradient><linearGradient id="V" x1="97.72" y1="183.19" x2="65.68" y2="201.69" gradientUnits="userSpaceOnUse"><stop stop-color="#ECE4F4"/><stop offset="1" stop-color="#C0B5CD"/></linearGradient><linearGradient id="W" x1="97.74" y1="179.71" x2="91.35" y2="183.4" gradientUnits="userSpaceOnUse"><stop stop-color="#DECFD8"/><stop offset="1" stop-color="#E5DDEE" stop-opacity="0"/></linearGradient><linearGradient id="ae" x1="270.51" y1="25.39" x2="270.51" y2="69.27" gradientUnits="userSpaceOnUse"><stop stop-color="#EEE3F0"/><stop offset="1" stop-color="#C2A1DF"/></linearGradient><linearGradient id="af" x1="269.8" y1="18.83" x2="278.34" y2="50.71" gradientUnits="userSpaceOnUse"><stop stop-color="#453A6C"/><stop offset="1" stop-color="#5C1B25"/></linearGradient><linearGradient id="ag" x1="269.8" y1="18.83" x2="278.34" y2="50.71" gradientUnits="userSpaceOnUse"><stop stop-color="#453A6C"/><stop offset="1" stop-color="#5C1B25"/></linearGradient><linearGradient id="ah" x1="269.8" y1="18.83" x2="278.34" y2="50.71" gradientUnits="userSpaceOnUse"><stop stop-color="#453A6C"/><stop offset="1" stop-color="#5C1B25"/></linearGradient><linearGradient id="ai" x1="269.8" y1="18.83" x2="278.34" y2="50.71" gradientUnits="userSpaceOnUse"><stop stop-color="#453A6C"/><stop offset="1" stop-color="#5C1B25"/></linearGradient><linearGradient id="aj" x1="269.8" y1="18.83" x2="278.34" y2="50.71" gradientUnits="userSpaceOnUse"><stop stop-color="#453A6C"/><stop offset="1" stop-color="#5C1B25"/></linearGradient><linearGradient id="ak" x1="269.8" y1="18.83" x2="278.34" y2="50.71" gradientUnits="userSpaceOnUse"><stop stop-color="#453A6C"/><stop offset="1" stop-color="#5C1B25"/></linearGradient><linearGradient id="am" x1="156.04" y1="124.76" x2="124.17" y2="116.23" gradientUnits="userSpaceOnUse"><stop stop-color="#D5B2C0" stop-opacity="0"/><stop offset="1" stop-color="#B4878D"/></linearGradient><linearGradient id="an" x1="162.36" y1="164.88" x2="158.09" y2="180.81" gradientUnits="userSpaceOnUse"><stop stop-color="#B17EDB" stop-opacity="0"/><stop offset="1" stop-color="#A56BD6"/></linearGradient><linearGradient id="ap" x1="-nan" y1="-nan" x2="-nan" y2="-nan" gradientUnits="userSpaceOnUse"><stop stop-color="#EA248A"/><stop offset="1" stop-color="#DF2232"/></linearGradient><linearGradient id="aq" x1="126.6" y1="91.26" x2="114.86" y2="135.07" gradientUnits="userSpaceOnUse"><stop stop-color="#E93273"/><stop offset="1" stop-color="#D21844"/></linearGradient><linearGradient id="ar" x1="172.28" y1="127.84" x2="179.01" y2="102.71" gradientUnits="userSpaceOnUse"><stop offset=".01" stop-color="#443E75"/><stop offset="1" stop-color="#2F1A3B"/></linearGradient><linearGradient id="as" x1="163.76" y1="159.64" x2="166.74" y2="148.5" gradientUnits="userSpaceOnUse"><stop offset=".01" stop-color="#39325E"/><stop offset="1" stop-color="#2B1831"/></linearGradient><linearGradient id="au" x1="-nan" y1="-nan" x2="-nan" y2="-nan" gradientUnits="userSpaceOnUse"><stop stop-color="#EA248A"/><stop offset="1" stop-color="#DF2232"/></linearGradient><linearGradient id="ay" x1="187.97" y1="69.29" x2="178.26" y2="81.63" gradientUnits="userSpaceOnUse"><stop stop-color="#FFCE2B"/><stop offset="1" stop-color="#D9862D"/></linearGradient><linearGradient id="aA" x1="230.22" y1="118.73" x2="218.47" y2="162.58" gradientUnits="userSpaceOnUse"><stop stop-color="#FF30AA"/><stop offset="1" stop-color="#FF2353"/></linearGradient><linearGradient id="aC" x1="-nan" y1="-nan" x2="-nan" y2="-nan" gradientUnits="userSpaceOnUse"><stop stop-color="#FF96CB"/><stop offset="1" stop-color="#FF6DB7" stop-opacity="0"/></linearGradient><linearGradient id="aE" x1="-nan" y1="-nan" x2="-nan" y2="-nan" gradientUnits="userSpaceOnUse"><stop stop-color="#FF96CB"/><stop offset="1" stop-color="#FF6DB7" stop-opacity="0"/></linearGradient><filter id="h" x="85.44" y="183.38" width="168.46" height="82.42" filterUnits="userSpaceOnUse" color-interpolation-filters="sRGB"><feFlood flood-opacity="0" result="BackgroundImageFix"/><feBlend in="SourceGraphic" in2="BackgroundImageFix" result="shape"/><feColorMatrix in="SourceAlpha" values="0 0 0 0 0 0 0 0 0 0 0 0 0 0 0 0 0 0 127 0" result="hardAlpha"/><feOffset dx="1.6" dy=".8"/><feGaussianBlur stdDeviation="2"/><feComposite in2="hardAlpha" operator="arithmetic" k2="-1" k3="1"/><feColorMatrix values="0 0 0 0 0.615686 0 0 0 0 0.607843 0 0 0 0 0.619608 0 0 0 1 0"/><feBlend in2="shape" result="effect1_innerShadow_675_1256"/></filter><filter id="n" x="159.66" y="246.04" width="16.62" height="16.62" filterUnits="userSpaceOnUse" color-interpolation-filters="sRGB"><feFlood flood-opacity="0" result="BackgroundImageFix"/><feColorMatrix in="SourceAlpha" values="0 0 0 0 0 0 0 0 0 0 0 0 0 0 0 0 0 0 127 0" result="hardAlpha"/><feOffset dx="-.8" dy="1.6"/><feGaussianBlur stdDeviation="1.2"/><feComposite in2="hardAlpha" operator="out"/><feColorMatrix values="0 0 0 0 0.792157 0 0 0 0 0.717647 0 0 0 0 0.788235 0 0 0 1 0"/><feBlend in2="BackgroundImageFix" result="effect1_dropShadow_675_1256"/><feBlend in="SourceGraphic" in2="effect1_dropShadow_675_1256" result="shape"/><feColorMatrix in="SourceAlpha" values="0 0 0 0 0 0 0 0 0 0 0 0 0 0 0 0 0 0 127 0" result="hardAlpha"/><feOffset/><feGaussianBlur stdDeviation=".6"/><feComposite in2="hardAlpha" operator="arithmetic" k2="-1" k3="1"/><feColorMatrix values="0 0 0 0 0.831373 0 0 0 0 0.745098 0 0 0 0 0.803922 0 0 0 1 0"/><feBlend in2="shape" result="effect2_innerShadow_675_1256"/></filter><filter id="p" x="159.66" y="229.94" width="16.62" height="16.62" filterUnits="userSpaceOnUse" color-interpolation-filters="sRGB"><feFlood flood-opacity="0" result="BackgroundImageFix"/><feColorMatrix in="SourceAlpha" values="0 0 0 0 0 0 0 0 0 0 0 0 0 0 0 0 0 0 127 0" result="hardAlpha"/><feOffset dx="-.8" dy="1.6"/><feGaussianBlur stdDeviation="1.2"/><feComposite in2="hardAlpha" operator="out"/><feColorMatrix values="0 0 0 0 0.792157 0 0 0 0 0.717647 0 0 0 0 0.788235 0 0 0 1 0"/><feBlend in2="BackgroundImageFix" result="effect1_dropShadow_675_1256"/><feBlend in="SourceGraphic" in2="effect1_dropShadow_675_1256" result="shape"/><feColorMatrix in="SourceAlpha" values="0 0 0 0 0 0 0 0 0 0 0 0 0 0 0 0 0 0 127 0" result="hardAlpha"/><feOffset/><feGaussianBlur stdDeviation=".6"/><feComposite in2="hardAlpha" operator="arithmetic" k2="-1" k3="1"/><feColorMatrix values="0 0 0 0 0.831373 0 0 0 0 0.745098 0 0 0 0 0.803922 0 0 0 1 0"/><feBlend in2="shape" result="effect2_innerShadow_675_1256"/></filter><filter id="y" x="141.72" y="182.58" width="52.43" height="29.62" filterUnits="userSpaceOnUse" color-interpolation-filters="sRGB"><feFlood flood-opacity="0" result="BackgroundImageFix"/><feBlend in="SourceGraphic" in2="BackgroundImageFix" result="shape"/><feColorMatrix in="SourceAlpha" values="0 0 0 0 0 0 0 0 0 0 0 0 0 0 0 0 0 0 127 0" result="hardAlpha"/><feOffset dx="1.6" dy="-.8"/><feGaussianBlur stdDeviation="1.2"/><feComposite in2="hardAlpha" operator="arithmetic" k2="-1" k3="1"/><feColorMatrix values="0 0 0 0 0.721569 0 0 0 0 0.682353 0 0 0 0 0.74902 0 0 0 1 0"/><feBlend in2="shape" result="effect1_innerShadow_675_1256"/></filter><filter id="B" x="135.22" y="203.06" width="59.46" height="35.68" filterUnits="userSpaceOnUse" color-interpolation-filters="sRGB"><feFlood flood-opacity="0" result="BackgroundImageFix"/><feBlend in="SourceGraphic" in2="BackgroundImageFix" result="shape"/><feGaussianBlur stdDeviation="4" result="effect1_foregroundBlur_675_1256"/></filter><filter id="C" x="143.57" y="205.62" width="21.38" height="22.92" filterUnits="userSpaceOnUse" color-interpolation-filters="sRGB"><feFlood flood-opacity="0" result="BackgroundImageFix"/><feBlend in="SourceGraphic" in2="BackgroundImageFix" result="shape"/><feColorMatrix in="SourceAlpha" values="0 0 0 0 0 0 0 0 0 0 0 0 0 0 0 0 0 0 127 0" result="hardAlpha"/><feOffset/><feGaussianBlur stdDeviation="1.6"/><feComposite in2="hardAlpha" operator="arithmetic" k2="-1" k3="1"/><feColorMatrix values="0 0 0 0 0.780392 0 0 0 0 0.270588 0 0 0 0 0.396078 0 0 0 1 0"/><feBlend in2="shape" result="effect1_innerShadow_675_1256"/></filter><filter id="G" x="172.79" y="205.62" width="21.37" height="22.92" filterUnits="userSpaceOnUse" color-interpolation-filters="sRGB"><feFlood flood-opacity="0" result="BackgroundImageFix"/><feBlend in="SourceGraphic" in2="BackgroundImageFix" result="shape"/><feColorMatrix in="SourceAlpha" values="0 0 0 0 0 0 0 0 0 0 0 0 0 0 0 0 0 0 127 0" result="hardAlpha"/><feOffset/><feGaussianBlur stdDeviation="1.6"/><feComposite in2="hardAlpha" operator="arithmetic" k2="-1" k3="1"/><feColorMatrix values="0 0 0 0 0.780392 0 0 0 0 0.270588 0 0 0 0 0.396078 0 0 0 1 0"/><feBlend in2="shape" result="effect1_innerShadow_675_1256"/></filter><filter id="J" x="162.57" y="208.89" width="12.42" height="15.98" filterUnits="userSpaceOnUse" color-interpolation-filters="sRGB"><feFlood flood-opacity="0" result="BackgroundImageFix"/><feBlend in="SourceGraphic" in2="BackgroundImageFix" result="shape"/><feColorMatrix in="SourceAlpha" values="0 0 0 0 0 0 0 0 0 0 0 0 0 0 0 0 0 0 127 0" result="hardAlpha"/><feOffset/><feGaussianBlur stdDeviation="1"/><feComposite in2="hardAlpha" operator="arithmetic" k2="-1" k3="1"/><feColorMatrix values="0 0 0 0 0.827451 0 0 0 0 0.137255 0 0 0 0 0.317647 0 0 0 1 0"/><feBlend in2="shape" result="effect1_innerShadow_675_1256"/></filter><filter id="O" x="283.16" y="144.32" width="56.46" height="54.35" filterUnits="userSpaceOnUse" color-interpolation-filters="sRGB"><feFlood flood-opacity="0" result="BackgroundImageFix"/><feBlend in="SourceGraphic" in2="BackgroundImageFix" result="shape"/><feColorMatrix in="SourceAlpha" values="0 0 0 0 0 0 0 0 0 0 0 0 0 0 0 0 0 0 127 0" result="hardAlpha"/><feOffset dx="1.2" dy="-.8"/><feGaussianBlur stdDeviation="1.6"/><feComposite in2="hardAlpha" operator="arithmetic" k2="-1" k3="1"/><feColorMatrix values="0 0 0 0 0.709804 0 0 0 0 0.529412 0 0 0 0 0.858824 0 0 0 1 0"/><feBlend in2="shape" result="effect1_innerShadow_675_1256"/></filter><filter id="P" x="283.16" y="146.71" width="39.35" height="51.96" filterUnits="userSpaceOnUse" color-interpolation-filters="sRGB"><feFlood flood-opacity="0" result="BackgroundImageFix"/><feBlend in="SourceGraphic" in2="BackgroundImageFix" result="shape"/><feColorMatrix in="SourceAlpha" values="0 0 0 0 0 0 0 0 0 0 0 0 0 0 0 0 0 0 127 0" result="hardAlpha"/><feOffset dx="1.2" dy="-.8"/><feGaussianBlur stdDeviation="1.6"/><feComposite in2="hardAlpha" operator="arithmetic" k2="-1" k3="1"/><feColorMatrix values="0 0 0 0 0.709804 0 0 0 0 0.529412 0 0 0 0 0.858824 0 0 0 1 0"/><feBlend in2="shape" result="effect1_innerShadow_675_1256"/></filter><filter id="R" x="299.1" y="145.12" width="29.29" height="23.71" filterUnits="userSpaceOnUse" color-interpolation-filters="sRGB"><feFlood flood-opacity="0" result="BackgroundImageFix"/><feBlend in="SourceGraphic" in2="BackgroundImageFix" result="shape"/><feColorMatrix in="SourceAlpha" values="0 0 0 0 0 0 0 0 0 0 0 0 0 0 0 0 0 0 127 0" result="hardAlpha"/><feOffset dx="3.2"/><feGaussianBlur stdDeviation="2.4"/><feComposite in2="hardAlpha" operator="arithmetic" k2="-1" k3="1"/><feColorMatrix values="0 0 0 0 0.713726 0 0 0 0 0.545098 0 0 0 0 0.862745 0 0 0 1 0"/><feBlend in2="shape" result="effect1_innerShadow_675_1256"/></filter><filter id="S" x="306.45" y="150.31" width="32.74" height="24.84" filterUnits="userSpaceOnUse" color-interpolation-filters="sRGB"><feFlood flood-opacity="0" result="BackgroundImageFix"/><feBlend in="SourceGraphic" in2="BackgroundImageFix" result="shape"/><feColorMatrix in="SourceAlpha" values="0 0 0 0 0 0 0 0 0 0 0 0 0 0 0 0 0 0 127 0" result="hardAlpha"/><feOffset dx="3.2"/><feGaussianBlur stdDeviation="2.4"/><feComposite in2="hardAlpha" operator="arithmetic" k2="-1" k3="1"/><feColorMatrix values="0 0 0 0 0.713726 0 0 0 0 0.545098 0 0 0 0 0.862745 0 0 0 1 0"/><feBlend in2="shape" result="effect1_innerShadow_675_1256"/></filter><filter id="T" x="309.74" y="160.97" width="31.61" height="24.32" filterUnits="userSpaceOnUse" color-interpolation-filters="sRGB"><feFlood flood-opacity="0" result="BackgroundImageFix"/><feBlend in="SourceGraphic" in2="BackgroundImageFix" result="shape"/><feColorMatrix in="SourceAlpha" values="0 0 0 0 0 0 0 0 0 0 0 0 0 0 0 0 0 0 127 0" result="hardAlpha"/><feOffset dx="3.2"/><feGaussianBlur stdDeviation="2.4"/><feComposite in2="hardAlpha" operator="arithmetic" k2="-1" k3="1"/><feColorMatrix values="0 0 0 0 0.713726 0 0 0 0 0.545098 0 0 0 0 0.862745 0 0 0 1 0"/><feBlend in2="shape" result="effect1_innerShadow_675_1256"/></filter><filter id="U" x="316.16" y="172.88" width="25.45" height="19.69" filterUnits="userSpaceOnUse" color-interpolation-filters="sRGB"><feFlood flood-opacity="0" result="BackgroundImageFix"/><feBlend in="SourceGraphic" in2="BackgroundImageFix" result="shape"/><feColorMatrix in="SourceAlpha" values="0 0 0 0 0 0 0 0 0 0 0 0 0 0 0 0 0 0 127 0" result="hardAlpha"/><feOffset dx="3.2"/><feGaussianBlur stdDeviation="2.4"/><feComposite in2="hardAlpha" operator="arithmetic" k2="-1" k3="1"/><feColorMatrix values="0 0 0 0 0.713726 0 0 0 0 0.545098 0 0 0 0 0.862745 0 0 0 1 0"/><feBlend in2="shape" result="effect1_innerShadow_675_1256"/></filter><filter id="X" x="41.87" y="102.5" width="31.54" height="44.08" filterUnits="userSpaceOnUse" color-interpolation-filters="sRGB"><feFlood flood-opacity="0" result="BackgroundImageFix"/><feBlend in="SourceGraphic" in2="BackgroundImageFix" result="shape"/><feColorMatrix in="SourceAlpha" values="0 0 0 0 0 0 0 0 0 0 0 0 0 0 0 0 0 0 127 0" result="hardAlpha"/><feOffset dx="1.2" dy="-.8"/><feGaussianBlur stdDeviation="1.6"/><feComposite in2="hardAlpha" operator="arithmetic" k2="-1" k3="1"/><feColorMatrix values="0 0 0 0 0.709804 0 0 0 0 0.529412 0 0 0 0 0.858824 0 0 0 1 0"/><feBlend in2="shape" result="effect1_innerShadow_675_1256"/></filter><filter id="aB" x="127" y="61.35" width="12.72" height="29.31" filterUnits="userSpaceOnUse" color-interpolation-filters="sRGB"><feFlood flood-opacity="0" result="BackgroundImageFix"/><feBlend in="SourceGraphic" in2="BackgroundImageFix" result="shape"/><feGaussianBlur stdDeviation="1.27" result="effect1_foregroundBlur_675_1256"/></filter><filter id="aD" x="226.56" y="88.03" width="12.72" height="29.31" filterUnits="userSpaceOnUse" color-interpolation-filters="sRGB"><feFlood flood-opacity="0" result="BackgroundImageFix"/><feBlend in="SourceGraphic" in2="BackgroundImageFix" result="shape"/><feGaussianBlur stdDeviation="1.27" result="effect1_foregroundBlur_675_1256"/></filter><filter id="aI" x="75.13" y="21.21" width="155.47" height="155.47" filterUnits="userSpaceOnUse" color-interpolation-filters="sRGB"><feFlood flood-opacity="0" result="BackgroundImageFix"/><feBlend in="SourceGraphic" in2="BackgroundImageFix" result="shape"/><feGaussianBlur stdDeviation="16" result="effect1_foregroundBlur_675_1256"/></filter><filter id="aO" x="186.78" y="110.02" width="23.05" height="20.23" filterUnits="userSpaceOnUse" color-interpolation-filters="sRGB"><feFlood flood-opacity="0" result="BackgroundImageFix"/><feBlend in="SourceGraphic" in2="BackgroundImageFix" result="shape"/><feGaussianBlur stdDeviation=".65" result="effect1_foregroundBlur_675_1256"/></filter><filter id="aQ" x="141.27" y="97.54" width="23.08" height="21.14" filterUnits="userSpaceOnUse" color-interpolation-filters="sRGB"><feFlood flood-opacity="0" result="BackgroundImageFix"/><feBlend in="SourceGraphic" in2="BackgroundImageFix" result="shape"/><feGaussianBlur stdDeviation=".65" result="effect1_foregroundBlur_675_1256"/></filter><clipPath id="ad"><rect x="221.79" y="25.39" width="97.45" height="43.87" rx="12" transform="rotate(-15 221.79 25.4)" fill="#fff"/></clipPath></defs></svg>