<svg viewBox="0 0 2560 1440" fill="none" xmlns="http://www.w3.org/2000/svg"><g clip-path="url(#a)"><path fill="#0F111A" d="M0 0h2560v1440H0z"/><g clip-path="url(#b)" fill="#FF5370" opacity=".1"><path fill-rule="evenodd" clip-rule="evenodd" d="M1371.77-122.83c-58.22-6.87-116.38 3.25-179.64 46.65-72.03 49.42-84.72 127.86-99.74 220.72l-.26 1.63c-15.02 92.87-32.69 198.14-119.34 293.29-44.3 48.65-107.86 68.16-180.37 73.6-72.1 5.4-154.3-3.03-237.43-11.56l-1.27-.13c-83.87-8.6-168.74-17.24-246.7-12.44-77.9 4.8-148.02 22.98-202.82 67.34-45.15 36.55-87.22 96.53-124.96 166.65-37.67 70-70.72 149.48-98.06 224.44-27.33 74.95-48.9 145.25-63.64 196.82a2742.05 2742.05 0 0 0-16.84 61.51 1811 1811 0 0 0-5.68 22.41l-.07.28-.02.09-6.86-1.65-6.85-1.66v-.02l.1-.37.27-1.15a1358 1358 0 0 1 5.47-21.49c3.83-14.73 9.52-35.92 16.92-61.82 14.8-51.8 36.48-122.43 63.95-197.78 27.47-75.32 60.78-155.49 98.89-226.3C4.86 645.58 47.99 583.63 95.32 545.3c58-46.95 131.48-65.56 210.84-70.45 79.32-4.88 165.38 3.92 249 12.5l.42.03c83.76 8.6 164.94 16.92 235.78 11.6 70.91-5.31 130.2-24.21 171-69.02 83.56-91.75 100.82-193.13 115.85-286.04l.69-4.3c14.63-90.57 28.2-174.57 105.25-227.43 66.2-45.41 127.82-56.28 189.27-49.03 58.52 6.9 116.83 30.27 178.22 54.86l7.68 3.08c128.76 51.53 274.55 107.06 477.01 38.32 206.4-70.08 364.86-57.35 471.95-26.82 53.5 15.25 94.1 34.93 121.38 50.84a364.3 364.3 0 0 1 30.89 20.04 224.14 224.14 0 0 1 9.9 7.64l.54.46.14.12.05.04.01.01c.01 0 .01.01-4.63 5.32l-4.63 5.32-.02-.01-.09-.08-.42-.36-1.79-1.46c-1.62-1.3-4.08-3.2-7.37-5.6a349.37 349.37 0 0 0-29.69-19.26c-26.39-15.4-65.9-34.56-118.14-49.46-104.38-29.76-259.9-42.52-463.54 26.62-207.59 70.47-357.57 13.13-486.79-38.59l-6.91-2.76c-62.07-24.86-118.79-47.59-175.4-54.27Z"/><path fill-rule="evenodd" clip-rule="evenodd" d="M2241.81 216.96c175.71 59.93 334.6 161.4 411.22 284.93l-5.99 3.71c-75.41-121.55-232.54-222.29-407.5-281.96-174.93-59.66-366.81-77.98-511.21-35.59-67.06 19.69-109.59 61.36-141.05 114.22-27.47 46.14-46.39 100.6-65.77 156.36-2.91 8.35-5.82 16.73-8.77 25.1-22.6 64.2-47.54 128.6-88.45 181.4-41.01 52.94-97.99 94.1-184.4 112.02-142.76 29.6-269.83 19.5-390.5 9.93a5179.78 5179.78 0 0 0-72.63-5.43c-142.53-9.3-278.86-6.14-426.72 78.5-137.42 78.67-268.93 231.89-366.24 365.82a2766.14 2766.14 0 0 0-116.44 174.12 2372.8 2372.8 0 0 0-32.19 53.84 1437.56 1437.56 0 0 0-10.58 18.58l-.54.97-.18.32-3.09-1.69-3.09-1.71.19-.33.55-.99 2.17-3.88c1.91-3.39 4.75-8.39 8.47-14.8a2350.9 2350.9 0 0 1 32.29-54A2776.5 2776.5 0 0 1-21.9 1221.82c97.39-134.05 229.63-288.33 368.44-367.8 149.67-85.67 287.7-88.74 430.67-79.41a5208 5208 0 0 1 73 5.45c120.62 9.57 246.56 19.56 388.25-9.82 84.69-17.56 140.23-57.76 180.26-109.42 40.13-51.8 64.76-115.22 87.37-179.42 2.93-8.34 5.84-16.69 8.73-25.03 19.35-55.7 38.54-110.9 66.4-157.7 32.13-54 75.96-97.08 145.12-117.39 146.27-42.94 339.72-24.26 515.47 35.68Z"/><path d="M290.71 590.8c326.29-225.5 853.75 170.5 996.79-137 117.57-252.77-171.34-417.24-33.5-528 113.55-91.25 255-33.17 429.6 7.04 101.44-13.37 206.55-1.84 308.17 23.76a672.74 672.74 0 0 0 133.73-30.8c392.94-133.41 524.53 155.55 524.53 155.55l-23.86 198.76S2328.1 41.33 1991.77-43.4c-112.66 14.01-215.12-2.34-308.17-23.77-67.17 8.85-132.74 28.62-194.6 62.46-211.41 115.62-36.07 510.56-344.54 631.28C836 747.3 575.85 543.28 290.71 706.5c-208.3 119.24-420.58 442.56-501.6 574.95-4.97 12.11-8.49 22.06-10.38 29.47l-23.86 28.23s12.31-21.85 34.25-57.7c56.27-136.99 299.26-550.82 501.6-690.65Z"/><path fill-rule="evenodd" clip-rule="evenodd" d="M1445.83-119.28c-71.28-8.13-134.81.17-191.39 45.63-17.14 13.78-27.62 28.36-33.09 43.8-5.47 15.45-5.96 31.83-3.04 49.21 5.21 31.03 21.22 65.16 38.92 102.88 2.17 4.61 4.36 9.28 6.56 14 40.31 86.58 83.28 191.16 24.35 317.86-17.93 38.54-41.9 66.09-70.76 85.2-28.86 19.13-62.59 29.79-99.99 34.62-74.79 9.66-164.44-4-259.68-20.18l-23.73-4.05c-88.21-15.11-180.54-30.93-269.98-31.48-97.49-.61-191.47 16.9-272.88 73.17C190.07 661.22 78.8 799.53-14.27 937.58c-89.34 132.53-161.84 264.72-192.37 335.62 41.37-67.13 112.46-176.62 198.28-284.6 89.24-112.3 194.45-223.03 298.73-282.72 142.78-81.73 279.3-71.5 418.55-55.98 7.92.88 15.84 1.78 23.77 2.68 131.68 14.94 266.23 30.2 411.52-26.66 153.85-60.2 187.08-188.75 208.23-317 2.12-12.9 4.13-25.8 6.12-38.61 7.91-50.9 15.64-100.66 30.13-144.8 18.14-55.26 46.91-101.8 99.97-130.83 60.78-33.24 125.11-52.92 191.02-62.03-25.93-6.02-51.11-12.41-75.57-18.62-56.54-14.35-109.2-27.71-158.28-33.3Zm237.81 51.4c-27.14-6.25-53.49-12.94-79.07-19.43-56.59-14.36-109.41-27.76-158.58-33.37-71.49-8.15-135.46.15-192.43 45.93-17.31 13.91-27.96 28.7-33.54 44.43-5.57 15.74-6.04 32.36-3.1 49.92 5.24 31.23 21.35 65.55 39.03 103.22l6.56 14.02c40.3 86.55 82.99 190.59 24.35 316.66-17.83 38.33-41.63 65.67-70.26 84.63-28.64 18.97-62.14 29.58-99.39 34.39-74.54 9.63-163.98-3.98-259.26-20.17l-23.74-4.05C746 533.19 653.57 517.36 564 516.8c-97.66-.61-191.96 16.93-273.7 73.42-101.28 70-212.67 208.5-305.75 346.58-93.06 138.04-167.89 275.75-196.07 344.33a2554.13 2554.13 0 0 0-25.33 42.25c-2.9 4.98-5.13 8.83-6.63 11.44l-1.7 2.97-.43.75-.13.24-.01.02.61.35-.61-.35 1.15.8 23.97-28.35.03-.16c1.89-7.34 5.38-17.24 10.34-29.32 40.51-66.19 113.8-180.06 202.99-292.3 89.22-112.26 194.3-222.81 298.33-282.36 142.35-81.49 278.46-71.32 417.7-55.8 7.93.88 15.87 1.78 23.83 2.68 131.63 14.93 266.5 30.24 412.13-26.75 154.62-60.51 187.95-189.8 209.1-318.1 2.13-12.92 4.14-25.84 6.13-38.67 7.91-50.9 15.62-100.5 30.07-144.51 18.08-55.07 46.67-101.25 99.31-130.04 61.74-33.77 127.18-53.52 194.23-62.37 93.01 21.42 195.48 37.77 308.16 23.77 168.02 42.35 326.5 123.16 443 193.41a2168.5 2168.5 0 0 1 139.21 91.32 1635.29 1635.29 0 0 1 38.35 28.2 932.91 932.91 0 0 1 12.58 9.72l.65.52.2.16h.01l.45-.54-.44.55.99.8 24.03-200.22-.08-.18-.07.03.07-.03-.01-.02-.02-.04-.07-.16-.3-.62a204.13 204.13 0 0 0-6.05-11.38 318.79 318.79 0 0 0-20.33-30.97 365.2 365.2 0 0 0-88.38-84.9c-82.21-55.7-213.57-94.61-410.25-27.84a671.92 671.92 0 0 1-133.45 30.76c-101.6-25.58-206.71-37.12-308.18-23.77Zm304.27 24.24c-109.51 13-209.35-2.58-300.3-23.33 98.89-12.4 201.2-1.28 300.3 23.33Zm7.64.47c166.92 42.63 324.16 122.9 439.91 192.7a2170.22 2170.22 0 0 1 139.3 91.37 1620.82 1620.82 0 0 1 38.38 28.22 962.65 962.65 0 0 1 12.49 9.65l23.68-197.3-.01-.03-.29-.6-.58-1.19-.6-1.2c-1.05-2.07-2.65-5.1-4.83-8.9a316.4 316.4 0 0 0-20.23-30.85 363.83 363.83 0 0 0-88.04-84.57c-81.82-55.43-212.73-94.3-409-27.66a673.76 673.76 0 0 1-130.18 30.36ZM-214.65 1289a2455.52 2455.52 0 0 0-26.02 43.79l18.76-22.19c1.49-5.76 3.93-13.02 7.26-21.6ZM2275.05 519.91c-55.01-8.79-106.7-10.78-148.56-1.73-123.72 26.72-177.44 114.47-230.16 219.45-4.89 9.72-9.76 19.6-14.68 29.58-47.52 96.3-99.69 202.04-209.71 268.2-179.21 107.77-364.29 64.28-537.95 23.48l-17.53-4.11c-181.15-42.38-349.25-76.36-504.86 46.62-77.48 61.24-114.52 145.13-152.6 231.36-3.45 7.84-6.93 15.7-10.44 23.57-41.53 93.05-88.66 186.13-197.5 236.88-102.1 47.59-233.88 34.05-337.17 10.39a1168.87 1168.87 0 0 1-131.06-38.52 1043.45 1043.45 0 0 1-38.88-14.77 695.12 695.12 0 0 1-13.37-5.57l-.74-.32-.26-.11-.02-.01 7.13-16.13 7.13-16.12.17.07.62.27 2.54 1.09c2.26.96 5.63 2.37 10.02 4.14a993 993 0 0 0 37.55 14.26 1132.38 1132.38 0 0 0 127.04 37.35c101.97 23.35 223.64 34.33 314.4-7.98 96.01-44.76 138.76-126.44 180.2-219.3 3.57-7.99 7.13-16.06 10.71-24.2 37.5-85.16 77.97-177.07 162.67-244.01 170.49-134.75 355.38-95.26 534.75-53.29l13.45 3.15c177.08 41.52 349.11 81.85 515.83-18.41 100.67-60.54 148.33-156.82 196.51-254.17 4.82-9.74 9.65-19.49 14.54-29.21 52.98-105.5 113.13-207.62 254.22-238.1 48.02-10.37 104.66-7.71 161.58 1.38 57.14 9.14 115.83 24.98 168.49 41.92a1817.06 1817.06 0 0 1 173.46 66.12 1050.2 1050.2 0 0 1 13.74 6.2l.74.35.26.12h.01c.01.01.01.01-7.48 15.97l-6.4 13.63-1.09 2.33-.04-.02-.16-.07-.67-.31-1.44-.67-1.25-.57a1592.83 1592.83 0 0 0-49.62-21.42 1783.15 1783.15 0 0 0-130.86-48.1c-51.64-16.6-108.48-31.9-163.26-40.66Z"/><path fill-rule="evenodd" clip-rule="evenodd" d="M2276.13 435c-55.08-8.63-108.29-10.7-152.63-1.13-130.66 28.22-186.95 121.72-239.78 226.9-4.9 9.75-9.76 19.59-14.65 29.48-47.76 96.7-98.13 198.64-204.41 262.55-174.2 104.76-354.05 62.54-528.97 21.48l-16.03-3.76c-180.43-42.21-355.25-78.4-516.8 49.29-78.42 61.97-126.96 148.1-175.1 233.53a6130.1 6130.1 0 0 1-17.7 31.26c-54.26 94.99-112.51 185.17-216.38 232.76-94.49 43.29-204.7 30.19-290.83 6.57a799.46 799.46 0 0 1-106.89-37.88 691.14 691.14 0 0 1-31.05-14.41c-3.62-1.8-6.42-3.24-8.32-4.24-.95-.49-1.67-.88-2.16-1.14l-.56-.3-.14-.08-.04-.02h-.01l1.69-3.1 1.7-3.09.03.02.13.07.53.28c.47.25 1.17.63 2.1 1.11 1.85.97 4.61 2.39 8.19 4.17a700.1 700.1 0 0 0 30.73 14.27 792.8 792.8 0 0 0 105.93 37.54c85.6 23.47 193.82 36.06 286.03-6.18 101.62-46.56 158.93-134.86 213.2-229.85 5.9-10.34 11.78-20.77 17.67-31.23 48.05-85.29 97.3-172.7 176.87-235.59 164.53-130.04 342.7-92.75 522.79-50.62l15.21 3.56c175.6 41.21 352.84 82.79 524.55-20.46 104.41-62.79 153.87-162.85 201.77-259.74 4.87-9.85 9.72-19.67 14.61-29.4 52.89-105.3 110.46-201.67 244.61-230.65 45.54-9.84 99.73-7.63 155.21 1.07 55.51 8.7 112.54 23.96 163.88 40.4a1738.18 1738.18 0 0 1 168.71 64.25c4.56 2.03 8.1 3.63 10.5 4.73l2.73 1.26.53.25.35.16.05.03-1.49 3.2-1.51 3.18h-.01l-.04-.02-.17-.08-.68-.32-2.7-1.25a1541.68 1541.68 0 0 0-49.04-21.2 1730.26 1730.26 0 0 0-129.38-47.47c-51.13-16.38-107.79-31.52-162.83-40.16ZM2452.22-447.45c-127.39 76.56-345.07 148.12-708.82 134.82-83.71-3.06-150.62-30.04-212.11-54.84-8.75-3.53-17.38-7.01-25.94-10.38-69.07-27.14-134.42-47.3-219.06-29.02-123.72 26.72-177.44 114.47-230.17 219.45-4.88 9.72-9.75 19.6-14.68 29.58-47.51 96.3-99.68 202.04-209.7 268.2-179.21 107.77-364.3 64.29-537.95 23.48l-17.53-4.11C95.1 87.35-73 53.37-228.6 176.35l-21.86-27.66c170.49-134.75 355.38-95.26 534.75-53.3l13.45 3.16c177.08 41.52 349.1 81.85 515.83-18.4C914.24 19.6 961.9-76.69 1010.08-174.03c4.82-9.74 9.65-19.5 14.53-29.22 52.99-105.5 113.14-207.62 254.23-238.1 95.12-20.55 168.61 2.85 239.4 30.67 8.91 3.5 17.76 7.06 26.59 10.62 61.69 24.81 122.73 49.37 199.86 52.19 358.63 13.1 569.15-57.56 689.37-129.81 60.14-36.15 97.97-72.86 120.6-100.12 11.32-13.64 18.86-24.94 23.51-32.67a146.25 146.25 0 0 0 5.91-10.82l.19-.4c-.01 0-.01.02 16.18 7s16.18 7 16.17 7.01l-.02.05-.04.1-.07.15-.06.15-.43.92c-.35.76-.86 1.8-1.53 3.12-1.33 2.62-3.32 6.3-6.08 10.88-5.51 9.17-14.08 21.95-26.6 37.04-25.08 30.2-65.91 69.55-129.57 107.8Z"/><path fill-rule="evenodd" clip-rule="evenodd" d="M2356.31-319.2c-156.47 51.66-369.31 96.14-594.38 67.2-72.84-9.36-132.62-32.36-189.08-54.09-14.63-5.63-29.04-11.17-43.4-16.37-69.83-25.3-138.86-42.66-227.8-23.44-130.67 28.22-186.96 121.72-239.79 226.9-4.89 9.75-9.75 19.59-14.64 29.48-47.77 96.7-98.14 198.64-204.41 262.55-174.2 104.76-354.06 62.54-528.98 21.48l-16.02-3.76C117.37 148.54-57.45 112.35-219 240.04l-4.38-5.53c164.54-130.04 342.71-92.76 522.8-50.63 5.06 1.2 10.13 2.38 15.2 3.57 175.6 41.2 352.85 82.8 524.55-20.46C943.58 104.2 993.05 4.14 1040.95-92.75c4.86-9.85 9.72-19.67 14.61-29.4 52.88-105.3 110.46-201.67 244.6-230.65 90.82-19.62 161.33-1.78 231.69 23.7 14.59 5.29 29.15 10.9 43.88 16.56 56.38 21.69 115.19 44.3 187.1 53.55 223.66 28.76 435.38-15.44 591.27-66.9 77.92-25.73 141.85-53.25 186.29-74.33a1219.76 1219.76 0 0 0 51.34-25.77 732.26 732.26 0 0 0 16.82-9.26l.86-.5.21-.12.06-.04 1.79 3.04c1.79 3.04 1.78 3.05 1.78 3.05h-.02l-.05.04-.23.13-.88.51-3.48 1.97c-3.06 1.72-7.6 4.23-13.54 7.4a1230.1 1230.1 0 0 1-51.63 25.92 1639.54 1639.54 0 0 1-187.11 74.66ZM2193.53 965.48c-43.52-.64-90.72 10.36-146.21 43.72-91.59 55.08-146.15 141.34-208.67 240.18l-10.16 16.03c-66.41 104.72-142.92 219.51-281.58 312.81-100.12 67.38-199.48 55.42-298.8 34.26a3645.1 3645.1 0 0 1-43.71-9.7c-85.93-19.43-172.7-39.05-268.26-21.83-122.57 22.08-191.8 91.7-262.67 163.92l-2.05 2.08c-69.9 71.26-142.42 145.18-268.83 163.46-129.53 18.73-288.25-27.32-412.4-76.37a1920.85 1920.85 0 0 1-156.13-70.16 1689.33 1689.33 0 0 1-45.88-23.97c-5.38-2.93-9.55-5.24-12.4-6.83l-3.24-1.84-.84-.48-.23-.13-.08-.04 8.8-15.28 8.8-15.28v.01l.05.02.18.1.75.43 3.06 1.73c2.72 1.52 6.75 3.76 11.99 6.61a1677.09 1677.09 0 0 0 44.9 23.46c38.3 19.3 91.93 44.64 153.22 68.86 123.49 48.78 274.7 91.57 394.4 74.26 114.51-16.56 179.67-82.88 250.76-155.34 70.76-72.11 146.92-149.67 281.6-173.93 103.18-18.58 197.64 2.88 283.38 22.36 14.3 3.25 28.36 6.44 42.18 9.39 97.78 20.84 184.37 29.79 271.77-29.02 132.17-88.94 205.42-198.28 271.48-302.44l11.39-17.99c61.26-96.98 120.04-190.02 219.05-249.56 60.59-36.44 114.21-49.5 164.9-48.76 50.19.74 96.31 15.04 141.38 31.12 8.47 3.02 16.92 6.11 25.39 9.2 82.27 30.06 165.93 60.63 280.72 35.84l7.44 34.46c-125.18 27.04-217.94-6.97-300.07-37.08-8.55-3.14-16.98-6.23-25.33-9.2-44.56-15.9-86.03-28.44-130.05-29.08Z"/><path fill-rule="evenodd" clip-rule="evenodd" d="M2497.4 1206.79c-19.41 23.46-46.53 43.32-88.45 57.37-68.92 23.1-137.57 13.28-213.61 2.4-4.31-.62-8.64-1.24-13-1.85-81.07-11.49-170.25-21.99-274.98 7.28-73.48 20.54-108.72 72.99-140.52 131.76-4.6 8.51-9.13 17.15-13.7 25.85-27.06 51.57-55.25 105.3-106.3 147.14-65.92 54.03-133.11 59.04-199.85 63.71l-1.25.09c-66.22 4.64-132.14 9.25-193.52 63.22-63.3 55.66-107.69 153.52-136.22 236.91a1263.92 1263.92 0 0 0-31.48 108 1105.14 1105.14 0 0 0-9.42 42.2l-.46 2.37-.12.61-.04.21 3.47.65 3.47.64v-.01l.03-.18.11-.59.46-2.33a1051.85 1051.85 0 0 1 9.36-41.9 1255.08 1255.08 0 0 1 31.29-107.39c28.49-83.26 72.4-179.55 134.21-233.89 59.58-52.4 123.4-56.87 189.98-61.53l.63-.04c66.7-4.68 136-9.71 203.82-65.29 52.25-42.83 81.15-97.96 108.18-149.52 4.54-8.65 9.02-17.2 13.56-25.58 31.64-58.48 65.68-108.61 136.2-128.32 103.24-28.85 191.16-18.56 272.1-7.09l13.46 1.92c75.59 10.83 145.82 20.89 216.39-2.76 43.04-14.43 71.31-35 91.63-59.56 20.26-24.49 32.47-52.76 43.67-82.23 2.11-5.54 4.18-11.12 6.26-16.73 20.14-54.3 41.41-111.64 105.11-160.27l-4.28-5.6c-65.38 49.91-87.32 109.09-107.43 163.37-2.09 5.63-4.16 11.21-6.25 16.72-11.16 29.37-23.04 56.71-42.51 80.24Z"/></g><g clip-path="url(#c)" fill="#0057FF" opacity=".1"><path fill-rule="evenodd" clip-rule="evenodd" d="M1371.77-156.18c-58.22-6.86-116.38 3.26-179.64 46.66-72.03 49.42-84.72 127.86-99.74 220.72l-.26 1.63c-15.02 92.86-32.69 198.13-119.34 293.29-44.3 48.65-107.86 68.15-180.37 73.59-72.1 5.4-154.3-3.03-237.43-11.55l-1.27-.13c-83.87-8.6-168.74-17.24-246.7-12.44-77.9 4.8-148.02 22.98-202.82 67.33-45.15 36.55-87.22 96.54-124.96 166.66-37.67 69.99-70.72 149.47-98.06 224.44-27.33 74.95-48.9 145.25-63.64 196.82a2742.05 2742.05 0 0 0-16.84 61.51 1811 1811 0 0 0-5.4 21.29l-.28 1.12-.07.28-.02.08-6.86-1.64a695.56 695.56 0 0 1-6.85-1.66v-.02l.1-.37.27-1.15a1358 1358 0 0 1 5.47-21.49c3.83-14.73 9.52-35.93 16.92-61.83 14.8-51.79 36.48-122.42 63.95-197.77 27.47-75.32 60.78-155.5 98.89-226.3 38.04-70.67 81.17-132.61 128.5-170.93 58-46.95 131.48-65.56 210.84-70.45 79.32-4.88 165.38 3.92 249 12.49l.42.04c83.76 8.6 164.94 16.91 235.78 11.6 70.91-5.31 130.2-24.21 171-69.02 83.56-91.75 100.82-193.13 115.85-286.04l.69-4.3c14.63-90.57 28.2-174.57 105.25-227.43 66.2-45.42 127.82-56.28 189.27-49.03 58.52 6.9 116.83 30.26 178.22 54.86l7.68 3.08c128.76 51.53 274.55 107.05 477.01 38.32 206.4-70.08 364.86-57.36 471.95-26.82 53.5 15.25 94.1 34.92 121.38 50.84a364.34 364.34 0 0 1 30.89 20.03 224.21 224.21 0 0 1 9.9 7.65l.54.45.14.13.05.04.01.01-4.63 5.32-4.63 5.32-.02-.02-.09-.07-.42-.36-1.79-1.47c-1.62-1.3-4.08-3.2-7.37-5.6a349.39 349.39 0 0 0-29.69-19.25c-26.39-15.4-65.9-34.57-118.14-49.46-104.38-29.76-259.9-42.52-463.54 26.61-207.59 70.48-357.57 13.14-486.79-38.58-2.31-.92-4.62-1.84-6.91-2.77-62.07-24.86-118.79-47.58-175.4-54.26Z"/><path fill-rule="evenodd" clip-rule="evenodd" d="M2241.81 183.62c175.71 59.93 334.6 161.4 411.22 284.93l-5.99 3.71c-75.41-121.56-232.54-222.29-407.5-281.96-174.93-59.67-366.81-77.98-511.21-35.6-67.06 19.7-109.59 61.36-141.05 114.23-27.47 46.14-46.39 100.59-65.77 156.36-2.91 8.35-5.82 16.72-8.77 25.1-22.6 64.2-47.54 128.6-88.45 181.4-41.01 52.94-97.99 94.1-184.4 112.01-142.76 29.6-269.83 19.52-390.5 9.93a5179.78 5179.78 0 0 0-72.63-5.43c-142.53-9.29-278.86-6.13-426.72 78.5C212.62 905.48 81.11 1058.7-16.2 1192.63a2768.87 2768.87 0 0 0-116.44 174.13 2350.6 2350.6 0 0 0-32.19 53.84c-3.7 6.39-6.52 11.36-8.43 14.74l-2.15 3.83-.54.98-.18.32-3.09-1.7-3.09-1.7.19-.33.55-1 2.17-3.87c1.91-3.39 4.75-8.39 8.47-14.8a2350.9 2350.9 0 0 1 32.29-54c27.9-45.37 68-107.5 116.74-174.58 97.39-134.05 229.63-288.34 368.44-367.8 149.67-85.67 287.7-88.74 430.67-79.41a5208 5208 0 0 1 73 5.45c120.62 9.57 246.56 19.56 388.25-9.82 84.69-17.56 140.23-57.76 180.26-109.43 40.13-51.8 64.76-115.22 87.37-179.42 2.93-8.33 5.84-16.68 8.73-25.02 19.35-55.7 38.54-110.9 66.4-157.7 32.13-54 75.96-97.08 145.12-117.39 146.27-42.94 339.72-24.26 515.47 35.68Z"/><path d="M290.71 557.46c326.29-225.5 853.75 170.5 996.79-137 117.57-252.77-171.34-417.24-33.5-528 113.55-91.25 255-33.18 429.6 7.03 101.44-13.36 206.55-1.83 308.17 23.77a672.78 672.78 0 0 0 133.73-30.8C2518.44-240.95 2650.03 48 2650.03 48l-23.86 198.76S2328.1 7.99 1991.77-76.73c-112.66 14.01-215.12-2.35-308.17-23.78-67.17 8.86-132.74 28.63-194.6 62.47-211.41 115.62-36.07 510.56-344.54 631.28-308.46 120.72-568.61-83.3-853.75 79.91-208.3 119.24-420.58 442.57-501.6 574.95-4.97 12.12-8.49 22.07-10.38 29.48l-23.86 28.22s12.31-21.84 34.25-57.7c56.27-136.98 299.26-550.8 501.6-690.64Z"/><path fill-rule="evenodd" clip-rule="evenodd" d="M1445.83-152.62c-71.28-8.13-134.81.16-191.39 45.63-17.14 13.77-27.62 28.36-33.09 43.8-5.47 15.45-5.96 31.82-3.04 49.21 5.21 31.03 21.22 65.16 38.92 102.88 2.17 4.61 4.36 9.28 6.56 14 40.31 86.58 83.28 191.16 24.35 317.85-17.93 38.55-41.9 66.1-70.76 85.22-28.86 19.11-62.59 29.78-99.99 34.6-74.79 9.66-164.44-3.99-259.68-20.17l-23.73-4.05c-88.21-15.11-180.54-30.93-269.98-31.49-97.49-.6-191.47 16.91-272.88 73.18C190.07 627.87 78.8 766.19-14.27 904.24c-89.34 132.53-161.84 264.71-192.37 335.61 41.37-67.12 112.46-176.61 198.28-284.59 89.24-112.3 194.45-223.03 298.73-282.72 142.78-81.73 279.3-71.5 418.55-55.98 7.92.88 15.84 1.78 23.77 2.68 131.68 14.93 266.23 30.2 411.52-26.66 153.85-60.2 187.08-188.75 208.23-317 2.12-12.9 4.13-25.8 6.12-38.61 7.91-50.9 15.64-100.67 30.13-144.8 18.14-55.27 46.91-101.81 99.97-130.83 60.78-33.24 125.11-52.93 191.02-62.03-25.93-6.03-51.11-12.42-75.57-18.62-56.54-14.35-109.2-27.72-158.28-33.31Zm237.81 51.4c-27.14-6.25-53.49-12.94-79.07-19.43-56.59-14.36-109.41-27.76-158.58-33.37-71.49-8.15-135.46.14-192.43 45.93-17.31 13.9-27.96 28.7-33.54 44.43-5.57 15.73-6.04 32.36-3.1 49.92 5.24 31.23 21.35 65.55 39.03 103.22l6.56 14.02c40.3 86.55 82.99 190.59 24.35 316.66-17.83 38.33-41.63 65.67-70.26 84.63-28.64 18.97-62.14 29.58-99.39 34.39-74.54 9.62-163.98-3.98-259.26-20.17l-23.74-4.06c-88.2-15.1-180.64-30.94-270.2-31.5-97.66-.6-191.96 16.94-273.7 73.43-101.28 70-212.67 208.5-305.75 346.57-93.06 138.05-167.89 275.76-196.07 344.33a2546.92 2546.92 0 0 0-25.33 42.26c-2.9 4.98-5.13 8.83-6.63 11.44l-1.7 2.97-.43.75-.13.24-.01.01v.01l.61.34-.61-.34 1.15.8 23.97-28.35.03-.16c1.89-7.35 5.38-17.24 10.34-29.33 40.51-66.18 113.8-180.06 202.99-292.28 89.22-112.27 194.3-222.82 298.33-282.37 142.35-81.49 278.46-71.32 417.7-55.81 7.93.88 15.87 1.78 23.83 2.69 131.63 14.93 266.5 30.23 412.13-26.76 154.62-60.5 187.95-189.8 209.1-318.09 2.13-12.93 4.14-25.84 6.13-38.68 7.91-50.89 15.62-100.5 30.07-144.5 18.08-55.07 46.67-101.25 99.31-130.05 61.74-33.77 127.18-53.51 194.23-62.36 93.01 21.41 195.48 37.77 308.16 23.77 168.02 42.34 326.5 123.16 443 193.4a2168.5 2168.5 0 0 1 139.21 91.33 1635.29 1635.29 0 0 1 38.35 28.2 919.85 919.85 0 0 1 13.23 10.24l.2.16h.01l.45-.54-.44.55.99.79 24.03-200.21-.08-.18-.07.03.07-.04h-.01l-.02-.05-.07-.16a204.13 204.13 0 0 0-6.35-12 318.8 318.8 0 0 0-20.33-30.98 365.2 365.2 0 0 0-88.38-84.9c-82.21-55.7-213.57-94.6-410.25-27.83a671.94 671.94 0 0 1-133.45 30.76c-101.6-25.59-206.71-37.12-308.18-23.77Zm304.27 24.24c-109.51 13-209.35-2.59-300.3-23.33 98.89-12.4 201.2-1.28 300.3 23.33Zm7.64.47c166.92 42.63 324.16 122.89 439.91 192.7a2170.22 2170.22 0 0 1 139.3 91.37 1620.82 1620.82 0 0 1 38.38 28.22 962.65 962.65 0 0 1 12.49 9.65l23.68-197.3-.01-.03-.29-.61-.58-1.18-.6-1.2c-1.05-2.07-2.65-5.1-4.83-8.9a316.41 316.41 0 0 0-20.23-30.85 363.83 363.83 0 0 0-88.04-84.57c-81.82-55.44-212.73-94.3-409-27.67a673.75 673.75 0 0 1-130.18 30.37Zm-2210.2 1332.16a2522.52 2522.52 0 0 0-26.02 43.79l18.76-22.2c1.49-5.76 3.93-13.01 7.26-21.59ZM2275.05 486.57c-55.01-8.8-106.7-10.78-148.56-1.73-123.72 26.72-177.44 114.47-230.16 219.45-4.89 9.72-9.76 19.6-14.68 29.58-47.52 96.3-99.69 202.04-209.71 268.2-179.21 107.77-364.29 64.28-537.95 23.48l-17.53-4.11c-181.15-42.38-349.25-76.36-504.86 46.62-77.48 61.24-114.52 145.13-152.6 231.36-3.45 7.84-6.93 15.7-10.44 23.56-41.53 93.06-88.66 186.14-197.5 236.88-102.1 47.6-233.88 34.05-337.17 10.4a1168.87 1168.87 0 0 1-131.06-38.52 1061.74 1061.74 0 0 1-38.88-14.77 695.12 695.12 0 0 1-13.37-5.57l-.74-.32-.26-.12h-.02l7.13-16.13a5269.6 5269.6 0 0 0 7.13-16.13l.17.08.62.27 2.54 1.09c2.26.96 5.63 2.37 10.02 4.14 8.77 3.54 21.57 8.54 37.55 14.26 31.99 11.45 76.58 25.79 127.04 37.35 101.97 23.35 223.64 34.33 314.4-7.98 96.01-44.77 138.76-126.44 180.2-219.3 3.57-7.99 7.13-16.07 10.71-24.2 37.5-85.16 77.97-177.07 162.67-244.02 170.49-134.74 355.38-95.25 534.75-53.29l13.45 3.16c177.08 41.51 349.11 81.85 515.83-18.4 100.67-60.55 148.33-156.84 196.51-254.18 4.82-9.74 9.65-19.49 14.54-29.22 52.98-105.49 113.13-207.61 254.22-238.1 48.02-10.36 104.66-7.7 161.58 1.4 57.14 9.13 115.83 24.97 168.49 41.91a1817.06 1817.06 0 0 1 173.46 66.12 1076.88 1076.88 0 0 1 14.48 6.55l.26.12h.01c.01 0 .01.01-7.48 15.97l-6.4 13.63-1.09 2.33-.04-.02-.16-.07-.67-.31-1.44-.67-1.25-.57a1592.83 1592.83 0 0 0-49.62-21.42 1783.15 1783.15 0 0 0-130.86-48.1c-51.64-16.6-108.48-31.9-163.26-40.66Z"/><path fill-rule="evenodd" clip-rule="evenodd" d="M2276.13 401.66c-55.08-8.64-108.29-10.71-152.63-1.13-130.66 28.22-186.95 121.72-239.78 226.9-4.9 9.75-9.76 19.59-14.65 29.48-47.76 96.7-98.13 198.64-204.41 262.55-174.2 104.76-354.05 62.54-528.97 21.48l-16.03-3.76c-180.43-42.21-355.25-78.4-516.8 49.29-78.42 61.97-126.96 148.1-175.1 233.53a6130.1 6130.1 0 0 1-17.7 31.26c-54.26 94.99-112.51 185.17-216.38 232.76-94.49 43.28-204.7 30.18-290.83 6.57a799.46 799.46 0 0 1-106.89-37.88 700.63 700.63 0 0 1-31.05-14.42c-3.62-1.8-6.42-3.24-8.32-4.23l-2.16-1.14-.56-.3-.14-.08-.04-.02-.01-.01 1.69-3.09 1.7-3.09.03.02.13.07.53.28c.47.25 1.17.63 2.1 1.11 1.85.97 4.61 2.39 8.19 4.17a700.1 700.1 0 0 0 30.73 14.27 792.8 792.8 0 0 0 105.93 37.54c85.6 23.47 193.82 36.06 286.03-6.18 101.62-46.56 158.93-134.86 213.2-229.85a6145.5 6145.5 0 0 0 17.67-31.23c48.05-85.29 97.3-172.7 176.87-235.6 164.53-130.03 342.7-92.75 522.79-50.61l15.21 3.56c175.6 41.2 352.84 82.79 524.55-20.47 104.41-62.78 153.87-162.84 201.77-259.74 4.87-9.84 9.72-19.66 14.61-29.4 52.89-105.29 110.46-201.66 244.61-230.64 45.54-9.84 99.73-7.63 155.21 1.07 55.51 8.7 112.54 23.96 163.88 40.4a1737.78 1737.78 0 0 1 168.71 64.25c4.56 2.03 8.1 3.63 10.5 4.73l2.73 1.26.53.25.35.16.05.03-1.49 3.19-1.51 3.19h-.01l-.04-.03-.17-.08-.68-.31-2.7-1.25a1541 1541 0 0 0-49.04-21.2 1729.86 1729.86 0 0 0-129.38-47.47c-51.13-16.38-107.79-31.52-162.83-40.16ZM2452.22-480.8c-127.39 76.57-345.07 148.12-708.82 134.83-83.71-3.06-150.62-30.05-212.11-54.84-8.75-3.53-17.38-7.01-25.94-10.38-69.07-27.14-134.42-47.3-219.06-29.02-123.72 26.72-177.44 114.47-230.17 219.45-4.88 9.72-9.75 19.6-14.68 29.58-47.51 96.3-99.68 202.04-209.7 268.2-179.21 107.77-364.3 64.28-537.95 23.48l-17.53-4.11C95.1 54-73 20.03-228.6 143l-21.86-27.67C-79.97-19.4 104.92 20.1 284.29 62.05l13.45 3.16c177.08 41.51 349.1 81.85 515.83-18.41 100.67-60.54 148.33-156.83 196.51-254.17 4.82-9.74 9.65-19.49 14.53-29.22 52.99-105.49 113.14-207.61 254.23-238.1 95.12-20.54 168.61 2.86 239.4 30.68 8.91 3.5 17.76 7.06 26.59 10.61 61.69 24.82 122.73 49.37 199.86 52.2 358.63 13.1 569.15-57.56 689.37-129.82 60.14-36.14 97.97-72.86 120.6-100.1 11.32-13.65 18.86-24.95 23.51-32.68a145.98 145.98 0 0 0 5.91-10.82l.19-.41c-.01.01-.01.03 16.18 7 16.19 6.99 16.18 7 16.17 7.02l-.02.04-.04.11-.07.15-.06.15-.43.92a174.43 174.43 0 0 1-7.61 14c-5.51 9.17-14.08 21.95-26.6 37.03-25.08 30.2-65.91 69.56-129.57 107.82Z"/><path fill-rule="evenodd" clip-rule="evenodd" d="M2356.31-352.54c-156.47 51.66-369.31 96.14-594.38 67.2-72.84-9.36-132.62-32.36-189.08-54.1a2328.91 2328.91 0 0 0-43.4-16.36c-69.83-25.3-138.86-42.66-227.8-23.45-130.67 28.23-186.96 121.73-239.79 226.91-4.89 9.74-9.75 19.59-14.64 29.48-47.77 96.69-98.14 198.64-204.41 262.55-174.2 104.75-354.06 62.54-528.98 21.48l-16.02-3.76C117.37 115.19-57.45 79.01-219 206.7l-4.38-5.53c164.54-130.04 342.71-92.76 522.8-50.63l15.2 3.57c175.6 41.2 352.85 82.79 524.55-20.47C943.58 70.86 993.05-29.2 1040.95-126.1c4.86-9.84 9.72-19.66 14.61-29.4 52.88-105.29 110.46-201.66 244.6-230.64 90.82-19.62 161.33-1.78 231.69 23.7 14.59 5.29 29.15 10.89 43.88 16.55 56.38 21.7 115.19 44.31 187.1 53.56 223.66 28.76 435.38-15.44 591.27-66.9 77.92-25.73 141.85-53.25 186.29-74.34a1219.76 1219.76 0 0 0 51.34-25.76 732.26 732.26 0 0 0 16.82-9.26l.86-.5.21-.12.06-.04 1.79 3.04 1.78 3.04-.02.01-.05.04-.23.13-.88.51-3.48 1.97c-3.06 1.72-7.6 4.23-13.54 7.4a1230.1 1230.1 0 0 1-51.63 25.92c-44.66 21.18-108.86 48.82-187.11 74.65ZM2193.53 932.14c-43.52-.64-90.72 10.35-146.21 43.72-91.59 55.08-146.15 141.33-208.67 240.17l-10.16 16.04c-66.41 104.72-142.92 219.51-281.58 312.81-100.12 67.38-199.48 55.42-298.8 34.25-14.57-3.1-29.13-6.39-43.71-9.69-85.93-19.43-172.7-39.05-268.26-21.84-122.57 22.08-191.8 91.7-262.67 163.93l-2.05 2.08c-69.9 71.25-142.42 145.18-268.83 163.45-129.53 18.73-288.25-27.31-412.4-76.36a1920.85 1920.85 0 0 1-156.13-70.16 1689.33 1689.33 0 0 1-45.88-23.97c-5.38-2.93-9.55-5.24-12.4-6.83l-3.24-1.84-.84-.48-.23-.13-.08-.04 8.8-15.28 8.8-15.28.05.03.18.1.75.43 3.06 1.73c2.72 1.52 6.75 3.76 11.99 6.61a1677.09 1677.09 0 0 0 44.9 23.46 1889.1 1889.1 0 0 0 153.22 68.86c123.49 48.78 274.7 91.56 394.4 74.26 114.51-16.56 179.67-82.88 250.76-155.34 70.76-72.12 146.92-149.67 281.6-173.93 103.18-18.58 197.64 2.88 283.38 22.36 14.3 3.25 28.36 6.44 42.18 9.39 97.78 20.83 184.37 29.78 271.77-29.02 132.17-88.94 205.42-198.28 271.48-302.44l11.39-18c61.26-96.98 120.04-190.01 219.05-249.55 60.59-36.44 114.21-49.5 164.9-48.76 50.19.74 96.31 15.04 141.38 31.12 8.47 3.02 16.92 6.1 25.39 9.2 82.27 30.06 165.93 60.63 280.72 35.83l7.44 34.47c-125.18 27.04-217.94-6.97-300.07-37.09-8.55-3.13-16.98-6.22-25.33-9.2-44.56-15.9-86.03-28.43-130.05-29.07Z"/><path fill-rule="evenodd" clip-rule="evenodd" d="M2497.4 1173.45c-19.41 23.46-46.53 43.32-88.45 57.37-68.92 23.1-137.57 13.28-213.61 2.4l-13-1.86c-81.07-11.48-170.25-21.99-274.98 7.29-73.48 20.53-108.72 72.99-140.52 131.75-4.6 8.51-9.13 17.15-13.7 25.85-27.06 51.58-55.25 105.3-106.3 147.15-65.92 54.03-133.11 59.03-199.85 63.71l-1.25.09c-66.22 4.63-132.14 9.25-193.52 63.22-63.3 55.66-107.69 153.51-136.22 236.91a1263.92 1263.92 0 0 0-31.48 108 1105.14 1105.14 0 0 0-9.42 42.2 148.92 148.92 0 0 0-.58 2.98l-.04.21 3.47.64 3.47.64v-.01l.03-.18.11-.59.46-2.33a1051.85 1051.85 0 0 1 9.36-41.89 1252.99 1252.99 0 0 1 31.29-107.39c28.49-83.26 72.4-179.55 134.21-233.89 59.58-52.4 123.4-56.87 189.98-61.53l.63-.05c66.7-4.67 136-9.7 203.82-65.28 52.25-42.84 81.15-97.97 108.18-149.52 4.54-8.65 9.02-17.2 13.56-25.58 31.64-58.49 65.68-108.61 136.2-128.32 103.24-28.85 191.16-18.56 272.1-7.09 4.5.63 8.99 1.28 13.46 1.92 75.59 10.83 145.82 20.89 216.39-2.77 43.04-14.42 71.31-34.99 91.63-59.55 20.26-24.49 32.47-52.76 43.67-82.24 2.11-5.53 4.18-11.11 6.26-16.73 20.14-54.29 41.41-111.63 105.11-160.26l-4.28-5.61c-65.38 49.92-87.32 109.1-107.43 163.38-2.09 5.63-4.16 11.21-6.25 16.72-11.16 29.37-23.04 56.71-42.51 80.24Z"/></g><g clip-path="url(#d)" fill="#FF5370" opacity=".1"><path fill-rule="evenodd" clip-rule="evenodd" d="M1188.23 1842.31c58.22 6.87 116.38-3.26 179.64-46.65 72.03-49.42 84.72-127.86 99.74-220.72l.26-1.63c15.02-92.87 32.69-198.14 119.34-293.29 44.31-48.65 107.86-68.16 180.37-73.59 72.1-5.41 154.31 3.02 237.44 11.55l1.26.13c83.87 8.6 168.74 17.24 246.69 12.44 77.91-4.8 148.03-22.98 202.83-67.34 45.15-36.55 87.22-96.53 124.96-166.65 37.67-70 70.72-149.48 98.06-224.45 27.33-74.94 48.9-145.24 63.63-196.81a2775.63 2775.63 0 0 0 16.85-61.51c1.9-7.32 3.35-13.02 4.32-16.9l1.09-4.4.27-1.12.07-.27.02-.09 6.86 1.65 6.85 1.66v.02l-.09.37-.28 1.14-1.11 4.47c-.98 3.91-2.44 9.66-4.36 17.03a2713.9 2713.9 0 0 1-16.92 61.82c-14.81 51.8-36.48 122.43-63.95 197.78-27.47 75.32-60.78 155.49-98.89 226.29-38.04 70.67-81.17 132.62-128.5 170.93-58.01 46.96-131.48 65.57-210.84 70.46-79.32 4.88-165.38-3.92-248.99-12.49l-.42-.05c-83.77-8.58-164.95-16.91-235.79-11.6-70.91 5.32-130.19 24.22-171 69.03-83.56 91.75-100.82 193.13-115.85 286.04l-.69 4.31c-14.63 90.56-28.2 174.56-105.25 227.42-66.2 45.41-127.82 56.28-189.27 49.03-58.52-6.9-116.83-30.27-178.22-54.86l-7.68-3.08c-128.76-51.54-274.55-107.06-477.01-38.32-206.4 70.07-364.86 57.35-471.95 26.82-53.5-15.25-94.1-34.93-121.38-50.84a364.4 364.4 0 0 1-30.9-20.04 223.61 223.61 0 0 1-9.9-7.65 18.9 18.9 0 0 1-.53-.45l-.14-.12-.05-.04-.01-.01c0-.01-.01-.01 4.63-5.33l4.63-5.31.02.01.09.08.42.36c.39.32.99.82 1.8 1.46 1.61 1.3 4.07 3.21 7.36 5.61a350.56 350.56 0 0 0 29.69 19.24c26.4 15.4 65.9 34.57 118.14 49.47 104.38 29.75 259.9 42.52 463.54-26.62 207.59-70.47 357.57-13.14 486.79 38.58l6.91 2.77c62.07 24.86 118.79 47.58 175.4 54.26Z"/><path fill-rule="evenodd" clip-rule="evenodd" d="M318.19 1502.51c-175.71-59.92-334.6-161.4-411.22-284.92l5.99-3.72c75.4 121.56 232.54 222.3 407.5 281.97 174.93 59.66 366.81 77.98 511.21 35.59 67.06-19.69 109.59-61.36 141.05-114.22 27.47-46.14 46.39-100.59 65.77-156.36 2.91-8.35 5.82-16.73 8.77-25.11 22.6-64.19 47.54-128.6 88.45-181.4 41.01-52.93 97.99-94.1 184.4-112 142.76-29.61 269.83-19.52 390.49-9.94 24.45 1.95 48.64 3.87 72.64 5.43 142.53 9.3 278.86 6.14 426.72-78.5 137.42-78.67 268.93-231.89 366.24-365.82a2767.65 2767.65 0 0 0 116.44-174.13 2361.64 2361.64 0 0 0 32.19-53.83 1436.17 1436.17 0 0 0 11.12-19.55l.18-.32 3.09 1.7 3.08 1.7-.18.33-.55 1-2.17 3.86c-1.91 3.4-4.75 8.4-8.47 14.81a2330.8 2330.8 0 0 1-32.29 54c-27.91 45.36-68 107.5-116.74 174.58-97.39 134.05-229.63 288.33-368.44 367.79-149.67 85.68-287.69 88.74-430.67 79.42-24.17-1.58-48.48-3.5-73-5.45-120.62-9.57-246.56-19.56-388.25 9.82-84.69 17.56-140.23 57.76-180.26 109.42-40.13 51.8-64.76 115.22-87.37 179.42-2.93 8.34-5.84 16.69-8.73 25.02-19.35 55.7-38.54 110.91-66.4 157.71-32.13 53.99-75.95 97.08-145.12 117.39-146.27 42.94-339.72 24.26-515.47-35.69Z"/><path d="M2269.29 1128.68c-326.29 225.5-853.75-170.5-996.79 137-117.57 252.77 171.34 417.24 33.5 528-113.55 91.24-255 33.17-429.6-7.04-101.44 13.37-206.55 1.83-308.17-23.77a672.7 672.7 0 0 0-133.73 30.81C41.56 1927.09-90.03 1638.13-90.03 1638.13l23.86-198.76s298.07 238.78 634.4 323.5c112.66-14.01 215.12 2.34 308.17 23.77 67.17-8.85 132.74-28.62 194.6-62.46 211.41-115.63 36.07-510.56 344.54-631.28 308.46-120.72 568.61 83.3 853.75-79.92 208.3-119.24 420.58-442.56 501.59-574.95 4.98-12.11 8.5-22.07 10.39-29.47l23.86-28.23s-12.31 21.85-34.25 57.7c-56.27 136.99-299.26 550.82-501.59 690.65Z"/><path fill-rule="evenodd" clip-rule="evenodd" d="M1114.17 1838.76c71.28 8.12 134.81-.17 191.39-45.63 17.14-13.78 27.62-28.36 33.09-43.81 5.47-15.45 5.96-31.82 3.04-49.21-5.21-31.02-21.22-65.15-38.92-102.87l-6.56-14.01c-40.31-86.58-83.28-191.15-24.35-317.85 17.93-38.54 41.9-66.09 70.76-85.21 28.86-19.12 62.59-29.78 99.99-34.61 74.79-9.66 164.44 3.99 259.68 20.18 7.87 1.33 15.78 2.69 23.73 4.05 88.21 15.11 180.54 30.92 269.98 31.48 97.49.61 191.47-16.91 272.88-73.17 101.05-69.84 212.32-208.15 305.39-346.2 89.34-132.53 161.84-264.72 192.37-335.62-41.37 67.13-112.46 176.62-198.28 284.6-89.24 112.3-194.45 223.03-298.73 282.71-142.78 81.74-279.31 71.5-418.55 55.99-7.92-.88-15.84-1.78-23.77-2.68-131.68-14.94-266.23-30.2-411.52 26.66-153.85 60.21-187.08 188.75-208.23 317-2.12 12.9-4.13 25.79-6.12 38.61-7.91 50.9-15.64 100.66-30.13 144.79-18.14 55.27-46.91 101.82-99.97 130.84-60.78 33.24-125.11 52.92-191.02 62.03a3757.88 3757.88 0 0 1 75.57 18.62c56.54 14.35 109.2 27.71 158.28 33.31Zm-237.8-51.4c27.13 6.25 53.48 12.94 79.06 19.43 56.59 14.36 109.41 27.76 158.58 33.37 71.49 8.15 135.46-.15 192.43-45.93 17.31-13.91 27.96-28.7 33.54-44.43 5.57-15.74 6.04-32.36 3.1-49.92-5.24-31.23-21.35-65.55-39.03-103.22-2.17-4.63-4.36-9.3-6.56-14.03-40.3-86.54-82.99-190.58-24.35-316.65 17.83-38.33 41.63-65.67 70.26-84.63 28.64-18.97 62.14-29.58 99.39-34.39 74.54-9.63 163.98 3.98 259.26 20.17 7.88 1.33 15.79 2.69 23.74 4.05 88.2 15.11 180.64 30.94 270.2 31.5 97.66.61 191.96-16.93 273.69-73.42 101.29-70 212.68-208.51 305.76-346.58 93.06-138.04 167.89-275.75 196.07-344.33a2614.03 2614.03 0 0 0 25.33-42.26 1635.2 1635.2 0 0 0 8.33-14.4l.43-.76.13-.24h.01v-.01l-.61-.35.61.35-1.15-.8-23.96 28.35-.04.15c-1.89 7.35-5.38 17.25-10.35 29.33-40.5 66.19-113.79 180.06-202.98 292.29-89.22 112.27-194.3 222.82-298.33 282.37-142.35 81.49-278.46 71.32-417.7 55.81l-23.83-2.69c-131.63-14.93-266.5-30.24-412.13 26.75-154.62 60.51-187.95 189.8-209.1 318.1a4114.77 4114.77 0 0 0-6.13 38.67c-7.91 50.89-15.62 100.5-30.07 144.51-18.08 55.07-46.67 101.25-99.31 130.04-61.74 33.77-127.18 53.52-194.23 62.37-93.01-21.42-195.48-37.77-308.16-23.77-168.02-42.35-326.5-123.16-443-193.41a2169.29 2169.29 0 0 1-139.2-91.32 1582.2 1582.2 0 0 1-38.36-28.2c-4.4-3.34-7.76-5.95-10.02-7.71-1.13-.89-2-1.56-2.56-2.02-.3-.22-.5-.39-.65-.51l-.2-.16-.01-.01-.45.55.44-.55-.99-.79-24.03 200.21.08.18.07-.03-.07.03v.01l.03.05.07.15.3.63 1.19 2.4c1.06 2.09 2.67 5.14 4.86 8.97a319.2 319.2 0 0 0 20.33 30.98 365.26 365.26 0 0 0 88.38 84.91c82.2 55.69 213.57 94.6 410.25 27.83 46-15.62 90.47-25.4 133.45-30.76 101.6 25.58 206.71 37.12 308.18 23.77Zm-304.28-24.24c109.51-13 209.35 2.58 300.3 23.33-98.89 12.39-201.2 1.28-300.3-23.33Zm-7.64-.48c-166.92-42.62-324.16-122.88-439.91-192.69a2169.15 2169.15 0 0 1-139.3-91.37 1611.46 1611.46 0 0 1-38.38-28.22c-4.4-3.35-7.77-5.96-10.04-7.73l-2.45-1.92-23.68 197.3v.03l.3.61.58 1.18.6 1.19a213.1 213.1 0 0 0 4.83 8.91 316.33 316.33 0 0 0 20.23 30.84 363.9 363.9 0 0 0 88.04 84.58c81.82 55.43 212.73 94.3 409 27.66a673.7 673.7 0 0 1 130.18-30.37Zm2210.2-1332.15a2445.44 2445.44 0 0 0 26.02-43.8l-18.76 22.2c-1.49 5.76-3.93 13.02-7.26 21.6ZM284.95 1199.56c55.01 8.8 106.7 10.78 148.56 1.74 123.72-26.72 177.44-114.47 230.16-219.45 4.89-9.73 9.76-19.6 14.69-29.58 47.51-96.3 99.68-202.04 209.7-268.2 179.21-107.77 364.29-64.29 537.95-23.49l17.53 4.12c181.15 42.38 349.25 76.36 504.85-46.62 77.49-61.24 114.53-145.13 152.6-231.36 3.47-7.84 6.94-15.7 10.45-23.57 41.53-93.05 88.65-186.13 197.5-236.88 102.1-47.6 233.88-34.05 337.17-10.4a1167.58 1167.58 0 0 1 131.06 38.53c16.48 5.9 29.72 11.06 38.88 14.77a707.36 707.36 0 0 1 13.37 5.57l.74.32.26.11.02.01-7.13 16.13-7.13 16.12-.17-.07-.62-.27-2.54-1.09c-2.26-.96-5.63-2.37-10.02-4.14a1005.2 1005.2 0 0 0-37.55-14.26c-31.99-11.46-76.58-25.8-127.04-37.35-101.97-23.35-223.64-34.33-314.4 7.98-96.01 44.76-138.75 126.44-180.2 219.3a4530.6 4530.6 0 0 0-10.71 24.2c-37.5 85.16-77.97 177.07-162.67 244.01-170.49 134.74-355.38 95.26-534.75 53.3l-13.45-3.16c-177.08-41.52-349.11-81.85-515.83 18.4-100.67 60.55-148.33 156.83-196.51 254.17-4.82 9.74-9.65 19.5-14.54 29.22-52.98 105.5-113.13 207.62-254.22 238.1-48.02 10.37-104.66 7.71-161.58-1.39-57.14-9.13-115.83-24.97-168.5-41.91a1819.71 1819.71 0 0 1-173.45-66.12 1093 1093 0 0 1-10.88-4.89l-2.86-1.32-.74-.34-.26-.12-.01-.01 7.48-15.96 6.4-13.64 1.1-2.32.03.02.16.07.67.31 1.44.66 1.25.58c2.39 1.09 5.93 2.69 10.52 4.73a1784.78 1784.78 0 0 0 169.96 64.78c51.64 16.61 108.48 31.91 163.26 40.66Z"/><path fill-rule="evenodd" clip-rule="evenodd" d="M283.87 1284.47c55.08 8.64 108.3 10.72 152.63 1.14 130.66-28.23 186.95-121.72 239.78-226.91 4.9-9.74 9.76-19.58 14.65-29.48 47.76-96.68 98.13-198.63 204.4-262.54 174.21-104.76 354.06-62.54 528.98-21.48l16.03 3.75c180.43 42.22 355.25 78.4 516.81-49.28 78.41-61.97 126.95-148.1 175.09-233.53 5.89-10.45 11.77-20.88 17.7-31.26 54.26-95 112.51-185.18 216.38-232.76 94.48-43.29 204.69-30.19 290.83-6.58a800.41 800.41 0 0 1 106.89 37.89 698.15 698.15 0 0 1 31.05 14.41 467.5 467.5 0 0 1 10.48 5.38l.56.3.14.08.04.02h.01l-1.69 3.1-1.69 3.09h-.01l-.03-.02-.13-.07-.53-.28c-.47-.25-1.17-.63-2.1-1.11-1.85-.98-4.61-2.4-8.19-4.17a691.49 691.49 0 0 0-30.73-14.27 793.48 793.48 0 0 0-105.93-37.54c-85.61-23.47-193.82-36.07-286.03 6.18-101.62 46.56-158.93 134.85-213.2 229.84-5.91 10.35-11.78 20.78-17.67 31.24-48.05 85.29-97.3 172.7-176.87 235.59-164.53 130.04-342.71 92.75-522.79 50.62l-15.21-3.56c-175.6-41.2-352.84-82.8-524.55 20.46-104.4 62.79-153.87 162.85-201.77 259.74-4.87 9.85-9.72 19.67-14.61 29.41-52.88 105.28-110.46 201.66-244.6 230.63-45.55 9.84-99.74 7.64-155.22-1.06-55.51-8.71-112.54-23.96-163.88-40.41a1736.55 1736.55 0 0 1-168.7-64.24c-4.57-2.03-8.11-3.63-10.5-4.73l-2.74-1.26-.53-.25-.35-.16-.05-.03 1.5-3.19 1.5-3.19.05.02.17.08.68.32 2.7 1.24c2.38 1.09 5.89 2.69 10.43 4.71a1730.03 1730.03 0 0 0 168 63.97c51.12 16.38 107.78 31.52 162.82 40.15ZM366.47 754c43.52.64 90.72-10.36 146.21-43.72 91.6-55.08 146.15-141.34 208.67-240.18l10.16-16.04c66.4-104.7 142.92-219.5 281.58-312.8 100.12-67.38 199.48-55.42 298.8-34.26 14.57 3.1 29.13 6.4 43.71 9.7 85.93 19.42 172.7 39.04 268.26 21.83 122.57-22.08 191.81-91.7 262.67-163.92l2.05-2.09c69.9-71.25 142.42-145.17 268.83-163.45 129.53-18.73 288.25 27.32 412.4 76.37a1919.98 1919.98 0 0 1 156.13 70.16 1691.3 1691.3 0 0 1 45.88 23.97 1097.87 1097.87 0 0 1 15.64 8.66l.85.49.22.13.08.04-8.8 15.28-8.8 15.28h-.01l-.04-.03-.18-.1-.75-.44-3.06-1.72c-2.71-1.52-6.75-3.76-11.99-6.61a1645.57 1645.57 0 0 0-44.91-23.46 1885.12 1885.12 0 0 0-153.21-68.86c-123.49-48.79-274.71-91.57-394.41-74.26-114.5 16.56-179.66 82.88-250.75 155.33-70.76 72.12-146.92 149.68-281.59 173.94-103.19 18.58-197.65-2.88-283.39-22.36-14.3-3.25-28.36-6.45-42.18-9.39-97.78-20.84-184.37-29.79-271.77 29.02-132.17 88.94-205.42 198.27-271.48 302.44-3.81 6-7.6 12-11.39 18-61.26 96.97-120.04 190.01-219.05 249.55-60.6 36.43-114.21 49.5-164.9 48.76-50.19-.74-96.3-15.04-141.38-31.12-8.47-3.02-16.92-6.11-25.39-9.2-82.27-30.07-165.93-60.63-280.72-35.84l-7.44-34.46c125.18-27.04 217.94 6.97 300.07 37.08 8.55 3.14 16.98 6.23 25.33 9.2 44.56 15.9 86.03 28.43 130.05 29.08Z"/><path fill-rule="evenodd" clip-rule="evenodd" d="M62.6 512.68c19.41-23.45 46.53-43.31 88.45-57.36 68.92-23.1 137.57-13.28 213.6-2.4l13.01 1.85c81.07 11.5 170.24 22 274.98-7.28 73.48-20.54 108.72-73 140.52-131.76 4.6-8.5 9.13-17.15 13.7-25.85 27.06-51.57 55.25-105.3 106.3-147.14 65.92-54.03 133.11-59.04 199.85-63.71l1.25-.1c66.22-4.63 132.14-9.24 193.52-63.22 63.3-55.65 107.69-153.5 136.22-236.9a1265.3 1265.3 0 0 0 31.48-108 1102.6 1102.6 0 0 0 9.42-42.2 155.1 155.1 0 0 0 .58-2.98l.04-.21-3.47-.65-3.47-.64v.01l-.03.18-.11.6-.46 2.32a1053.04 1053.04 0 0 1-9.36 41.9 1254.34 1254.34 0 0 1-31.29 107.39c-28.49 83.25-72.4 179.54-134.21 233.89-59.58 52.4-123.4 56.86-189.98 61.53l-.63.04c-66.7 4.68-136 9.7-203.82 65.3-52.25 42.82-81.15 97.95-108.19 149.5-4.53 8.66-9.01 17.21-13.55 25.59-31.64 58.48-65.68 108.6-136.2 128.32-103.24 28.85-191.16 18.56-272.1 7.1l-13.46-1.93c-75.59-10.83-145.82-20.9-216.39 2.76-43.04 14.43-71.3 35-91.63 59.56-20.26 24.48-32.47 52.76-43.67 82.23-2.1 5.54-4.18 11.12-6.26 16.73-20.14 54.3-41.41 111.64-105.1 160.27l4.27 5.6c65.38-49.91 87.32-109.1 107.43-163.37 2.09-5.63 4.16-11.21 6.25-16.72 11.16-29.38 23.04-56.71 42.51-80.25Z"/></g><g clip-path="url(#e)" fill="#0057FF" opacity=".1"><path fill-rule="evenodd" clip-rule="evenodd" d="M1188.23 1875.66c58.22 6.86 116.38-3.26 179.64-46.66 72.03-49.42 84.72-127.86 99.74-220.72l.26-1.63c15.02-92.87 32.69-198.14 119.34-293.29 44.31-48.65 107.86-68.15 180.37-73.59 72.1-5.41 154.31 3.02 237.44 11.55l1.26.13c83.87 8.6 168.74 17.24 246.69 12.44 77.91-4.79 148.03-22.98 202.83-67.34 45.15-36.54 87.22-96.53 124.96-166.65 37.67-70 70.72-149.48 98.06-224.44 27.33-74.95 48.9-145.25 63.63-196.82a2774.3 2774.3 0 0 0 16.85-61.51c1.9-7.32 3.35-13.02 4.32-16.9l1.09-4.4.27-1.11.07-.28.02-.09 6.86 1.65 6.85 1.66v.02l-.09.37-.28 1.15-1.11 4.46c-.98 3.91-2.44 9.66-4.36 17.03a2713.71 2713.71 0 0 1-16.92 61.82c-14.81 51.8-36.48 122.43-63.95 197.78-27.47 75.32-60.78 155.49-98.89 226.29-38.04 70.67-81.17 132.62-128.5 170.94-58.01 46.95-131.48 65.56-210.84 70.45-79.32 4.88-165.38-3.92-248.99-12.49l-.42-.04c-83.77-8.59-164.95-16.92-235.79-11.61-70.91 5.32-130.19 24.22-171 69.03-83.56 91.75-100.82 193.13-115.85 286.04l-.69 4.31c-14.63 90.56-28.2 174.56-105.25 227.42-66.2 45.41-127.82 56.28-189.27 49.03-58.52-6.9-116.83-30.26-178.22-54.86l-7.68-3.08c-128.76-51.53-274.55-107.05-477.01-38.32-206.4 70.08-364.86 57.35-471.95 26.82-53.5-15.25-94.1-34.93-121.38-50.84a364.4 364.4 0 0 1-30.9-20.04 201.2 201.2 0 0 1-7.86-5.99c-.9-.71-1.57-1.27-2.03-1.65l-.54-.46-.14-.12-.05-.04-.01-.01c0-.01-.01-.01 4.63-5.32l4.63-5.32.02.01.09.08.42.36c.39.32.99.82 1.8 1.46 1.61 1.3 4.07 3.21 7.36 5.61 6.58 4.8 16.5 11.55 29.69 19.25 26.4 15.39 65.9 34.57 118.14 49.46 104.38 29.76 259.9 42.52 463.54-26.61 207.59-70.48 357.57-13.14 486.79 38.58l6.91 2.76c62.07 24.87 118.79 47.59 175.4 54.27Z"/><path fill-rule="evenodd" clip-rule="evenodd" d="M318.19 1535.86c-175.71-59.93-334.6-161.4-411.22-284.93l5.99-3.71c75.4 121.55 232.54 222.29 407.5 281.96 174.93 59.66 366.81 77.98 511.21 35.59 67.06-19.69 109.59-61.36 141.05-114.22 27.47-46.14 46.39-100.59 65.77-156.36 2.91-8.35 5.82-16.73 8.77-25.11 22.6-64.19 47.54-128.6 88.45-181.39 41.01-52.94 97.99-94.1 184.4-112.02 142.76-29.6 269.83-19.5 390.49-9.92 24.45 1.94 48.64 3.86 72.64 5.42 142.53 9.3 278.86 6.14 426.72-78.5 137.42-78.66 268.93-231.89 366.24-365.81a2767.94 2767.94 0 0 0 116.44-174.13 2363.86 2363.86 0 0 0 32.19-53.84 1436.17 1436.17 0 0 0 11.12-19.55l.18-.32 3.09 1.7 3.08 1.7-.18.33-.55 1-2.17 3.87c-1.91 3.4-4.75 8.39-8.47 14.8a2330.8 2330.8 0 0 1-32.29 54c-27.91 45.36-68 107.5-116.74 174.58-97.39 134.05-229.63 288.34-368.44 367.8-149.67 85.67-287.69 88.74-430.67 79.41-24.17-1.58-48.48-3.5-73-5.45-120.62-9.57-246.56-19.56-388.25 9.82-84.69 17.56-140.23 57.76-180.26 109.43-40.13 51.8-64.76 115.21-87.37 179.41-2.93 8.34-5.84 16.69-8.73 25.03-19.35 55.69-38.54 110.9-66.4 157.71-32.13 53.99-75.95 97.07-145.12 117.38-146.27 42.94-339.72 24.26-515.47-35.68Z"/><path d="M2269.29 1162.02c-326.29 225.5-853.75-170.5-996.79 137-117.57 252.77 171.34 417.24 33.5 528-113.55 91.25-255 33.18-429.6-7.04-101.44 13.37-206.55 1.84-308.17-23.76a672.66 672.66 0 0 0-133.73 30.8C41.56 1960.43-90.03 1671.47-90.03 1671.47l23.86-198.76s298.07 238.78 634.4 323.51c112.66-14.02 215.12 2.33 308.17 23.76 67.17-8.85 132.74-28.62 194.6-62.46 211.41-115.62 36.07-510.56 344.54-631.28 308.46-120.72 568.61 83.3 853.75-79.92 208.3-119.23 420.58-442.56 501.59-574.94 4.98-12.12 8.5-22.07 10.39-29.48l23.86-28.23s-12.31 21.85-34.25 57.7c-56.27 137-299.26 550.82-501.59 690.65Z"/><path fill-rule="evenodd" clip-rule="evenodd" d="M1114.17 1872.1c71.28 8.12 134.81-.17 191.39-45.63 17.14-13.78 27.62-28.36 33.09-43.8 5.47-15.45 5.96-31.83 3.04-49.21-5.21-31.03-21.22-65.16-38.92-102.88-2.17-4.61-4.36-9.28-6.56-14.01-40.31-86.57-83.28-191.15-24.35-317.84 17.93-38.55 41.9-66.1 70.76-85.22 28.86-19.11 62.59-29.78 99.99-34.61 74.79-9.66 164.44 3.99 259.68 20.18l23.73 4.05c88.21 15.11 180.54 30.93 269.98 31.48 97.49.61 191.47-16.9 272.88-73.17 101.05-69.83 212.32-208.15 305.39-346.2 89.34-132.53 161.84-264.72 192.37-335.62-41.37 67.13-112.46 176.62-198.28 284.6-89.24 112.3-194.45 223.03-298.73 282.72-142.78 81.73-279.31 71.49-418.55 55.98-7.92-.88-15.84-1.78-23.77-2.68-131.68-14.94-266.23-30.2-411.52 26.66-153.85 60.21-187.08 188.75-208.23 317.01a4335.51 4335.51 0 0 0-6.12 38.6c-7.91 50.9-15.64 100.66-30.13 144.79-18.14 55.27-46.91 101.82-99.97 130.84-60.78 33.24-125.11 52.93-191.02 62.03a3757.88 3757.88 0 0 1 75.57 18.62c56.54 14.35 109.2 27.71 158.28 33.31Zm-237.8-51.4c27.13 6.25 53.48 12.94 79.06 19.43 56.59 14.36 109.41 27.76 158.58 33.37 71.49 8.15 135.46-.15 192.43-45.93 17.31-13.91 27.96-28.7 33.54-44.43 5.57-15.74 6.04-32.36 3.1-49.92-5.24-31.23-21.35-65.55-39.03-103.22l-6.56-14.02c-40.3-86.55-82.99-190.59-24.35-316.66 17.83-38.33 41.63-65.67 70.26-84.63 28.64-18.97 62.14-29.58 99.39-34.39 74.54-9.62 163.98 3.98 259.26 20.17l23.74 4.05c88.2 15.11 180.64 30.95 270.2 31.5 97.66.61 191.96-16.93 273.69-73.42 101.29-70 212.68-208.5 305.76-346.57 93.06-138.05 167.89-275.76 196.07-344.33a2618.46 2618.46 0 0 0 25.33-42.26 1659.11 1659.11 0 0 0 8.33-14.4l.43-.76.13-.24.01-.02-.61-.35.61.35-1.15-.8-23.96 28.35-.04.16c-1.89 7.34-5.38 17.24-10.35 29.32-40.5 66.2-113.79 180.06-202.98 292.3-89.22 112.26-194.3 222.81-298.33 282.36-142.35 81.49-278.46 71.32-417.7 55.81-7.93-.88-15.87-1.79-23.83-2.69-131.63-14.93-266.5-30.24-412.13 26.76-154.62 60.51-187.95 189.79-209.1 318.09a4114.77 4114.77 0 0 0-6.13 38.67c-7.91 50.89-15.62 100.51-30.07 144.51-18.08 55.07-46.67 101.25-99.31 130.04-61.74 33.78-127.18 53.52-194.23 62.37-93.01-21.42-195.48-37.77-308.16-23.77-168.02-42.35-326.5-123.16-443-193.41a2169.29 2169.29 0 0 1-139.2-91.32 1615.07 1615.07 0 0 1-38.36-28.19c-4.4-3.35-7.76-5.95-10.02-7.72l-2.56-2.01-.65-.52-.2-.16-.01-.01-.45.55.44-.55-.99-.79-24.03 200.21.08.18.07-.03-.07.04v.01l.03.04.07.16.3.62a213.56 213.56 0 0 0 6.06 11.37 316.76 316.76 0 0 0 20.32 30.98 365.26 365.26 0 0 0 88.38 84.91c82.2 55.69 213.57 94.6 410.25 27.83 46-15.62 90.47-25.4 133.45-30.76 101.6 25.58 206.71 37.12 308.18 23.77Zm-304.28-24.24c109.51-13 209.35 2.58 300.3 23.33-98.89 12.39-201.2 1.28-300.3-23.33Zm-7.64-.47c-166.92-42.63-324.16-122.89-439.91-192.69a2172.9 2172.9 0 0 1-139.3-91.38 1611.46 1611.46 0 0 1-38.38-28.22c-4.4-3.35-7.77-5.96-10.04-7.73l-2.45-1.92-23.68 197.3v.03l.3.61.58 1.18.6 1.19c1.05 2.08 2.65 5.1 4.83 8.91a317.47 317.47 0 0 0 20.23 30.85 364.07 364.07 0 0 0 88.04 84.57c81.82 55.43 212.73 94.3 409 27.66a674.39 674.39 0 0 1 130.18-30.36Zm2210.2-1332.16a2445.44 2445.44 0 0 0 26.02-43.79l-18.76 22.2c-1.49 5.75-3.93 13.01-7.26 21.59ZM284.95 1232.91c55.01 8.79 106.7 10.78 148.56 1.73 123.72-26.72 177.44-114.47 230.16-219.45 4.89-9.72 9.76-19.6 14.69-29.58 47.51-96.3 99.68-202.04 209.7-268.2 179.21-107.77 364.29-64.28 537.95-23.49l17.53 4.12c181.15 42.38 349.25 76.36 504.85-46.62 77.49-61.24 114.53-145.13 152.6-231.36 3.47-7.84 6.94-15.7 10.45-23.56 41.53-93.06 88.65-186.14 197.5-236.89 102.1-47.6 233.88-34.05 337.17-10.39a1167.58 1167.58 0 0 1 131.06 38.52c16.48 5.9 29.72 11.07 38.88 14.77a696.7 696.7 0 0 1 13.37 5.57l.74.32.26.11.02.01-7.13 16.13-7.13 16.13-.17-.08-.62-.27-2.54-1.09c-2.26-.96-5.63-2.37-10.02-4.14a1005.2 1005.2 0 0 0-37.55-14.26c-31.99-11.46-76.58-25.8-127.04-37.35-101.97-23.35-223.64-34.33-314.4 7.98-96.01 44.76-138.75 126.44-180.2 219.3-3.57 7.99-7.13 16.06-10.71 24.2-37.5 85.16-77.97 177.07-162.67 244.01-170.49 134.75-355.38 95.26-534.75 53.3l-13.45-3.16c-177.08-41.52-349.11-81.85-515.83 18.4-100.67 60.55-148.33 156.83-196.51 254.17-4.82 9.75-9.65 19.5-14.54 29.22-52.98 105.5-113.13 207.62-254.22 238.1-48.02 10.37-104.66 7.71-161.58-1.38-57.14-9.14-115.83-24.98-168.5-41.92a1815.08 1815.08 0 0 1-173.45-66.12 1093 1093 0 0 1-13.74-6.21l-.74-.34-.26-.12-.01-.01 7.48-15.96 6.4-13.63 1.1-2.33.03.02.16.07.67.31 1.44.66 1.25.58c2.39 1.09 5.93 2.69 10.52 4.73a1784.78 1784.78 0 0 0 169.96 64.78c51.64 16.62 108.48 31.91 163.26 40.67Z"/><path fill-rule="evenodd" clip-rule="evenodd" d="M283.87 1317.82c55.08 8.63 108.3 10.71 152.63 1.13 130.66-28.22 186.95-121.72 239.78-226.91 4.9-9.74 9.76-19.58 14.65-29.47 47.76-96.7 98.13-198.64 204.4-262.55 174.21-104.76 354.06-62.54 528.98-21.48l16.03 3.76c180.43 42.21 355.25 78.4 516.81-49.3 78.41-61.96 126.95-148.1 175.09-233.52 5.89-10.45 11.77-20.88 17.7-31.26 54.26-95 112.51-185.17 216.38-232.76 94.48-43.29 204.69-30.19 290.83-6.57a800.27 800.27 0 0 1 106.89 37.88 698.15 698.15 0 0 1 31.05 14.42 467.5 467.5 0 0 1 8.32 4.23l2.16 1.14.56.3.14.08.04.02h.01l-1.69 3.1-1.69 3.1-.01-.01-.03-.02-.13-.07-.53-.28c-.47-.25-1.17-.63-2.1-1.11-1.85-.97-4.61-2.4-8.19-4.17a693.8 693.8 0 0 0-30.73-14.27 793.63 793.63 0 0 0-105.93-37.54c-85.61-23.47-193.82-36.06-286.03 6.18-101.62 46.56-158.93 134.86-213.2 229.85-5.91 10.34-11.78 20.77-17.67 31.23-48.05 85.3-97.3 172.7-176.87 235.6-164.53 130.03-342.71 92.75-522.79 50.61l-15.21-3.56c-175.6-41.2-352.84-82.8-524.55 20.46-104.4 62.79-153.87 162.85-201.77 259.74-4.87 9.85-9.72 19.67-14.61 29.41-52.88 105.29-110.46 201.66-244.6 230.64-45.55 9.84-99.74 7.63-155.22-1.07-55.51-8.7-112.54-23.96-163.88-40.41a1736.55 1736.55 0 0 1-168.7-64.24c-4.57-2.03-8.11-3.63-10.5-4.73l-2.74-1.26-.53-.25-.35-.16-.05-.03 1.5-3.19 1.5-3.19.05.02.17.08.68.32 2.7 1.25c2.38 1.09 5.89 2.68 10.43 4.7a1730.03 1730.03 0 0 0 168 63.97c51.12 16.38 107.78 31.52 162.82 40.16ZM366.47 787.34c43.52.64 90.72-10.35 146.21-43.72 91.6-55.08 146.15-141.34 208.67-240.18l10.16-16.03c66.4-104.72 142.92-219.5 281.58-312.81 100.12-67.38 199.48-55.42 298.8-34.26 14.57 3.1 29.13 6.4 43.71 9.7 85.93 19.43 172.7 39.05 268.26 21.83 122.57-22.08 191.81-91.7 262.67-163.92l2.05-2.08c69.9-71.26 142.42-145.18 268.83-163.46 129.53-18.72 288.25 27.32 412.4 76.37a1920.1 1920.1 0 0 1 156.13 70.16c19.5 9.83 35.11 18.12 45.88 23.97a1097.87 1097.87 0 0 1 15.64 8.67l.85.48.22.13.08.04-8.8 15.28-8.8 15.28h-.01l-.04-.03-.18-.1-.75-.43-3.06-1.73c-2.71-1.52-6.75-3.76-11.99-6.6a1645.57 1645.57 0 0 0-44.91-23.47 1885.12 1885.12 0 0 0-153.21-68.86c-123.49-48.78-274.71-91.56-394.41-74.26-114.5 16.56-179.66 82.88-250.75 155.34-70.76 72.12-146.92 149.67-281.59 173.93-103.19 18.58-197.65-2.88-283.39-22.36-14.3-3.25-28.36-6.44-42.18-9.39-97.78-20.84-184.37-29.79-271.77 29.02C900.6 292.8 827.35 402.13 761.29 506.3c-3.81 6-7.6 12.01-11.39 18-61.26 96.97-120.04 190.01-219.05 249.55-60.6 36.44-114.21 49.5-164.9 48.76-50.19-.74-96.3-15.04-141.38-31.12-8.47-3.02-16.92-6.11-25.39-9.2-82.27-30.06-165.93-60.63-280.72-35.83l-7.44-34.47c125.18-27.04 217.94 6.97 300.07 37.08 8.55 3.14 16.98 6.23 25.33 9.2 44.56 15.9 86.03 28.44 130.05 29.08Z"/><path fill-rule="evenodd" clip-rule="evenodd" d="M62.6 546.03c19.41-23.46 46.53-43.32 88.45-57.37 68.92-23.1 137.57-13.28 213.6-2.4l13.01 1.86c81.07 11.48 170.24 21.99 274.98-7.29 73.48-20.54 108.72-73 140.52-131.76 4.6-8.5 9.13-17.15 13.7-25.85 27.06-51.57 55.25-105.3 106.3-147.14 65.92-54.03 133.11-59.04 199.85-63.71l1.25-.09c66.22-4.64 132.14-9.25 193.52-63.22 63.3-55.66 107.69-153.52 136.22-236.9a1265.4 1265.4 0 0 0 31.48-108 1103.3 1103.3 0 0 0 9.42-42.21 155.1 155.1 0 0 0 .58-2.98l.04-.21-3.47-.65-3.47-.63-.03.19-.11.58-.46 2.33a1053.7 1053.7 0 0 1-9.36 41.9 1254.34 1254.34 0 0 1-31.29 107.39c-28.49 83.26-72.4 179.55-134.21 233.89-59.58 52.4-123.4 56.87-189.98 61.53l-.63.04c-66.7 4.68-136 9.7-203.82 65.3-52.25 42.82-81.15 97.95-108.19 149.51-4.53 8.65-9.01 17.2-13.55 25.58-31.64 58.48-65.68 108.6-136.2 128.32-103.24 28.85-191.16 18.56-272.1 7.1l-13.46-1.93c-75.59-10.83-145.82-20.89-216.39 2.76-43.04 14.43-71.3 35-91.63 59.56-20.26 24.49-32.47 52.76-43.67 82.23-2.1 5.54-4.18 11.12-6.26 16.73-20.14 54.3-41.41 111.64-105.1 160.27l4.27 5.6C-28.2 756.46-6.27 697.28 13.84 643c2.09-5.63 4.16-11.21 6.25-16.72 11.16-29.37 23.04-56.71 42.51-80.24Z"/></g></g><defs><clipPath id="a"><path fill="#fff" d="M0 0h2560v1440H0z"/></clipPath><clipPath id="b"><rect y="-160" width="2560" height="2018.38" rx="14.1" fill="#fff"/></clipPath><clipPath id="c"><rect y="-193.34" width="2560" height="2018.38" rx="14.1" fill="#fff"/></clipPath><clipPath id="d"><rect x="2560" y="1879.48" width="2560" height="2018.38" rx="14.1" transform="rotate(180 2560 1879.48)" fill="#fff"/></clipPath><clipPath id="e"><rect x="2560" y="1912.82" width="2560" height="2018.38" rx="14.1" transform="rotate(180 2560 1912.82)" fill="#fff"/></clipPath></defs></svg>