<svg width="238" height="134" viewBox="0 0 238 134" fill="none" xmlns="http://www.w3.org/2000/svg">
<path d="M12.4288 57.7919V50.3679H26.8928C29.7088 50.3679 32.1835 49.8986 34.3168 48.9599C36.4501 48.0212 38.1141 46.6986 39.3088 44.9919C40.5035 43.1999 41.1008 41.0666 41.1008 38.5919C41.1008 34.8372 39.7781 31.9359 37.1328 29.8879C34.4875 27.8399 31.0741 26.8159 26.8928 26.8159H16.0128V91.5839H28.5568C31.9701 91.5839 34.9995 91.0292 37.6448 89.9199C40.2901 88.8106 42.3808 87.1466 43.9168 84.9279C45.4528 82.7093 46.2208 79.9359 46.2208 76.6079C46.2208 74.2186 45.7515 72.1279 44.8128 70.3359C43.9595 68.4586 42.7221 66.9226 41.1008 65.7279C39.5648 64.4479 37.7301 63.5519 35.5968 63.0399C33.4635 62.4426 31.1168 62.1439 28.5568 62.1439H12.4288V53.8239H29.4528C33.8048 53.8239 37.9008 54.2932 41.7408 55.2319C45.5808 56.1706 48.9941 57.6212 51.9808 59.5839C55.0528 61.5466 57.4421 64.0639 59.1488 67.1359C60.8555 70.2079 61.7088 73.8772 61.7088 78.1439C61.7088 84.0319 60.3008 88.8959 57.4848 92.7359C54.7542 96.5759 50.9568 99.4346 46.0928 101.312C41.3141 103.104 35.7675 104 29.4528 104H0.908813V14.3999H27.9168C33.5488 14.3999 38.4981 15.2106 42.7648 16.8319C47.1168 18.4532 50.4875 20.9279 52.8768 24.2559C55.3515 27.5839 56.5888 31.8079 56.5888 36.9279C56.5888 41.3652 55.3515 45.1626 52.8768 48.3199C50.4875 51.3919 47.1168 53.7386 42.7648 55.3599C38.4981 56.9812 33.5488 57.7919 27.9168 57.7919H12.4288Z" fill="white"/>
<path d="M76.5068 4.15991H90.3308V104H76.5068V4.15991Z" fill="white"/>
<path d="M176.804 107.968H190.5C190.585 110.613 191.31 113.003 192.676 115.136C194.126 117.269 196.089 118.933 198.564 120.128C201.038 121.323 203.897 121.92 207.14 121.92C210.041 121.92 212.814 121.237 215.46 119.872C218.105 118.507 220.238 116.416 221.86 113.6C223.566 110.784 224.42 107.157 224.42 102.72V45.1199H237.988V102.72C237.988 109.803 236.537 115.648 233.636 120.256C230.82 124.864 227.108 128.277 222.5 130.496C217.892 132.8 212.9 133.952 207.524 133.952C201.124 133.952 195.662 132.843 191.14 130.624C186.617 128.491 183.118 125.461 180.644 121.536C178.254 117.611 176.974 113.088 176.804 107.968ZM175.652 74.3039C175.652 67.7332 176.974 62.2292 179.62 57.7919C182.265 53.2692 185.764 49.8132 190.116 47.4239C194.553 45.0346 199.289 43.8399 204.324 43.8399C209.273 43.8399 213.582 45.0772 217.252 47.5519C221.006 49.9412 223.95 53.3972 226.084 57.9199C228.302 62.4426 229.412 67.9039 229.412 74.3039C229.412 80.6186 228.302 86.0372 226.084 90.5599C223.95 95.0826 221.006 98.5812 217.252 101.056C213.582 103.445 209.273 104.64 204.324 104.64C199.289 104.64 194.553 103.445 190.116 101.056C185.764 98.6666 182.265 95.2106 179.62 90.6879C176.974 86.1652 175.652 80.7039 175.652 74.3039ZM189.988 74.3039C189.988 78.2293 190.798 81.5573 192.42 84.2879C194.041 87.0186 196.174 89.1092 198.82 90.5599C201.55 91.9252 204.494 92.6079 207.652 92.6079C210.297 92.6079 212.9 91.9252 215.46 90.5599C218.105 89.1946 220.238 87.1466 221.86 84.4159C223.566 81.5999 224.42 78.2293 224.42 74.3039C224.42 71.2319 223.908 68.5866 222.884 66.3679C221.945 64.0639 220.665 62.1439 219.044 60.6079C217.422 58.9866 215.588 57.7919 213.54 57.0239C211.577 56.2559 209.614 55.8719 207.652 55.8719C204.494 55.8719 201.55 56.5972 198.82 58.0479C196.174 59.4132 194.041 61.4612 192.42 64.1919C190.798 66.9226 189.988 70.2932 189.988 74.3039Z" fill="white"/>
<path d="M103.527 74.5598C103.527 68.5012 104.892 63.1678 107.623 58.5598C110.439 53.9518 114.236 50.3678 119.015 47.8078C123.794 45.1625 129.212 43.8398 135.271 43.8398C141.33 43.8398 146.706 45.1625 151.399 47.8078C156.178 50.3678 159.975 53.9518 162.791 58.5598C165.607 63.1678 167.015 68.5012 167.015 74.5598C167.015 80.5332 165.607 85.8665 162.791 90.5598C159.975 95.1678 156.178 98.7945 151.399 101.44C146.706 104 141.33 105.28 135.271 105.28C129.212 105.28 123.794 104 119.015 101.44C114.236 98.7945 110.439 95.1678 107.623 90.5598C104.892 85.8665 103.527 80.5332 103.527 74.5598ZM117.735 74.5598C117.735 78.2292 118.503 81.4719 120.039 84.2878C121.575 87.0185 123.666 89.1945 126.311 90.8158C128.956 92.3518 131.943 93.1199 135.271 93.1199C138.514 93.1199 141.458 92.3518 144.103 90.8158C146.834 89.1945 148.967 87.0185 150.503 84.2878C152.039 81.4719 152.807 78.2292 152.807 74.5598C152.807 70.8905 152.039 67.6478 150.503 64.8318C148.967 62.0158 146.834 59.8398 144.103 58.3038C141.458 56.7678 138.514 55.9998 135.271 55.9998C131.943 55.9998 128.956 56.7678 126.311 58.3038C123.666 59.8398 121.575 62.0158 120.039 64.8318C118.503 67.6478 117.735 70.8905 117.735 74.5598Z" fill="white" fill-opacity="0.5"/>
<path d="M112.196 34.2441L159.399 110.638" stroke="#FF5370" stroke-width="12" stroke-linecap="round"/>
<path d="M128.248 43.142C127.661 45.2396 127.653 47.2038 128.223 49.0346C128.818 50.7742 129.88 52.251 131.409 53.465C133.029 54.7045 134.979 55.643 137.258 56.2804C140.177 57.0963 142.987 57.2429 145.69 56.7203C148.484 56.2231 150.929 55.0386 153.025 53.1666C155.239 51.2289 156.779 48.7097 157.646 45.609L157.54 54.4287C156.418 58.4414 154.289 61.4842 151.153 63.5572C148.133 65.5645 144.654 66.7549 140.715 67.1285C136.893 67.4364 133.157 67.0804 129.51 66.0605C125.588 64.9642 122.157 63.1691 119.216 60.6754C116.275 58.1817 114.222 55.1496 113.057 51.5791C111.892 48.0087 111.909 44.0804 113.108 39.7941C114.816 33.6839 118.31 29.4496 123.591 27.0913C128.897 24.6417 135.472 24.5133 143.315 26.706C147.51 27.8789 150.984 29.342 153.739 31.0954C156.585 32.8742 158.832 34.6825 160.482 36.5202C162.156 38.2667 163.264 39.7563 163.804 40.9889L161.701 48.5127C159.435 45.7159 156.833 43.4154 153.896 41.611C150.959 39.8067 147.712 38.4073 144.156 37.4129C141.055 36.546 138.432 36.2553 136.288 36.5406C134.169 36.7347 132.416 37.3756 131.031 38.4631C129.736 39.576 128.809 41.1357 128.248 43.142ZM131.131 14.893L128.019 2.8137C131.33 1.87135 135.45 1.20408 140.377 0.811871C145.396 0.44516 150.824 1.0777 156.66 2.70949C161.859 4.16281 166.202 6.21282 169.69 8.85953C173.269 11.5317 175.791 14.6457 177.255 18.2014C178.744 21.666 178.903 25.4958 177.73 29.6908L165.185 74.5598L150.685 70.5058L162.426 28.5096C162.987 26.5032 163.081 24.7597 162.709 23.2789C162.427 21.8237 161.809 20.52 160.852 19.3677C159.896 18.2155 158.648 17.2275 157.109 16.4038C155.569 15.5801 153.842 14.9005 151.927 14.3651C149.009 13.5492 146.125 13.1363 143.276 13.1265C140.544 13.0509 138.081 13.247 135.885 13.7148C133.806 14.1168 132.221 14.5095 131.131 14.893Z" fill="white"/>
</svg>
