<svg width="16" height="16" viewBox="0 0 16 16" fill="none" xmlns="http://www.w3.org/2000/svg">
<g clip-path="url(#clip0_1257_2)">
<path d="M16 0H0V16H16V0Z" fill="black"/>
<path d="M8.84925 2.8646C8.84647 2.86739 8.91269 2.89647 8.99647 2.92918C9.23515 3.02236 9.67492 3.25143 9.9109 3.4055C10.2977 3.65802 10.5589 3.86965 10.8676 4.18052C10.9793 4.29304 11.0777 4.38605 11.0863 4.38719C11.0949 4.38833 11.1368 4.35798 11.1795 4.3198L11.2568 4.25035L11.2029 4.19395C11.1215 4.10897 10.8379 3.86313 10.6879 3.74742C10.2591 3.41665 9.7587 3.14412 9.28163 2.98167C9.13575 2.93199 8.85727 2.85659 8.84925 2.8646ZM4.99745 4.23655C4.96385 4.236 4.93078 4.23682 4.8982 4.23912C4.25134 4.28477 3.72474 4.80658 3.25721 5.86521C3.02413 6.39298 2.87794 6.93387 2.81117 7.51561C2.78673 7.72846 2.78695 8.33676 2.81153 8.54686C2.91123 9.39892 3.17651 10.1346 3.63697 10.8359C3.78307 11.0584 3.86689 11.1714 4.00514 11.3323L4.09608 11.4381L4.19666 11.3197C4.25198 11.2546 4.29725 11.1961 4.29725 11.1897C4.29725 11.1832 4.25487 11.0961 4.20301 10.9962C4.02322 10.6497 3.90476 10.3284 3.8047 9.91563C3.60936 9.10986 3.6164 8.13881 3.82191 7.54454C4.07197 6.82141 4.53408 6.54731 5.0724 6.80296C5.22274 6.87436 5.32533 6.94623 5.5785 7.1577C5.69452 7.2546 6.57342 7.98802 7.53163 8.78746C8.48983 9.58689 9.48475 10.4172 9.74256 10.6327C10.3589 11.1477 10.6041 11.3242 10.9358 11.4912C11.0636 11.5555 11.2844 11.6336 11.4223 11.6632C11.5444 11.6894 11.7307 11.6932 11.846 11.6719C11.9774 11.6475 12.1523 11.5537 12.2512 11.4543C12.3619 11.3432 12.4894 11.1365 12.6423 10.8203C12.98 10.1223 13.1292 9.4584 13.1304 8.64842C13.131 8.24623 13.1086 7.99386 13.0387 7.61497C12.8659 6.67787 12.4442 5.72493 11.8545 4.93882C11.7929 4.85671 11.7372 4.7824 11.7306 4.77366C11.7192 4.75845 11.6804 4.79656 11.5851 4.91636L11.546 4.96543L11.646 5.11949C12.1168 5.84504 12.3892 6.57199 12.4944 7.38279C12.5269 7.63311 12.5314 8.21435 12.5027 8.46092C12.4448 8.95871 12.2993 9.52405 12.1486 9.8375C12.0305 10.0829 11.8594 10.244 11.676 10.2821C11.4712 10.3247 11.2342 10.227 10.9948 10.0012C10.953 9.96184 10.0301 8.90171 8.94374 7.64537C7.4449 5.912 6.92424 5.32022 6.78517 5.19151C6.117 4.57315 5.50132 4.24487 4.99745 4.23655ZM4.70338 11.7734C4.69831 11.7734 4.66289 11.8004 4.62464 11.8334L4.55506 11.8933L4.63319 11.9645C4.7484 12.0695 5.06957 12.3059 5.25355 12.421C5.34203 12.4764 5.51991 12.5764 5.64881 12.6433C5.86674 12.7563 5.93984 12.79 5.86976 12.7451C5.36388 12.4209 5.11061 12.2168 4.83949 11.9148C4.76972 11.837 4.70844 11.7734 4.70338 11.7734Z" fill="white"/>
<path d="M12.2031 3.79004L8.32974 6.54106L9.64509 7.88122L12.2031 3.79004ZM6.61731 8.45203L3.77051 12.2188L8.03193 9.69292L6.61731 8.45203Z" fill="#FF5370"/>
</g>
<defs>
<clipPath id="clip0_1257_2">
<rect width="16" height="16" rx="4" fill="white"/>
</clipPath>
</defs>
</svg>
