<svg width="1200" height="516" viewBox="0 0 1200 516" fill="none" xmlns="http://www.w3.org/2000/svg">
<g clip-path="url(#clip0_747_816)">
<rect width="1200" height="516" fill="#181A2D"/>
<g clip-path="url(#clip1_747_816)">
<path d="M-317 -93.4785L1383.03 -549L1639.26 407.267L-60.7691 862.788L-317 -93.4785Z" fill="#181A2D"/>
<mask id="mask0_747_816" style="mask-type:luminance" maskUnits="userSpaceOnUse" x="-344" y="-654" width="2056" height="1793">
<path d="M1345.2 -652.743L-336.107 -202.239C-341.278 -200.854 -344.347 -195.538 -342.961 -190.367L11.1675 1131.26C12.5532 1136.43 17.8686 1139.5 23.0399 1138.11L1704.34 687.611C1709.51 686.225 1712.58 680.91 1711.2 675.738L1357.07 -645.888C1355.68 -651.06 1350.37 -654.129 1345.2 -652.743Z" fill="white"/>
</mask>
<g mask="url(#mask0_747_816)">
<path fill-rule="evenodd" clip-rule="evenodd" d="M572.101 -419.137C532.216 -413.339 495.394 -396.27 461.107 -356.193C422.068 -310.558 427.598 -256.21 434.147 -191.871L434.264 -190.742C440.815 -126.397 447.812 -53.3459 407.201 25.2591C386.439 65.4489 347.702 89.7147 300.518 106.23C253.599 122.645 197.513 131.673 140.79 140.801L139.924 140.94C82.6976 150.153 24.8002 159.517 -26.1169 176.577C-76.9941 193.626 -120.324 218.175 -148.822 257.385C-172.301 289.691 -189.566 337.008 -202.151 390.288C-214.711 443.476 -222.516 502.137 -227.334 556.781C-232.147 611.417 -233.962 661.939 -234.574 698.808C-234.823 713.421 -234.903 728.037 -234.812 742.652C-234.774 747.95 -234.702 753.247 -234.596 758.545L-234.593 758.743L-234.59 758.806L-239.439 758.931L-244.284 759.048L-244.287 759.034L-244.287 758.771L-244.312 757.959C-244.417 752.878 -244.481 747.797 -244.503 742.715C-244.581 732.252 -244.573 717.167 -244.267 698.651C-243.656 661.619 -241.827 610.857 -236.992 555.931C-232.153 501.025 -224.298 441.859 -211.589 388.055C-198.899 334.37 -181.281 285.556 -156.671 251.68C-126.509 210.181 -81.0241 184.748 -29.1933 167.38C22.6127 150.025 81.3287 140.555 138.385 131.374L138.67 131.319C195.823 122.126 251.213 113.206 297.309 97.0681C343.454 80.9242 379.464 57.8233 398.584 20.8063C437.749 -54.991 431.171 -125.386 424.62 -189.76L424.313 -192.738C417.913 -255.486 411.977 -313.683 453.738 -362.496C489.62 -404.431 528.606 -422.614 570.703 -428.734C610.793 -434.565 653.673 -429.421 698.816 -424.015L704.464 -423.336C799.14 -412.028 905.836 -401.093 1028.05 -482.767C1152.65 -566.032 1260.14 -585.774 1336.69 -584.556C1374.93 -583.948 1405.4 -578.103 1426.34 -572.392C1434.49 -570.196 1442.53 -567.589 1450.42 -564.581C1453.1 -563.551 1455.74 -562.446 1458.35 -561.269L1458.8 -561.059L1458.91 -561.005L1458.95 -560.987L1458.96 -560.982C1458.97 -560.984 1458.97 -560.977 1456.83 -556.625L1454.7 -552.269L1454.69 -552.272L1454.61 -552.309L1454.27 -552.473L1452.82 -553.124C1451.51 -553.699 1449.54 -554.523 1446.93 -555.532C1439.35 -558.423 1431.62 -560.929 1423.79 -563.039C1403.52 -568.57 1373.88 -574.263 1336.53 -574.862C1261.92 -576.052 1156.37 -556.852 1033.45 -474.703C908.129 -390.968 798.328 -402.358 703.314 -413.711L698.234 -414.315C652.591 -419.779 610.881 -424.781 572.099 -419.143L572.101 -419.137Z" fill="#FF5370"/>
<path fill-rule="evenodd" clip-rule="evenodd" d="M1210.33 -348.304C1337.68 -339.772 1461.25 -300.661 1534.11 -232.262L1530.8 -228.732C1459.09 -296.032 1336.82 -334.971 1210.01 -343.464C1083.23 -351.956 952.55 -329.979 864.2 -276.135C823.171 -251.127 802.343 -215.887 790.857 -175.186C780.825 -139.658 777.951 -100.126 775.003 -59.6489C774.556 -53.586 774.115 -47.5033 773.645 -41.4201C770.061 5.23487 764.958 52.439 747.186 94.7816C729.372 137.235 698.857 174.707 644.663 201.983C555.127 247.042 468.946 262.945 387.109 278.062C370.688 281.053 354.289 284.159 337.911 287.38C241.606 306.565 151.635 332.922 68.5057 415.439C-8.75291 492.134 -68.8216 617.284 -109.611 723.539C-126.775 768.387 -142.233 813.868 -155.954 859.887C-160.068 873.661 -164.001 887.49 -167.75 901.368C-169.025 906.099 -170.265 910.84 -171.47 915.589L-171.656 916.329L-171.718 916.574L-174.071 916.001L-176.427 915.416L-176.36 915.163L-176.171 914.407L-175.42 911.445C-174.755 908.854 -173.759 905.028 -172.429 900.109C-168.67 886.189 -164.725 872.319 -160.595 858.504C-146.838 812.365 -131.34 766.764 -114.135 721.797C-73.3135 615.449 -12.9486 489.465 65.0907 411.991C149.239 328.468 240.355 301.869 336.957 282.625C353.418 279.385 369.9 276.262 386.405 273.254C468.208 258.147 553.619 242.371 642.484 197.649C695.6 170.918 725.329 134.339 742.72 92.9105C760.152 51.3708 765.223 4.87266 768.814 -41.7841C769.276 -47.8438 769.723 -53.9066 770.158 -59.9592C773.097 -100.391 776.018 -140.463 786.192 -176.499C797.92 -218.076 819.36 -254.483 861.674 -280.277C951.167 -334.819 1082.96 -356.836 1210.33 -348.304Z" fill="#FF5370"/>
<path d="M-18.8214 247.128C157.734 39.3199 578.47 208.438 618.743 -21.217C651.841 -209.995 430.718 -267.807 502.546 -365.887C561.714 -446.689 665.982 -433.289 789.085 -437.654C854.069 -464.583 925.922 -475.629 997.96 -476.711C1027.17 -488.582 1055.09 -503.409 1081.29 -520.96C1318.49 -679.473 1457.29 -510.997 1457.29 -510.997L1476.81 -374.76C1476.81 -374.76 1236.38 -480.29 997.96 -476.711C925.638 -447.361 854.688 -439.987 789.083 -437.661C746.052 -419.832 706.026 -395.036 670.968 -361.556C551.149 -247.158 737.863 -16.0883 554.497 118.967C371.139 254.028 162.077 164.834 1.76607 323.961C-115.343 440.21 -198.782 692.691 -229.028 795.024C-230.174 803.951 -230.741 811.185 -230.677 816.442L-241.499 839.434C-241.499 839.434 -237.212 822.734 -229.021 795.023C-216.03 694.039 -128.302 375.988 -18.8147 247.126L-18.8214 247.128Z" fill="#FF5370"/>
<path fill-rule="evenodd" clip-rule="evenodd" d="M621.914 -429.957C573.132 -422.673 532.42 -405.857 502.936 -365.6C494.005 -353.399 489.64 -341.852 488.755 -330.626C487.872 -319.392 490.461 -308.428 495.493 -297.406C504.474 -277.727 521.179 -257.911 539.645 -236.011C541.906 -233.336 544.191 -230.624 546.492 -227.881C588.667 -177.559 635.811 -115.756 619.222 -21.1316C614.173 7.65221 603.157 30.2126 587.392 48.0384C571.631 65.8774 551.129 78.9583 527.152 88.8206C479.205 108.544 417.24 115.425 351.114 121.627L334.635 123.16C273.368 128.821 209.24 134.745 149.747 150.294C84.8979 167.236 25.6039 195.587 -18.4458 247.44C-73.1233 311.8 -122.404 423.447 -159.645 531.683C-195.391 635.59 -220.015 736.274 -227.674 788.79C-212.146 736.849 -184.419 651.49 -146.642 564.513C-107.363 474.058 -57.1984 381.804 1.43006 323.61C81.7037 243.929 174.183 226.431 269.417 211.959C274.833 211.135 280.253 210.323 285.679 209.51C375.783 196 467.849 182.192 554.215 118.58C645.671 51.2272 644.864 -40.0524 636.089 -128.983C635.201 -137.927 634.241 -146.851 633.283 -155.712C629.478 -190.921 625.757 -225.341 627.526 -257.231C629.739 -297.156 640.563 -333.181 670.634 -361.901C705.081 -394.79 744.3 -419.305 786.448 -437.083C768.157 -436.467 750.299 -436.23 732.95 -436.001C692.85 -435.47 655.503 -434.972 621.915 -429.951L621.914 -429.957ZM788.983 -438.139C769.848 -437.461 751.159 -437.215 733.017 -436.973C692.882 -436.439 655.421 -435.939 621.771 -430.916C572.846 -423.607 531.842 -406.712 502.156 -366.174C493.136 -353.857 488.695 -342.14 487.788 -330.701C486.89 -319.258 489.536 -308.137 494.612 -296.999C503.649 -277.192 520.454 -257.268 538.898 -235.398L545.749 -227.255C587.912 -176.95 634.774 -115.456 618.265 -21.3023C613.245 7.3243 602.305 29.715 586.666 47.4002C571.023 65.0939 550.664 78.1006 526.783 87.923C478.997 107.582 417.18 114.458 351.026 120.661L334.541 122.196C273.274 127.857 209.077 133.792 149.496 149.358C84.5341 166.33 25.0329 194.758 -19.1968 246.816C-73.9985 311.323 -123.325 423.117 -160.568 531.375C-197.804 639.603 -222.993 744.368 -229.503 794.924C-232.709 805.749 -235.81 816.604 -238.806 827.488C-239.846 831.312 -240.642 834.265 -241.173 836.265L-241.774 838.54L-241.926 839.115L-241.97 839.297L-241.973 839.312L-241.067 839.639L-230.193 816.547L-230.202 816.435C-230.253 811.225 -229.697 804.029 -228.553 795.125C-213.429 743.962 -185.02 655.302 -145.763 564.896C-106.49 474.472 -56.3803 382.361 2.10713 324.304C82.1379 244.859 174.335 227.394 269.562 212.924C274.985 212.098 280.417 211.282 285.864 210.464C375.932 196.956 468.22 183.125 554.789 119.366C646.701 51.6702 645.829 -40.1187 637.044 -129.083C636.16 -138.042 635.196 -146.979 634.234 -155.853C630.43 -191.062 626.724 -225.372 628.489 -257.169C630.696 -296.957 641.465 -332.711 671.299 -361.196C706.29 -394.608 746.233 -419.368 789.184 -437.176C854.761 -439.501 925.718 -446.877 998.055 -476.224C1117.17 -477.998 1236.79 -452.533 1326.65 -426.612C1363.33 -416.05 1399.59 -404.084 1435.35 -390.739C1445.57 -386.92 1455.73 -382.952 1465.83 -378.837C1469.21 -377.46 1472.57 -376.054 1475.92 -374.62L1476.44 -374.391L1476.6 -374.32L1476.61 -374.322L1476.81 -374.76L1476.62 -374.317L1477.42 -373.962L1457.75 -511.198L1457.66 -511.304L1457.65 -511.315L1457.63 -511.338L1457.56 -511.432L1457.25 -511.79C1455.3 -514.014 1453.29 -516.175 1451.21 -518.271C1445.2 -524.284 1438.86 -529.944 1432.2 -535.22C1410.06 -552.831 1385.11 -566.576 1358.4 -575.874C1293.89 -598.234 1199.74 -600.699 1081.01 -521.362C1054.87 -503.845 1027.01 -489.044 997.86 -477.19C925.839 -476.098 853.984 -465.058 788.976 -438.138L788.983 -438.139ZM995.354 -476.184C924.944 -448.065 855.871 -440.646 791.781 -438.242C855.245 -464.072 925.165 -474.893 995.354 -476.184ZM1000.51 -477.231C1118.94 -478.623 1237.65 -453.297 1326.93 -427.541C1363.63 -416.974 1399.91 -405.002 1435.7 -391.651C1445.92 -387.83 1456.09 -383.86 1466.2 -379.74C1469.55 -378.372 1472.89 -376.977 1476.22 -375.554L1456.83 -510.789L1456.82 -510.808L1456.52 -511.154L1455.93 -511.841L1455.31 -512.532C1454.25 -513.719 1452.65 -515.447 1450.52 -517.582C1444.55 -523.575 1438.23 -529.213 1431.6 -534.469C1409.55 -552.012 1384.7 -565.703 1358.09 -574.965C1293.89 -597.215 1200.04 -599.734 1081.56 -520.556C1056.05 -503.464 1028.9 -488.95 1000.51 -477.231ZM-230.181 800.707C-233.46 811.911 -236.623 823.148 -239.669 834.417L-231.159 816.343C-231.194 812.253 -230.866 806.998 -230.181 800.707ZM1286.31 -153.038C1248.22 -149.087 1213.54 -141.21 1187.35 -127.752C1109.95 -87.9936 1089.89 -20.1622 1073.56 58.9331C1072.04 66.2581 1070.56 73.6857 1069.07 81.1886C1054.65 153.595 1038.82 233.097 977.531 296.609C877.698 400.064 747.053 404.116 624.47 407.923L612.097 408.313C484.259 412.403 366.582 419.749 285.129 529.106C244.573 583.56 234.903 645.86 224.959 709.899C224.063 715.719 223.15 721.558 222.22 727.409C211.198 796.591 196.463 866.789 133.215 919.858C73.8812 969.628 -16.0397 984.086 -88.8419 986.753C-120.155 987.831 -151.505 987.076 -182.73 984.493C-192.23 983.719 -201.715 982.755 -211.177 981.603C-214.471 981.197 -217.762 980.757 -221.047 980.283L-221.595 980.202L-221.787 980.176L-221.802 980.173L-219.938 968.192L-218.071 956.219L-217.946 956.235L-217.486 956.304L-215.605 956.576C-213.934 956.811 -211.445 957.148 -208.215 957.542C-199.077 958.657 -189.917 959.586 -180.741 960.33C-150.474 962.838 -120.085 963.571 -89.7314 962.528C-17.8609 959.89 64.8907 945.532 117.634 901.285C173.427 854.477 187.282 792.629 198.278 723.589C199.227 717.648 200.155 711.656 201.084 705.613C210.834 642.388 221.354 574.152 265.69 514.627C354.931 394.806 484.738 388.132 611.321 384.086L620.814 383.785C745.796 379.848 867.213 376.019 960.087 279.773C1016.17 221.657 1030.68 149.24 1045.36 76.0192C1046.83 68.6934 1048.3 61.3592 1049.82 54.0343C1066.23 -25.4527 1088 -103.971 1176.27 -149.317C1206.31 -164.748 1244.4 -173.06 1283.82 -177.152C1323.39 -181.25 1365.18 -181.174 1403.17 -179.295C1445.68 -177.113 1488.05 -172.759 1530.12 -166.251C1533.53 -165.718 1536.94 -165.161 1540.35 -164.579L1540.9 -164.478L1541.1 -164.445L1541.1 -164.447C1541.11 -164.442 1541.11 -164.442 1538.98 -152.51L1537.15 -142.32L1536.84 -140.579L1536.81 -140.585L1536.69 -140.603L1536.19 -140.69L1535.12 -140.878L1534.19 -141.035C1521.96 -143.041 1509.71 -144.839 1497.42 -146.43C1465.73 -150.559 1433.89 -153.447 1401.96 -155.087C1364.72 -156.922 1324.25 -156.968 1286.31 -153.038Z" fill="#FF5370"/>
<path fill-rule="evenodd" clip-rule="evenodd" d="M1271.92 -209.617C1233.81 -205.547 1198.11 -197.453 1170.36 -183.208C1088.62 -141.219 1067.87 -69.1117 1051.51 10.1361C1049.99 17.4827 1048.51 24.8819 1047.02 32.3198C1032.51 105.034 1017.2 181.693 957.997 243.045C860.956 343.61 734.01 347.575 610.544 351.433L599.23 351.788C471.9 355.863 349.367 362.938 264.807 476.479C223.757 531.586 206.849 597.419 190.081 662.717C188.041 670.693 185.977 678.662 183.89 686.626C164.759 759.361 142.123 829.612 81.6141 879.698C26.5686 925.259 -48.95 936.17 -110.35 935.811C-136.37 935.608 -162.343 933.557 -188.073 929.675C-195.833 928.519 -203.563 927.17 -211.256 925.631C-213.981 925.08 -216.096 924.622 -217.536 924.296C-218.254 924.139 -218.801 924.008 -219.173 923.923L-219.598 923.823L-219.706 923.795L-219.736 923.789L-219.742 923.791L-219.172 921.431L-218.593 919.077L-218.569 919.085L-218.47 919.108L-218.069 919.2C-217.712 919.282 -217.179 919.41 -216.476 919.563C-215.075 919.878 -212.99 920.33 -210.296 920.875C-202.68 922.396 -195.029 923.733 -187.35 924.883C-161.851 928.73 -136.111 930.762 -110.324 930.964C-49.3034 931.318 24.8029 920.422 78.5211 875.964C137.719 826.963 160.066 758.127 179.203 685.39C181.281 677.474 183.33 669.501 185.38 661.507C202.112 596.318 219.264 529.508 260.914 473.586C347.035 357.954 471.989 351.014 599.078 346.946L609.812 346.604C733.756 342.725 858.856 338.799 954.512 239.68C1012.67 179.404 1027.72 104.156 1042.28 31.2905C1043.77 23.8828 1045.24 16.4986 1046.76 9.16708C1063.14 -70.1711 1084.22 -144.412 1168.15 -187.527C1196.64 -202.165 1233.02 -210.34 1271.41 -214.434C1309.82 -218.534 1350.41 -218.548 1387.43 -216.766C1428.78 -214.692 1469.99 -210.471 1510.9 -204.119C1514.29 -203.583 1516.92 -203.15 1518.71 -202.847L1520.75 -202.496L1521.15 -202.424L1521.41 -202.38L1521.45 -202.369L1521.03 -199.979L1520.59 -197.598L1520.58 -197.597L1520.55 -197.603L1520.43 -197.626L1519.92 -197.717L1517.9 -198.067C1505.82 -200.061 1493.71 -201.845 1481.56 -203.419C1450.23 -207.505 1418.75 -210.341 1387.2 -211.921C1350.33 -213.701 1310.01 -213.673 1271.92 -209.617ZM1231.84 -826.962C1160.86 -753.453 1029.04 -667.198 785.118 -611.305C728.984 -598.442 679.75 -604.453 634.503 -609.981C628.064 -610.768 621.714 -611.543 615.43 -612.258C564.733 -617.991 517.749 -619.75 464.794 -592.55C387.389 -552.792 367.329 -484.96 350.993 -405.863C349.482 -398.54 348.006 -391.112 346.508 -383.608C332.093 -311.204 316.263 -231.701 254.974 -168.19C155.142 -64.734 24.4917 -60.6733 -98.0864 -56.8753L-110.459 -56.4854C-238.304 -52.3936 -355.981 -45.0474 -437.428 64.3076L-456.866 49.829C-367.626 -69.9916 -237.818 -76.6663 -111.237 -80.7185L-101.743 -81.0133C23.2395 -84.9502 144.65 -88.777 237.533 -185.018C293.611 -243.141 308.127 -315.565 322.801 -388.779C324.269 -396.105 325.74 -403.446 327.251 -410.769C343.668 -490.257 365.441 -568.776 453.711 -614.122C513.222 -644.694 566.188 -642.231 618.148 -636.353C624.688 -635.614 631.198 -634.825 637.696 -634.032C683.077 -628.533 727.982 -623.085 779.704 -634.937C1020.19 -690.051 1147.42 -774.434 1214.4 -843.805C1247.9 -878.513 1266.49 -909.622 1276.67 -931.752C1281.76 -942.824 1284.76 -951.67 1286.47 -957.63C1287.25 -960.347 1287.92 -963.095 1288.47 -965.867L1288.52 -966.167C1288.52 -966.165 1288.52 -966.152 1300.51 -964.397C1312.51 -962.643 1312.5 -962.628 1312.5 -962.619L1312.5 -962.583L1312.49 -962.509L1312.47 -962.397L1312.45 -962.287L1312.33 -961.599C1312.23 -961.032 1312.08 -960.251 1311.87 -959.255C1311.45 -957.279 1310.79 -954.481 1309.77 -950.948C1307.74 -943.878 1304.33 -933.866 1298.7 -921.618C1287.41 -897.1 1267.3 -863.703 1231.83 -826.975L1231.84 -826.962Z" fill="#FF5370"/>
<path fill-rule="evenodd" clip-rule="evenodd" d="M1190.97 -724.728C1096.25 -662.58 962.824 -595.17 808.211 -574.34C758.175 -567.594 714.384 -572.231 673.023 -576.615C662.306 -577.75 651.751 -578.865 641.29 -579.763C590.416 -584.139 541.486 -583.384 485.843 -554.795C404.09 -512.803 383.346 -440.696 366.979 -361.449C365.466 -354.104 363.99 -346.705 362.502 -339.267C347.986 -266.551 332.676 -189.892 273.477 -128.542C176.436 -27.9766 49.4828 -24.0098 -73.9831 -20.1518L-85.2906 -19.7981C-212.627 -15.7215 -335.16 -8.64723 -419.72 104.894L-423.613 102.001C-337.485 -13.6328 -212.533 -20.5793 -85.4439 -24.6468C-81.8701 -24.7503 -78.2934 -24.8688 -74.7148 -24.9807C49.2277 -28.8668 174.337 -32.7808 269.985 -131.905C328.148 -192.181 343.195 -267.431 357.764 -340.296C359.239 -347.702 360.719 -355.088 362.235 -362.419C378.614 -441.756 399.703 -515.998 483.626 -559.112C540.446 -588.301 590.444 -589.001 641.702 -584.6C652.332 -583.683 662.999 -582.548 673.788 -581.411C715.088 -577.039 758.166 -572.489 807.565 -579.142C961.209 -599.84 1093.94 -666.866 1188.31 -728.778C1235.47 -759.729 1273.03 -789.38 1298.79 -811.286C1308.83 -819.803 1318.67 -828.555 1328.3 -837.535C1331.51 -840.541 1334.69 -843.588 1337.82 -846.677L1338.3 -847.162L1338.42 -847.279L1338.46 -847.316L1340.19 -845.616C1341.91 -843.916 1341.91 -843.908 1341.91 -843.908L1341.9 -843.904L1341.87 -843.868L1341.74 -843.741L1341.25 -843.246L1339.29 -841.319C1337.56 -839.632 1334.99 -837.157 1331.61 -833.995C1321.93 -824.964 1312.03 -816.162 1301.94 -807.595C1266.68 -777.722 1229.62 -750.045 1190.97 -724.722L1190.97 -724.728ZM1311.46 157.359C1282.45 164.678 1253.06 180.381 1222.15 212.409C1171.13 265.283 1150.24 332.275 1126.31 409.036L1122.42 421.489C1096.95 502.848 1066.57 592.691 991.088 679.322C936.59 741.883 868.48 751.62 798.759 755.241C788.511 755.75 778.26 756.195 768.006 756.577C707.485 758.965 646.372 761.375 585.977 789.814C508.511 826.287 474.925 884.838 440.713 945.408L439.721 947.154C405.982 1006.91 370.977 1068.91 290.284 1103.54C207.599 1139.03 94.0035 1136.69 2.83081 1126.21C-36.1515 1121.66 -74.9119 1115.39 -113.335 1107.4C-124.952 1104.99 -136.531 1102.4 -148.068 1099.64C-152.162 1098.65 -155.342 1097.86 -157.518 1097.31L-159.997 1096.67L-160.64 1096.5L-160.816 1096.45L-160.876 1096.44L-157.751 1084.73L-154.626 1073.01L-154.625 1073.02L-154.588 1073.02L-154.45 1073.06L-153.876 1073.21L-151.536 1073.82C-149.459 1074.34 -146.384 1075.11 -142.398 1076.07C-131.106 1078.77 -119.774 1081.3 -108.406 1083.66C-79.538 1089.66 -39.4148 1096.95 5.59597 1102.13C96.2823 1112.55 204.311 1114.06 280.72 1081.26C353.817 1049.89 385.287 994.253 419.603 933.484C453.761 873.007 490.537 807.95 575.657 767.875C640.87 737.177 707.417 734.619 767.821 732.299C777.896 731.913 787.8 731.53 797.503 731.029C866.144 727.47 925.239 718.006 972.814 663.4C1044.76 580.819 1073.95 495.175 1099.28 414.251L1103.64 400.277C1127.07 324.975 1149.55 252.73 1204.7 195.574C1238.46 160.593 1271.74 142.38 1305.53 133.851C1338.99 125.412 1372.17 126.702 1404.96 129.36C1411.12 129.859 1417.28 130.407 1423.46 130.952C1483.44 136.275 1544.43 141.69 1616.25 104.802L1627.32 126.362C1549.01 166.593 1481.36 160.513 1421.46 155.132C1415.22 154.568 1409.07 154.016 1403 153.529C1370.58 150.9 1340.81 149.951 1311.46 157.359Z" fill="#FF5370"/>
<path fill-rule="evenodd" clip-rule="evenodd" d="M1556.19 263.537C1547.48 282.57 1533 300.584 1507.66 317.373C1466.01 344.977 1418.67 350.671 1366.24 356.976C1363.26 357.332 1360.28 357.69 1357.28 358.061C1301.39 364.856 1240.3 373.752 1175.96 411.825C1130.82 438.54 1116.75 479.641 1106.09 524.327C1104.55 530.797 1103.08 537.341 1101.59 543.931C1092.8 582.993 1083.64 623.689 1057.19 660.558C1023.02 708.168 979.296 723.45 935.807 738.427L934.993 738.709C891.843 753.574 848.888 768.365 817.73 815.127C785.599 863.352 773.533 936.237 769.426 996.691C767.716 1022.43 767.153 1048.23 767.738 1074.01C767.962 1083.92 768.38 1093.82 768.991 1103.71L769.108 1105.37L769.136 1105.79L769.147 1105.94L771.567 1105.76L773.985 1105.56L773.984 1105.56L773.971 1105.43L773.94 1105.02L773.83 1103.39C773.217 1093.57 772.803 1083.74 772.591 1073.9C772.004 1048.26 772.562 1022.61 774.261 997.018C778.365 936.658 790.391 864.901 821.768 817.817C852.01 772.418 893.596 758.094 936.98 743.152L937.392 743.013C980.853 728.037 1025.98 712.365 1061.13 663.388C1088.2 625.649 1097.58 583.896 1106.36 544.847C1107.84 538.295 1109.29 531.82 1110.81 525.447C1121.42 480.982 1135.1 441.635 1178.43 415.998C1241.85 378.469 1302.07 369.658 1357.86 362.872L1367.14 361.752C1419.26 355.494 1467.69 349.678 1510.35 321.416C1536.36 304.175 1551.48 285.484 1560.6 265.559C1569.7 245.691 1572.77 224.745 1574.97 203.182C1575.38 199.127 1575.76 195.053 1576.15 190.958C1579.86 151.315 1583.78 109.452 1617.43 65.8235L1613.59 62.8663C1579.06 107.644 1575.02 150.848 1571.32 190.472C1570.93 194.583 1570.55 198.656 1570.14 202.687C1567.96 224.177 1564.93 244.447 1556.19 263.537Z" fill="#FF5370"/>
</g>
<mask id="mask1_747_816" style="mask-type:luminance" maskUnits="userSpaceOnUse" x="-350" y="-676" width="2056" height="1793">
<path d="M1339.26 -674.883L-342.039 -224.379C-347.21 -222.994 -350.279 -217.678 -348.894 -212.507L5.23514 1109.12C6.6208 1114.29 11.9363 1117.36 17.1075 1115.97L1698.41 665.471C1703.58 664.085 1706.65 658.769 1705.26 653.598L1351.14 -668.029C1349.75 -673.2 1344.43 -676.269 1339.26 -674.883Z" fill="white"/>
</mask>
<g mask="url(#mask1_747_816)">
<path opacity="0.5" fill-rule="evenodd" clip-rule="evenodd" d="M566.166 -441.284C526.283 -435.48 489.461 -418.41 455.175 -378.333C416.135 -332.698 421.665 -278.35 428.214 -214.011L428.332 -212.883C434.881 -148.544 441.878 -75.4928 401.269 3.11884C380.507 43.3087 341.768 67.5679 294.584 84.0827C247.665 100.498 191.578 109.526 134.858 118.66L133.991 118.8C76.7651 128.013 18.8678 137.377 -32.0493 154.436C-82.9266 171.485 -126.257 196.035 -154.756 235.238C-178.236 267.544 -195.499 314.867 -208.084 368.148C-220.646 421.329 -228.451 479.991 -233.266 534.641C-238.079 589.276 -239.894 639.799 -240.506 676.668C-240.756 691.281 -240.835 705.897 -240.744 720.512C-240.707 725.545 -240.64 730.578 -240.542 735.611L-240.529 736.404L-240.525 736.603L-240.524 736.659L-245.372 736.791C-246.986 736.838 -248.601 736.877 -250.216 736.907L-250.22 736.894L-250.219 736.631L-250.244 735.819C-250.35 730.738 -250.413 725.657 -250.436 720.575C-250.513 710.111 -250.507 695.02 -250.202 676.504C-249.589 639.478 -247.759 588.717 -242.925 533.791C-238.085 478.885 -230.232 419.713 -217.522 365.915C-204.835 312.216 -187.215 263.409 -162.603 229.54C-132.441 188.041 -86.9566 162.608 -35.1258 145.239C16.6802 127.885 75.3962 118.415 132.451 109.227L132.737 109.179C189.89 99.9857 245.278 91.0592 291.377 74.9278C337.521 58.784 373.531 35.683 392.652 -1.33398C431.816 -77.1313 425.239 -147.526 418.687 -211.9L418.381 -214.878C411.98 -277.627 406.045 -335.823 447.806 -384.636C483.686 -426.578 522.674 -444.755 564.771 -450.874C604.86 -456.705 647.739 -451.568 692.884 -446.155L698.532 -445.477C793.207 -434.168 899.902 -423.24 1022.12 -504.908C1146.72 -588.172 1254.21 -607.921 1330.76 -606.696C1369 -606.088 1399.46 -600.25 1420.41 -594.532C1428.56 -592.338 1436.6 -589.733 1444.49 -586.728C1447.16 -585.695 1449.81 -584.589 1452.42 -583.409L1452.86 -583.206L1452.98 -583.145L1453.02 -583.127L1453.03 -583.122L1450.9 -578.766L1448.77 -574.409L1448.75 -574.419L1448.68 -574.449L1448.34 -574.613L1446.89 -575.271C1445.58 -575.846 1443.61 -576.67 1441 -577.678C1433.41 -580.568 1425.69 -583.071 1417.86 -585.179C1397.59 -590.71 1367.94 -596.41 1330.6 -597.002C1255.99 -598.192 1150.44 -578.993 1027.51 -496.85C902.197 -413.108 792.396 -424.499 697.381 -435.851C695.684 -436.051 693.986 -436.251 692.3 -436.461C646.657 -441.926 604.948 -446.921 566.166 -441.284Z" fill="#5D86FF"/>
<path opacity="0.5" fill-rule="evenodd" clip-rule="evenodd" d="M1204.4 -370.445C1331.75 -361.912 1455.32 -322.801 1528.18 -254.402L1524.86 -250.872C1453.16 -318.179 1330.89 -357.111 1204.08 -365.605C1077.3 -374.103 946.617 -352.12 858.266 -298.282C817.239 -273.267 796.409 -238.034 784.924 -197.327C774.892 -161.798 772.017 -122.273 769.071 -81.7891C768.624 -75.7262 768.181 -69.6501 767.713 -63.5603C764.129 -16.9053 759.026 30.2988 741.254 72.6413C723.44 115.095 692.925 152.567 638.729 179.836C549.193 224.895 463.015 240.812 381.175 255.915C364.754 258.906 348.355 262.012 331.977 265.233C235.674 284.425 145.703 310.782 62.5718 393.292C-14.6851 469.994 -74.7538 595.144 -115.544 701.399C-132.705 746.249 -148.163 791.733 -161.884 837.753C-166 851.527 -169.933 865.356 -173.68 879.235C-175 884.136 -175.989 887.939 -176.656 890.523L-177.402 893.449L-177.586 894.196L-177.649 894.44L-180.003 893.861L-182.358 893.282L-182.29 893.029L-182.103 892.267L-181.351 889.311C-180.685 886.72 -179.689 882.894 -178.359 877.976C-174.6 864.055 -170.655 850.185 -166.525 836.37C-156.07 801.277 -140.496 752.882 -120.065 699.664C-79.2439 593.315 -18.8809 467.325 59.1603 389.858C143.308 306.334 234.424 279.735 331.027 260.491C347.487 257.252 363.97 254.128 380.474 251.121C462.278 236.013 547.689 220.238 636.554 175.515C689.669 148.784 719.399 112.206 736.788 70.7703C754.22 29.2306 759.291 -17.2675 762.882 -63.9243C763.346 -69.9774 763.792 -76.0402 764.228 -82.0928C767.166 -122.525 770.088 -162.596 780.261 -198.632C791.989 -240.21 813.43 -276.617 855.743 -302.41C945.237 -356.953 1077.03 -378.97 1204.4 -370.438L1204.4 -370.445Z" fill="#5D86FF"/>
<path opacity="0.5" d="M-24.7536 224.988C151.802 17.1797 572.538 186.298 612.811 -43.3573C645.909 -232.135 424.786 -289.948 496.613 -388.027C555.782 -468.829 660.048 -455.436 783.15 -459.801C848.137 -486.723 919.989 -497.769 992.028 -498.851C1021.24 -510.722 1049.16 -525.549 1075.35 -543.1C1312.56 -701.614 1451.36 -533.144 1451.36 -533.144L1470.88 -396.907C1470.88 -396.907 1230.45 -502.43 992.029 -498.845C919.708 -469.494 848.756 -462.127 783.15 -459.801C740.121 -441.965 700.096 -417.169 665.038 -383.69C545.219 -269.292 731.932 -38.2218 548.566 96.8337C365.207 231.888 156.145 142.694 -4.16795 301.815C-121.277 418.063 -204.714 670.551 -234.962 772.878C-236.106 781.811 -236.673 789.044 -236.609 794.301L-247.433 817.287C-247.433 817.287 -243.144 800.593 -234.955 772.876C-221.962 671.898 -134.233 353.854 -24.747 224.986L-24.7536 224.988Z" fill="#5D86FF"/>
<path opacity="0.5" fill-rule="evenodd" clip-rule="evenodd" d="M615.981 -452.098C567.199 -444.813 526.486 -428.004 497.003 -387.74C488.071 -375.546 483.708 -363.993 482.823 -352.766C481.94 -341.533 484.527 -330.575 489.561 -319.546C498.542 -299.867 515.247 -280.051 533.712 -258.151C535.974 -255.476 538.259 -252.765 540.56 -250.022C582.735 -199.699 629.879 -137.896 613.288 -43.2786C608.241 -14.4881 597.225 8.07234 581.462 25.9047C565.697 43.7305 545.196 56.818 521.218 66.6737C473.271 86.3966 411.307 93.2842 345.182 99.4863L328.703 101.019C267.436 106.681 203.307 112.604 143.813 128.147C78.9655 145.096 19.6715 173.447 -24.3782 225.3C-79.0574 289.653 -128.337 401.307 -165.578 509.543C-201.324 613.45 -225.949 714.127 -233.608 766.643C-218.078 714.709 -190.352 629.35 -152.574 542.372C-113.295 451.918 -63.1308 359.664 -4.50231 301.47C75.7713 221.789 168.251 204.291 263.485 189.819C268.901 188.994 274.321 188.183 279.747 187.369C369.849 173.853 461.917 160.052 548.283 96.4399C639.739 29.0869 638.932 -62.1927 630.156 -151.124C629.269 -160.067 628.308 -168.992 627.35 -177.852C623.546 -213.061 619.823 -247.488 621.594 -279.372C623.805 -319.303 634.629 -355.328 664.701 -384.041C699.149 -416.93 738.366 -441.452 780.515 -459.223C762.223 -458.614 744.365 -458.377 727.018 -458.141C686.918 -457.61 649.569 -457.119 615.981 -452.098ZM783.051 -460.28C763.916 -459.601 745.227 -459.355 727.085 -459.113C686.95 -458.58 649.489 -458.08 615.838 -453.056C566.914 -445.747 525.908 -428.859 496.223 -388.314C487.202 -376.004 482.763 -364.28 481.856 -352.841C480.956 -341.404 483.603 -330.277 488.68 -319.139C497.717 -299.333 514.522 -279.408 532.966 -257.538L539.817 -249.395C581.979 -199.091 628.842 -137.597 612.333 -43.4426C607.313 -14.816 596.373 7.57471 580.734 25.2599C565.09 42.9536 544.732 55.9603 520.851 65.7827C473.062 85.4346 411.248 92.318 345.094 98.5205L328.606 100.049C267.348 105.715 203.143 111.645 143.569 127.209C78.6084 144.188 19.1072 172.616 -25.1225 224.674C-79.9242 289.181 -129.251 400.975 -166.495 509.227C-203.729 617.461 -228.918 722.226 -235.431 772.775C-238.636 783.602 -241.737 794.46 -244.732 805.346C-245.772 809.17 -246.568 812.123 -247.099 814.123L-247.7 816.398L-247.852 816.972L-247.895 817.155L-247.9 817.163L-247.898 817.17L-246.992 817.497L-236.119 794.405L-236.128 794.293C-236.18 789.076 -235.623 781.888 -234.48 772.976C-219.354 721.82 -190.948 633.154 -151.687 542.761C-112.416 452.33 -62.306 360.219 -3.81858 302.162C76.2122 222.717 168.409 205.252 263.634 190.775C269.057 189.949 274.49 189.134 279.938 188.322C370.007 174.814 462.293 160.976 548.861 97.2173C640.775 29.5281 639.901 -62.2674 631.119 -151.225C630.232 -160.19 629.27 -169.121 628.307 -178.002C624.504 -213.204 620.797 -247.521 622.563 -279.311C624.771 -319.099 635.54 -354.853 665.372 -383.345C700.363 -416.757 740.307 -441.51 783.259 -459.318C848.834 -461.65 919.793 -469.019 992.129 -498.366C1111.24 -500.146 1230.86 -474.676 1320.73 -448.761C1357.41 -438.197 1393.66 -426.228 1429.42 -412.882C1439.64 -409.062 1449.81 -405.094 1459.91 -400.979C1463.46 -399.529 1466.99 -398.047 1470.52 -396.533L1470.68 -396.462L1470.69 -396.464L1470.89 -396.902L1470.69 -396.459L1471.49 -396.11L1451.82 -533.341L1451.74 -533.446L1451.7 -533.414L1451.74 -533.452L1451.73 -533.451L1451.71 -533.48L1451.63 -533.574C1449.59 -535.924 1447.47 -538.205 1445.28 -540.413C1439.28 -546.429 1432.93 -552.09 1426.27 -557.369C1404.13 -574.98 1379.18 -588.725 1352.47 -598.022C1287.97 -620.383 1193.81 -622.842 1075.08 -543.504C1048.94 -525.987 1021.08 -511.186 991.935 -499.332C919.911 -498.247 848.059 -487.201 783.051 -460.28ZM989.422 -498.324C919.012 -470.205 849.937 -462.792 785.849 -460.382C849.313 -486.213 919.233 -497.033 989.422 -498.324ZM994.579 -499.371C1113.01 -500.763 1231.71 -475.444 1321 -449.681C1357.7 -439.114 1393.98 -427.142 1429.76 -413.791C1439.99 -409.971 1450.16 -406 1460.27 -401.88C1463.62 -400.512 1466.96 -399.117 1470.28 -397.694L1450.9 -532.93L1450.89 -532.948L1450.59 -533.301L1449.99 -533.982L1449.38 -534.672C1448.32 -535.86 1446.71 -537.587 1444.59 -539.723C1438.62 -545.715 1432.3 -551.354 1425.67 -556.61C1403.62 -574.152 1378.76 -587.843 1352.15 -597.105C1287.95 -619.362 1194.11 -621.874 1075.62 -542.703C1050.11 -525.608 1022.96 -511.093 994.579 -499.371ZM-236.115 778.56C-239.391 789.765 -242.554 801.002 -245.603 812.27L-237.095 794.19C-237.13 790.099 -236.8 784.851 -236.115 778.56ZM1280.38 -175.178C1242.28 -171.234 1207.61 -163.351 1181.42 -149.892C1104.01 -110.134 1083.95 -42.3026 1067.62 36.7928C1066.11 44.1177 1064.63 51.5453 1063.14 59.0482C1048.72 131.454 1032.89 210.956 971.598 274.468C871.766 377.924 741.121 381.976 618.538 385.783L606.165 386.172C478.327 390.263 360.65 397.609 279.196 506.966C238.641 561.42 228.971 623.72 219.026 687.759C218.13 693.579 217.218 699.418 216.286 705.262C205.266 774.451 190.53 844.649 127.281 897.711C67.9489 947.488 -21.9739 961.939 -94.7743 964.613C-126.088 965.69 -157.437 964.936 -188.662 962.353C-198.162 961.576 -207.647 960.612 -217.109 959.463C-220.404 959.057 -223.694 958.617 -226.979 958.143L-227.528 958.062L-227.722 958.029L-227.735 958.032L-225.87 946.052C-225.242 942.06 -224.62 938.066 -224.005 934.072L-223.878 934.095L-223.418 934.164L-221.538 934.436C-219.866 934.671 -217.377 935.008 -214.147 935.402C-207.693 936.192 -198.303 937.235 -186.674 938.19C-163.393 940.102 -131.23 941.69 -95.6638 940.388C-23.7933 937.75 58.9584 923.392 111.701 879.145C167.493 832.331 181.35 770.489 192.345 701.449C193.294 695.508 194.221 689.509 195.152 683.473C204.901 620.248 215.422 552.011 259.756 492.48C348.999 372.666 478.806 365.992 605.387 361.939L614.881 361.645C739.862 357.701 861.281 353.879 954.157 257.64C1010.23 199.517 1024.75 127.093 1039.43 53.8788C1040.89 46.5531 1042.37 39.2189 1043.88 31.8873C1060.29 -47.593 1082.07 -126.111 1170.34 -171.464C1200.38 -186.889 1238.47 -195.2 1277.89 -199.286C1317.46 -203.39 1359.25 -203.314 1397.23 -201.435C1439.75 -199.253 1482.12 -194.9 1524.19 -188.392C1527.79 -187.827 1531.38 -187.236 1534.97 -186.619L1535.16 -186.585L1535.17 -186.587C1535.18 -186.589 1535.18 -186.582 1533.05 -174.651L1531.22 -164.46L1530.91 -162.719L1530.88 -162.725L1530.76 -162.743L1530.26 -162.83L1529.19 -163.019L1528.26 -163.175C1516.03 -165.181 1503.78 -166.98 1491.49 -168.57C1459.8 -172.699 1427.95 -175.587 1396.03 -177.227C1358.79 -179.062 1318.32 -179.108 1280.38 -175.178Z" fill="#5D86FF"/>
<path opacity="0.5" fill-rule="evenodd" clip-rule="evenodd" d="M1265.99 -231.757C1227.87 -227.694 1192.17 -219.6 1164.43 -205.348C1082.68 -163.359 1061.94 -91.2519 1045.57 -12.0042C1044.05 -4.65754 1042.58 2.7417 1041.09 10.1795C1026.58 82.8938 1011.27 159.552 952.065 220.905C855.024 321.47 728.077 325.435 604.611 329.293L593.297 329.648C465.968 333.723 343.435 340.797 258.874 454.339C217.825 509.445 200.916 575.279 184.149 640.577C182.108 648.552 180.044 656.522 177.957 664.485C158.827 737.221 136.191 807.472 75.6817 857.558C20.6345 903.112 -54.8841 914.023 -116.282 913.67C-142.302 913.468 -168.275 911.417 -194.005 907.535C-201.765 906.374 -209.496 905.023 -217.19 903.484C-219.915 902.933 -222.03 902.475 -223.468 902.155L-225.105 901.783L-225.531 901.683L-225.638 901.655L-225.668 901.649L-225.677 901.644L-225.104 899.291L-224.525 896.937L-224.501 896.945L-224.403 896.968L-224.001 897.06C-223.644 897.142 -223.112 897.27 -222.409 897.423C-221.008 897.738 -218.922 898.19 -216.228 898.735C-208.613 900.256 -200.962 901.592 -193.282 902.743C-167.783 906.59 -142.043 908.621 -116.257 908.824C-55.2358 909.178 18.8706 898.282 72.5887 853.824C131.787 804.823 154.133 735.987 173.27 663.25C175.353 655.295 177.412 647.334 179.447 639.367C196.18 574.178 213.332 507.368 254.98 451.439C341.103 335.813 466.054 328.867 593.146 324.806L603.88 324.464C727.822 320.578 852.923 316.659 948.577 217.533C1006.74 157.264 1021.78 82.0156 1036.35 9.14359C1037.83 1.74254 1039.31 -5.64162 1040.82 -12.9798C1057.21 -92.3113 1078.29 -166.552 1162.22 -209.667C1190.71 -224.305 1227.09 -232.48 1265.48 -236.575C1303.89 -240.674 1344.48 -240.688 1381.5 -238.906C1422.85 -236.833 1464.06 -232.612 1504.97 -226.26C1508.36 -225.723 1510.99 -225.29 1512.78 -224.987L1514.82 -224.636L1515.22 -224.564L1515.48 -224.52L1515.51 -224.509L1515.09 -222.126L1514.66 -219.739L1514.65 -219.737L1514.62 -219.75L1514.49 -219.772L1513.99 -219.857L1511.97 -220.207C1499.89 -222.201 1487.77 -223.985 1475.63 -225.559C1444.3 -229.646 1412.82 -232.482 1381.27 -234.061C1344.4 -235.841 1304.08 -235.813 1265.99 -231.757ZM1225.9 -849.109C1154.93 -775.593 1023.11 -689.345 779.186 -633.445C723.051 -620.582 673.816 -626.6 628.571 -632.121C622.132 -632.908 615.782 -633.683 609.498 -634.398C558.801 -640.131 511.816 -641.89 458.862 -614.691C381.457 -574.932 361.397 -507.101 345.06 -428.003C343.549 -420.68 342.073 -413.253 340.575 -405.748C326.16 -333.344 310.331 -253.842 249.042 -190.33C149.21 -86.8742 18.5575 -82.8202 -104.019 -79.0155L-116.391 -78.6256C-244.238 -74.5404 -361.913 -67.1876 -443.362 42.1607L-462.802 27.6755C-373.558 -92.1318 -243.749 -98.7999 -117.169 -102.859L-107.675 -103.154C17.3053 -107.097 138.717 -110.917 231.598 -207.165C287.678 -265.281 302.194 -337.705 316.869 -410.919C318.337 -418.245 319.809 -425.579 321.319 -432.909C337.737 -512.391 359.51 -590.909 447.779 -636.262C507.291 -666.828 560.258 -664.365 612.218 -658.487C618.757 -657.748 625.268 -656.959 631.763 -656.172C677.146 -650.667 722.05 -645.225 773.773 -657.07C1014.26 -712.185 1141.49 -796.568 1208.47 -865.946C1241.97 -900.646 1260.56 -931.763 1270.74 -953.879C1275.83 -964.958 1278.83 -973.803 1280.54 -979.764C1281.32 -982.48 1281.99 -985.228 1282.54 -988.001L1282.59 -988.307C1282.59 -988.299 1282.59 -988.285 1294.58 -986.538C1306.58 -984.776 1306.57 -984.768 1306.57 -984.753L1306.56 -984.723L1306.56 -984.643L1306.54 -984.531L1306.52 -984.42L1306.4 -983.733C1305.71 -980.145 1304.85 -976.591 1303.84 -973.082C1301.81 -966.012 1298.39 -956 1292.76 -943.758C1281.48 -919.24 1261.37 -885.837 1225.9 -849.102L1225.9 -849.109Z" fill="#5D86FF"/>
<path opacity="0.5" fill-rule="evenodd" clip-rule="evenodd" d="M1185.03 -746.868C1090.32 -684.72 956.892 -617.31 802.279 -596.48C752.242 -589.735 708.451 -594.371 667.089 -598.762C656.523 -599.914 645.945 -600.962 635.357 -601.903C584.483 -606.279 535.553 -605.524 479.909 -576.942C398.157 -534.944 377.414 -462.837 361.046 -383.589C359.532 -376.251 358.057 -368.845 356.57 -361.407C342.052 -288.697 326.743 -212.032 267.544 -150.682C170.502 -50.1234 43.5505 -46.15 -79.9155 -42.292L-91.223 -41.9383C-218.561 -37.8683 -341.092 -30.7874 -425.653 82.7541L-429.545 79.8611C-343.417 -35.773 -218.466 -42.7196 -91.3763 -46.787L-80.6471 -47.1209C43.2953 -51.007 168.403 -54.9277 264.051 -154.052C322.216 -214.321 337.263 -289.571 351.83 -362.443C353.306 -369.842 354.786 -377.228 356.3 -384.566C372.682 -463.896 393.771 -538.139 477.693 -581.252C534.513 -610.441 584.512 -611.141 635.77 -606.74C646.4 -605.823 657.065 -604.695 667.854 -603.557C709.156 -599.179 752.233 -594.629 801.633 -601.282C955.277 -621.981 1088.01 -689.006 1182.38 -750.918C1229.54 -781.869 1267.1 -811.52 1292.86 -833.433C1302.9 -841.948 1312.74 -850.697 1322.37 -859.675C1325.58 -862.681 1328.76 -865.728 1331.89 -868.817L1332.37 -869.302L1332.49 -869.419L1332.52 -869.457L1334.25 -867.756L1335.98 -866.054L1335.96 -866.044L1335.94 -866.009L1335.81 -865.881L1335.31 -865.386L1333.35 -863.459C1331.63 -861.772 1329.06 -859.297 1325.68 -856.135C1316 -847.104 1306.1 -838.302 1296.01 -829.736C1270.12 -807.724 1232.4 -777.945 1185.03 -746.868ZM1305.53 135.219C1276.52 142.538 1247.13 158.235 1216.21 190.269C1165.19 243.143 1144.31 310.128 1120.38 386.89L1116.48 399.349C1091.02 480.708 1060.63 570.551 985.156 657.182C930.658 719.743 862.547 729.48 792.825 733.094C782.597 733.628 772.343 734.034 762.074 734.437C701.553 736.825 640.44 739.235 580.043 767.668C502.576 804.14 468.991 862.692 434.78 923.268L433.789 925.014C400.048 984.767 365.045 1046.77 284.35 1081.39C201.665 1116.88 88.0711 1114.55 -3.10153 1104.07C-42.0838 1099.52 -80.8443 1093.25 -119.268 1085.26C-130.884 1082.85 -142.463 1080.26 -154 1077.5C-158.095 1076.51 -161.275 1075.72 -163.45 1075.17L-165.929 1074.53L-166.573 1074.36L-166.748 1074.31L-166.809 1074.3L-163.684 1062.59L-160.559 1050.87L-160.52 1050.88L-160.383 1050.92L-159.808 1051.07L-157.468 1051.68C-155.392 1052.2 -152.317 1052.97 -148.33 1053.93C-137.038 1056.63 -125.707 1059.16 -114.339 1061.52C-76.6304 1069.36 -38.5921 1075.52 -0.336329 1079.99C90.35 1090.41 198.377 1091.91 274.788 1059.12C347.885 1027.75 379.355 972.113 413.67 911.344C447.827 850.86 484.604 785.81 569.725 745.735C634.938 715.036 701.485 712.479 761.889 710.159C771.963 709.773 781.868 709.389 791.57 708.889C860.21 705.323 919.305 695.859 966.882 641.26C1038.83 558.679 1068.01 473.035 1093.35 392.11L1097.71 378.13C1121.13 302.828 1143.62 230.59 1198.77 173.433C1232.52 138.453 1265.81 120.239 1299.6 111.711C1333.06 103.272 1366.23 104.562 1399.02 107.22C1405.19 107.719 1411.35 108.26 1417.52 108.812C1477.5 114.135 1538.5 119.549 1610.32 82.6549L1621.39 104.222C1543.07 144.453 1475.42 138.373 1415.52 132.985C1409.29 132.428 1403.14 131.876 1397.06 131.383C1364.64 128.753 1334.88 127.811 1305.53 135.219Z" fill="#5D86FF"/>
<path opacity="0.5" fill-rule="evenodd" clip-rule="evenodd" d="M1550.26 241.397C1541.54 260.43 1527.07 278.444 1501.73 295.233C1460.07 322.837 1412.74 328.531 1360.31 334.836L1351.34 335.914C1295.46 342.716 1234.37 351.605 1170.03 389.685C1124.89 416.393 1110.82 457.501 1100.16 502.18C1098.62 508.65 1097.15 515.194 1095.66 521.784C1086.87 560.852 1077.71 601.543 1051.25 638.418C1017.09 686.027 973.362 701.303 929.874 716.287L929.06 716.569C885.909 731.427 842.956 746.225 811.798 792.986C779.666 841.212 767.599 914.091 763.493 974.551C761.783 1000.29 761.22 1026.09 761.805 1051.87C762.03 1061.78 762.447 1071.68 763.059 1081.57C763.1 1082.27 763.149 1082.96 763.204 1083.65L763.215 1083.8L765.633 1083.61L768.051 1083.42L768.049 1083.41L768.037 1083.28L768.005 1082.87L767.896 1081.24C767.283 1071.43 766.87 1061.6 766.658 1051.76C766.07 1026.12 766.627 1000.47 768.328 974.878C772.433 914.518 784.458 842.761 815.836 795.677C846.077 750.278 887.663 735.953 931.048 721.012L931.457 720.866C974.92 705.897 1020.05 690.225 1055.19 641.248C1082.27 603.502 1091.65 561.749 1100.43 522.707C1101.9 516.154 1103.36 509.68 1104.88 503.307C1115.48 458.835 1129.17 419.495 1172.49 393.858C1235.92 356.329 1296.14 347.518 1351.93 340.732C1355.03 340.35 1358.13 339.983 1361.21 339.612C1413.33 333.354 1461.76 327.538 1504.41 299.269C1530.43 282.034 1545.54 263.344 1554.67 243.419C1563.76 223.55 1566.84 202.605 1569.03 181.035C1569.45 176.987 1569.83 172.913 1570.21 168.811C1573.93 129.175 1577.85 87.3118 1611.5 43.6833L1607.66 40.7194C1573.12 85.5036 1569.08 128.707 1565.39 168.332C1565 172.442 1564.62 176.516 1564.21 180.547C1562.03 202.037 1559 222.306 1550.26 241.397Z" fill="#5D86FF"/>
</g>
<mask id="mask2_747_816" style="mask-type:luminance" maskUnits="userSpaceOnUse" x="-340" y="-640" width="2056" height="1793">
<path d="M26.7947 1152.13L1708.1 701.623C1713.27 700.237 1716.34 694.922 1714.95 689.75L1360.82 -631.876C1359.44 -637.048 1354.12 -640.117 1348.95 -638.731L-332.352 -188.227C-337.523 -186.842 -340.592 -181.526 -339.207 -176.355L14.9222 1145.27C16.3079 1150.44 21.6233 1153.51 26.7947 1152.13Z" fill="white"/>
</mask>
<g mask="url(#mask2_747_816)">
<path fill-rule="evenodd" clip-rule="evenodd" d="M785.464 901.608C825.349 895.811 862.169 878.735 896.458 838.664C935.497 793.029 929.967 738.681 923.418 674.342L923.301 673.214C916.75 608.869 909.752 535.817 950.364 457.212C971.132 417.021 1009.86 392.757 1057.05 376.249C1103.97 359.827 1160.06 350.796 1216.78 341.669L1217.64 341.531C1274.87 332.318 1332.76 322.954 1383.67 305.897C1434.56 288.846 1477.89 264.296 1506.39 225.087C1529.87 192.781 1547.13 145.464 1559.72 92.1836C1572.28 38.9955 1580.08 -19.666 1584.9 -74.3164C1589.71 -128.945 1591.53 -179.468 1592.13 -216.335C1592.38 -230.949 1592.46 -245.565 1592.38 -260.181C1592.34 -265.38 1592.28 -269.423 1592.24 -272.172L1592.18 -275.288L1592.16 -276.08L1592.16 -276.271L1592.15 -276.335L1597 -276.46L1601.85 -276.576L1601.85 -276.563L1601.86 -276.301L1601.87 -275.494L1601.93 -272.328C1601.98 -269.558 1602.03 -265.479 1602.07 -260.243C1602.16 -245.555 1602.08 -230.866 1601.83 -216.18C1601.21 -179.145 1599.39 -128.386 1594.56 -73.46C1589.72 -18.554 1581.86 40.612 1569.15 94.4096C1556.47 148.108 1538.85 196.922 1514.23 230.785C1484.07 272.292 1438.59 297.723 1386.76 315.092C1334.95 332.447 1276.24 341.916 1219.19 351.102L1218.9 351.144C1161.74 360.352 1106.35 369.265 1060.25 385.397C1014.11 401.547 978.108 424.646 958.98 461.665C919.816 537.462 926.394 607.858 932.945 672.231L933.254 675.216C939.652 737.958 945.588 796.155 903.826 844.968C867.945 886.903 828.959 905.086 786.861 911.206C746.772 917.036 703.892 911.893 658.749 906.487L653.1 905.808C558.423 894.493 451.729 883.565 329.512 965.239C204.915 1048.5 97.4225 1068.25 20.8744 1067.03C-17.3671 1066.42 -47.8303 1060.57 -68.7773 1054.86C-76.9324 1052.67 -84.9712 1050.06 -92.863 1047.05C-95.5387 1046.02 -98.1849 1044.92 -100.799 1043.74C-100.944 1043.67 -101.088 1043.6 -101.231 1043.53L-101.345 1043.48L-101.385 1043.46L-101.394 1043.45C-101.395 1043.45 -101.402 1043.45 -99.2674 1039.09L-97.1376 1034.74L-97.1226 1034.74L-97.0486 1034.78L-96.7056 1034.94C-96.3897 1035.09 -95.9023 1035.31 -95.2505 1035.59C-93.95 1036.17 -91.9765 1037 -89.3647 1038.01C-81.7824 1040.9 -74.0593 1043.4 -66.2248 1045.5C-45.953 1051.03 -16.311 1056.73 21.0315 1057.33C95.6412 1058.52 201.19 1039.32 324.12 957.175C449.435 873.439 559.234 884.823 654.249 896.176L659.331 896.786C704.973 902.25 746.682 907.245 785.464 901.608Z" fill="#FF5370"/>
<path fill-rule="evenodd" clip-rule="evenodd" d="M161.655 847.681C34.309 839.155 -89.2629 800.038 -162.123 731.645L-158.807 728.109C-87.106 795.417 35.1721 834.355 161.976 842.848C288.758 851.34 419.441 829.363 507.79 775.519C548.819 750.51 569.648 715.271 581.134 674.57C591.166 639.042 594.041 599.516 596.987 559.032C597.434 552.969 597.875 546.887 598.343 540.797C601.93 494.149 607.031 446.938 624.803 404.595C642.618 362.149 673.131 324.67 727.329 297.407C816.863 252.342 903.043 236.431 984.874 221.323C1001.46 218.268 1017.86 215.238 1034.08 212.004C1130.38 192.818 1220.36 166.461 1303.48 83.9442C1380.74 7.24925 1440.81 -117.901 1481.6 -224.155C1498.76 -269.006 1514.22 -314.49 1527.94 -360.51C1532.06 -374.282 1535.99 -388.108 1539.74 -401.985C1541.08 -406.962 1542.38 -411.949 1543.65 -416.946L1543.71 -417.19L1546.06 -416.611L1548.41 -416.031L1548.35 -415.779L1548.16 -415.017L1547.41 -412.068C1546.75 -409.47 1545.75 -405.645 1544.42 -400.726C1540.66 -386.805 1536.72 -372.935 1532.58 -359.12C1522.12 -324.032 1506.56 -275.633 1486.13 -222.414C1445.3 -116.065 1384.94 9.91864 1306.9 87.3855C1222.75 170.915 1131.64 197.506 1035.03 216.759C1018.7 220.01 1002.22 223.061 985.586 226.129C903.782 241.237 818.371 257.012 729.506 301.735C676.39 328.466 646.661 365.044 629.27 406.473C611.838 448.013 606.767 494.511 603.176 541.168C602.714 547.227 602.267 553.29 601.831 559.336C598.892 599.768 595.972 639.846 585.799 675.882C574.069 717.453 552.636 753.865 510.316 779.66C420.823 834.203 289.034 856.22 161.655 847.681Z" fill="#FF5370"/>
<path d="M1390.81 252.255C1214.26 460.064 793.52 290.946 753.247 520.601C720.149 709.379 941.272 767.191 869.445 865.271C810.274 946.066 706.008 932.672 582.906 937.038C517.921 963.966 446.067 975.006 374.029 976.088C344.818 987.961 316.898 1002.79 290.704 1020.34C53.5017 1178.86 -85.3008 1010.38 -85.3008 1010.38L-104.823 874.144C-104.823 874.144 135.606 979.673 374.029 976.088C446.35 946.738 517.301 939.364 582.906 937.038C625.937 919.209 665.962 894.413 701.021 860.933C820.838 746.528 634.126 515.465 817.492 380.41C1000.85 245.356 1209.91 334.549 1370.22 175.422C1487.33 59.1734 1570.77 -193.308 1601.01 -295.639C1602.16 -304.567 1602.73 -311.808 1602.67 -317.058L1613.49 -340.051C1613.49 -340.051 1609.2 -323.35 1601.01 -295.639C1588.02 -194.655 1500.29 123.396 1390.81 252.255Z" fill="#FF5370"/>
<path fill-rule="evenodd" clip-rule="evenodd" d="M750.077 929.341C798.857 922.05 839.571 905.24 869.055 864.984C877.985 852.783 882.35 841.236 883.234 830.003C884.117 818.769 881.529 807.811 876.496 796.783C867.516 777.11 850.812 757.294 832.346 735.395L825.496 727.258C783.322 676.935 736.18 615.139 752.769 520.515C757.818 491.731 768.833 469.171 784.596 451.338C800.359 433.506 820.862 420.425 844.839 410.563C892.786 390.84 954.749 383.952 1020.88 377.757C1026.34 377.24 1031.83 376.735 1037.36 376.224C1098.62 370.562 1162.75 364.632 1222.24 349.089C1287.09 332.147 1346.38 303.79 1390.44 251.943C1445.11 187.584 1494.39 75.9364 1531.64 -32.2997C1567.38 -136.206 1592.01 -236.891 1599.66 -289.406C1584.14 -237.466 1556.41 -152.107 1518.63 -65.1292C1479.35 25.3255 1429.19 117.579 1370.56 175.767C1290.29 255.454 1197.8 272.948 1102.57 287.424C1097.16 288.249 1091.74 289.061 1086.31 289.874C996.208 303.384 904.141 317.191 817.776 380.803C726.321 448.163 727.126 539.436 735.902 628.367C736.789 637.311 737.748 646.228 738.708 655.096C742.512 690.305 746.233 724.724 744.463 756.608C742.251 796.539 731.429 832.571 701.357 861.284C666.909 894.173 627.691 918.689 585.543 936.466C603.371 935.921 621.205 935.561 639.04 935.385C679.14 934.853 716.488 934.355 750.077 929.341ZM583.014 937.521C602.143 936.844 620.831 936.598 638.973 936.356C679.108 935.823 716.569 935.323 750.22 930.299C799.145 922.991 840.149 906.096 869.835 865.558C878.855 853.24 883.296 841.524 884.202 830.085C885.1 818.641 882.455 807.521 877.378 796.383C868.341 776.576 851.536 756.651 833.093 734.782C830.828 732.093 828.542 729.382 826.24 726.632C784.079 676.334 737.217 614.84 753.725 520.686C758.746 492.059 769.686 469.668 785.324 451.983C800.968 434.29 821.327 421.283 845.207 411.46C892.994 391.802 954.811 384.925 1020.96 378.723C1026.43 378.204 1031.93 377.699 1037.45 377.188C1098.71 371.528 1162.91 365.592 1222.49 350.027C1287.45 333.055 1346.95 304.628 1391.17 252.571C1445.98 188.063 1495.31 76.2612 1532.55 -31.99C1569.79 -140.218 1594.98 -244.982 1601.49 -295.539C1604.69 -306.366 1607.79 -317.224 1610.79 -328.11C1611.8 -331.786 1612.79 -335.468 1613.76 -339.155L1613.91 -339.736L1613.95 -339.918L1613.96 -339.92L1613.96 -339.927L1613.05 -340.253L1602.18 -317.164L1602.18 -317.057C1602.24 -311.84 1601.68 -304.644 1600.53 -295.738C1585.41 -244.576 1557 -155.917 1517.75 -65.5178C1478.47 24.9134 1428.36 117.025 1369.88 175.081C1289.85 254.526 1197.65 271.991 1102.42 286.468L1086.12 288.922C996.052 302.429 903.764 316.261 817.195 380.019C725.283 447.715 726.155 539.504 734.94 628.468C735.834 637.396 736.771 646.32 737.75 655.239C741.552 690.441 745.26 724.757 743.495 756.554C741.287 796.342 730.519 832.096 700.685 860.582C665.694 893.993 625.751 918.753 582.8 936.561C517.223 938.886 446.266 946.262 373.929 975.609C254.816 977.383 135.194 951.919 45.3291 925.997C8.65391 915.434 -27.6022 903.467 -63.3593 890.123C-73.5824 886.309 -83.7474 882.342 -93.8511 878.222C-97.3673 876.787 -100.063 875.651 -101.877 874.885C-102.786 874.495 -103.483 874.205 -103.936 873.999C-104.175 873.906 -104.338 873.829 -104.459 873.776L-104.62 873.705L-104.629 873.7L-104.83 874.146L-104.635 873.702L-105.433 873.354L-85.7659 1010.58L-85.6808 1010.69L-85.679 1010.7L-85.6502 1010.72L-85.577 1010.81L-85.2657 1011.18L-84.0484 1012.56C-82.9726 1013.76 -81.3607 1015.5 -79.2249 1017.65C-73.2208 1023.66 -66.8724 1029.33 -60.2117 1034.61C-38.0775 1052.22 -13.1265 1065.97 13.5879 1075.27C78.0841 1097.62 172.247 1100.08 290.976 1020.75C318.744 1002.19 346.535 987.782 374.124 976.575C446.145 975.483 517.999 964.444 583.007 937.523L583.014 937.521ZM376.636 975.567C447.046 947.448 516.119 940.029 580.209 937.625C516.744 963.449 446.825 974.276 376.636 975.567ZM371.478 976.608C253.047 978.006 134.346 952.687 45.0578 926.924C8.35705 916.358 -27.9243 904.386 -63.7059 891.034C-73.9336 887.215 -84.1042 883.244 -94.2145 879.124C-97.7325 877.682 -100.435 876.548 -102.257 875.777L-104.226 874.938L-84.8439 1010.17L-84.8386 1010.19L-84.5308 1010.54L-83.9357 1011.23L-83.3255 1011.91C-81.7682 1013.63 -80.1701 1015.32 -78.5326 1016.97C-72.559 1022.96 -66.241 1028.59 -59.6108 1033.85C-37.5614 1051.39 -12.7067 1065.08 13.9043 1074.35C78.1019 1096.6 171.952 1099.12 290.432 1019.94C315.944 1002.84 343.093 988.329 371.478 976.608ZM1602.17 -301.317C1605.45 -312.523 1608.61 -323.762 1611.66 -335.034L1603.15 -316.953C1603.19 -312.863 1602.86 -307.608 1602.17 -301.317ZM85.6755 652.415C123.772 648.47 158.45 640.587 184.64 627.136C262.045 587.377 282.105 519.546 298.435 440.45C299.951 433.119 301.428 425.698 302.927 418.193C317.341 345.789 333.171 266.287 394.46 202.775C494.292 99.3194 624.936 95.2605 747.519 91.454L759.893 91.0707C887.731 86.9807 1005.41 79.6346 1086.86 -29.7204C1127.42 -84.1768 1137.09 -146.477 1147.03 -210.514C1147.93 -216.338 1148.84 -222.175 1149.77 -228.026C1160.79 -297.207 1175.52 -367.404 1238.78 -420.474C1298.11 -470.252 1388.03 -484.702 1460.83 -487.376C1492.14 -488.454 1523.49 -487.697 1554.72 -485.11C1566.71 -484.124 1576.42 -483.054 1583.17 -482.22C1586.46 -481.813 1589.75 -481.373 1593.04 -480.9L1593.59 -480.819L1593.78 -480.792L1593.79 -480.789L1591.93 -468.809L1590.06 -456.835L1589.94 -456.852L1589.48 -456.921L1587.6 -457.192C1585.92 -457.428 1583.44 -457.765 1580.21 -458.159C1571.07 -459.271 1561.91 -460.201 1552.73 -460.947C1529.45 -462.865 1497.29 -464.453 1461.72 -463.145C1389.85 -460.507 1307.1 -446.148 1254.36 -401.902C1198.56 -355.094 1184.72 -293.247 1173.71 -224.206C1172.76 -218.216 1171.82 -212.224 1170.91 -206.23C1161.16 -143.004 1150.64 -74.7682 1106.3 -15.2437C1017.06 104.57 887.252 111.252 760.671 115.304L751.177 115.599C626.195 119.536 504.778 123.364 411.902 219.603C355.823 277.726 341.305 350.144 326.631 423.358C325.163 430.684 323.692 438.024 322.175 445.349C305.764 524.836 283.991 603.354 195.721 648.701C165.677 664.132 127.591 672.444 88.1724 676.529C48.6026 680.633 6.80954 680.557 -31.1815 678.68C-73.6922 676.494 -116.064 672.14 -158.13 665.635C-160.831 665.212 -163.53 664.775 -166.226 664.323L-168.36 663.956L-168.912 663.862L-169.106 663.828L-169.114 663.823L-166.987 651.894L-165.164 641.697L-164.846 639.961L-164.823 639.969L-164.704 639.987L-164.204 640.073L-163.13 640.255L-162.197 640.418C-160.416 640.717 -157.78 641.149 -154.369 641.687C-113.149 648.057 -71.6307 652.322 -29.9762 654.464C7.2721 656.305 47.7405 656.352 85.6755 652.415Z" fill="#FF5370"/>
<path fill-rule="evenodd" clip-rule="evenodd" d="M100.067 708.993C138.181 704.93 173.894 696.842 201.627 682.592C283.372 640.596 304.117 568.495 320.483 489.241C322.004 481.901 323.48 474.501 324.966 467.057C339.479 394.356 354.788 317.691 413.987 256.34C511.035 155.773 637.981 151.809 761.447 147.95L772.759 147.588C900.091 143.52 1022.62 136.439 1107.19 22.9026C1148.23 -32.2022 1165.14 -98.0359 1181.91 -163.334C1183.96 -171.321 1186.01 -179.294 1188.1 -187.242C1207.23 -259.984 1229.87 -330.235 1290.38 -380.314C1345.42 -425.874 1420.93 -436.785 1482.34 -436.434C1508.36 -436.227 1534.33 -434.174 1560.06 -430.292C1567.82 -429.133 1575.55 -427.785 1583.25 -426.247C1585.89 -425.711 1588.53 -425.142 1591.16 -424.539L1591.59 -424.44L1591.7 -424.412L1591.73 -424.406L1591.73 -424.407L1591.16 -422.048L1590.59 -419.695L1590.58 -419.693L1590.56 -419.701L1590.46 -419.725L1590.06 -419.816C1589.7 -419.899 1589.17 -420.027 1588.47 -420.18C1587.06 -420.501 1584.98 -420.953 1582.29 -421.492C1574.67 -423.015 1567.02 -424.352 1559.34 -425.5C1533.84 -429.345 1508.1 -431.377 1482.31 -431.58C1421.29 -431.933 1347.19 -421.046 1293.47 -376.581C1234.27 -327.579 1211.92 -258.751 1192.79 -186.014C1190.7 -178.089 1188.66 -170.118 1186.61 -162.124C1169.88 -96.9349 1152.73 -30.1248 1111.08 25.7974C1024.96 141.43 899.995 148.371 772.912 152.437L762.178 152.779C638.236 156.666 513.133 160.578 417.479 259.704C359.322 319.978 344.275 395.228 329.706 468.093C328.225 475.501 326.752 482.885 325.237 490.223C308.854 569.546 287.767 643.795 203.843 686.902C175.345 701.542 138.967 709.723 100.577 713.818C62.164 717.911 21.5783 717.932 -15.4424 716.143C-56.7871 714.072 -97.9961 709.853 -138.902 703.501C-142.298 702.966 -144.934 702.534 -146.717 702.228L-148.761 701.879L-149.157 701.807L-149.418 701.763L-149.456 701.752L-149.028 699.367L-148.6 696.982L-148.563 696.986L-148.436 697.009L-147.927 697.101L-145.913 697.444C-144.139 697.744 -141.523 698.182 -138.149 698.715C-97.4125 705.039 -56.3748 709.24 -15.2019 711.303C21.6601 713.084 61.9806 713.056 100.067 708.993ZM60.5285 342.024C89.5429 334.706 118.93 319.002 149.843 286.975C200.872 234.098 221.748 167.109 245.678 90.3471L249.571 77.8875C275.036 -3.45615 305.423 -93.3077 380.902 -179.939C435.4 -242.499 503.51 -252.237 573.231 -255.858C583.459 -256.392 593.715 -256.791 603.984 -257.194C664.504 -259.588 725.616 -261.998 786.013 -290.431C863.48 -326.904 897.072 -385.457 931.278 -446.025L932.267 -447.778C966.008 -507.531 1001.01 -569.523 1081.71 -604.156C1164.39 -639.642 1277.99 -637.304 1369.16 -626.822C1408.14 -622.282 1446.9 -616.006 1485.33 -608.012C1496.94 -605.605 1508.52 -603.02 1520.06 -600.258C1524.04 -599.301 1528.02 -598.312 1531.99 -597.29L1532.64 -597.116L1532.81 -597.069L1532.87 -597.056L1529.74 -585.343L1526.62 -573.631L1526.61 -573.629L1526.58 -573.642L1526.44 -573.676L1525.86 -573.835L1523.53 -574.432C1521.46 -574.96 1518.37 -575.728 1514.39 -576.688C1503.09 -579.392 1491.76 -581.922 1480.39 -584.276C1442.68 -592.123 1404.65 -598.284 1366.39 -602.743C1275.71 -613.169 1167.67 -614.671 1091.26 -581.876C1018.17 -550.505 986.703 -494.869 952.386 -434.108C918.229 -373.624 881.454 -308.566 796.34 -268.493C731.12 -237.793 664.573 -235.236 604.169 -232.916C594.094 -232.53 584.188 -232.153 574.488 -231.646C505.846 -228.087 446.751 -218.622 399.176 -164.016C327.231 -81.4355 298.042 4.20168 272.709 85.1329C271.246 89.7953 269.797 94.4541 268.348 99.1129C244.921 174.409 222.442 246.653 167.287 303.81C133.526 338.785 100.251 357.004 66.4573 365.532C32.9958 373.971 -0.169211 372.68 -32.9669 370.023C-39.129 369.525 -45.2903 368.976 -51.4648 368.431C-111.449 363.102 -172.443 357.694 -244.261 394.582L-255.333 373.022C-177.016 332.791 -109.365 338.87 -49.4668 344.252C-43.2302 344.815 -37.0823 345.367 -31.0088 345.854C1.41159 348.484 31.1803 349.426 60.5285 342.024Z" fill="#FF5370"/>
<path fill-rule="evenodd" clip-rule="evenodd" d="M-184.204 235.84C-175.487 216.814 -161.011 198.8 -135.673 182.01C-94.0153 154.407 -46.6792 148.712 5.74627 142.409L14.7151 141.322C70.5978 134.534 131.682 125.64 196.027 87.5585C241.168 60.8435 255.235 19.7356 265.897 -24.9438C267.44 -31.4069 268.909 -37.9572 270.395 -44.5478C279.189 -83.6091 288.349 -124.306 314.805 -161.175C348.966 -208.784 392.694 -224.067 436.183 -239.044L436.996 -239.332C480.147 -254.19 523.102 -268.981 554.258 -315.75C586.392 -363.969 598.459 -436.847 602.565 -497.308C604.273 -523.044 604.836 -548.843 604.252 -574.629C604.029 -584.536 603.611 -594.438 602.999 -604.329C602.957 -605.024 602.909 -605.718 602.854 -606.411L602.843 -606.558L600.423 -606.372L598.005 -606.18L598.007 -606.173L598.019 -606.048L598.052 -605.63L598.16 -604.008C598.773 -594.187 599.187 -584.355 599.4 -574.517C599.987 -548.878 599.429 -523.225 597.73 -497.635C593.623 -437.281 581.598 -365.524 550.222 -318.434C519.981 -273.034 478.393 -258.717 435.01 -243.768L434.599 -243.63C391.138 -228.653 346.011 -212.989 310.866 -163.998C283.788 -126.265 274.406 -84.5126 265.622 -45.4681C264.155 -38.9112 262.701 -32.4362 261.177 -26.0634C250.572 18.4016 236.885 57.742 193.563 83.3857C130.138 120.915 69.9216 129.726 14.1323 136.518L4.85038 137.631C-47.274 143.889 -95.7038 149.699 -138.357 177.968C-164.372 195.209 -179.478 213.897 -188.609 233.825C-197.707 253.686 -200.783 274.639 -202.977 296.202C-203.386 300.255 -203.774 304.33 -204.157 308.426C-207.869 348.069 -211.791 389.931 -245.433 433.558L-241.601 436.517C-207.065 391.74 -203.027 348.529 -199.329 308.912C-198.943 304.801 -198.561 300.727 -198.154 296.696C-195.971 275.2 -192.945 254.937 -184.204 235.84Z" fill="#FF5370"/>
</g>
<mask id="mask3_747_816" style="mask-type:luminance" maskUnits="userSpaceOnUse" x="-334" y="-617" width="2056" height="1792">
<path d="M32.727 1174.27L1714.03 723.763C1719.2 722.377 1722.27 717.062 1720.88 711.891L1366.76 -609.736C1365.37 -614.908 1360.05 -617.976 1354.88 -616.591L-326.42 -166.087C-331.591 -164.701 -334.66 -159.386 -333.274 -154.215L20.8545 1167.41C22.2402 1172.58 27.5557 1175.65 32.727 1174.27Z" fill="white"/>
</mask>
<g mask="url(#mask3_747_816)">
<path opacity="0.5" fill-rule="evenodd" clip-rule="evenodd" d="M805.824 940.667C845.707 934.863 882.529 917.794 916.816 877.717C955.855 832.081 950.325 777.733 943.776 713.395L943.658 712.266C937.108 647.921 930.11 574.87 970.722 496.265C991.49 456.073 1030.22 431.816 1077.41 415.301C1124.32 398.879 1180.42 389.849 1237.14 380.721L1238 380.583C1295.23 371.371 1353.12 362.007 1404.03 344.949C1454.92 327.905 1498.25 303.348 1526.74 264.139C1550.23 231.84 1567.49 184.516 1580.07 131.236C1592.63 78.0477 1600.44 19.3863 1605.26 -35.2575C1610.07 -89.8929 1611.88 -140.415 1612.49 -177.283C1612.74 -191.896 1612.82 -206.513 1612.73 -221.128C1612.69 -226.327 1612.64 -230.371 1612.6 -233.12L1612.54 -236.236L1612.52 -237.021L1612.52 -237.219L1612.51 -237.283L1617.36 -237.407L1622.21 -237.524L1622.21 -237.511L1622.22 -237.249L1622.23 -236.435L1622.29 -233.276C1622.34 -230.505 1622.39 -226.427 1622.43 -221.191C1622.52 -206.503 1622.44 -191.814 1622.19 -177.127C1621.57 -140.093 1619.75 -89.3337 1614.92 -34.4078C1610.08 20.4982 1602.22 79.6642 1589.51 133.462C1576.82 187.161 1559.21 235.975 1534.59 269.844C1504.42 311.344 1458.95 336.776 1407.12 354.144C1355.31 371.499 1296.59 380.968 1239.55 390.155L1239.26 390.203C1182.1 399.404 1126.71 408.318 1080.61 424.449C1034.47 440.599 998.466 463.699 979.338 500.717C940.174 576.515 946.752 646.91 953.303 711.283L953.611 714.268C960.01 777.01 965.945 835.207 924.184 884.02C888.303 925.955 849.317 944.138 807.219 950.258C767.13 956.089 724.251 950.951 679.106 945.539L673.458 944.86C578.783 933.552 472.088 922.624 349.87 1004.29C225.275 1087.56 117.78 1107.3 41.2323 1106.08C2.99078 1105.47 -27.4724 1099.63 -48.4194 1093.92C-56.5745 1091.72 -64.6133 1089.11 -72.5051 1086.11C-74.6211 1085.3 -76.7169 1084.44 -78.7906 1083.53C-79.5146 1083.22 -80.0592 1082.96 -80.4323 1082.79L-80.8727 1082.58L-80.9871 1082.53L-81.0274 1082.51L-81.0358 1082.51C-81.0376 1082.5 -81.0442 1082.5 -78.9078 1078.15L-76.7797 1073.79L-76.7647 1073.8L-76.6907 1073.83L-76.3477 1074C-76.0318 1074.14 -75.5444 1074.37 -74.8926 1074.65C-73.5921 1075.22 -71.6186 1076.05 -69.0068 1077.06C-63.7831 1079.08 -55.9944 1081.8 -45.8651 1084.56C-25.5951 1090.08 4.0487 1095.79 41.3894 1096.39C116.001 1097.58 221.548 1078.38 344.479 996.233C469.793 912.491 579.594 923.882 674.609 935.235L679.689 935.838C725.333 941.309 767.042 946.304 805.824 940.667Z" fill="#5D86FF"/>
<path opacity="0.5" fill-rule="evenodd" clip-rule="evenodd" d="M167.59 869.828C40.2413 861.296 -83.3288 822.185 -156.191 753.785L-152.873 750.256C-81.1736 817.557 41.1045 856.495 167.908 864.988C294.691 873.48 425.373 851.503 513.722 797.659C554.752 772.651 575.58 737.411 587.066 696.71C597.098 661.182 599.974 621.656 602.92 581.172C603.366 575.11 603.808 569.027 604.276 562.937C607.862 516.289 612.963 469.078 630.737 426.742C648.55 384.289 679.066 346.817 733.259 319.541C822.796 274.482 908.977 258.578 990.809 243.47C1007.39 240.408 1023.8 237.378 1040.01 234.144C1136.32 214.958 1226.29 188.602 1309.42 106.084C1386.68 29.3961 1446.74 -95.7607 1487.54 -202.009C1504.7 -246.859 1520.16 -292.343 1533.88 -338.363C1537.99 -352.137 1541.92 -365.966 1545.67 -379.844C1547.01 -384.821 1548.32 -389.809 1549.58 -394.806L1549.64 -395.05L1552 -394.471L1554.34 -393.89L1554.28 -393.639L1554.1 -392.877L1553.34 -389.921C1552.68 -387.323 1551.68 -383.504 1550.35 -378.586C1546.59 -364.665 1542.65 -350.795 1538.52 -336.98C1528.05 -301.891 1512.49 -253.492 1492.06 -200.274C1451.24 -93.9251 1390.87 32.0655 1312.83 109.532C1228.68 193.056 1137.57 219.653 1040.97 238.899C1024.63 242.151 1008.15 245.201 991.518 248.269C909.715 263.377 824.304 279.152 735.439 323.875C682.323 350.606 652.593 387.184 635.204 428.62C617.772 470.159 612.699 516.651 609.108 563.308C608.646 569.367 608.2 575.43 607.765 581.483C604.824 621.908 601.905 661.986 591.733 698.029C580.003 739.6 558.569 776.005 516.249 801.8C426.755 856.343 294.966 878.36 167.59 869.828Z" fill="#5D86FF"/>
<path opacity="0.5" d="M1396.74 274.396C1220.19 482.204 799.452 313.086 759.179 542.741C726.081 731.519 947.204 789.331 875.377 887.411C816.208 968.213 711.942 954.819 588.838 959.178C523.853 986.107 452.001 997.153 379.962 998.235C350.751 1010.11 322.831 1024.93 296.636 1042.48C59.4339 1201 -79.3687 1032.52 -79.3687 1032.52L-98.8908 896.284C-98.8908 896.284 141.538 1001.81 379.962 998.235C452.282 968.878 523.233 961.504 588.838 959.178C631.869 941.349 671.895 916.553 706.953 883.073C826.771 768.675 640.058 537.605 823.424 402.55C1006.78 267.496 1215.85 356.69 1376.16 197.562C1493.27 81.3202 1576.7 -171.167 1606.95 -273.492C1608.1 -282.427 1608.66 -289.661 1608.6 -294.918L1619.42 -317.91C1619.42 -317.91 1615.13 -301.21 1606.94 -273.499C1593.95 -172.508 1506.22 145.536 1396.74 274.396Z" fill="#5D86FF"/>
<path opacity="0.5" fill-rule="evenodd" clip-rule="evenodd" d="M756.009 951.481C804.789 944.19 845.503 927.38 874.987 887.124C883.917 874.923 888.282 863.376 889.167 852.149C890.051 840.916 887.462 829.951 882.43 818.929C873.449 799.25 856.744 779.434 838.278 757.535C836.017 754.86 833.731 752.148 831.429 749.398C789.256 699.082 742.112 637.279 758.703 542.662C763.75 513.871 774.766 491.311 790.529 473.479C806.293 455.653 826.794 442.565 850.771 432.703C898.718 412.98 960.681 406.093 1026.81 399.897L1043.29 398.364C1104.55 392.702 1168.68 386.779 1228.18 371.229C1293.02 354.287 1352.32 325.937 1396.37 274.083C1451.05 209.73 1500.33 98.0766 1537.57 -10.1595C1573.31 -114.066 1597.94 -214.751 1605.6 -267.266C1590.07 -215.325 1562.34 -129.966 1524.56 -42.989C1485.29 47.4657 1435.12 139.719 1376.49 197.913C1296.22 277.594 1203.73 295.088 1108.51 309.564C1103.09 310.389 1097.67 311.201 1092.24 312.014C1002.14 325.524 910.073 339.332 823.708 402.944C732.254 470.303 733.059 561.576 741.836 650.514C742.73 659.425 743.665 668.333 744.64 677.236C748.444 712.445 752.165 746.865 750.395 778.748C748.183 818.68 737.361 854.712 707.289 883.424C672.841 916.313 633.625 940.836 591.475 958.607C609.303 958.061 627.137 957.701 644.972 957.525C685.073 956.994 722.42 956.496 756.009 951.481ZM588.946 959.661C608.075 958.984 626.763 958.738 644.905 958.497C685.04 957.963 722.501 957.463 756.152 952.439C805.077 945.131 846.081 928.236 875.767 887.698C884.787 875.38 889.228 863.664 890.134 852.225C891.032 840.781 888.387 829.661 883.31 818.523C874.273 798.716 857.468 778.792 839.025 756.922L832.174 748.779C790.011 698.474 743.149 636.98 759.658 542.826C764.678 514.199 775.618 491.809 791.257 474.123C806.9 456.43 827.259 443.423 851.14 433.601C898.928 413.949 960.743 407.065 1026.9 400.863L1043.38 399.328C1104.64 393.668 1168.85 387.738 1228.42 372.168C1293.38 355.195 1352.88 326.768 1397.11 274.711C1451.91 210.203 1501.24 98.4081 1538.49 -9.84307C1575.72 -118.077 1600.91 -222.842 1607.42 -273.392C1610.62 -284.22 1613.72 -295.077 1616.72 -305.963C1617.73 -309.64 1618.72 -313.321 1619.69 -317.008L1619.84 -317.589L1619.89 -317.772L1619.89 -317.787L1618.98 -318.113L1608.12 -295.023L1608.12 -294.91C1608.17 -289.699 1607.61 -282.504 1606.46 -273.598C1591.35 -222.43 1562.94 -133.777 1523.68 -43.371C1484.41 47.0536 1434.3 139.165 1375.81 197.221C1295.78 276.666 1203.58 294.132 1108.36 308.608C1102.93 309.435 1097.5 310.243 1092.05 311.062C1001.98 324.569 909.696 338.401 823.129 402.166C731.217 469.862 732.087 561.644 740.872 650.608C741.766 659.536 742.703 668.46 743.682 677.379C747.484 712.581 751.193 746.904 749.427 778.695C747.219 818.482 736.451 854.237 706.617 882.722C671.628 916.14 631.683 940.893 588.732 958.701C523.155 961.027 452.198 968.402 379.861 997.749C260.748 999.523 141.126 974.059 51.2612 948.137C14.5861 937.575 -21.6701 925.608 -57.4272 912.263C-67.6484 908.448 -77.8128 904.483 -87.9171 900.369C-91.4352 898.927 -94.1291 897.798 -95.9448 897.025L-98.0025 896.146L-98.5267 895.916L-98.688 895.845L-98.6964 895.841L-98.8974 896.286L-98.703 895.842L-99.5011 895.494L-79.8338 1032.72L-79.7486 1032.83L-79.7075 1032.8L-79.7468 1032.84L-79.7451 1032.84L-79.718 1032.86L-79.6431 1032.96L-79.3335 1033.32C-77.3833 1035.53 -75.3665 1037.69 -73.2861 1039.79C-67.2869 1045.81 -60.9405 1051.47 -54.2796 1056.75C-32.1454 1074.36 -7.19435 1088.11 19.52 1097.41C84.0163 1119.76 178.179 1122.22 296.908 1042.89C324.676 1024.33 352.468 1009.92 380.056 998.715C452.077 997.624 523.932 986.584 588.94 959.663L588.946 959.661ZM382.569 997.707C452.978 969.588 522.052 962.169 586.141 959.765C522.676 985.59 452.757 996.416 382.569 997.707ZM377.411 998.755C258.979 1000.15 140.278 974.827 50.9918 949.071C14.2911 938.5 -21.9908 926.526 -57.7737 913.175C-68.0014 909.355 -78.172 905.384 -88.2823 901.264C-91.8003 899.822 -94.5027 898.688 -96.3251 897.917L-98.2937 897.078L-78.9118 1032.31L-78.9064 1032.33L-78.5987 1032.68L-78.0035 1033.37L-77.3934 1034.05C-76.326 1035.24 -74.7261 1036.96 -72.6005 1039.11C-66.6253 1045.1 -60.3067 1050.74 -53.6769 1055.99C-31.6263 1073.53 -6.77256 1087.22 19.8364 1096.49C84.0341 1118.74 177.884 1121.26 296.364 1042.08C321.879 1024.99 349.028 1010.48 377.411 998.755ZM1608.11 -279.177C1611.39 -290.38 1614.55 -301.618 1617.59 -312.887L1609.09 -294.806C1609.12 -290.723 1608.79 -285.467 1608.11 -279.177ZM91.6094 674.562C129.704 670.61 164.384 662.734 190.572 649.276C267.977 609.517 288.037 541.686 304.367 462.591C305.885 455.266 307.361 447.838 308.859 440.333C323.273 367.929 339.103 288.427 400.392 224.915C500.224 121.46 630.87 117.407 753.451 113.594L765.825 113.211C893.663 109.121 1011.34 101.775 1092.79 -7.58025C1133.35 -62.0366 1143.02 -124.337 1152.96 -188.374C1153.87 -194.198 1154.77 -200.035 1155.7 -205.879C1166.72 -275.067 1181.45 -345.264 1244.71 -398.334C1304.04 -448.111 1393.96 -462.562 1466.76 -465.229C1498.08 -466.309 1529.43 -465.554 1560.65 -462.97C1572.65 -461.984 1582.36 -460.907 1589.1 -460.079C1592.39 -459.674 1595.68 -459.234 1598.97 -458.76L1599.52 -458.679L1599.71 -458.652L1599.73 -458.649L1597.86 -446.669L1596 -434.688L1595.87 -434.711L1595.41 -434.78L1593.53 -435.052C1591.86 -435.288 1589.37 -435.624 1586.14 -436.019C1577 -437.131 1567.84 -438.06 1558.66 -438.807C1535.38 -440.725 1503.22 -442.313 1467.65 -441.005C1395.78 -438.366 1313.03 -424.008 1260.29 -379.762C1204.5 -332.954 1190.65 -271.107 1179.64 -202.066C1178.7 -196.124 1177.77 -190.132 1176.84 -184.089C1167.09 -120.864 1156.57 -52.6279 1112.23 6.89656C1022.99 126.717 893.184 133.392 766.603 137.444L757.109 137.739C632.127 141.676 510.71 145.504 417.834 241.744C361.756 299.866 347.238 372.284 332.563 445.498C331.097 452.83 329.625 460.165 328.107 467.489C311.697 546.976 289.924 625.495 201.653 670.841C171.609 686.272 133.523 694.584 94.1063 698.676C54.5348 702.773 12.7417 702.698 -25.2493 700.82C-67.7604 698.64 -110.132 694.286 -152.198 687.775C-155.612 687.239 -159.022 686.679 -162.428 686.096L-162.98 686.002L-163.174 685.969L-163.182 685.964L-161.055 674.034L-159.23 663.844L-158.914 662.101L-158.89 662.109L-158.772 662.127L-158.272 662.213L-157.198 662.396L-156.265 662.558C-154.484 662.857 -151.848 663.289 -148.437 663.827C-107.217 670.198 -65.6986 674.462 -24.0441 676.604C13.206 678.452 53.6727 678.492 91.6094 674.562Z" fill="#5D86FF"/>
<path opacity="0.5" fill-rule="evenodd" clip-rule="evenodd" d="M106.001 731.14C144.114 727.07 179.826 718.982 207.56 704.732C289.306 662.742 310.05 590.635 326.415 511.381C327.936 504.041 329.413 496.642 330.9 489.204C345.41 416.49 360.72 339.831 419.919 278.481C516.967 177.914 643.913 173.949 767.379 170.091L778.693 169.735C906.023 165.66 1028.56 158.586 1113.12 45.0362C1154.17 -10.0619 1171.07 -75.9024 1187.84 -141.194C1189.89 -149.181 1191.94 -157.154 1194.03 -165.102C1213.16 -237.844 1235.8 -308.088 1296.31 -358.174C1351.35 -403.733 1426.87 -414.645 1488.27 -414.287C1514.29 -414.082 1540.27 -412.032 1566 -408.151C1573.76 -406.991 1581.49 -405.64 1589.18 -404.101C1591.28 -403.679 1593.37 -403.236 1595.46 -402.772L1597.1 -402.399L1597.52 -402.3L1597.63 -402.271L1597.66 -402.265L1597.67 -402.267L1597.09 -399.908L1596.52 -397.548L1596.52 -397.553L1596.49 -397.561L1596.39 -397.585L1595.99 -397.676C1595.63 -397.759 1595.1 -397.886 1594.4 -398.04C1593 -398.355 1590.91 -398.813 1588.22 -399.351C1580.6 -400.874 1572.95 -402.211 1565.27 -403.36C1539.77 -407.204 1514.03 -409.236 1488.25 -409.44C1427.22 -409.793 1353.12 -398.899 1299.4 -354.441C1240.2 -305.439 1217.86 -236.604 1198.72 -163.867C1196.64 -155.949 1194.59 -147.978 1192.54 -139.983C1175.81 -74.788 1158.66 -7.98456 1117.01 47.9442C1030.89 163.57 905.929 170.518 778.845 174.577L768.111 174.92C644.168 178.806 519.065 182.718 423.411 281.844C365.255 342.118 350.207 417.368 335.639 490.233C334.157 497.641 332.684 505.025 331.17 512.363C314.789 591.693 293.699 665.936 209.777 709.049C181.279 723.689 144.9 731.863 106.509 735.958C68.098 740.058 27.5105 740.072 -9.5101 738.283C-50.8548 736.213 -92.0638 731.993 -132.97 725.641C-136.366 725.106 -139.002 724.674 -140.785 724.369L-142.828 724.019L-143.225 723.948L-143.486 723.904L-143.524 723.893L-143.096 721.507L-142.667 719.122L-142.63 719.126L-142.503 719.149L-141.995 719.241L-139.979 719.591C-138.205 719.891 -135.591 720.322 -132.217 720.856C-91.4803 727.179 -50.4425 731.381 -9.26965 733.443C27.5924 735.224 67.9128 735.196 106.001 731.14ZM66.4608 364.165C95.4752 356.846 124.864 341.149 155.776 309.115C206.804 256.239 227.68 189.249 251.611 112.487L255.505 100.034C280.966 18.6774 311.357 -71.1608 386.835 -157.798C441.332 -220.359 509.443 -230.097 579.164 -233.718C589.391 -234.251 599.647 -234.651 609.916 -235.054C670.438 -237.441 731.55 -239.852 791.945 -268.291C869.412 -304.763 903.004 -363.317 937.21 -423.885L938.201 -425.631C971.94 -485.39 1006.95 -547.383 1087.64 -582.015C1170.32 -617.495 1283.92 -615.164 1375.09 -604.682C1414.07 -600.142 1452.83 -593.865 1491.26 -585.872C1505.96 -582.814 1517.8 -580.086 1525.99 -578.118C1529.98 -577.159 1533.95 -576.167 1537.92 -575.143L1538.57 -574.976L1538.74 -574.928L1538.8 -574.916L1535.67 -563.203L1532.55 -551.49L1532.54 -551.489L1532.51 -551.501L1532.37 -551.536L1531.8 -551.688L1529.46 -552.292C1527.39 -552.819 1524.31 -553.588 1520.32 -554.542C1509.03 -557.247 1497.69 -559.779 1486.32 -562.136C1448.62 -569.982 1410.58 -576.144 1372.33 -580.602C1281.64 -591.022 1173.61 -592.524 1097.2 -559.736C1024.11 -528.365 992.635 -472.729 958.32 -411.961C924.163 -351.477 887.386 -286.426 802.272 -246.353C737.052 -215.653 670.505 -213.096 610.101 -210.776C600.027 -210.389 590.122 -210.006 580.42 -209.506C511.778 -205.946 452.684 -196.482 405.108 -141.876C333.165 -59.2887 303.976 26.3485 278.643 107.28C277.18 111.942 275.733 116.608 274.282 121.26C250.855 196.555 228.376 268.8 173.221 325.957C139.462 360.939 106.185 379.151 72.3913 387.679C38.9298 396.118 5.76482 394.827 -27.0329 392.17C-33.195 391.672 -39.3562 391.123 -45.5308 390.578C-105.513 385.255 -166.509 379.841 -238.325 416.735L-249.399 395.169C-171.082 354.938 -103.431 361.017 -43.5327 366.399C-37.2962 366.962 -31.1482 367.514 -25.0747 368.001C7.34564 370.631 37.1161 371.579 66.4626 364.171L66.4608 364.165Z" fill="#5D86FF"/>
<path opacity="0.5" fill-rule="evenodd" clip-rule="evenodd" d="M-178.27 257.987C-169.554 238.954 -155.079 220.94 -129.741 204.15C-88.083 176.547 -40.7469 170.853 11.6786 164.549L20.6491 163.469C76.5283 156.667 137.614 147.78 201.959 109.699C247.1 82.9837 261.168 41.8759 271.83 -2.80356C273.372 -9.2667 274.841 -15.817 276.328 -22.4076C285.121 -61.4689 294.281 -102.166 320.737 -139.034C354.899 -186.644 398.626 -201.927 442.116 -216.903L442.93 -217.186C486.079 -232.05 529.035 -246.841 560.192 -293.603C592.324 -341.829 604.389 -414.714 608.499 -475.161C610.207 -500.897 610.77 -526.696 610.186 -552.482C609.962 -562.392 609.544 -572.296 608.931 -582.189C608.89 -582.883 608.841 -583.578 608.786 -584.271L608.775 -584.418L606.355 -584.232L603.939 -584.033L603.953 -583.901L603.983 -583.497L604.092 -581.867C604.706 -572.047 605.119 -562.215 605.332 -552.377C605.919 -526.738 605.362 -501.085 603.662 -475.495C599.558 -415.134 587.532 -343.377 556.154 -296.293C525.913 -250.894 484.327 -236.57 440.942 -221.628L440.531 -221.489C397.07 -206.513 351.943 -190.848 316.799 -141.858C289.72 -104.125 280.338 -62.3723 271.556 -23.3212C270.087 -16.7709 268.633 -10.296 267.11 -3.9232C256.504 40.5418 242.817 79.8822 199.496 105.526C136.07 143.055 75.8539 151.866 20.0646 158.658L10.7827 159.771C-41.3417 166.03 -89.7697 171.846 -132.425 200.108C-158.439 217.349 -173.546 236.038 -182.676 255.965C-191.773 275.833 -194.851 296.779 -197.045 318.342C-197.453 322.395 -197.842 326.47 -198.225 330.566C-201.937 370.209 -205.859 412.072 -239.501 455.698L-235.669 458.657C-201.124 413.885 -197.091 370.683 -193.395 331.058C-193.009 326.948 -192.627 322.874 -192.22 318.843C-190.035 297.353 -187.011 277.084 -178.268 257.994L-178.27 257.987Z" fill="#5D86FF"/>
</g>
</g>
<rect y="-1" width="1200" height="676" fill="url(#paint0_radial_747_816)"/>
</g>
<defs>
<radialGradient id="paint0_radial_747_816" cx="0" cy="0" r="1" gradientUnits="userSpaceOnUse" gradientTransform="translate(600 509.5) rotate(-164.932) scale(592.368 556.438)">
<stop offset="0.18424" stop-color="#181A2D" stop-opacity="0"/>
<stop offset="1" stop-color="#181A2D" stop-opacity="0.96"/>
</radialGradient>
<clipPath id="clip0_747_816">
<rect width="1200" height="516" fill="white"/>
</clipPath>
<clipPath id="clip1_747_816">
<rect width="1760" height="990" fill="white" transform="translate(-317 -93.4785) rotate(-15)"/>
</clipPath>
</defs>
</svg>
