<svg width="64" height="64" viewBox="0 0 64 64" fill="none" xmlns="http://www.w3.org/2000/svg">
<path d="M35.3951 11.4585C35.3839 11.4696 35.6488 11.586 35.9839 11.7168C36.9387 12.0895 38.6977 13.0058 39.6416 13.6221C41.1888 14.6322 42.2336 15.4787 43.4683 16.7222C43.9152 17.1722 44.3089 17.5443 44.3433 17.5488C44.3777 17.5534 44.5454 17.432 44.7159 17.2793L45.0254 17.0014L44.8096 16.7759C44.484 16.436 43.3496 15.4526 42.7495 14.9897C41.0344 13.6667 39.0328 12.5765 37.1245 11.9267C36.541 11.728 35.4271 11.4264 35.3951 11.4585ZM19.9878 16.9463C19.8535 16.9441 19.7212 16.9473 19.5909 16.9565C17.0034 17.1391 14.897 19.2264 13.0269 23.4609C12.0946 25.572 11.5098 27.7356 11.2427 30.0625C11.145 30.9139 11.1459 33.3471 11.2442 34.1875C11.643 37.5957 12.7041 40.5383 14.5459 43.3437C15.1303 44.2338 15.4656 44.6858 16.0186 45.3291L16.3824 45.7524L16.7847 45.2788C17.006 45.0184 17.1871 44.7846 17.1871 44.7588C17.1871 44.733 17.0175 44.3846 16.8101 43.9848C16.0909 42.599 15.6171 41.3137 15.2168 39.6626C14.4355 36.4395 14.4637 32.5553 15.2857 30.1782C16.2859 27.2857 18.1344 26.1893 20.2876 27.2119C20.889 27.4975 21.2994 27.785 22.312 28.6308C22.7761 29.0185 26.2917 31.9521 30.1245 35.1499C33.9574 38.3476 37.937 41.669 38.9683 42.5307C41.4338 44.5909 42.4146 45.2967 43.7412 45.9648C44.2523 46.2222 45.1356 46.5344 45.687 46.6528C46.1756 46.7577 46.921 46.7729 47.3819 46.6875C47.9078 46.59 48.6072 46.2147 49.003 45.8174C49.4456 45.373 49.9557 44.5459 50.5674 43.2812C51.9179 40.4893 52.5147 37.8337 52.5196 34.5937C52.522 32.985 52.4324 31.9755 52.1529 30.4599C51.4616 26.7115 49.7747 22.8998 47.4161 19.7554C47.1697 19.4269 46.9467 19.1297 46.9204 19.0947C46.8748 19.0339 46.7196 19.1863 46.3384 19.6655L46.1822 19.8618L46.5821 20.478C48.4651 23.3802 49.555 26.288 49.9756 29.5312C50.1055 30.5325 50.1236 32.8575 50.0088 33.8437C49.7772 35.8349 49.1954 38.0963 48.5923 39.3501C48.1202 40.3316 47.4355 40.9759 46.7022 41.1284C45.883 41.2988 44.935 40.908 43.9771 40.0049C43.8101 39.8474 40.1184 35.6069 35.773 30.5815C29.7776 23.648 27.695 21.2809 27.1387 20.7661C24.4661 18.2927 22.0033 16.9795 19.9878 16.9463ZM18.8116 47.0937C18.7913 47.0937 18.6496 47.2016 18.4966 47.3335L18.2183 47.5732L18.5308 47.8579C18.9917 48.278 20.2763 49.2235 21.0122 49.6841C21.3662 49.9056 22.0777 50.3057 22.5933 50.5732C23.465 51.0254 23.7574 51.1601 23.4771 50.9804C21.4536 49.6837 20.4405 48.8673 19.356 47.6592C19.0769 47.3482 18.8318 47.0937 18.8116 47.0937Z" fill="white"/>
<path d="M48.8123 15.1602C48.8639 15.0943 45.6356 17.8073 41.6385 21.189C37.0442 25.0759 34.383 27.3684 34.4031 27.4209C34.4207 27.4666 34.8781 28.021 35.4202 28.6533C35.9623 29.2857 36.4112 29.8051 36.4178 29.8076C36.4293 29.8121 48.6231 15.4018 48.8123 15.1602ZM27.4285 34.2866C27.4004 34.304 24.756 37.4178 21.5521 41.2061C18.3481 44.9943 15.5739 48.2695 15.387 48.4844C15.2002 48.6992 15.0628 48.875 15.0819 48.875C15.1282 48.875 29.9027 36.3738 29.9178 36.3218C29.9368 36.2564 27.4849 34.2518 27.4285 34.2866Z" fill="white"/>
</svg>
