<svg width="256" height="256" viewBox="0 0 256 256" fill="none" xmlns="http://www.w3.org/2000/svg">
<g clip-path="url(#clip0_1253_2)">
<g filter="url(#filter0_f_1253_2)">
<g style="mix-blend-mode:screen">
<path d="M138.201 43.834C138.157 43.8785 139.216 44.3439 140.557 44.8672C144.376 46.3581 151.412 50.0232 155.188 52.4883C161.376 56.5287 165.555 59.9147 170.494 64.8887C172.282 66.6889 173.857 68.1771 173.994 68.1953C174.132 68.2135 174.803 67.728 175.485 67.1172L176.723 66.0058L175.86 65.1035C174.557 63.7439 170.019 59.8104 167.619 57.959C160.759 52.6668 152.752 48.3063 145.119 45.707C142.785 44.9122 138.33 43.7057 138.201 43.834ZM76.5724 65.7851C76.0349 65.7763 75.5058 65.7894 74.9845 65.8262C64.6347 66.5566 56.2092 74.9056 48.7287 91.8437C44.9994 100.288 42.6603 108.942 41.592 118.25C41.201 121.656 41.2045 131.388 41.5978 134.75C43.1929 148.383 47.4374 160.153 54.8048 171.375C57.1424 174.935 58.4835 176.743 60.6955 179.316L62.1505 181.01L63.7599 179.115C64.645 178.074 65.3693 177.138 65.3693 177.035C65.3693 176.932 64.6913 175.538 63.8615 173.939C60.9848 168.396 59.0895 163.255 57.4884 156.65C54.3631 143.758 54.4757 128.221 57.7638 118.713C61.7649 107.143 69.1586 102.757 77.7716 106.848C80.1772 107.99 81.8186 109.14 85.8693 112.523C87.7255 114.074 101.788 125.809 117.119 138.6C132.451 151.391 148.369 164.676 152.494 168.123C162.356 176.364 166.279 179.187 171.586 181.859C173.63 182.889 177.164 184.138 179.369 184.611C181.323 185.031 184.305 185.092 186.149 184.75C188.252 184.36 191.05 182.859 192.633 181.27C194.403 179.492 196.444 176.184 198.891 171.125C204.293 159.957 206.68 149.335 206.699 136.375C206.709 129.94 206.351 125.902 205.233 119.84C202.467 104.846 195.72 89.5992 186.285 77.0215C185.3 75.7077 184.408 74.5188 184.303 74.3789C184.12 74.1355 183.5 74.7452 181.975 76.6621L181.35 77.4473L182.949 79.9121C190.482 91.521 194.841 103.152 196.524 116.125C197.043 120.13 197.115 129.43 196.656 133.375C195.73 141.34 193.403 150.385 190.99 155.4C189.102 159.326 186.363 161.904 183.43 162.514C180.153 163.195 176.361 161.632 172.529 158.02C171.861 157.39 157.095 140.428 139.713 120.326C115.732 92.5923 107.401 83.1238 105.176 81.0644C94.4853 71.1707 84.6345 65.9182 76.5724 65.7851ZM71.8673 186.375C71.7863 186.375 71.2196 186.807 70.6076 187.334L69.4943 188.293L70.7443 189.432C72.5877 191.112 77.7264 194.894 80.6701 196.736C82.0857 197.622 84.9318 199.223 86.9943 200.293C90.4811 202.102 91.6507 202.64 90.5294 201.922C82.4353 196.735 78.3831 193.469 74.0451 188.637C72.9287 187.393 71.9484 186.375 71.8673 186.375Z" fill="#FF0000"/>
<path d="M191.869 58.6406C192.076 58.3771 179.163 69.229 163.174 82.7559C144.797 98.3036 134.152 107.473 134.233 107.684C134.303 107.866 136.133 110.084 138.301 112.613C140.469 115.143 142.265 117.22 142.291 117.23C142.337 117.248 191.113 59.6073 191.869 58.6406ZM106.334 135.146C106.222 135.216 95.6443 147.671 82.8284 162.824C70.0125 177.977 58.9157 191.078 58.1682 191.938C57.4207 192.797 56.8711 193.5 56.9475 193.5C57.133 193.5 116.231 143.495 116.291 143.287C116.367 143.026 106.56 135.007 106.334 135.146Z" fill="#FF0000"/>
</g>
<g style="mix-blend-mode:screen">
<path d="M142.201 45.834C142.157 45.8785 143.216 46.3439 144.557 46.8672C148.376 48.3581 155.412 52.0232 159.188 54.4883C165.376 58.5287 169.555 61.9147 174.494 66.8887C176.282 68.6889 177.857 70.1771 177.994 70.1953C178.132 70.2135 178.803 69.728 179.485 69.1172L180.723 68.0058L179.86 67.1035C178.557 65.7439 174.019 61.8104 171.619 59.959C164.759 54.6668 156.752 50.3063 149.119 47.707C146.785 46.9122 142.33 45.7057 142.201 45.834ZM80.5724 67.7851C80.0349 67.7763 79.5058 67.7894 78.9845 67.8262C68.6347 68.5566 60.2092 76.9056 52.7287 93.8437C48.9994 102.288 46.6603 110.942 45.592 120.25C45.201 123.656 45.2045 133.388 45.5978 136.75C47.1929 150.383 51.4374 162.153 58.8048 173.375C61.1424 176.935 62.4835 178.743 64.6955 181.316L66.1505 183.01L67.7599 181.115C68.645 180.074 69.3693 179.138 69.3693 179.035C69.3693 178.932 68.6913 177.538 67.8615 175.939C64.9848 170.396 63.0895 165.255 61.4884 158.65C58.3631 145.758 58.4757 130.221 61.7638 120.713C65.7649 109.143 73.1586 104.757 81.7716 108.848C84.1772 109.99 85.8186 111.14 89.8693 114.523C91.7255 116.074 105.788 127.809 121.119 140.6C136.451 153.391 152.369 166.676 156.494 170.123C166.356 178.364 170.279 181.187 175.586 183.859C177.63 184.889 181.164 186.138 183.369 186.611C185.323 187.031 188.305 187.092 190.149 186.75C192.252 186.36 195.05 184.859 196.633 183.27C198.403 181.492 200.444 178.184 202.891 173.125C208.293 161.957 210.68 151.335 210.699 138.375C210.709 131.94 210.351 127.902 209.233 121.84C206.467 106.846 199.72 91.5992 190.285 79.0215C189.3 77.7077 188.408 76.5188 188.303 76.3789C188.12 76.1355 187.5 76.7452 185.975 78.6621L185.35 79.4473L186.949 81.9121C194.482 93.521 198.841 105.152 200.524 118.125C201.043 122.13 201.115 131.43 200.656 135.375C199.73 143.34 197.403 152.385 194.99 157.4C193.102 161.326 190.363 163.904 187.43 164.514C184.153 165.195 180.361 163.632 176.529 160.02C175.861 159.39 161.095 142.428 143.713 122.326C119.732 94.5923 111.401 85.1238 109.176 83.0644C98.4853 73.1707 88.6345 67.9182 80.5724 67.7851ZM75.8673 188.375C75.7863 188.375 75.2196 188.807 74.6076 189.334L73.4943 190.293L74.7443 191.432C76.5877 193.112 81.7264 196.894 84.6701 198.736C86.0857 199.622 88.9318 201.223 90.9943 202.293C94.4811 204.102 95.6507 204.64 94.5294 203.922C86.4353 198.735 82.3831 195.469 78.0451 190.637C76.9287 189.393 75.9484 188.375 75.8673 188.375Z" fill="#00FF00"/>
<path d="M195.869 60.6406C196.076 60.3771 183.163 71.229 167.174 84.7559C148.797 100.304 138.152 109.473 138.233 109.684C138.303 109.866 140.133 112.084 142.301 114.613C144.469 117.143 146.265 119.22 146.291 119.23C146.337 119.248 195.113 61.6073 195.869 60.6406ZM110.334 137.146C110.222 137.216 99.6443 149.671 86.8284 164.824C74.0125 179.977 62.9157 193.078 62.1682 193.938C61.4207 194.797 60.8711 195.5 60.9475 195.5C61.133 195.5 120.231 145.495 120.291 145.287C120.367 145.026 110.56 137.007 110.334 137.146Z" fill="#00FF00"/>
</g>
<g style="mix-blend-mode:screen">
<path d="M146.201 47.834C146.157 47.8785 147.216 48.3439 148.557 48.8672C152.376 50.3581 159.412 54.0232 163.188 56.4883C169.376 60.5287 173.555 63.9147 178.494 68.8887C180.282 70.6889 181.857 72.1771 181.994 72.1953C182.132 72.2135 182.803 71.728 183.485 71.1172L184.723 70.0058L183.86 69.1035C182.557 67.7439 178.019 63.8104 175.619 61.959C168.759 56.6668 160.752 52.3063 153.119 49.707C150.785 48.9122 146.33 47.7057 146.201 47.834ZM84.5724 69.7851C84.0349 69.7763 83.5058 69.7894 82.9845 69.8262C72.6347 70.5566 64.2092 78.9056 56.7287 95.8437C52.9994 104.288 50.6603 112.942 49.592 122.25C49.201 125.656 49.2045 135.388 49.5978 138.75C51.1929 152.383 55.4374 164.153 62.8048 175.375C65.1424 178.935 66.4835 180.743 68.6955 183.316L70.1505 185.01L71.7599 183.115C72.645 182.074 73.3693 181.138 73.3693 181.035C73.3693 180.932 72.6913 179.538 71.8615 177.939C68.9848 172.396 67.0895 167.255 65.4884 160.65C62.3631 147.758 62.4757 132.221 65.7638 122.713C69.7649 111.143 77.1586 106.757 85.7716 110.848C88.1772 111.99 89.8186 113.14 93.8693 116.523C95.7255 118.074 109.788 129.809 125.119 142.6C140.451 155.391 156.369 168.676 160.494 172.123C170.356 180.364 174.279 183.187 179.586 185.859C181.63 186.889 185.164 188.138 187.369 188.611C189.323 189.031 192.305 189.092 194.149 188.75C196.252 188.36 199.05 186.859 200.633 185.27C202.403 183.492 204.444 180.184 206.891 175.125C212.293 163.957 214.68 153.335 214.699 140.375C214.709 133.94 214.351 129.902 213.233 123.84C210.467 108.846 203.72 93.5992 194.285 81.0215C193.3 79.7077 192.408 78.5188 192.303 78.3789C192.12 78.1355 191.5 78.7452 189.975 80.6621L189.35 81.4473L190.949 83.9121C198.482 95.521 202.841 107.152 204.524 120.125C205.043 124.13 205.115 133.43 204.656 137.375C203.73 145.34 201.403 154.385 198.99 159.4C197.102 163.326 194.363 165.904 191.43 166.514C188.153 167.195 184.361 165.632 180.529 162.02C179.861 161.39 165.095 144.428 147.713 124.326C123.732 96.5923 115.401 87.1238 113.176 85.0644C102.485 75.1707 92.6345 69.9182 84.5724 69.7851ZM79.8673 190.375C79.7863 190.375 79.2196 190.807 78.6076 191.334L77.4943 192.293L78.7443 193.432C80.5877 195.112 85.7264 198.894 88.6701 200.736C90.0857 201.622 92.9318 203.223 94.9943 204.293C98.4811 206.102 99.6507 206.64 98.5294 205.922C90.4353 200.735 86.3831 197.469 82.0451 192.637C80.9287 191.393 79.9484 190.375 79.8673 190.375Z" fill="#0000FF"/>
<path d="M199.869 62.6406C200.076 62.3771 187.163 73.229 171.174 86.7559C152.797 102.304 142.152 111.473 142.233 111.684C142.303 111.866 144.133 114.084 146.301 116.613C148.469 119.143 150.265 121.22 150.291 121.23C150.337 121.248 199.113 63.6073 199.869 62.6406ZM114.334 139.146C114.222 139.216 103.644 151.671 90.8284 166.824C78.0125 181.977 66.9157 195.078 66.1682 195.938C65.4207 196.797 64.8711 197.5 64.9475 197.5C65.133 197.5 124.231 147.495 124.291 147.287C124.367 147.026 114.56 139.007 114.334 139.146Z" fill="#0000FF"/>
</g>
</g>
<g style="mix-blend-mode:screen">
<path d="M138.201 43.834C138.157 43.8785 139.216 44.3439 140.557 44.8672C144.376 46.3581 151.412 50.0232 155.188 52.4883C161.376 56.5287 165.555 59.9147 170.494 64.8887C172.282 66.6889 173.857 68.1771 173.994 68.1953C174.132 68.2135 174.803 67.728 175.485 67.1172L176.723 66.0058L175.86 65.1035C174.557 63.7439 170.019 59.8104 167.619 57.959C160.759 52.6668 152.752 48.3063 145.119 45.707C142.785 44.9122 138.33 43.7057 138.201 43.834ZM76.5724 65.7851C76.0349 65.7763 75.5058 65.7894 74.9845 65.8262C64.6347 66.5566 56.2092 74.9056 48.7287 91.8437C44.9994 100.288 42.6603 108.942 41.592 118.25C41.201 121.656 41.2045 131.388 41.5978 134.75C43.1929 148.383 47.4374 160.153 54.8048 171.375C57.1424 174.935 58.4835 176.743 60.6955 179.316L62.1505 181.01L63.7599 179.115C64.645 178.074 65.3693 177.138 65.3693 177.035C65.3693 176.932 64.6913 175.538 63.8615 173.939C60.9848 168.396 59.0895 163.255 57.4884 156.65C54.3631 143.758 54.4757 128.221 57.7638 118.713C61.7649 107.143 69.1586 102.757 77.7716 106.848C80.1772 107.99 81.8186 109.14 85.8693 112.523C87.7255 114.074 101.788 125.809 117.119 138.6C132.451 151.391 148.369 164.676 152.494 168.123C162.356 176.364 166.279 179.187 171.586 181.859C173.63 182.889 177.164 184.138 179.369 184.611C181.323 185.031 184.305 185.092 186.149 184.75C188.252 184.36 191.05 182.859 192.633 181.27C194.403 179.492 196.444 176.184 198.891 171.125C204.293 159.957 206.68 149.335 206.699 136.375C206.709 129.94 206.351 125.902 205.233 119.84C202.467 104.846 195.72 89.5992 186.285 77.0215C185.3 75.7077 184.408 74.5188 184.303 74.3789C184.12 74.1355 183.5 74.7452 181.975 76.6621L181.35 77.4473L182.949 79.9121C190.482 91.521 194.841 103.152 196.524 116.125C197.043 120.13 197.115 129.43 196.656 133.375C195.73 141.34 193.403 150.385 190.99 155.4C189.102 159.326 186.363 161.904 183.43 162.514C180.153 163.195 176.361 161.632 172.529 158.02C171.861 157.39 157.095 140.428 139.713 120.326C115.732 92.5923 107.401 83.1238 105.176 81.0644C94.4853 71.1707 84.6345 65.9182 76.5724 65.7851ZM71.8673 186.375C71.7863 186.375 71.2196 186.807 70.6076 187.334L69.4943 188.293L70.7443 189.432C72.5877 191.112 77.7264 194.894 80.6701 196.736C82.0857 197.622 84.9318 199.223 86.9943 200.293C90.4811 202.102 91.6507 202.64 90.5294 201.922C82.4353 196.735 78.3831 193.469 74.0451 188.637C72.9287 187.393 71.9484 186.375 71.8673 186.375Z" fill="#FF0000"/>
<path d="M191.869 58.6406C192.076 58.3771 179.163 69.229 163.174 82.7559C144.797 98.3036 134.152 107.473 134.233 107.684C134.303 107.866 136.133 110.084 138.301 112.613C140.469 115.143 142.265 117.22 142.291 117.23C142.337 117.248 191.113 59.6073 191.869 58.6406ZM106.334 135.146C106.222 135.216 95.6443 147.671 82.8284 162.824C70.0125 177.977 58.9157 191.078 58.1682 191.938C57.4207 192.797 56.8711 193.5 56.9475 193.5C57.133 193.5 116.231 143.495 116.291 143.287C116.367 143.026 106.56 135.007 106.334 135.146Z" fill="#FF0000"/>
</g>
<g style="mix-blend-mode:screen">
<path d="M142.201 45.834C142.157 45.8785 143.216 46.3439 144.557 46.8672C148.376 48.3581 155.412 52.0232 159.188 54.4883C165.376 58.5287 169.555 61.9147 174.494 66.8887C176.282 68.6889 177.857 70.1771 177.994 70.1953C178.132 70.2135 178.803 69.728 179.485 69.1172L180.723 68.0058L179.86 67.1035C178.557 65.7439 174.019 61.8104 171.619 59.959C164.759 54.6668 156.752 50.3063 149.119 47.707C146.785 46.9122 142.33 45.7057 142.201 45.834ZM80.5724 67.7851C80.0349 67.7763 79.5058 67.7894 78.9845 67.8262C68.6347 68.5566 60.2092 76.9056 52.7287 93.8437C48.9994 102.288 46.6603 110.942 45.592 120.25C45.201 123.656 45.2045 133.388 45.5978 136.75C47.1929 150.383 51.4374 162.153 58.8048 173.375C61.1424 176.935 62.4835 178.743 64.6955 181.316L66.1505 183.01L67.7599 181.115C68.645 180.074 69.3693 179.138 69.3693 179.035C69.3693 178.932 68.6913 177.538 67.8615 175.939C64.9848 170.396 63.0895 165.255 61.4884 158.65C58.3631 145.758 58.4757 130.221 61.7638 120.713C65.7649 109.143 73.1586 104.757 81.7716 108.848C84.1772 109.99 85.8186 111.14 89.8693 114.523C91.7255 116.074 105.788 127.809 121.119 140.6C136.451 153.391 152.369 166.676 156.494 170.123C166.356 178.364 170.279 181.187 175.586 183.859C177.63 184.889 181.164 186.138 183.369 186.611C185.323 187.031 188.305 187.092 190.149 186.75C192.252 186.36 195.05 184.859 196.633 183.27C198.403 181.492 200.444 178.184 202.891 173.125C208.293 161.957 210.68 151.335 210.699 138.375C210.709 131.94 210.351 127.902 209.233 121.84C206.467 106.846 199.72 91.5992 190.285 79.0215C189.3 77.7077 188.408 76.5188 188.303 76.3789C188.12 76.1355 187.5 76.7452 185.975 78.6621L185.35 79.4473L186.949 81.9121C194.482 93.521 198.841 105.152 200.524 118.125C201.043 122.13 201.115 131.43 200.656 135.375C199.73 143.34 197.403 152.385 194.99 157.4C193.102 161.326 190.363 163.904 187.43 164.514C184.153 165.195 180.361 163.632 176.529 160.02C175.861 159.39 161.095 142.428 143.713 122.326C119.732 94.5923 111.401 85.1238 109.176 83.0644C98.4853 73.1707 88.6345 67.9182 80.5724 67.7851ZM75.8673 188.375C75.7863 188.375 75.2196 188.807 74.6076 189.334L73.4943 190.293L74.7443 191.432C76.5877 193.112 81.7264 196.894 84.6701 198.736C86.0857 199.622 88.9318 201.223 90.9943 202.293C94.4811 204.102 95.6507 204.64 94.5294 203.922C86.4353 198.735 82.3831 195.469 78.0451 190.637C76.9287 189.393 75.9484 188.375 75.8673 188.375Z" fill="#00FF00"/>
<path d="M195.869 60.6406C196.076 60.3771 183.163 71.229 167.174 84.7559C148.797 100.304 138.152 109.473 138.233 109.684C138.303 109.866 140.133 112.084 142.301 114.613C144.469 117.143 146.265 119.22 146.291 119.23C146.337 119.248 195.113 61.6073 195.869 60.6406ZM110.334 137.146C110.222 137.216 99.6443 149.671 86.8284 164.824C74.0125 179.977 62.9157 193.078 62.1682 193.938C61.4207 194.797 60.8711 195.5 60.9475 195.5C61.133 195.5 120.231 145.495 120.291 145.287C120.367 145.026 110.56 137.007 110.334 137.146Z" fill="#00FF00"/>
</g>
<g style="mix-blend-mode:screen">
<path d="M146.201 47.834C146.157 47.8785 147.216 48.3439 148.557 48.8672C152.376 50.3581 159.412 54.0232 163.188 56.4883C169.376 60.5287 173.555 63.9147 178.494 68.8887C180.282 70.6889 181.857 72.1771 181.994 72.1953C182.132 72.2135 182.803 71.728 183.485 71.1172L184.723 70.0058L183.86 69.1035C182.557 67.7439 178.019 63.8104 175.619 61.959C168.759 56.6668 160.752 52.3063 153.119 49.707C150.785 48.9122 146.33 47.7057 146.201 47.834ZM84.5724 69.7851C84.0349 69.7763 83.5058 69.7894 82.9845 69.8262C72.6347 70.5566 64.2092 78.9056 56.7287 95.8437C52.9994 104.288 50.6603 112.942 49.592 122.25C49.201 125.656 49.2045 135.388 49.5978 138.75C51.1929 152.383 55.4374 164.153 62.8048 175.375C65.1424 178.935 66.4835 180.743 68.6955 183.316L70.1505 185.01L71.7599 183.115C72.645 182.074 73.3693 181.138 73.3693 181.035C73.3693 180.932 72.6913 179.538 71.8615 177.939C68.9848 172.396 67.0895 167.255 65.4884 160.65C62.3631 147.758 62.4757 132.221 65.7638 122.713C69.7649 111.143 77.1586 106.757 85.7716 110.848C88.1772 111.99 89.8186 113.14 93.8693 116.523C95.7255 118.074 109.788 129.809 125.119 142.6C140.451 155.391 156.369 168.676 160.494 172.123C170.356 180.364 174.279 183.187 179.586 185.859C181.63 186.889 185.164 188.138 187.369 188.611C189.323 189.031 192.305 189.092 194.149 188.75C196.252 188.36 199.05 186.859 200.633 185.27C202.403 183.492 204.444 180.184 206.891 175.125C212.293 163.957 214.68 153.335 214.699 140.375C214.709 133.94 214.351 129.902 213.233 123.84C210.467 108.846 203.72 93.5992 194.285 81.0215C193.3 79.7077 192.408 78.5188 192.303 78.3789C192.12 78.1355 191.5 78.7452 189.975 80.6621L189.35 81.4473L190.949 83.9121C198.482 95.521 202.841 107.152 204.524 120.125C205.043 124.13 205.115 133.43 204.656 137.375C203.73 145.34 201.403 154.385 198.99 159.4C197.102 163.326 194.363 165.904 191.43 166.514C188.153 167.195 184.361 165.632 180.529 162.02C179.861 161.39 165.095 144.428 147.713 124.326C123.732 96.5923 115.401 87.1238 113.176 85.0644C102.485 75.1707 92.6345 69.9182 84.5724 69.7851ZM79.8673 190.375C79.7863 190.375 79.2196 190.807 78.6076 191.334L77.4943 192.293L78.7443 193.432C80.5877 195.112 85.7264 198.894 88.6701 200.736C90.0857 201.622 92.9318 203.223 94.9943 204.293C98.4811 206.102 99.6507 206.64 98.5294 205.922C90.4353 200.735 86.3831 197.469 82.0451 192.637C80.9287 191.393 79.9484 190.375 79.8673 190.375Z" fill="#0000FF"/>
<path d="M199.869 62.6406C200.076 62.3771 187.163 73.229 171.174 86.7559C152.797 102.304 142.152 111.473 142.233 111.684C142.303 111.866 144.133 114.084 146.301 116.613C148.469 119.143 150.265 121.22 150.291 121.23C150.337 121.248 199.113 63.6073 199.869 62.6406ZM114.334 139.146C114.222 139.216 103.644 151.671 90.8284 166.824C78.0125 181.977 66.9157 195.078 66.1682 195.938C65.4207 196.797 64.8711 197.5 64.9475 197.5C65.133 197.5 124.231 147.495 124.291 147.287C124.367 147.026 114.56 139.007 114.334 139.146Z" fill="#0000FF"/>
</g>
<g filter="url(#filter1_f_1253_2)">
<g style="mix-blend-mode:screen">
<path d="M138.201 43.834C138.157 43.8785 139.216 44.3439 140.557 44.8672C144.376 46.3581 151.412 50.0232 155.188 52.4883C161.376 56.5287 165.555 59.9147 170.494 64.8887C172.282 66.6889 173.857 68.1771 173.994 68.1953C174.132 68.2135 174.803 67.728 175.485 67.1172L176.723 66.0058L175.86 65.1035C174.557 63.7439 170.019 59.8104 167.619 57.959C160.759 52.6668 152.752 48.3063 145.119 45.707C142.785 44.9122 138.33 43.7057 138.201 43.834ZM76.5724 65.7851C76.0349 65.7763 75.5058 65.7894 74.9845 65.8262C64.6347 66.5566 56.2092 74.9056 48.7287 91.8437C44.9994 100.288 42.6603 108.942 41.592 118.25C41.201 121.656 41.2045 131.388 41.5978 134.75C43.1929 148.383 47.4374 160.153 54.8048 171.375C57.1424 174.935 58.4835 176.743 60.6955 179.316L62.1505 181.01L63.7599 179.115C64.645 178.074 65.3693 177.138 65.3693 177.035C65.3693 176.932 64.6913 175.538 63.8615 173.939C60.9848 168.396 59.0895 163.255 57.4884 156.65C54.3631 143.758 54.4757 128.221 57.7638 118.713C61.7649 107.143 69.1586 102.757 77.7716 106.848C80.1772 107.99 81.8186 109.14 85.8693 112.523C87.7255 114.074 101.788 125.809 117.119 138.6C132.451 151.391 148.369 164.676 152.494 168.123C162.356 176.364 166.279 179.187 171.586 181.859C173.63 182.889 177.164 184.138 179.369 184.611C181.323 185.031 184.305 185.092 186.149 184.75C188.252 184.36 191.05 182.859 192.633 181.27C194.403 179.492 196.444 176.184 198.891 171.125C204.293 159.957 206.68 149.335 206.699 136.375C206.709 129.94 206.351 125.902 205.233 119.84C202.467 104.846 195.72 89.5992 186.285 77.0215C185.3 75.7077 184.408 74.5188 184.303 74.3789C184.12 74.1355 183.5 74.7452 181.975 76.6621L181.35 77.4473L182.949 79.9121C190.482 91.521 194.841 103.152 196.524 116.125C197.043 120.13 197.115 129.43 196.656 133.375C195.73 141.34 193.403 150.385 190.99 155.4C189.102 159.326 186.363 161.904 183.43 162.514C180.153 163.195 176.361 161.632 172.529 158.02C171.861 157.39 157.095 140.428 139.713 120.326C115.732 92.5923 107.401 83.1238 105.176 81.0644C94.4853 71.1707 84.6345 65.9182 76.5724 65.7851ZM71.8673 186.375C71.7863 186.375 71.2196 186.807 70.6076 187.334L69.4943 188.293L70.7443 189.432C72.5877 191.112 77.7264 194.894 80.6701 196.736C82.0857 197.622 84.9318 199.223 86.9943 200.293C90.4811 202.102 91.6507 202.64 90.5294 201.922C82.4353 196.735 78.3831 193.469 74.0451 188.637C72.9287 187.393 71.9484 186.375 71.8673 186.375Z" fill="#FF0000"/>
<path d="M191.869 58.6406C192.076 58.3771 179.163 69.229 163.174 82.7559C144.797 98.3036 134.152 107.473 134.233 107.684C134.303 107.866 136.133 110.084 138.301 112.613C140.469 115.143 142.265 117.22 142.291 117.23C142.337 117.248 191.113 59.6073 191.869 58.6406ZM106.334 135.146C106.222 135.216 95.6443 147.671 82.8284 162.824C70.0125 177.977 58.9157 191.078 58.1682 191.938C57.4207 192.797 56.8711 193.5 56.9475 193.5C57.133 193.5 116.231 143.495 116.291 143.287C116.367 143.026 106.56 135.007 106.334 135.146Z" fill="#FF0000"/>
</g>
<g style="mix-blend-mode:screen">
<path d="M142.201 45.834C142.157 45.8785 143.216 46.3439 144.557 46.8672C148.376 48.3581 155.412 52.0232 159.188 54.4883C165.376 58.5287 169.555 61.9147 174.494 66.8887C176.282 68.6889 177.857 70.1771 177.994 70.1953C178.132 70.2135 178.803 69.728 179.485 69.1172L180.723 68.0058L179.86 67.1035C178.557 65.7439 174.019 61.8104 171.619 59.959C164.759 54.6668 156.752 50.3063 149.119 47.707C146.785 46.9122 142.33 45.7057 142.201 45.834ZM80.5724 67.7851C80.0349 67.7763 79.5058 67.7894 78.9845 67.8262C68.6347 68.5566 60.2092 76.9056 52.7287 93.8437C48.9994 102.288 46.6603 110.942 45.592 120.25C45.201 123.656 45.2045 133.388 45.5978 136.75C47.1929 150.383 51.4374 162.153 58.8048 173.375C61.1424 176.935 62.4835 178.743 64.6955 181.316L66.1505 183.01L67.7599 181.115C68.645 180.074 69.3693 179.138 69.3693 179.035C69.3693 178.932 68.6913 177.538 67.8615 175.939C64.9848 170.396 63.0895 165.255 61.4884 158.65C58.3631 145.758 58.4757 130.221 61.7638 120.713C65.7649 109.143 73.1586 104.757 81.7716 108.848C84.1772 109.99 85.8186 111.14 89.8693 114.523C91.7255 116.074 105.788 127.809 121.119 140.6C136.451 153.391 152.369 166.676 156.494 170.123C166.356 178.364 170.279 181.187 175.586 183.859C177.63 184.889 181.164 186.138 183.369 186.611C185.323 187.031 188.305 187.092 190.149 186.75C192.252 186.36 195.05 184.859 196.633 183.27C198.403 181.492 200.444 178.184 202.891 173.125C208.293 161.957 210.68 151.335 210.699 138.375C210.709 131.94 210.351 127.902 209.233 121.84C206.467 106.846 199.72 91.5992 190.285 79.0215C189.3 77.7077 188.408 76.5188 188.303 76.3789C188.12 76.1355 187.5 76.7452 185.975 78.6621L185.35 79.4473L186.949 81.9121C194.482 93.521 198.841 105.152 200.524 118.125C201.043 122.13 201.115 131.43 200.656 135.375C199.73 143.34 197.403 152.385 194.99 157.4C193.102 161.326 190.363 163.904 187.43 164.514C184.153 165.195 180.361 163.632 176.529 160.02C175.861 159.39 161.095 142.428 143.713 122.326C119.732 94.5923 111.401 85.1238 109.176 83.0644C98.4853 73.1707 88.6345 67.9182 80.5724 67.7851ZM75.8673 188.375C75.7863 188.375 75.2196 188.807 74.6076 189.334L73.4943 190.293L74.7443 191.432C76.5877 193.112 81.7264 196.894 84.6701 198.736C86.0857 199.622 88.9318 201.223 90.9943 202.293C94.4811 204.102 95.6507 204.64 94.5294 203.922C86.4353 198.735 82.3831 195.469 78.0451 190.637C76.9287 189.393 75.9484 188.375 75.8673 188.375Z" fill="#00FF00"/>
<path d="M195.869 60.6406C196.076 60.3771 183.163 71.229 167.174 84.7559C148.797 100.304 138.152 109.473 138.233 109.684C138.303 109.866 140.133 112.084 142.301 114.613C144.469 117.143 146.265 119.22 146.291 119.23C146.337 119.248 195.113 61.6073 195.869 60.6406ZM110.334 137.146C110.222 137.216 99.6443 149.671 86.8284 164.824C74.0125 179.977 62.9157 193.078 62.1682 193.938C61.4207 194.797 60.8711 195.5 60.9475 195.5C61.133 195.5 120.231 145.495 120.291 145.287C120.367 145.026 110.56 137.007 110.334 137.146Z" fill="#00FF00"/>
</g>
<g style="mix-blend-mode:screen">
<path d="M146.201 47.834C146.157 47.8785 147.216 48.3439 148.557 48.8672C152.376 50.3581 159.412 54.0232 163.188 56.4883C169.376 60.5287 173.555 63.9147 178.494 68.8887C180.282 70.6889 181.857 72.1771 181.994 72.1953C182.132 72.2135 182.803 71.728 183.485 71.1172L184.723 70.0058L183.86 69.1035C182.557 67.7439 178.019 63.8104 175.619 61.959C168.759 56.6668 160.752 52.3063 153.119 49.707C150.785 48.9122 146.33 47.7057 146.201 47.834ZM84.5724 69.7851C84.0349 69.7763 83.5058 69.7894 82.9845 69.8262C72.6347 70.5566 64.2092 78.9056 56.7287 95.8437C52.9994 104.288 50.6603 112.942 49.592 122.25C49.201 125.656 49.2045 135.388 49.5978 138.75C51.1929 152.383 55.4374 164.153 62.8048 175.375C65.1424 178.935 66.4835 180.743 68.6955 183.316L70.1505 185.01L71.7599 183.115C72.645 182.074 73.3693 181.138 73.3693 181.035C73.3693 180.932 72.6913 179.538 71.8615 177.939C68.9848 172.396 67.0895 167.255 65.4884 160.65C62.3631 147.758 62.4757 132.221 65.7638 122.713C69.7649 111.143 77.1586 106.757 85.7716 110.848C88.1772 111.99 89.8186 113.14 93.8693 116.523C95.7255 118.074 109.788 129.809 125.119 142.6C140.451 155.391 156.369 168.676 160.494 172.123C170.356 180.364 174.279 183.187 179.586 185.859C181.63 186.889 185.164 188.138 187.369 188.611C189.323 189.031 192.305 189.092 194.149 188.75C196.252 188.36 199.05 186.859 200.633 185.27C202.403 183.492 204.444 180.184 206.891 175.125C212.293 163.957 214.68 153.335 214.699 140.375C214.709 133.94 214.351 129.902 213.233 123.84C210.467 108.846 203.72 93.5992 194.285 81.0215C193.3 79.7077 192.408 78.5188 192.303 78.3789C192.12 78.1355 191.5 78.7452 189.975 80.6621L189.35 81.4473L190.949 83.9121C198.482 95.521 202.841 107.152 204.524 120.125C205.043 124.13 205.115 133.43 204.656 137.375C203.73 145.34 201.403 154.385 198.99 159.4C197.102 163.326 194.363 165.904 191.43 166.514C188.153 167.195 184.361 165.632 180.529 162.02C179.861 161.39 165.095 144.428 147.713 124.326C123.732 96.5923 115.401 87.1238 113.176 85.0644C102.485 75.1707 92.6345 69.9182 84.5724 69.7851ZM79.8673 190.375C79.7863 190.375 79.2196 190.807 78.6076 191.334L77.4943 192.293L78.7443 193.432C80.5877 195.112 85.7264 198.894 88.6701 200.736C90.0857 201.622 92.9318 203.223 94.9943 204.293C98.4811 206.102 99.6507 206.64 98.5294 205.922C90.4353 200.735 86.3831 197.469 82.0451 192.637C80.9287 191.393 79.9484 190.375 79.8673 190.375Z" fill="#0000FF"/>
<path d="M199.869 62.6406C200.076 62.3771 187.163 73.229 171.174 86.7559C152.797 102.304 142.152 111.473 142.233 111.684C142.303 111.866 144.133 114.084 146.301 116.613C148.469 119.143 150.265 121.22 150.291 121.23C150.337 121.248 199.113 63.6073 199.869 62.6406ZM114.334 139.146C114.222 139.216 103.644 151.671 90.8284 166.824C78.0125 181.977 66.9157 195.078 66.1682 195.938C65.4207 196.797 64.8711 197.5 64.9475 197.5C65.133 197.5 124.231 147.495 124.291 147.287C124.367 147.026 114.56 139.007 114.334 139.146Z" fill="#0000FF"/>
</g>
</g>
<g style="mix-blend-mode:darken">
<path d="M79.1253 70.8621C79.585 70.8296 80.0561 70.8178 80.5394 70.8258C87.8434 70.9463 97.2282 75.7732 107.817 85.5732C108.836 86.5155 111.393 89.3004 116.784 95.4292C122.136 101.513 130.209 110.808 142.2 124.675C150.892 134.727 158.931 143.995 164.88 150.829C167.855 154.246 170.309 157.056 172.062 159.052C172.938 160.049 173.641 160.846 174.147 161.415C174.608 161.932 174.992 162.36 175.157 162.516C179.184 166.312 183.619 168.39 187.837 167.513C191.621 166.726 194.763 163.529 196.793 159.308C199.334 154.026 201.701 144.744 202.643 136.647C203.121 132.537 203.047 123.073 202.507 118.909C200.784 105.622 196.312 93.7091 188.627 81.8642L187.812 80.6082C187.881 80.5225 187.947 80.4408 188.011 80.363L188.685 81.2625C197.941 93.6012 204.558 108.563 207.266 123.243C208.361 129.18 208.709 133.095 208.699 139.413C208.68 152.086 206.356 162.41 201.09 173.295C198.65 178.34 196.73 181.379 195.216 182.899C193.905 184.215 191.469 185.512 189.784 185.824C188.217 186.115 185.502 186.065 183.789 185.697C181.752 185.259 178.38 184.068 176.486 183.114C171.399 180.552 167.624 177.858 157.777 169.629C153.651 166.182 137.732 152.896 122.401 140.105C107.069 127.314 93.0071 115.579 91.1514 114.029C87.0714 110.621 85.272 109.337 82.6296 108.082C77.8275 105.801 73.1098 105.802 69.018 108.228C65.03 110.593 61.957 115.076 59.8737 121.1C56.4263 131.069 56.3573 147.014 59.5447 160.162C61.1804 166.91 63.1294 172.204 66.0863 177.902C66.4669 178.635 66.8128 179.32 67.0718 179.849C66.8349 180.145 66.5473 180.495 66.2357 180.861L66.1418 180.972C64.0398 178.521 62.7531 176.785 60.4767 173.318C53.2839 162.363 49.144 150.89 47.5843 137.558C47.4025 136.005 47.302 132.836 47.3008 129.557C47.2996 126.279 47.3978 123.096 47.5789 121.519C48.6247 112.408 50.9115 103.95 54.5582 95.6926C61.9792 78.8892 69.962 71.5088 79.1253 70.8621Z" fill="url(#paint0_linear_1253_2)"/>
<path d="M146.88 116.504L146.278 117.212C145.599 116.425 144.743 115.43 143.819 114.352C142.741 113.095 141.75 111.918 141.023 111.036L140.919 110.91C141.084 110.762 141.266 110.599 141.465 110.422C142.727 109.301 144.615 107.657 147.087 105.528C152.029 101.271 159.279 95.0961 168.466 87.3236C172.354 84.0341 176.06 80.9029 179.44 78.0516C176.229 81.8483 172.755 85.9559 169.287 90.0538C163.14 97.318 157.016 104.551 152.425 109.967C150.13 112.675 148.218 114.928 146.88 116.504Z" fill="url(#paint1_linear_1253_2)"/>
<path d="M117.304 146.278C117.042 146.503 116.75 146.753 116.432 147.025C114.812 148.41 112.5 150.379 109.724 152.737C104.174 157.453 96.7764 163.723 89.3744 169.986C85.276 173.453 81.1766 176.919 77.389 180.118C80.7257 176.176 84.4623 171.76 88.3554 167.157C94.7628 159.581 100.61 152.68 104.869 147.665C106.999 145.157 108.731 143.121 109.937 141.709C110.206 141.395 110.448 141.111 110.662 140.861L110.771 140.945C111.702 141.666 112.932 142.652 114.16 143.656C115.303 144.59 116.432 145.531 117.304 146.278Z" fill="url(#paint2_linear_1253_2)"/>
</g>
</g>
<defs>
<filter id="filter0_f_1253_2" x="29.3008" y="31.8245" width="197.398" height="186.405" filterUnits="userSpaceOnUse" color-interpolation-filters="sRGB">
<feFlood flood-opacity="0" result="BackgroundImageFix"/>
<feBlend mode="normal" in="SourceGraphic" in2="BackgroundImageFix" result="shape"/>
<feGaussianBlur stdDeviation="6" result="effect1_foregroundBlur_1253_2"/>
</filter>
<filter id="filter1_f_1253_2" x="37.3008" y="39.8245" width="181.398" height="170.405" filterUnits="userSpaceOnUse" color-interpolation-filters="sRGB">
<feFlood flood-opacity="0" result="BackgroundImageFix"/>
<feBlend mode="normal" in="SourceGraphic" in2="BackgroundImageFix" result="shape"/>
<feGaussianBlur stdDeviation="2" result="effect1_foregroundBlur_1253_2"/>
</filter>
<linearGradient id="paint0_linear_1253_2" x1="128" y1="66.8234" x2="128" y2="190.012" gradientUnits="userSpaceOnUse">
<stop stop-color="#313858"/>
<stop offset="1" stop-color="#0F111A"/>
</linearGradient>
<linearGradient id="paint1_linear_1253_2" x1="128.406" y1="61.6768" x2="128.406" y2="196.541" gradientUnits="userSpaceOnUse">
<stop stop-color="#313858"/>
<stop offset="1" stop-color="#0F111A"/>
</linearGradient>
<linearGradient id="paint2_linear_1253_2" x1="128.406" y1="61.6768" x2="128.406" y2="196.541" gradientUnits="userSpaceOnUse">
<stop stop-color="#313858"/>
<stop offset="1" stop-color="#0F111A"/>
</linearGradient>
<clipPath id="clip0_1253_2">
<rect width="256" height="256" fill="white"/>
</clipPath>
</defs>
</svg>
