<svg width="753" height="1006" viewBox="0 0 753 1006" fill="none" xmlns="http://www.w3.org/2000/svg">
<g clip-path="url(#clip0_623_2833)">
<path d="M653.427 138H148.427C93.198 138 48.4265 182.772 48.4265 238V743C48.4265 798.228 93.198 843 148.427 843H653.427C708.655 843 753.427 798.228 753.427 743V238C753.427 182.772 708.655 138 653.427 138Z" fill="#181B27"/>
<path d="M653.427 138H148.427C93.198 138 48.4265 182.772 48.4265 238V743C48.4265 798.228 93.198 843 148.427 843H653.427C708.655 843 753.427 798.228 753.427 743V238C753.427 182.772 708.655 138 653.427 138Z" fill="url(#paint0_radial_623_2833)" fill-opacity="0.33"/>
<g filter="url(#filter0_d_623_2833)">
<path opacity="0.5" d="M479.438 100.938L378.227 138.913C375.997 139.762 374.027 141.178 372.511 143.021C370.994 144.865 369.985 147.071 369.581 149.423L330.25 385.75L566.746 346.419C569.08 346.02 571.267 345.01 573.084 343.492C574.9 341.973 576.282 339.999 577.088 337.773L615.062 236.562L479.438 100.938ZM472.656 277.25C465.95 277.25 459.395 275.261 453.819 271.536C448.243 267.81 443.897 262.515 441.331 256.319C438.765 250.124 438.093 243.306 439.401 236.729C440.71 230.152 443.939 224.11 448.681 219.368C453.423 214.627 459.464 211.397 466.041 210.089C472.619 208.781 479.436 209.452 485.632 212.018C491.827 214.585 497.123 218.931 500.848 224.506C504.574 230.082 506.562 236.638 506.562 243.344C506.518 252.323 502.931 260.921 496.582 267.27C490.233 273.619 481.635 277.205 472.656 277.25Z" fill="#72FF80"/>
<path d="M669.313 163.155L552.845 46.6875C547.738 41.6558 540.857 38.8352 533.688 38.8352C526.518 38.8352 519.637 41.6558 514.531 46.6875L471.978 89.2399L373.481 126.198C369.046 127.863 365.128 130.667 362.122 134.327C359.116 137.988 357.128 142.376 356.358 147.05L316.857 383.546C316.506 385.493 316.591 387.493 317.105 389.403C317.619 391.312 318.55 393.085 319.83 394.592C321.111 396.099 322.709 397.304 324.511 398.121C326.312 398.937 328.272 399.344 330.25 399.313H332.454L568.95 359.981C573.624 359.147 578.002 357.116 581.657 354.085C585.311 351.054 588.118 347.128 589.802 342.689L626.76 244.191L669.313 201.47C674.344 196.363 677.165 189.482 677.165 182.313C677.165 175.143 674.344 168.262 669.313 163.155ZM564.373 333.026L369.751 365.406L450.109 285.048C457.005 288.873 464.77 290.858 472.656 290.813C482.045 290.813 491.222 288.029 499.029 282.813C506.835 277.597 512.919 270.183 516.512 261.509C520.104 252.836 521.045 243.291 519.213 234.083C517.381 224.875 512.86 216.417 506.222 209.778C499.583 203.14 491.125 198.619 481.917 196.787C472.709 194.956 463.165 195.896 454.491 199.488C445.817 203.081 438.403 209.165 433.187 216.972C427.972 224.778 425.188 233.955 425.188 243.344C425.142 251.23 427.127 258.995 430.952 265.891L350.594 346.249L382.974 151.627L476.047 116.704L599.296 239.953L564.373 333.026ZM452.313 243.344C452.313 239.32 453.506 235.387 455.741 232.041C457.976 228.696 461.154 226.088 464.871 224.549C468.588 223.009 472.679 222.606 476.625 223.391C480.571 224.176 484.196 226.113 487.042 228.959C489.887 231.804 491.824 235.429 492.609 239.375C493.394 243.321 492.991 247.412 491.451 251.129C489.912 254.846 487.304 258.024 483.959 260.259C480.613 262.494 476.68 263.688 472.656 263.688C467.261 263.688 462.086 261.544 458.271 257.729C454.456 253.914 452.313 248.739 452.313 243.344ZM615.063 217.406L498.595 100.938L533.688 65.8446L650.156 182.313L615.063 217.406Z" fill="#72FF80"/>
</g>
<path d="M572.233 749.714L181.349 568.699C171.576 564.174 159.985 568.427 155.46 578.2C150.934 587.972 155.188 599.563 164.96 604.089L555.844 785.103C565.617 789.629 577.208 785.375 581.733 775.603C586.259 765.83 582.006 754.239 572.233 749.714Z" fill="white" fill-opacity="0.2"/>
<path d="M341.036 719.562L171.335 640.974C161.562 636.449 149.971 640.702 145.446 650.475C140.92 660.247 145.174 671.838 154.946 676.364L324.648 754.951C334.42 759.477 346.011 755.223 350.537 745.451C355.062 735.678 350.809 724.087 341.036 719.562Z" fill="white" fill-opacity="0.1"/>
<path d="M202.455 500.001L90.8422 448.314C81.0697 443.789 69.4788 448.042 64.9532 457.815C60.4276 467.587 64.6811 479.178 74.4537 483.704L186.067 535.391C195.839 539.916 207.43 535.663 211.956 525.89C216.481 516.118 212.228 504.527 202.455 500.001Z" fill="white" fill-opacity="0.1"/>
<path d="M599.757 840.409L487.237 788.302C477.464 783.777 465.873 788.03 461.348 797.803C456.822 807.575 461.076 819.166 470.848 823.692L583.369 875.799C593.141 880.324 604.732 876.071 609.258 866.298C613.783 856.526 609.53 844.935 599.757 840.409Z" fill="white" fill-opacity="0.2"/>
<g filter="url(#filter1_d_623_2833)">
<path d="M430.857 761.157L397.283 745.609C387.51 741.084 375.919 745.337 371.394 755.11C366.868 764.882 371.122 776.473 380.894 780.999L414.469 796.547C424.241 801.072 435.832 796.819 440.358 787.046C444.883 777.274 440.63 765.683 430.857 761.157Z" fill="#72FF80"/>
<path d="M169.696 720.663L58.0832 668.976C48.3106 664.451 36.7197 668.704 32.1942 678.477C27.6686 688.249 31.9221 699.84 41.6946 704.366L153.308 756.053C163.08 760.578 174.671 756.325 179.197 746.552C183.722 736.78 179.469 725.189 169.696 720.663Z" fill="#72FF80"/>
<path d="M464.042 621.416L284.764 538.394C274.991 533.869 263.4 538.122 258.875 547.895C254.349 557.667 258.603 569.258 268.375 573.784L447.654 656.806C457.426 661.331 469.017 657.078 473.543 647.305C478.068 637.533 473.815 625.942 464.042 621.416Z" fill="#72FF80"/>
</g>
<path d="M496.518 871.646L299.608 780.458C289.835 775.933 278.244 780.186 273.719 789.959C269.193 799.731 273.447 811.322 283.219 815.848L480.13 907.035C489.902 911.561 501.493 907.307 506.019 897.535C510.545 887.762 506.291 876.171 496.518 871.646Z" fill="white" fill-opacity="0.2"/>
<path d="M372.252 891.857L175.342 800.669C165.569 796.144 153.978 800.397 149.453 810.17C144.927 819.942 149.181 831.533 158.953 836.059L355.864 927.246C365.636 931.772 377.227 927.518 381.753 917.746C386.279 907.973 382.025 896.382 372.252 891.857Z" fill="white" fill-opacity="0.1"/>
</g>
<defs>
<filter id="filter0_d_623_2833" x="176" y="-44" width="634" height="634" filterUnits="userSpaceOnUse" color-interpolation-filters="sRGB">
<feFlood flood-opacity="0" result="BackgroundImageFix"/>
<feColorMatrix in="SourceAlpha" type="matrix" values="0 0 0 0 0 0 0 0 0 0 0 0 0 0 0 0 0 0 127 0" result="hardAlpha"/>
<feOffset dy="50"/>
<feGaussianBlur stdDeviation="50"/>
<feColorMatrix type="matrix" values="0 0 0 0 0.447059 0 0 0 0 1 0 0 0 0 0.501961 0 0 0 0.5 0"/>
<feBlend mode="normal" in2="BackgroundImageFix" result="effect1_dropShadow_623_2833"/>
<feBlend mode="normal" in="SourceGraphic" in2="effect1_dropShadow_623_2833" result="shape"/>
</filter>
<filter id="filter1_d_623_2833" x="-19.6157" y="511.584" width="544.969" height="361.773" filterUnits="userSpaceOnUse" color-interpolation-filters="sRGB">
<feFlood flood-opacity="0" result="BackgroundImageFix"/>
<feColorMatrix in="SourceAlpha" type="matrix" values="0 0 0 0 0 0 0 0 0 0 0 0 0 0 0 0 0 0 127 0" result="hardAlpha"/>
<feOffset dy="25"/>
<feGaussianBlur stdDeviation="25"/>
<feColorMatrix type="matrix" values="0 0 0 0 0.447059 0 0 0 0 1 0 0 0 0 0.501961 0 0 0 0.25 0"/>
<feBlend mode="normal" in2="BackgroundImageFix" result="effect1_dropShadow_623_2833"/>
<feBlend mode="normal" in="SourceGraphic" in2="effect1_dropShadow_623_2833" result="shape"/>
</filter>
<radialGradient id="paint0_radial_623_2833" cx="0" cy="0" r="1" gradientUnits="userSpaceOnUse" gradientTransform="translate(509.026 207.325) rotate(99.6949) scale(644.885)">
<stop stop-color="#72FF80"/>
<stop offset="1" stop-color="#72FF80" stop-opacity="0"/>
</radialGradient>
<clipPath id="clip0_623_2833">
<rect width="753" height="1006" fill="white"/>
</clipPath>
</defs>
</svg>
