<svg width="755" height="1006" viewBox="0 0 755 1006" fill="none" xmlns="http://www.w3.org/2000/svg">
<g clip-path="url(#clip0)">
<rect x="50" y="118" width="705" height="705" rx="100" fill="#181B27"/>
<rect x="50" y="118" width="705" height="705" rx="100" fill="url(#paint0_radial)" fill-opacity="0.5"/>
<path d="M107.5 420C113.299 420 118 415.523 118 410C118 404.477 113.299 400 107.5 400C101.701 400 97 404.477 97 410C97 415.523 101.701 420 107.5 420Z" fill="white" fill-opacity="0.05"/>
<path d="M159 420C164.523 420 169 415.523 169 410C169 404.477 164.523 400 159 400C153.477 400 149 404.477 149 410C149 415.523 153.477 420 159 420Z" fill="white" fill-opacity="0.05"/>
<path d="M211 420C216.523 420 221 415.523 221 410C221 404.477 216.523 400 211 400C205.477 400 201 404.477 201 410C201 415.523 205.477 420 211 420Z" fill="white" fill-opacity="0.05"/>
<path d="M263 420C268.523 420 273 415.523 273 410C273 404.477 268.523 400 263 400C257.477 400 253 404.477 253 410C253 415.523 257.477 420 263 420Z" fill="white" fill-opacity="0.05"/>
<path d="M314.5 420C320.299 420 325 415.523 325 410C325 404.477 320.299 400 314.5 400C308.701 400 304 404.477 304 410C304 415.523 308.701 420 314.5 420Z" fill="white" fill-opacity="0.05"/>
<path d="M366.5 420C372.299 420 377 415.523 377 410C377 404.477 372.299 400 366.5 400C360.701 400 356 404.477 356 410C356 415.523 360.701 420 366.5 420Z" fill="#63F6FF" fill-opacity="0.25"/>
<path d="M418.5 420C424.299 420 429 415.523 429 410C429 404.477 424.299 400 418.5 400C412.701 400 408 404.477 408 410C408 415.523 412.701 420 418.5 420Z" fill="white" fill-opacity="0.05"/>
<path d="M470 420C475.523 420 480 415.523 480 410C480 404.477 475.523 400 470 400C464.477 400 460 404.477 460 410C460 415.523 464.477 420 470 420Z" fill="white" fill-opacity="0.05"/>
<path d="M522 420C527.523 420 532 415.523 532 410C532 404.477 527.523 400 522 400C516.477 400 512 404.477 512 410C512 415.523 516.477 420 522 420Z" fill="white" fill-opacity="0.05"/>
<path d="M574 420C579.523 420 584 415.523 584 410C584 404.477 579.523 400 574 400C568.477 400 564 404.477 564 410C564 415.523 568.477 420 574 420Z" fill="white" fill-opacity="0.05"/>
<path d="M107.5 473C113.299 473 118 468.299 118 462.5C118 456.701 113.299 452 107.5 452C101.701 452 97 456.701 97 462.5C97 468.299 101.701 473 107.5 473Z" fill="#63F6FF" fill-opacity="0.25"/>
<path d="M159 473C164.523 473 169 468.299 169 462.5C169 456.701 164.523 452 159 452C153.477 452 149 456.701 149 462.5C149 468.299 153.477 473 159 473Z" fill="white" fill-opacity="0.05"/>
<path d="M211 473C216.523 473 221 468.299 221 462.5C221 456.701 216.523 452 211 452C205.477 452 201 456.701 201 462.5C201 468.299 205.477 473 211 473Z" fill="white" fill-opacity="0.05"/>
<path d="M263 473C268.523 473 273 468.299 273 462.5C273 456.701 268.523 452 263 452C257.477 452 253 456.701 253 462.5C253 468.299 257.477 473 263 473Z" fill="#63F6FF" fill-opacity="0.5"/>
<path d="M314.5 473C320.299 473 325 468.299 325 462.5C325 456.701 320.299 452 314.5 452C308.701 452 304 456.701 304 462.5C304 468.299 308.701 473 314.5 473Z" fill="white" fill-opacity="0.05"/>
<path d="M366.5 473C372.299 473 377 468.299 377 462.5C377 456.701 372.299 452 366.5 452C360.701 452 356 456.701 356 462.5C356 468.299 360.701 473 366.5 473Z" fill="white" fill-opacity="0.05"/>
<path d="M418.5 473C424.299 473 429 468.299 429 462.5C429 456.701 424.299 452 418.5 452C412.701 452 408 456.701 408 462.5C408 468.299 412.701 473 418.5 473Z" fill="white" fill-opacity="0.05"/>
<path d="M470 473C475.523 473 480 468.299 480 462.5C480 456.701 475.523 452 470 452C464.477 452 460 456.701 460 462.5C460 468.299 464.477 473 470 473Z" fill="white" fill-opacity="0.05"/>
<path d="M522 473C527.523 473 532 468.299 532 462.5C532 456.701 527.523 452 522 452C516.477 452 512 456.701 512 462.5C512 468.299 516.477 473 522 473Z" fill="#63F6FF" fill-opacity="0.5"/>
<path d="M574 473C579.523 473 584 468.299 584 462.5C584 456.701 579.523 452 574 452C568.477 452 564 456.701 564 462.5C564 468.299 568.477 473 574 473Z" fill="white" fill-opacity="0.05"/>
<path d="M107.5 525C113.299 525 118 520.523 118 515C118 509.477 113.299 505 107.5 505C101.701 505 97 509.477 97 515C97 520.523 101.701 525 107.5 525Z" fill="white" fill-opacity="0.05"/>
<path d="M159 525C164.523 525 169 520.523 169 515C169 509.477 164.523 505 159 505C153.477 505 149 509.477 149 515C149 520.523 153.477 525 159 525Z" fill="#63F6FF" fill-opacity="0.25"/>
<path d="M211 525C216.523 525 221 520.523 221 515C221 509.477 216.523 505 211 505C205.477 505 201 509.477 201 515C201 520.523 205.477 525 211 525Z" fill="white" fill-opacity="0.05"/>
<path d="M263 525C268.523 525 273 520.523 273 515C273 509.477 268.523 505 263 505C257.477 505 253 509.477 253 515C253 520.523 257.477 525 263 525Z" fill="white" fill-opacity="0.05"/>
<path d="M314.5 525C320.299 525 325 520.523 325 515C325 509.477 320.299 505 314.5 505C308.701 505 304 509.477 304 515C304 520.523 308.701 525 314.5 525Z" fill="white" fill-opacity="0.05"/>
<path d="M366.5 525C372.299 525 377 520.523 377 515C377 509.477 372.299 505 366.5 505C360.701 505 356 509.477 356 515C356 520.523 360.701 525 366.5 525Z" fill="white" fill-opacity="0.05"/>
<path d="M418.5 525C424.299 525 429 520.523 429 515C429 509.477 424.299 505 418.5 505C412.701 505 408 509.477 408 515C408 520.523 412.701 525 418.5 525Z" fill="#63F6FF" fill-opacity="0.5"/>
<path d="M470 525C475.523 525 480 520.523 480 515C480 509.477 475.523 505 470 505C464.477 505 460 509.477 460 515C460 520.523 464.477 525 470 525Z" fill="white" fill-opacity="0.05"/>
<path d="M522 525C527.523 525 532 520.523 532 515C532 509.477 527.523 505 522 505C516.477 505 512 509.477 512 515C512 520.523 516.477 525 522 525Z" fill="white" fill-opacity="0.05"/>
<path d="M574 525C579.523 525 584 520.523 584 515C584 509.477 579.523 505 574 505C568.477 505 564 509.477 564 515C564 520.523 568.477 525 574 525Z" fill="white" fill-opacity="0.05"/>
<path d="M107.5 578C113.299 578 118 573.299 118 567.5C118 561.701 113.299 557 107.5 557C101.701 557 97 561.701 97 567.5C97 573.299 101.701 578 107.5 578Z" fill="white" fill-opacity="0.05"/>
<path d="M159 578C164.523 578 169 573.299 169 567.5C169 561.701 164.523 557 159 557C153.477 557 149 561.701 149 567.5C149 573.299 153.477 578 159 578Z" fill="white" fill-opacity="0.05"/>
<path d="M211 578C216.523 578 221 573.299 221 567.5C221 561.701 216.523 557 211 557C205.477 557 201 561.701 201 567.5C201 573.299 205.477 578 211 578Z" fill="#63F6FF" fill-opacity="0.5"/>
<path d="M263 578C268.523 578 273 573.299 273 567.5C273 561.701 268.523 557 263 557C257.477 557 253 561.701 253 567.5C253 573.299 257.477 578 263 578Z" fill="white" fill-opacity="0.05"/>
<path d="M314.5 578C320.299 578 325 573.299 325 567.5C325 561.701 320.299 557 314.5 557C308.701 557 304 561.701 304 567.5C304 573.299 308.701 578 314.5 578Z" fill="white" fill-opacity="0.05"/>
<path d="M366.5 578C372.299 578 377 573.299 377 567.5C377 561.701 372.299 557 366.5 557C360.701 557 356 561.701 356 567.5C356 573.299 360.701 578 366.5 578Z" fill="white" fill-opacity="0.05"/>
<path d="M418.5 578C424.299 578 429 573.299 429 567.5C429 561.701 424.299 557 418.5 557C412.701 557 408 561.701 408 567.5C408 573.299 412.701 578 418.5 578Z" fill="#63F6FF" fill-opacity="0.5"/>
<path d="M470 578C475.523 578 480 573.299 480 567.5C480 561.701 475.523 557 470 557C464.477 557 460 561.701 460 567.5C460 573.299 464.477 578 470 578Z" fill="white" fill-opacity="0.05"/>
<path d="M522 578C527.523 578 532 573.299 532 567.5C532 561.701 527.523 557 522 557C516.477 557 512 561.701 512 567.5C512 573.299 516.477 578 522 578Z" fill="white" fill-opacity="0.05"/>
<path d="M574 578C579.523 578 584 573.299 584 567.5C584 561.701 579.523 557 574 557C568.477 557 564 561.701 564 567.5C564 573.299 568.477 578 574 578Z" fill="white" fill-opacity="0.05"/>
<path d="M107.5 630C113.299 630 118 625.523 118 620C118 614.477 113.299 610 107.5 610C101.701 610 97 614.477 97 620C97 625.523 101.701 630 107.5 630Z" fill="white" fill-opacity="0.05"/>
<path d="M159 630C164.523 630 169 625.523 169 620C169 614.477 164.523 610 159 610C153.477 610 149 614.477 149 620C149 625.523 153.477 630 159 630Z" fill="#63F6FF" fill-opacity="0.5"/>
<path d="M211 630C216.523 630 221 625.523 221 620C221 614.477 216.523 610 211 610C205.477 610 201 614.477 201 620C201 625.523 205.477 630 211 630Z" fill="white" fill-opacity="0.05"/>
<path d="M263 630C268.523 630 273 625.523 273 620C273 614.477 268.523 610 263 610C257.477 610 253 614.477 253 620C253 625.523 257.477 630 263 630Z" fill="white" fill-opacity="0.05"/>
<path d="M314.5 630C320.299 630 325 625.523 325 620C325 614.477 320.299 610 314.5 610C308.701 610 304 614.477 304 620C304 625.523 308.701 630 314.5 630Z" fill="white" fill-opacity="0.05"/>
<path d="M366.5 630C372.299 630 377 625.523 377 620C377 614.477 372.299 610 366.5 610C360.701 610 356 614.477 356 620C356 625.523 360.701 630 366.5 630Z" fill="white" fill-opacity="0.05"/>
<path d="M418.5 630C424.299 630 429 625.523 429 620C429 614.477 424.299 610 418.5 610C412.701 610 408 614.477 408 620C408 625.523 412.701 630 418.5 630Z" fill="white" fill-opacity="0.05"/>
<path d="M470 630C475.523 630 480 625.523 480 620C480 614.477 475.523 610 470 610C464.477 610 460 614.477 460 620C460 625.523 464.477 630 470 630Z" fill="white" fill-opacity="0.05"/>
<path d="M522 630C527.523 630 532 625.523 532 620C532 614.477 527.523 610 522 610C516.477 610 512 614.477 512 620C512 625.523 516.477 630 522 630Z" fill="#63F6FF" fill-opacity="0.25"/>
<path d="M574 630C579.523 630 584 625.523 584 620C584 614.477 579.523 610 574 610C568.477 610 564 614.477 564 620C564 625.523 568.477 630 574 630Z" fill="white" fill-opacity="0.05"/>
<path d="M107.5 683C113.299 683 118 678.299 118 672.5C118 666.701 113.299 662 107.5 662C101.701 662 97 666.701 97 672.5C97 678.299 101.701 683 107.5 683Z" fill="white" fill-opacity="0.05"/>
<path d="M159 683C164.523 683 169 678.299 169 672.5C169 666.701 164.523 662 159 662C153.477 662 149 666.701 149 672.5C149 678.299 153.477 683 159 683Z" fill="white" fill-opacity="0.05"/>
<path d="M211 683C216.523 683 221 678.299 221 672.5C221 666.701 216.523 662 211 662C205.477 662 201 666.701 201 672.5C201 678.299 205.477 683 211 683Z" fill="white" fill-opacity="0.05"/>
<path d="M263 683C268.523 683 273 678.299 273 672.5C273 666.701 268.523 662 263 662C257.477 662 253 666.701 253 672.5C253 678.299 257.477 683 263 683Z" fill="white" fill-opacity="0.05"/>
<path d="M314.5 683C320.299 683 325 678.299 325 672.5C325 666.701 320.299 662 314.5 662C308.701 662 304 666.701 304 672.5C304 678.299 308.701 683 314.5 683Z" fill="white" fill-opacity="0.05"/>
<path d="M366.5 683C372.299 683 377 678.299 377 672.5C377 666.701 372.299 662 366.5 662C360.701 662 356 666.701 356 672.5C356 678.299 360.701 683 366.5 683Z" fill="white" fill-opacity="0.05"/>
<path d="M418.5 683C424.299 683 429 678.299 429 672.5C429 666.701 424.299 662 418.5 662C412.701 662 408 666.701 408 672.5C408 678.299 412.701 683 418.5 683Z" fill="white" fill-opacity="0.05"/>
<path d="M470 683C475.523 683 480 678.299 480 672.5C480 666.701 475.523 662 470 662C464.477 662 460 666.701 460 672.5C460 678.299 464.477 683 470 683Z" fill="#63F6FF" fill-opacity="0.25"/>
<path d="M522 683C527.523 683 532 678.299 532 672.5C532 666.701 527.523 662 522 662C516.477 662 512 666.701 512 672.5C512 678.299 516.477 683 522 683Z" fill="white" fill-opacity="0.05"/>
<path d="M574 683C579.523 683 584 678.299 584 672.5C584 666.701 579.523 662 574 662C568.477 662 564 666.701 564 672.5C564 678.299 568.477 683 574 683Z" fill="white" fill-opacity="0.05"/>
<path d="M107.5 735C113.299 735 118 730.523 118 725C118 719.477 113.299 715 107.5 715C101.701 715 97 719.477 97 725C97 730.523 101.701 735 107.5 735Z" fill="white" fill-opacity="0.05"/>
<path d="M159 735C164.523 735 169 730.523 169 725C169 719.477 164.523 715 159 715C153.477 715 149 719.477 149 725C149 730.523 153.477 735 159 735Z" fill="white" fill-opacity="0.05"/>
<path d="M211 735C216.523 735 221 730.523 221 725C221 719.477 216.523 715 211 715C205.477 715 201 719.477 201 725C201 730.523 205.477 735 211 735Z" fill="#63F6FF" fill-opacity="0.5"/>
<path d="M263 735C268.523 735 273 730.523 273 725C273 719.477 268.523 715 263 715C257.477 715 253 719.477 253 725C253 730.523 257.477 735 263 735Z" fill="white" fill-opacity="0.05"/>
<path d="M314.5 735C320.299 735 325 730.523 325 725C325 719.477 320.299 715 314.5 715C308.701 715 304 719.477 304 725C304 730.523 308.701 735 314.5 735Z" fill="white" fill-opacity="0.05"/>
<path d="M366.5 735C372.299 735 377 730.523 377 725C377 719.477 372.299 715 366.5 715C360.701 715 356 719.477 356 725C356 730.523 360.701 735 366.5 735Z" fill="white" fill-opacity="0.05"/>
<path d="M418.5 735C424.299 735 429 730.523 429 725C429 719.477 424.299 715 418.5 715C412.701 715 408 719.477 408 725C408 730.523 412.701 735 418.5 735Z" fill="white" fill-opacity="0.05"/>
<path d="M470 735C475.523 735 480 730.523 480 725C480 719.477 475.523 715 470 715C464.477 715 460 719.477 460 725C460 730.523 464.477 735 470 735Z" fill="white" fill-opacity="0.05"/>
<path d="M522 735C527.523 735 532 730.523 532 725C532 719.477 527.523 715 522 715C516.477 715 512 719.477 512 725C512 730.523 516.477 735 522 735Z" fill="white" fill-opacity="0.05"/>
<path d="M574 735C579.523 735 584 730.523 584 725C584 719.477 579.523 715 574 715C568.477 715 564 719.477 564 725C564 730.523 568.477 735 574 735Z" fill="#63F6FF" fill-opacity="0.25"/>
<path d="M107.5 788C113.299 788 118 783.299 118 777.5C118 771.701 113.299 767 107.5 767C101.701 767 97 771.701 97 777.5C97 783.299 101.701 788 107.5 788Z" fill="white" fill-opacity="0.05"/>
<path d="M159 788C164.523 788 169 783.299 169 777.5C169 771.701 164.523 767 159 767C153.477 767 149 771.701 149 777.5C149 783.299 153.477 788 159 788Z" fill="white" fill-opacity="0.05"/>
<path d="M211 788C216.523 788 221 783.299 221 777.5C221 771.701 216.523 767 211 767C205.477 767 201 771.701 201 777.5C201 783.299 205.477 788 211 788Z" fill="white" fill-opacity="0.05"/>
<path d="M263 788C268.523 788 273 783.299 273 777.5C273 771.701 268.523 767 263 767C257.477 767 253 771.701 253 777.5C253 783.299 257.477 788 263 788Z" fill="white" fill-opacity="0.05"/>
<path d="M314.5 788C320.299 788 325 783.299 325 777.5C325 771.701 320.299 767 314.5 767C308.701 767 304 771.701 304 777.5C304 783.299 308.701 788 314.5 788Z" fill="white" fill-opacity="0.05"/>
<path d="M366.5 788C372.299 788 377 783.299 377 777.5C377 771.701 372.299 767 366.5 767C360.701 767 356 771.701 356 777.5C356 783.299 360.701 788 366.5 788Z" fill="white" fill-opacity="0.05"/>
<path d="M418.5 788C424.299 788 429 783.299 429 777.5C429 771.701 424.299 767 418.5 767C412.701 767 408 771.701 408 777.5C408 783.299 412.701 788 418.5 788Z" fill="white" fill-opacity="0.05"/>
<path d="M470 788C475.523 788 480 783.299 480 777.5C480 771.701 475.523 767 470 767C464.477 767 460 771.701 460 777.5C460 783.299 464.477 788 470 788Z" fill="white" fill-opacity="0.05"/>
<path d="M522 788C527.523 788 532 783.299 532 777.5C532 771.701 527.523 767 522 767C516.477 767 512 771.701 512 777.5C512 783.299 516.477 788 522 788Z" fill="#63F6FF" fill-opacity="0.5"/>
<path d="M574 788C579.523 788 584 783.299 584 777.5C584 771.701 579.523 767 574 767C568.477 767 564 771.701 564 777.5C564 783.299 568.477 788 574 788Z" fill="white" fill-opacity="0.05"/>
<path d="M107.5 840C113.299 840 118 835.523 118 830C118 824.477 113.299 820 107.5 820C101.701 820 97 824.477 97 830C97 835.523 101.701 840 107.5 840Z" fill="white" fill-opacity="0.05"/>
<path d="M159 840C164.523 840 169 835.523 169 830C169 824.477 164.523 820 159 820C153.477 820 149 824.477 149 830C149 835.523 153.477 840 159 840Z" fill="white" fill-opacity="0.05"/>
<path d="M211 840C216.523 840 221 835.523 221 830C221 824.477 216.523 820 211 820C205.477 820 201 824.477 201 830C201 835.523 205.477 840 211 840Z" fill="white" fill-opacity="0.05"/>
<path d="M263 840C268.523 840 273 835.523 273 830C273 824.477 268.523 820 263 820C257.477 820 253 824.477 253 830C253 835.523 257.477 840 263 840Z" fill="white" fill-opacity="0.05"/>
<path d="M314.5 840C320.299 840 325 835.523 325 830C325 824.477 320.299 820 314.5 820C308.701 820 304 824.477 304 830C304 835.523 308.701 840 314.5 840Z" fill="white" fill-opacity="0.05"/>
<path d="M366.5 840C372.299 840 377 835.523 377 830C377 824.477 372.299 820 366.5 820C360.701 820 356 824.477 356 830C356 835.523 360.701 840 366.5 840Z" fill="white" fill-opacity="0.05"/>
<path d="M418.5 840C424.299 840 429 835.523 429 830C429 824.477 424.299 820 418.5 820C412.701 820 408 824.477 408 830C408 835.523 412.701 840 418.5 840Z" fill="white" fill-opacity="0.05"/>
<path d="M470 840C475.523 840 480 835.523 480 830C480 824.477 475.523 820 470 820C464.477 820 460 824.477 460 830C460 835.523 464.477 840 470 840Z" fill="#63F6FF" fill-opacity="0.5"/>
<path d="M522 840C527.523 840 532 835.523 532 830C532 824.477 527.523 820 522 820C516.477 820 512 824.477 512 830C512 835.523 516.477 840 522 840Z" fill="#63F6FF" fill-opacity="0.25"/>
<path d="M574 840C579.523 840 584 835.523 584 830C584 824.477 579.523 820 574 820C568.477 820 564 824.477 564 830C564 835.523 568.477 840 574 840Z" fill="white" fill-opacity="0.05"/>
<path d="M107.5 893C113.299 893 118 888.299 118 882.5C118 876.701 113.299 872 107.5 872C101.701 872 97 876.701 97 882.5C97 888.299 101.701 893 107.5 893Z" fill="white" fill-opacity="0.05"/>
<path d="M159 893C164.523 893 169 888.299 169 882.5C169 876.701 164.523 872 159 872C153.477 872 149 876.701 149 882.5C149 888.299 153.477 893 159 893Z" fill="white" fill-opacity="0.05"/>
<path d="M211 893C216.523 893 221 888.299 221 882.5C221 876.701 216.523 872 211 872C205.477 872 201 876.701 201 882.5C201 888.299 205.477 893 211 893Z" fill="white" fill-opacity="0.05"/>
<path d="M263 893C268.523 893 273 888.299 273 882.5C273 876.701 268.523 872 263 872C257.477 872 253 876.701 253 882.5C253 888.299 257.477 893 263 893Z" fill="white" fill-opacity="0.05"/>
<path d="M314.5 893C320.299 893 325 888.299 325 882.5C325 876.701 320.299 872 314.5 872C308.701 872 304 876.701 304 882.5C304 888.299 308.701 893 314.5 893Z" fill="white" fill-opacity="0.05"/>
<path d="M366.5 893C372.299 893 377 888.299 377 882.5C377 876.701 372.299 872 366.5 872C360.701 872 356 876.701 356 882.5C356 888.299 360.701 893 366.5 893Z" fill="white" fill-opacity="0.05"/>
<path d="M418.5 893C424.299 893 429 888.299 429 882.5C429 876.701 424.299 872 418.5 872C412.701 872 408 876.701 408 882.5C408 888.299 412.701 893 418.5 893Z" fill="#63F6FF" fill-opacity="0.5"/>
<path d="M470 893C475.523 893 480 888.299 480 882.5C480 876.701 475.523 872 470 872C464.477 872 460 876.701 460 882.5C460 888.299 464.477 893 470 893Z" fill="white" fill-opacity="0.05"/>
<path d="M522 893C527.523 893 532 888.299 532 882.5C532 876.701 527.523 872 522 872C516.477 872 512 876.701 512 882.5C512 888.299 516.477 893 522 893Z" fill="white" fill-opacity="0.05"/>
<path d="M574 893C579.523 893 584 888.299 584 882.5C584 876.701 579.523 872 574 872C568.477 872 564 876.701 564 882.5C564 888.299 568.477 893 574 893Z" fill="white" fill-opacity="0.05"/>
<path d="M355.408 547.248H32.592V922.832H355.408V547.248Z" fill="#1F323C"/>
<path d="M363 510H25C11.1929 510 0 521.193 0 535V618.472C0 632.279 11.1929 643.472 25 643.472H363C376.807 643.472 388 632.279 388 618.472V535C388 521.193 376.807 510 363 510Z" fill="#3D5968"/>
<path d="M363 668.304H25C11.1929 668.304 0 679.497 0 693.304V776.776C0 790.583 11.1929 801.776 25 801.776H363C376.807 801.776 388 790.583 388 776.776V693.304C388 679.497 376.807 668.304 363 668.304Z" fill="#3D5968"/>
<path d="M363 826.608H25C11.1929 826.608 0 837.801 0 851.608V935.08C0 948.887 11.1929 960.08 25 960.08H363C376.807 960.08 388 948.887 388 935.08V851.608C388 837.801 376.807 826.608 363 826.608Z" fill="#3D5968"/>
<path opacity="0.4" d="M271 545.416C271 552.273 276.559 557.832 283.416 557.832C290.273 557.832 295.832 552.273 295.832 545.416C295.832 538.559 290.273 533 283.416 533C276.559 533 271 538.559 271 545.416Z" fill="#63F6FF"/>
<path opacity="0.8" d="M306.696 545.416C306.696 552.273 312.255 557.832 319.112 557.832C325.969 557.832 331.528 552.273 331.528 545.416C331.528 538.559 325.969 533 319.112 533C312.255 533 306.696 538.559 306.696 545.416Z" fill="#63F6FF"/>
<path d="M342.392 545.416C342.392 552.273 347.951 557.832 354.808 557.832C361.665 557.832 367.224 552.273 367.224 545.416C367.224 538.559 361.665 533 354.808 533C347.951 533 342.392 538.559 342.392 545.416Z" fill="#63F6FF"/>
<path opacity="0.4" d="M271 702.168C271 709.025 276.559 714.584 283.416 714.584C290.273 714.584 295.832 709.025 295.832 702.168C295.832 695.311 290.273 689.752 283.416 689.752C276.559 689.752 271 695.311 271 702.168Z" fill="#63F6FF"/>
<path opacity="0.8" d="M306.696 702.168C306.696 709.025 312.255 714.584 319.112 714.584C325.969 714.584 331.528 709.025 331.528 702.168C331.528 695.311 325.969 689.752 319.112 689.752C312.255 689.752 306.696 695.311 306.696 702.168Z" fill="#63F6FF"/>
<path d="M342.392 702.168C342.392 709.025 347.951 714.584 354.808 714.584C361.665 714.584 367.224 709.025 367.224 702.168C367.224 695.311 361.665 689.752 354.808 689.752C347.951 689.752 342.392 695.311 342.392 702.168Z" fill="#63F6FF"/>
<path opacity="0.4" d="M271 858.92C271 865.777 276.559 871.336 283.416 871.336C290.273 871.336 295.832 865.777 295.832 858.92C295.832 852.063 290.273 846.504 283.416 846.504C276.559 846.504 271 852.063 271 858.92Z" fill="#63F6FF"/>
<path opacity="0.8" d="M306.696 858.92C306.696 865.777 312.255 871.336 319.112 871.336C325.969 871.336 331.528 865.777 331.528 858.92C331.528 852.063 325.969 846.504 319.112 846.504C312.255 846.504 306.696 852.063 306.696 858.92Z" fill="#63F6FF"/>
<path d="M342.392 858.92C342.392 865.777 347.951 871.336 354.808 871.336C361.665 871.336 367.224 865.777 367.224 858.92C367.224 852.063 361.665 846.504 354.808 846.504C347.951 846.504 342.392 852.063 342.392 858.92Z" fill="#63F6FF"/>
<g filter="url(#filter0_d)">
<path d="M613.658 130.427C602.166 73.7215 552.916 31 493 31C445.391 31 404.35 58.1179 383.825 97.5518C334.575 102.483 296 144.395 296 195.375C296 249.611 340.317 294 394.5 294H607.916C653.058 294 689.999 257.012 689.999 211.813C690.086 191.044 682.22 171.032 668.02 155.893C653.82 140.755 634.365 131.641 613.658 130.427Z" fill="#63F6FF"/>
</g>
</g>
<defs>
<filter id="filter0_d" x="196" y="-19" width="594" height="463" filterUnits="userSpaceOnUse" color-interpolation-filters="sRGB">
<feFlood flood-opacity="0" result="BackgroundImageFix"/>
<feColorMatrix in="SourceAlpha" type="matrix" values="0 0 0 0 0 0 0 0 0 0 0 0 0 0 0 0 0 0 127 0"/>
<feOffset dy="50"/>
<feGaussianBlur stdDeviation="50"/>
<feColorMatrix type="matrix" values="0 0 0 0 0.388235 0 0 0 0 0.964706 0 0 0 0 1 0 0 0 0.5 0"/>
<feBlend mode="normal" in2="BackgroundImageFix" result="effect1_dropShadow"/>
<feBlend mode="normal" in="SourceGraphic" in2="effect1_dropShadow" result="shape"/>
</filter>
<radialGradient id="paint0_radial" cx="0" cy="0" r="1" gradientUnits="userSpaceOnUse" gradientTransform="translate(510.6 187.325) rotate(99.6511) scale(644.801)">
<stop stop-color="#63F6FF"/>
<stop offset="1" stop-color="#63F6FF" stop-opacity="0"/>
</radialGradient>
<clipPath id="clip0">
<rect width="755" height="1006" fill="white"/>
</clipPath>
</defs>
</svg>
