<svg width="256" height="256" viewBox="0 0 256 256" fill="none" xmlns="http://www.w3.org/2000/svg">
<circle cx="128" cy="128" r="128" fill="url(#paint0_linear)"/>
<g filter="url(#filter0_d)">
<path d="M195.869 63.5456C196.075 63.2821 183.162 74.134 167.174 87.6609C148.797 103.209 138.152 112.378 138.232 112.589C138.303 112.771 140.132 114.989 142.301 117.518C144.469 120.048 146.265 122.125 146.291 122.135C146.337 122.153 195.112 64.5123 195.869 63.5456ZM110.334 140.051C110.221 140.121 99.6441 152.576 86.8281 167.729C74.0122 182.882 62.9155 195.983 62.168 196.842C61.4205 197.702 60.8709 198.405 60.9473 198.405C61.1327 198.405 120.231 148.4 120.291 148.192C120.367 147.931 110.559 139.912 110.334 140.051Z" fill="url(#paint1_radial)"/>
</g>
<g filter="url(#filter1_d)">
<path d="M142.201 48.8069C142.157 48.8515 143.216 49.3168 144.557 49.8401C148.375 51.331 155.412 54.9962 159.187 57.4612C165.376 61.5017 169.555 64.8877 174.494 69.8616C176.282 71.6618 177.857 73.15 177.994 73.1683C178.132 73.1865 178.803 72.701 179.484 72.0901L180.723 70.9788L179.859 70.0765C178.557 68.7168 174.019 64.7833 171.619 62.9319C164.758 57.6397 156.752 53.2792 149.119 50.68C146.785 49.8852 142.329 48.6787 142.201 48.8069ZM80.5722 70.7581C80.0347 70.7492 79.5056 70.7623 78.9843 70.7991C68.6345 71.5295 60.2089 79.8786 52.7284 96.8167C48.9991 105.261 46.6601 113.915 45.5917 123.223C45.2008 126.629 45.2043 136.361 45.5976 139.723C47.1927 153.356 51.4371 165.126 58.8046 176.348C61.1421 179.908 62.4832 181.716 64.6952 184.289L66.1503 185.983L67.7597 184.088C68.6448 183.047 69.3691 182.111 69.3691 182.008C69.3691 181.905 68.691 180.511 67.8612 178.912C64.9846 173.369 63.0892 168.228 61.4882 161.623C58.3628 148.731 58.4755 133.194 61.7636 123.686C65.7646 112.116 73.1584 107.73 81.7714 111.821C84.1769 112.963 85.8183 114.113 89.869 117.496C91.7253 119.047 105.788 130.782 121.119 143.573C136.45 156.364 152.369 169.649 156.494 173.096C166.356 181.336 170.279 184.16 175.586 186.832C177.63 187.862 181.163 189.111 183.369 189.584C185.323 190.004 188.305 190.065 190.148 189.723C192.252 189.333 195.05 187.832 196.633 186.242C198.403 184.465 200.444 181.157 202.891 176.098C208.293 164.93 210.68 154.308 210.699 141.348C210.709 134.913 210.35 130.875 209.232 124.813C206.467 109.819 199.72 94.5722 190.285 81.9944C189.3 80.6806 188.407 79.4917 188.303 79.3519C188.12 79.1084 187.499 79.7182 185.975 81.6351L185.35 82.4202L186.949 84.8851C194.481 96.494 198.841 108.125 200.523 121.098C201.043 125.103 201.115 134.403 200.656 138.348C199.73 146.313 197.402 155.358 194.99 160.373C193.102 164.299 190.363 166.877 187.43 167.487C184.153 168.168 180.361 166.605 176.529 162.992C175.861 162.363 161.094 145.401 143.713 125.299C119.731 97.5652 111.401 88.0968 109.176 86.0374C98.4851 76.1437 88.6342 70.8912 80.5722 70.7581ZM75.8671 191.348C75.786 191.348 75.2194 191.78 74.6073 192.307L73.4941 193.266L74.7441 194.405C76.5875 196.085 81.7261 199.867 84.6698 201.709C86.0855 202.595 88.9315 204.196 90.994 205.266C94.4808 207.075 95.6505 207.613 94.5292 206.895C86.4351 201.708 82.3828 198.442 78.0448 193.61C76.9285 192.366 75.9481 191.348 75.8671 191.348Z" fill="white"/>
</g>
<mask id="mask0" mask-type="alpha" maskUnits="userSpaceOnUse" x="45" y="48" width="166" height="160">
<path d="M142.201 48.8069C142.157 48.8515 143.216 49.3168 144.557 49.8401C148.375 51.331 155.412 54.9962 159.187 57.4612C165.376 61.5017 169.555 64.8877 174.494 69.8616C176.282 71.6618 177.857 73.15 177.994 73.1683C178.132 73.1865 178.803 72.701 179.484 72.0901L180.723 70.9788L179.859 70.0765C178.557 68.7168 174.019 64.7833 171.619 62.9319C164.758 57.6397 156.752 53.2792 149.119 50.68C146.785 49.8852 142.329 48.6787 142.201 48.8069ZM80.5722 70.7581C80.0347 70.7492 79.5056 70.7623 78.9843 70.7991C68.6345 71.5295 60.2089 79.8786 52.7284 96.8167C48.9991 105.261 46.6601 113.915 45.5917 123.223C45.2008 126.629 45.2043 136.361 45.5976 139.723C47.1927 153.356 51.4371 165.126 58.8046 176.348C61.1421 179.908 62.4832 181.716 64.6952 184.289L66.1503 185.983L67.7597 184.088C68.6448 183.047 69.3691 182.111 69.3691 182.008C69.3691 181.905 68.691 180.511 67.8612 178.912C64.9846 173.369 63.0892 168.228 61.4882 161.623C58.3628 148.731 58.4755 133.194 61.7636 123.686C65.7646 112.116 73.1584 107.73 81.7714 111.821C84.1769 112.963 85.8183 114.113 89.869 117.496C91.7253 119.047 105.788 130.782 121.119 143.573C136.45 156.364 152.369 169.649 156.494 173.096C166.356 181.336 170.279 184.16 175.586 186.832C177.63 187.862 181.163 189.111 183.369 189.584C185.323 190.004 188.305 190.065 190.148 189.723C192.252 189.333 195.05 187.832 196.633 186.242C198.403 184.465 200.444 181.157 202.891 176.098C208.293 164.93 210.68 154.308 210.699 141.348C210.709 134.913 210.35 130.875 209.232 124.813C206.467 109.819 199.72 94.5722 190.285 81.9944C189.3 80.6806 188.407 79.4917 188.303 79.3519C188.12 79.1084 187.499 79.7182 185.975 81.6351L185.35 82.4202L186.949 84.8851C194.481 96.494 198.841 108.125 200.523 121.098C201.043 125.103 201.115 134.403 200.656 138.348C199.73 146.313 197.402 155.358 194.99 160.373C193.102 164.299 190.363 166.877 187.43 167.487C184.153 168.168 180.361 166.605 176.529 162.992C175.861 162.363 161.094 145.401 143.713 125.299C119.731 97.5652 111.401 88.0968 109.176 86.0374C98.4851 76.1437 88.6342 70.8912 80.5722 70.7581ZM75.8671 191.348C75.786 191.348 75.2194 191.78 74.6073 192.307L73.4941 193.266L74.7441 194.405C76.5875 196.085 81.7261 199.867 84.6698 201.709C86.0855 202.595 88.9315 204.196 90.994 205.266C94.4808 207.075 95.6505 207.613 94.5292 206.895C86.4351 201.708 82.3828 198.442 78.0448 193.61C76.9285 192.366 75.9481 191.348 75.8671 191.348Z" fill="white"/>
</mask>
<g mask="url(#mask0)">
<g filter="url(#filter2_f)">
<path d="M72.8671 106.677C60.1485 109.625 59.1761 127.591 59.8659 133L86.8314 151.619C114.439 166.653 174.052 196.818 191.643 197.203C213.633 197.685 212.349 133.802 210.583 145.038C208.818 156.274 200.953 174.893 193.73 183.239C187.952 189.916 176.663 184.202 171.74 180.51C150.66 163.015 92.8541 115.527 84.2632 109.084C81.4811 106.998 76.0084 105.948 72.8671 106.677Z" fill="#48547D" fill-opacity="0.5"/>
</g>
</g>
<defs>
<filter id="filter0_d" x="14.8816" y="17.4823" width="227.049" height="226.981" filterUnits="userSpaceOnUse" color-interpolation-filters="sRGB">
<feFlood flood-opacity="0" result="BackgroundImageFix"/>
<feColorMatrix in="SourceAlpha" type="matrix" values="0 0 0 0 0 0 0 0 0 0 0 0 0 0 0 0 0 0 127 0"/>
<feOffset/>
<feGaussianBlur stdDeviation="23.0293"/>
<feColorMatrix type="matrix" values="0 0 0 0 1 0 0 0 0 0 0 0 0 0 0.4 0 0 0 1 0"/>
<feBlend mode="normal" in2="BackgroundImageFix" result="effect1_dropShadow"/>
<feBlend mode="normal" in="SourceGraphic" in2="effect1_dropShadow" result="shape"/>
</filter>
<filter id="filter1_d" x="33.7859" y="48.7975" width="188.428" height="181.434" filterUnits="userSpaceOnUse" color-interpolation-filters="sRGB">
<feFlood flood-opacity="0" result="BackgroundImageFix"/>
<feColorMatrix in="SourceAlpha" type="matrix" values="0 0 0 0 0 0 0 0 0 0 0 0 0 0 0 0 0 0 127 0"/>
<feOffset dy="11.5146"/>
<feGaussianBlur stdDeviation="5.75732"/>
<feColorMatrix type="matrix" values="0 0 0 0 0 0 0 0 0 0 0 0 0 0 0 0 0 0 0.5 0"/>
<feBlend mode="normal" in2="BackgroundImageFix" result="effect1_dropShadow"/>
<feBlend mode="normal" in="SourceGraphic" in2="effect1_dropShadow" result="shape"/>
</filter>
<filter id="filter2_f" x="55.7014" y="102.446" width="159.761" height="98.7599" filterUnits="userSpaceOnUse" color-interpolation-filters="sRGB">
<feFlood flood-opacity="0" result="BackgroundImageFix"/>
<feBlend mode="normal" in="SourceGraphic" in2="BackgroundImageFix" result="shape"/>
<feGaussianBlur stdDeviation="2" result="effect1_foregroundBlur"/>
</filter>
<linearGradient id="paint0_linear" x1="128" y1="0" x2="128" y2="256" gradientUnits="userSpaceOnUse">
<stop stop-color="#2B2F44"/>
<stop offset="1" stop-color="#0F111A"/>
</linearGradient>
<radialGradient id="paint1_radial" cx="0" cy="0" r="1" gradientUnits="userSpaceOnUse" gradientTransform="translate(128.406 129.316) rotate(135.543) scale(84.5058 25.0209)">
<stop offset="0.286458" stop-color="#FF0066"/>
<stop offset="1" stop-color="#6B5FFF"/>
</radialGradient>
</defs>
</svg>
