<svg width="329" height="296" viewBox="0 0 329 296" fill="none" xmlns="http://www.w3.org/2000/svg">
<path d="M23.3744 150.321L4.56347 62.5365H24.2523L33.407 109.313C33.5742 109.898 33.6996 110.693 33.7832 111.696C33.8668 112.699 33.9504 113.368 34.034 113.702C34.1176 113.284 34.2012 112.574 34.2848 111.57C34.3684 110.567 34.4938 109.731 34.661 109.062L45.8222 62.5365H62.5013L73.7879 109.188C73.9551 109.94 74.1223 110.86 74.2895 111.947C74.4567 113.034 74.5403 113.702 74.5403 113.953C74.6239 113.619 74.7075 113.159 74.7911 112.574C74.8747 111.988 74.9583 111.445 75.0419 110.943C75.1255 110.442 75.2091 109.94 75.2928 109.439L84.322 62.5365H104.011L85.0745 150.321H67.0159L54.7261 101.538C54.5589 100.785 54.3081 99.1552 53.9736 96.6471C53.6392 99.4896 53.3884 101.078 53.2212 101.413L41.433 150.321H23.3744ZM136.726 151.826C127.53 151.826 120.256 148.858 114.906 142.922C109.638 136.986 107.005 128.793 107.005 118.342C107.005 107.975 109.68 99.7822 115.031 93.7627C120.382 87.7432 127.613 84.7334 136.726 84.7334C145.756 84.7334 152.904 87.7432 158.171 93.7627C163.521 99.7822 166.197 107.975 166.197 118.342C166.197 128.793 163.563 136.986 158.296 142.922C153.029 148.858 145.839 151.826 136.726 151.826ZM136.726 134.269C140.321 134.269 143.08 132.89 145.003 130.131C147.01 127.288 148.013 123.359 148.013 118.342C148.013 113.326 147.01 109.397 145.003 106.554C143.08 103.712 140.321 102.29 136.726 102.29C133.215 102.29 130.414 103.712 128.324 106.554C126.234 109.397 125.189 113.326 125.189 118.342C125.189 123.359 126.234 127.288 128.324 130.131C130.414 132.89 133.215 134.269 136.726 134.269ZM181.906 150.321V86.2383H200.09V92.007C200.926 90.3349 202.431 88.7047 204.605 87.1162C206.778 85.5277 209.328 84.7334 212.254 84.7334C217.271 84.7334 221.493 86.5309 224.92 90.1259L222.538 106.68C219.026 103.753 215.222 102.29 211.126 102.29C203.768 102.29 200.09 106.721 200.09 115.583V150.321H181.906ZM294.995 150.321H275.181L258.251 118.092L253.486 122.481V150.321H235.302V68.3052L253.486 59.7775V102.29L269.663 86.2383H291.233L271.67 105.175L294.995 150.321Z" fill="white"/>
<path d="M158.322 250.555C157.869 252.491 156.674 253.232 154.739 252.779C150.34 251.749 147.613 246.748 146.558 237.778C145.462 228.983 145.203 223.354 145.78 220.891C146.356 218.427 147.74 215.689 149.931 212.675C158.888 198.996 170.973 183.45 186.187 166.039C201.576 148.669 214.863 134.333 226.048 123.031C237.232 111.73 253.172 95.9734 273.867 75.7623C294.738 55.5923 307.008 43.6169 310.678 39.8359C314.347 36.0549 316.798 34.3087 318.029 34.5971C320.317 35.1327 321.672 39.255 322.094 46.9638C322.543 50.5955 322.582 53.2031 322.211 54.7868C320.728 61.1213 312.967 71.2759 298.93 85.2504C285.068 99.2661 271.738 112.2 258.94 124.052C246.318 135.945 233.463 148.433 220.377 161.517C207.507 174.465 195.488 188.541 184.318 203.744C173.189 218.771 164.88 233.252 159.389 247.186L158.322 250.555Z" fill="#7320FA" fill-opacity="0.5"/>
<g filter="url(#filter0_d)">
<path d="M156.402 179.807C161.951 154.782 164.725 135.985 164.725 123.417V119C164.725 117.075 165.178 115.66 166.084 114.754C167.103 113.735 168.122 113.169 169.141 113.056C170.273 112.829 172.425 112.716 175.595 112.716C178.879 112.716 182.276 113.905 185.786 116.283C189.41 118.661 191.221 121.888 191.221 125.964C191.221 126.757 190.712 131.683 189.693 140.741C188.674 149.8 187.994 161.406 187.655 175.56C191.505 173.975 194.562 172.333 196.827 170.635C199.204 168.823 200.79 167.917 201.582 167.917C202.828 167.917 203.451 169.106 203.451 171.484C203.451 173.749 201.696 176.693 198.185 180.316C194.675 183.827 191.165 186.714 187.655 188.979C187.655 191.47 187.768 195.433 187.994 200.868C188.334 200.642 188.787 200.528 189.353 200.528C190.033 200.528 190.655 200.698 191.221 201.038C191.901 201.378 192.467 201.774 192.92 202.227C193.486 202.68 194.109 203.359 194.788 204.265C195.468 205.058 195.977 205.681 196.317 206.133C196.657 206.586 197.11 207.266 197.676 208.172C198.242 208.964 198.582 209.417 198.695 209.53C200.733 212.588 201.752 215.022 201.752 216.834C201.752 218.533 201.412 220.514 200.733 222.779C198.129 229.46 196.374 235.291 195.468 240.273C195.015 242.651 193.656 243.84 191.391 243.84C188.9 243.84 187.145 243.161 186.126 241.802C185.22 240.556 184.484 239.537 183.918 238.745C183.465 237.952 183.012 236.82 182.559 235.348C182.219 233.876 181.936 232.743 181.71 231.951C181.483 231.045 181.257 229.686 181.03 227.874C180.691 225.496 180.464 223.118 180.351 220.741L180.181 218.023C179.728 212.588 179.162 204.322 178.483 193.225C175.539 194.244 171.009 194.867 164.895 195.093C163.083 203.246 161.215 210.776 159.29 217.683C157.478 224.477 154.421 229.912 150.118 233.989C145.928 238.065 140.776 240.103 134.661 240.103C132.85 240.103 130.698 239.82 128.207 239.254C113.6 235.291 103.636 226.063 98.3136 211.569C96.9548 207.832 96.2754 204.548 96.2754 201.717C96.2754 194.923 99.1062 190.281 104.768 187.79C116.997 182.241 128.943 179.467 140.606 179.467L156.402 179.807ZM177.803 178.108C177.35 168.144 176.897 152.97 176.445 132.588C175.539 137.797 174.123 145.61 172.198 156.028C170.387 166.445 169.028 174.258 168.122 179.467C172.425 179.014 175.652 178.561 177.803 178.108ZM141.625 195.263C127.811 195.263 116.771 196.226 108.505 198.151C103.862 199.056 101.541 200.755 101.541 203.246C101.541 205.171 103.069 207.662 106.127 210.719C109.184 213.777 113.147 216.155 118.016 217.853C122.885 219.438 126.962 220.231 130.245 220.231C133.529 220.231 136.247 219.665 138.398 218.533C140.663 217.4 142.418 216.211 143.663 214.966C145.022 213.72 146.324 211.682 147.57 208.851C149.155 205.341 150.797 200.812 152.496 195.263H141.625ZM257.562 192.376C258.355 192.376 258.751 194.754 258.751 199.509C258.751 204.152 257.166 208.851 253.996 213.607C252.637 216.324 250.429 219.495 247.371 223.118C244.427 226.629 242.446 228.78 241.427 229.573C238.369 231.724 235.878 232.8 233.953 232.8C232.142 232.8 230.783 232.687 229.877 232.46C228.971 232.234 228.065 231.781 227.159 231.101C226.367 230.309 225.687 229.743 225.121 229.403C224.668 228.95 224.045 228.157 223.253 227.025C222.573 225.779 222.12 224.987 221.894 224.647C221.668 224.307 221.158 223.402 220.365 221.93C219.573 220.457 219.176 219.665 219.176 219.552C217.025 215.588 215.949 211.852 215.949 208.342C215.949 204.718 216.232 201.378 216.798 198.32C217.478 195.15 218.497 191.3 219.856 186.771C221.215 182.241 222.064 179.354 222.404 178.108C220.705 180.26 218.44 182.581 215.61 185.072C214.477 185.978 213.232 186.431 211.873 186.431C210.627 186.431 209.552 185.865 208.646 184.732C207.853 183.487 206.777 180.882 205.419 176.919C204.06 172.956 203.38 170.295 203.38 168.936C203.38 167.464 204.286 165.256 206.098 162.312C207.91 159.255 208.985 157.217 209.325 156.198C209.891 154.159 210.74 153.14 211.873 153.14C212.439 153.14 213.798 153.763 215.949 155.009C218.101 156.141 219.516 158.406 220.195 161.803C220.422 163.161 220.931 163.841 221.724 163.841C222.064 163.841 223.026 163.218 224.612 161.972C226.31 160.727 228.122 160.104 230.047 160.104C232.085 160.104 235.086 161.916 239.049 165.539C240.408 166.898 241.087 168.823 241.087 171.314C241.087 173.805 240.917 175.56 240.577 176.58C240.351 177.599 240.068 178.278 239.728 178.618C238.709 179.41 237.916 180.543 237.35 182.015C236.897 183.374 235.369 188.696 232.764 197.981C230.273 207.153 229.028 212.191 229.028 213.097C229.028 214.003 229.367 214.456 230.047 214.456C230.953 214.456 234.576 211.739 240.917 206.303C247.258 200.868 251.844 196.848 254.675 194.244C256.374 192.998 257.336 192.376 257.562 192.376ZM296.737 155.178C300.247 155.178 302.002 157.443 302.002 161.972C302.002 164.237 301.266 165.936 299.794 167.068C296.171 170.352 289.943 172.616 281.111 173.862C279.978 184.619 279.412 193.565 279.412 200.698C279.412 207.832 279.922 211.399 280.941 211.399C281.62 211.399 283.998 209.587 288.074 205.964C292.151 202.34 294.415 200.528 294.868 200.528C296.793 200.528 297.756 203.472 297.756 209.361C297.756 215.136 296.68 220.854 294.529 226.515C292.377 232.177 289.32 235.008 285.357 235.008C283.658 235.008 281.96 234.442 280.261 233.309C278.563 232.064 277.261 230.875 276.355 229.743C275.562 228.497 274.373 226.685 272.788 224.307C271.316 221.93 270.41 220.514 270.07 220.061C267.013 215.872 265.315 211.739 264.975 207.662C264.748 203.472 264.635 198.603 264.635 193.055C264.635 187.507 264.975 181.505 265.654 175.051C262.144 174.938 259.2 173.692 256.822 171.314C254.557 168.936 252.802 166.106 251.557 162.822C250.198 159.425 249.518 157.5 249.518 157.047C249.518 155.575 250.368 154.839 252.066 154.839L268.372 155.858C268.938 152.348 269.844 147.479 271.089 141.251C273.014 132.192 273.977 126.927 273.977 125.455L273.637 122.228C273.637 120.416 274.656 119.51 276.694 119.51C278.733 119.51 281.224 120.529 284.168 122.567C287.112 124.606 288.584 126.53 288.584 128.342C288.584 129.135 288.188 130.72 287.395 133.098C286.376 136.721 285.017 144.308 283.319 155.858L296.737 155.178Z" fill="#FF3C90"/>
</g>
<defs>
<filter id="filter0_d" x="86.2754" y="112.716" width="225.727" height="151.124" filterUnits="userSpaceOnUse" color-interpolation-filters="sRGB">
<feFlood flood-opacity="0" result="BackgroundImageFix"/>
<feColorMatrix in="SourceAlpha" type="matrix" values="0 0 0 0 0 0 0 0 0 0 0 0 0 0 0 0 0 0 127 0"/>
<feOffset dy="10"/>
<feGaussianBlur stdDeviation="5"/>
<feColorMatrix type="matrix" values="0 0 0 0 1 0 0 0 0 0.231373 0 0 0 0 0.564706 0 0 0 0.13 0"/>
<feBlend mode="normal" in2="BackgroundImageFix" result="effect1_dropShadow"/>
<feBlend mode="normal" in="SourceGraphic" in2="effect1_dropShadow" result="shape"/>
</filter>
</defs>
</svg>
